<?xml version="1.0" encoding="utf-8"?>
<!-- Generator: Adobe Illustrator 16.0.0, SVG Export Plug-In . SVG Version: 6.00 Build 0)  -->
<!DOCTYPE svg PUBLIC "-//W3C//DTD SVG 1.1//EN" "http://www.w3.org/Graphics/SVG/1.1/DTD/svg11.dtd">
<svg version="1.1" id="Layer_1" xmlns="http://www.w3.org/2000/svg" xmlns:xlink="http://www.w3.org/1999/xlink" x="0px" y="0px"
	 width="100.89px" height="100.279px" viewBox="0 0 100.89 100.279" enable-background="new 0 0 100.89 100.279"
	 xml:space="preserve">
<path fill="#FEB9E0" d="M28.522,50.454L17.504,71.54c-0.216,0.414-0.201,0.911,0.042,1.312s0.676,0.645,1.144,0.645h63.511
	c0.467,0,0.9-0.244,1.143-0.645s0.259-0.897,0.042-1.312L72.369,50.454c-0.23-0.441-0.688-0.718-1.186-0.718h-9.635
	c4.801-7.819,9.514-16.896,9.514-22.392c0-11.368-9.249-20.617-20.617-20.617s-20.617,9.249-20.617,20.617
	c0,5.496,4.713,14.572,9.514,22.392h-9.634C29.209,49.737,28.753,50.013,28.522,50.454z M50.445,9.402
	c9.895,0,17.943,8.05,17.943,17.943c0,8.668-13.926,28.597-17.943,34.164c-4.017-5.567-17.943-25.496-17.943-34.164
	C32.501,17.451,40.551,9.402,50.445,9.402z M41.017,52.41c4.177,6.549,8.006,11.696,8.357,12.166
	c0.252,0.337,0.649,0.536,1.071,0.536s0.818-0.199,1.07-0.536c0.352-0.47,4.182-5.617,8.357-12.166h10.5l9.62,18.411H20.897
	l9.621-18.411H41.017z"/>
<path fill="#FEB9E0" d="M62.121,27.345c0-6.438-5.238-11.676-11.676-11.676c-6.438,0-11.676,5.238-11.676,11.676
	c0,6.438,5.238,11.676,11.676,11.676C56.882,39.021,62.121,33.783,62.121,27.345z M41.443,27.345c0-4.964,4.038-9.001,9.001-9.001
	s9.002,4.037,9.002,9.001s-4.038,9.002-9.002,9.002S41.443,32.309,41.443,27.345z"/>
</svg>
