<?xml version="1.0" encoding="utf-8"?>
<!-- Generator: Adobe Illustrator 16.0.0, SVG Export Plug-In . SVG Version: 6.00 Build 0)  -->
<!DOCTYPE svg PUBLIC "-//W3C//DTD SVG 1.1//EN" "http://www.w3.org/Graphics/SVG/1.1/DTD/svg11.dtd">
<svg version="1.1"
	 id="Layer_1" xmlns:svg="http://www.w3.org/2000/svg" xmlns:sodipodi="http://sodipodi.sourceforge.net/DTD/sodipodi-0.dtd" xmlns:rdf="http://www.w3.org/1999/02/22-rdf-syntax-ns#" xmlns:cc="http://creativecommons.org/ns#" xmlns:inkscape="http://www.inkscape.org/namespaces/inkscape" xmlns:dc="http://purl.org/dc/elements/1.1/"
	 xmlns="http://www.w3.org/2000/svg" xmlns:xlink="http://www.w3.org/1999/xlink" x="0px" y="0px" width="100.891px"
	 height="100.279px" viewBox="0 0 100.891 100.279" enable-background="new 0 0 100.891 100.279" xml:space="preserve">
<g transform="translate(0,-952.36218)">
	<path fill="#FFC726" d="M20.837,970.012c-2.663,0-4.889,2.151-4.889,4.813v35.299c0,2.66,2.226,4.813,4.889,4.813h59.216
		c2.661,0,4.889-2.153,4.889-4.813v-35.299c0-2.66-2.228-4.813-4.889-4.813H20.837z M21.665,973.22h57.562L51.85,997.689
		c-0.685,0.609-2.125,0.609-2.809,0L21.665,973.22z M19.158,975.276l20.031,17.899l-20.031,16.597V975.276z M81.732,975.276v34.496
		l-20.031-16.597L81.732,975.276z M41.62,995.358l5.29,4.713c2.006,1.793,5.064,1.793,7.07,0l5.289-4.713l19.78,16.37H21.84
		L41.62,995.358L41.62,995.358z"/>
</g>
</svg>
