<?xml version="1.0" encoding="utf-8"?>
<!-- Generator: Adobe Illustrator 16.0.0, SVG Export Plug-In . SVG Version: 6.00 Build 0)  -->
<!DOCTYPE svg PUBLIC "-//W3C//DTD SVG 1.1//EN" "http://www.w3.org/Graphics/SVG/1.1/DTD/svg11.dtd">
<svg version="1.1" id="Layer_1" xmlns="http://www.w3.org/2000/svg" xmlns:xlink="http://www.w3.org/1999/xlink" x="0px" y="0px"
	 width="100.891px" height="100.279px" viewBox="0 0 100.891 100.279" enable-background="new 0 0 100.891 100.279"
	 xml:space="preserve">
<g>
	<path fill="#FFC726" d="M56.429,4.03c-0.886,0.034-1.576,0.778-1.543,1.664c0.032,0.886,0.78,1.58,1.662,1.543
		c6.96-0.283,13.903,2.549,19.063,7.708c5.16,5.159,7.97,12.104,7.708,19.063c-0.032,0.888,0.658,1.632,1.543,1.664
		c0.021,0,0.041,0,0.063,0c0.858,0,1.569-0.679,1.604-1.544c0.293-7.845-2.856-15.664-8.646-21.452
		C72.092,6.887,64.269,3.735,56.429,4.03z"/>
	<path fill="#FFC726" d="M67.642,22.915c2.846,2.849,4.51,6.599,4.812,10.846c0.062,0.848,0.765,1.491,1.6,1.491
		c0.037,0,0.076-0.002,0.115-0.004c0.885-0.063,1.549-0.831,1.485-1.715c-0.355-5.03-2.342-9.487-5.741-12.887
		c-3.4-3.401-7.856-5.39-12.889-5.743c-0.882-0.055-1.65,0.603-1.714,1.487c-0.063,0.884,0.604,1.649,1.487,1.714
		C61.044,18.405,64.794,20.07,67.642,22.915z"/>
	<path fill="#FFC726" d="M74.777,48.753c-1.764-1.764-4.106-2.732-6.603-2.732c-2.491,0-4.837,0.971-6.6,2.732l-2.869,2.867
		c-1.33,1.33-3.437,1.497-5.007,0.398c-2.916-2.039-5.688-4.368-8.242-6.922l0,0c-2.557-2.559-4.886-5.329-6.921-8.24
		c-1.1-1.572-0.933-3.68,0.397-5.007l2.868-2.869c3.64-3.641,3.64-9.563,0-13.2L35.32,9.299c-1.762-1.763-4.105-2.732-6.601-2.732
		c-2.493,0-4.838,0.972-6.601,2.732l-2.956,2.954c-3.656,3.658-5.396,8.793-4.649,13.735c1.024,6.811,3.561,13.77,7.324,20.12
		c2.703,4.583,6.03,8.861,9.889,12.721c3.856,3.856,8.136,7.185,12.717,9.885c6.354,3.771,13.313,6.304,20.123,7.327
		c0.755,0.113,1.515,0.17,2.271,0.17c4.206,0,8.366-1.722,11.464-4.819l2.955-2.955c1.765-1.765,2.734-4.106,2.734-6.603
		c0-2.492-0.972-4.837-2.734-6.601L74.777,48.753z M78.99,66.167l-2.956,2.954c-2.938,2.941-7.048,4.341-10.988,3.748
		c-6.404-0.965-12.962-3.354-18.968-6.917c-4.352-2.566-8.416-5.726-12.082-9.392c-3.667-3.667-6.827-7.731-9.395-12.085
		c-3.56-6-5.949-12.561-6.915-18.967c-0.593-3.938,0.809-8.048,3.747-10.986l2.955-2.954c2.389-2.389,6.273-2.389,8.661,0
		l6.482,6.479c2.388,2.391,2.388,6.274,0,8.663l-2.868,2.868c-2.433,2.434-2.751,6.269-0.759,9.115
		c2.145,3.063,4.594,5.98,7.281,8.671l1.135-1.135l-1.134,1.135c2.686,2.686,5.604,5.135,8.671,7.282
		c2.851,1.993,6.685,1.674,9.115-0.759l2.869-2.868c1.155-1.156,2.694-1.793,4.329-1.793c1.638,0,3.177,0.637,4.332,1.793
		l6.481,6.479c1.156,1.157,1.793,2.696,1.793,4.332C80.781,63.469,80.146,65.009,78.99,66.167z"/>
</g>
</svg>
