<?xml version="1.0" encoding="utf-8"?>
<!-- Generator: Adobe Illustrator 16.0.0, SVG Export Plug-In . SVG Version: 6.00 Build 0)  -->
<!DOCTYPE svg PUBLIC "-//W3C//DTD SVG 1.1//EN" "http://www.w3.org/Graphics/SVG/1.1/DTD/svg11.dtd">
<svg version="1.1" id="Layer_1" xmlns="http://www.w3.org/2000/svg" xmlns:xlink="http://www.w3.org/1999/xlink" x="0px" y="0px"
	 width="100.89px" height="100.279px" viewBox="0 0 100.89 100.279" enable-background="new 0 0 100.89 100.279"
	 xml:space="preserve">
<path fill="#3DC6ED" d="M77.619,29.476c0.652-0.653,0.652-1.711,0-2.364l-2.363-2.363c-0.653-0.652-1.711-0.652-2.364,0
	L50.445,47.195L27.999,24.748c-0.653-0.652-1.711-0.652-2.364,0l-2.363,2.363c-0.653,0.653-0.653,1.711,0,2.364l23.489,23.489
	c0.04,0.051,0.083,0.1,0.13,0.146l2.364,2.364c0.328,0.328,0.76,0.491,1.19,0.489c0.43,0.002,0.861-0.161,1.189-0.489l2.364-2.364
	c0.047-0.047,0.091-0.096,0.13-0.146L77.619,29.476z"/>
</svg>
