<?xml version="1.0" encoding="utf-8"?>
<!-- Generator: Adobe Illustrator 16.0.0, SVG Export Plug-In . SVG Version: 6.00 Build 0)  -->
<!DOCTYPE svg PUBLIC "-//W3C//DTD SVG 1.1//EN" "http://www.w3.org/Graphics/SVG/1.1/DTD/svg11.dtd">
<svg version="1.1" id="Layer_1" xmlns="http://www.w3.org/2000/svg" xmlns:xlink="http://www.w3.org/1999/xlink" x="0px" y="0px"
	 width="100.891px" height="100.279px" viewBox="0 0 100.891 100.279" enable-background="new 0 0 100.891 100.279"
	 xml:space="preserve">
<path fill="#FFFFFF" d="M39.802,12.941c-0.653-0.652-1.712-0.652-2.364,0l-2.363,2.364c-0.652,0.653-0.652,1.711,0,2.363
	L57.528,40.11L35.086,62.562c-0.651,0.652-0.651,1.711,0.001,2.363l2.364,2.362c0.653,0.652,1.711,0.652,2.364,0l23.483-23.495
	c0.052-0.04,0.101-0.083,0.146-0.131l2.363-2.365c0.328-0.328,0.49-0.76,0.488-1.189c0.002-0.431-0.161-0.861-0.489-1.189
	l-2.364-2.363c-0.047-0.047-0.096-0.091-0.146-0.13L39.802,12.941z"/>
</svg>
