<?xml version="1.0" encoding="utf-8"?>
<!-- Generator: Adobe Illustrator 16.0.0, SVG Export Plug-In . SVG Version: 6.00 Build 0)  -->
<!DOCTYPE svg PUBLIC "-//W3C//DTD SVG 1.1//EN" "http://www.w3.org/Graphics/SVG/1.1/DTD/svg11.dtd">
<svg version="1.1" id="Layer_1" xmlns="http://www.w3.org/2000/svg" xmlns:xlink="http://www.w3.org/1999/xlink" x="0px" y="0px"
	 width="100.89px" height="100.279px" viewBox="0 0 100.89 100.279" enable-background="new 0 0 100.89 100.279"
	 xml:space="preserve">
<path fill="#3DC6ED" d="M39.802,12.941c-0.653-0.652-1.711-0.652-2.364,0l-2.363,2.364c-0.652,0.654-0.652,1.711,0,2.364
	L57.528,40.11L35.086,62.562c-0.652,0.653-0.652,1.711,0.001,2.364l2.364,2.362c0.653,0.652,1.711,0.652,2.364,0l23.484-23.495
	c0.051-0.04,0.1-0.083,0.146-0.131l2.363-2.365c0.328-0.328,0.491-0.76,0.489-1.19c0.002-0.43-0.162-0.861-0.49-1.189l-2.364-2.364
	c-0.047-0.046-0.096-0.09-0.146-0.129L39.802,12.941z"/>
</svg>
