<?xml version="1.0" encoding="utf-8"?>
<!-- Generator: Adobe Illustrator 16.0.0, SVG Export Plug-In . SVG Version: 6.00 Build 0)  -->
<!DOCTYPE svg PUBLIC "-//W3C//DTD SVG 1.1//EN" "http://www.w3.org/Graphics/SVG/1.1/DTD/svg11.dtd">
<svg version="1.1" id="Layer_1" xmlns="http://www.w3.org/2000/svg" xmlns:xlink="http://www.w3.org/1999/xlink" x="0px" y="0px"
	 width="841.891px" height="595.281px" viewBox="0 0 841.891 595.281" enable-background="new 0 0 841.891 595.281"
	 xml:space="preserve">
<g>
	<path fill="#FFAB1B" d="M547.442,357.169c12.308,0,22.323-10.016,22.323-22.323s-10.016-22.323-22.323-22.323
		s-22.323,10.016-22.323,22.323S535.135,357.169,547.442,357.169z M547.442,327.404c4.1,0,7.441,3.334,7.441,7.441
		s-3.342,7.441-7.441,7.441s-7.441-3.334-7.441-7.441S543.343,327.404,547.442,327.404z"/>
	<path fill="#FFAB1B" d="M623.043,303.429c-2.255-5.402-1.057-11.541,3.043-15.648l10.827-10.834l-31.58-31.58l-10.841,10.834
		c-4.101,4.107-10.246,5.298-15.932,2.917c-5.343-2.202-8.795-7.366-8.795-13.155v-15.292h-15.262
		c-0.677-12.002-2.902-23.603-6.593-34.593l86.107-86.107c11.348-11.348,17.598-26.431,17.598-42.473
		c0-33.113-26.943-60.057-60.056-60.057c-16.043,0-31.126,6.25-42.466,17.591l-86.019,86.025c-11.124-3.735-22.918-5.908-35.1-6.556
		c-10.269-17.94-29.563-30.092-51.678-30.092c-5.662,0-11.124,0.849-16.325,2.329c-12.844-24.146-37.793-39.534-65.525-39.534
		c-41.03,0-74.41,33.381-74.41,74.41c0,5.7,0.699,11.311,1.972,16.802c-18.342,5.551-31.735,22.599-31.735,42.727
		c0,24.622,20.023,44.646,44.646,44.646h53.978c-1.235,7.359-1.891,14.83-1.891,22.323c0,16.378,3.028,29.704,7.917,41.089
		l-66.381,66.39l-36.938,96.033c-0.885,2.292-1.331,4.703-1.331,7.166c0,11.027,8.974,19.993,19.993,19.993
		c2.463,0,4.874-0.453,7.174-1.331l96.033-36.938l48.538-48.545c-0.365,1.6-0.596,3.252-0.596,4.963
		c0,5.737,2.24,10.924,5.804,14.882c-3.571,3.959-5.804,9.146-5.804,14.882c0,10.344,7.106,18.99,16.668,21.505
		c6.34,18.156,23.32,30.582,42.86,30.582s36.521-12.426,42.86-30.582c9.562-2.515,16.668-11.161,16.668-21.505
		c0-0.558-0.127-1.078-0.164-1.622l9.242,9.242l10.841-10.834c4.101-4.107,10.225-5.306,15.924-2.932
		c5.343,2.225,8.803,7.389,8.803,13.178v15.291h44.646v-15.291c0-5.789,3.46-10.961,9.093-13.29
		c5.402-2.247,11.541-1.063,15.641,3.044l10.834,10.834l31.58-31.58l-10.827-10.834c-4.1-4.107-5.298-10.246-2.924-15.931
		c2.21-5.343,7.374-8.803,13.163-8.803h15.291v-44.646h-15.291C630.536,312.522,625.372,309.062,623.043,303.429z M511.547,325.366
		c8.118-7.925,16.251-16.021,23.268-25.382c4.049-1.473,8.26-2.344,12.628-2.344c20.515,0,37.205,16.69,37.205,37.205
		s-16.69,37.205-37.205,37.205s-37.205-16.69-37.205-37.205C510.237,331.624,510.736,328.454,511.547,325.366z M520.483,149.103
		l34.4-34.407l26.683,26.683l-39.742,39.743C536.251,169.425,529.048,158.665,520.483,149.103z M528.2,66.969l11.801-11.802
		l63.889,63.889l-11.802,11.801L528.2,66.969z M591.56,22.323c24.904,0,45.174,20.27,45.174,45.175
		c0,12.062-4.695,23.409-13.23,31.943l-9.093,9.094l-63.888-63.889l9.093-9.093C568.15,27.026,579.491,22.323,591.56,22.323z
		 M517.678,77.491l26.683,26.683l-34.385,34.386c-9.554-8.572-20.307-15.783-32.004-21.363L517.678,77.491z M540.001,238.112
		c0,38.716-19.495,57.734-40.137,77.863c-14.212,13.862-28.812,28.193-37.309,49.08c-1.422-0.29-2.895-0.446-4.405-0.446h-29.764
		v-37.205c0-12.307-10.017-22.322-22.323-22.322H391.18c-4.1,0-7.44-3.334-7.44-7.441s3.341-7.441,7.44-7.441h74.411
		c12.307,0,22.322-10.016,22.322-22.323c0-12.307-10.016-22.322-22.322-22.322h-59.528c-4.101,0-7.441-3.334-7.441-7.441v-22.323
		h37.205c20.515,0,37.205-16.689,37.205-37.205c0-20.515-16.69-37.205-37.205-37.205c-0.208,0-0.401,0.06-0.61,0.06
		c0.32-2.485,0.61-4.97,0.61-7.5c0-4.866-0.654-9.577-1.756-14.108C493.39,126.437,540.001,177.349,540.001,238.112z
		 M376.299,386.932c0-4.107,3.341-7.441,7.441-7.441h74.41c4.1,0,7.441,3.334,7.441,7.441s-3.342,7.441-7.441,7.441h-74.41
		C379.639,394.374,376.299,391.04,376.299,386.932z M282.646,386.932l54.699-54.699c9.152,9.078,17.649,18.261,23.915,29.444
		l-51.931,51.938L282.646,386.932z M205.156,171.143c0-16.415,13.349-29.765,29.764-29.765s29.764,13.35,29.764,29.765h14.883
		c0-23.976-19.012-43.545-42.741-44.55c-1.266-4.866-1.905-9.889-1.905-14.979c0-32.822,26.706-59.528,59.528-59.528
		c21.765,0,41.409,11.832,51.856,30.516c-15.864,9.309-27.07,25.701-29.161,44.832c-12.992,3.2-22.695,14.86-22.695,28.827h14.882
		c0-8.208,6.675-14.883,14.882-14.883c8.208,0,14.882,6.675,14.882,14.883h14.882c0-13.654-9.286-25.062-21.839-28.559
		c3.051-21.669,21.661-38.411,44.162-38.411c24.622,0,44.646,20.024,44.646,44.646c0,3.914-0.641,7.746-1.638,11.481
		c-12.203,6.109-20.686,18.609-20.686,33.164h14.882c0-12.307,10.016-22.322,22.323-22.322s22.323,10.016,22.323,22.322
		c0,12.308-10.016,22.323-22.323,22.323H234.92C218.505,200.907,205.156,187.558,205.156,171.143z M383.74,215.789v22.323
		c0,12.308,10.016,22.323,22.323,22.323h59.528c4.1,0,7.44,3.333,7.44,7.44s-3.341,7.441-7.44,7.441H391.18
		c-12.307,0-22.322,10.016-22.322,22.323s10.016,22.323,22.322,22.323h14.883c4.1,0,7.44,3.333,7.44,7.44v37.205H383.74
		c-1.511,0-2.984,0.156-4.405,0.446c-8.498-20.887-23.097-35.218-37.31-49.08c-20.641-20.129-40.137-39.147-40.137-77.863
		c0-7.522,0.9-14.979,2.292-22.323H383.74z M326.719,321.816l-54.595,54.595l-26.684-26.684l56.775-56.775
		C309.203,303.921,317.865,313.073,326.719,321.816z M237.755,363.084l58.219,58.219l-49.289,18.96l-27.89-27.89L237.755,363.084z
		 M212.105,453.559c-3.222,1.25-6.949-1.317-6.949-4.77c0-0.633,0.119-1.25,0.335-1.831l7.455-19.391l18.536,18.535L212.105,453.559
		z M420.945,453.901c-10.99,0-20.79-5.849-26.223-14.882h52.444C441.735,448.052,431.935,453.901,420.945,453.901z M458.15,424.137
		h-74.41c-4.101,0-7.441-3.334-7.441-7.441s3.341-7.44,7.441-7.44h74.41c4.1,0,7.441,3.333,7.441,7.44
		S462.25,424.137,458.15,424.137z M636.734,342.287h-0.409c-11.839,0-22.405,7.068-27.019,18.245
		c-4.583,10.99-2.128,23.506,6.251,31.892l0.313,0.313l-10.537,10.537l-0.313-0.313c-8.394-8.394-20.924-10.856-32.138-6.154
		c-10.931,4.524-17.999,15.083-17.999,26.922v0.409h-14.883v-0.409c0-11.839-7.068-22.405-18.245-27.025
		c-11.005-4.592-23.521-2.129-31.899,6.258l-0.313,0.313l-10.083-10.083c0.596-2.002,1.013-4.07,1.013-6.258
		c0-5.283-1.92-10.075-5.001-13.907c4.629-12.493,11.884-22.486,20.329-31.714c3.2,25.672,25.113,45.621,51.641,45.621
		c28.723,0,52.087-23.372,52.087-52.087s-23.364-52.087-52.087-52.087c-0.729,0-1.437,0.074-2.158,0.104
		c5.038-10.454,8.498-22.576,9.368-37.309h0.231v0.409c0,11.838,7.068,22.412,18.237,27.018c10.983,4.599,23.514,2.144,31.899-6.25
		l0.313-0.313l10.537,10.536l-0.313,0.313c-8.379,8.387-10.834,20.909-6.154,32.131c4.517,10.938,15.083,18.007,26.922,18.007h0.409
		V342.287z"/>
</g>
</svg>
