<svg width="60" height="69" viewBox="0 0 60 69" fill="none" xmlns="http://www.w3.org/2000/svg">
<path d="M42.9999 67V20" stroke="#E59203" stroke-width="1.5"/>
<path d="M42.5882 19.4808L52.4456 30.0532L59 22.5919L57.8955 9.64928L47.4909 1.56272L38.9512 1L29.7535 3.58439L22.5703 8.39879L12.9627 18.4027L4.92416 33.3149L1 49.79L6.51761 67L42.5598 19.3764" stroke="#E59203" stroke-width="1.5"/>
<path d="M43 19L59 22" stroke="#E59203" stroke-width="1.5"/>
<path d="M57 10L42 20" stroke="#E59203" stroke-width="1.5"/>
<path d="M43 20L48 2" stroke="#E59203" stroke-width="1.5"/>
<path d="M43 20L39 1" stroke="#E59203" stroke-width="1.5"/>
<path d="M43 20L30 4" stroke="#E59203" stroke-width="1.5"/>
<path d="M43 20L23 9" stroke="#E59203" stroke-width="1.5"/>
<path d="M42 20L13 19" stroke="#E59203" stroke-width="1.5"/>
<path d="M42 20L5 34" stroke="#E59203" stroke-width="1.5"/>
<path d="M43 19L1 50" stroke="#E59203" stroke-width="1.5"/>
<path d="M8.85561 64L4 47.8175L8.85561 32.0326L16.7518 18.8107L26.0581 10.8405L32.1438 7.0762L39.3725 5L46.1019 5.70501L54.1574 12.125L55 22.1647L49.6409 27.6999" stroke="#E59203" stroke-width="1.5"/>
</svg>
