<?xml version="1.0" encoding="utf-8"?>
<!-- Generator: Adobe Illustrator 16.0.0, SVG Export Plug-In . SVG Version: 6.00 Build 0)  -->
<!DOCTYPE svg PUBLIC "-//W3C//DTD SVG 1.1//EN" "http://www.w3.org/Graphics/SVG/1.1/DTD/svg11.dtd">
<svg version="1.1" id="Layer_1" xmlns="http://www.w3.org/2000/svg" xmlns:xlink="http://www.w3.org/1999/xlink" x="0px" y="0px"
	 width="100.891px" height="100.281px" viewBox="0 0 100.891 100.281" enable-background="new 0 0 100.891 100.281"
	 xml:space="preserve">
<rect x="1" y="28.986" fill="none" width="123" height="74.717"/>
<g enable-background="new    ">
	<path fill="#FCFCFC" d="M2.046,68.197l15.318-39.21h3.895l15.318,39.21h-3.66l-4.104-10.482H9.94L5.836,68.197H2.046z
		 M17.155,39.208l-5.959,15.239h16.363l-5.96-15.239c-0.349-0.924-0.723-1.943-1.124-3.059s-0.775-2.248-1.124-3.398
		c-0.331,1.081-0.692,2.196-1.084,3.347C17.874,37.247,17.503,38.284,17.155,39.208z"/>
	<path fill="#FCFCFC" d="M43.242,68.197h-4.313l15.37-20.39L40.262,28.96h4.47l12.024,16.233l0.262-0.262l12.024-15.945h4.339
		L59.318,47.598l15.527,20.599h-4.443L56.836,50.186L43.242,68.197z"/>
</g>
<line fill="none" stroke="#FFFFFF" stroke-width="3" stroke-miterlimit="10" x1="96.695" y1="83.371" x2="96.695" y2="14.554"/>
</svg>
