<?xml version="1.0" encoding="utf-8"?>
<!-- Generator: Adobe Illustrator 16.0.0, SVG Export Plug-In . SVG Version: 6.00 Build 0)  -->
<!DOCTYPE svg PUBLIC "-//W3C//DTD SVG 1.1//EN" "http://www.w3.org/Graphics/SVG/1.1/DTD/svg11.dtd">
<svg version="1.1" id="Layer_1" xmlns="http://www.w3.org/2000/svg" xmlns:xlink="http://www.w3.org/1999/xlink" x="0px" y="0px"
	 width="841.891px" height="595.281px" viewBox="0 0 841.891 595.281" enable-background="new 0 0 841.891 595.281"
	 xml:space="preserve">
<g>
	<path fill="#732E01" d="M540.232,377.404c11.882,0,21.549-9.67,21.549-21.548c0-11.88-9.667-21.548-21.549-21.548
		c-11.88,0-21.547,9.668-21.547,21.548C518.685,367.734,528.352,377.404,540.232,377.404z M540.232,348.672
		c3.96,0,7.185,3.217,7.185,7.181c0,3.963-3.227,7.185-7.185,7.185c-3.955,0-7.182-3.222-7.182-7.185
		C533.05,351.888,536.275,348.672,540.232,348.672z"/>
	<path fill="#732E01" d="M613.212,325.526c-2.178-5.214-1.021-11.141,2.936-15.106l10.451-10.457l-30.485-30.486l-10.466,10.458
		c-3.957,3.963-9.89,5.114-15.379,2.815c-5.157-2.125-8.49-7.111-8.49-12.699v-14.762h-14.733
		c-0.652-11.584-2.8-22.784-6.365-33.393l83.122-83.122c10.952-10.954,16.988-25.515,16.988-41c0-31.965-26.01-57.975-57.975-57.975
		c-15.485,0-30.047,6.034-40.994,16.981l-83.037,83.043c-10.737-3.606-22.122-5.704-33.884-6.33
		c-9.91-17.318-28.534-29.05-49.883-29.05c-5.465,0-10.738,0.821-15.758,2.249c-12.4-23.308-36.483-38.162-63.253-38.162
		c-39.607,0-71.829,32.224-71.829,71.828c0,5.503,0.674,10.919,1.903,16.22c-17.706,5.358-30.635,21.815-30.635,41.245
		c0,23.768,19.33,43.097,43.098,43.097h52.107c-1.193,7.104-1.826,14.316-1.826,21.548c0,15.81,2.923,28.675,7.641,39.665
		l-64.078,64.087l-35.656,92.701c-0.854,2.215-1.284,4.542-1.284,6.92c0,10.645,8.664,19.3,19.299,19.3
		c2.378,0,4.705-0.438,6.925-1.285l92.702-35.656l46.854-46.861c-0.352,1.546-0.575,3.139-0.575,4.79
		c0,5.537,2.162,10.547,5.604,14.364c-3.448,3.822-5.604,8.831-5.604,14.367c0,9.984,6.86,18.33,16.09,20.76
		c6.121,17.524,22.511,29.521,41.372,29.521c18.864,0,35.256-11.997,41.374-29.521c9.23-2.43,16.091-10.775,16.091-20.76
		c0-0.539-0.125-1.042-0.157-1.568l8.92,8.922l10.466-10.457c3.957-3.964,9.869-5.123,15.369-2.832
		c5.158,2.149,8.498,7.135,8.498,12.721v14.76h43.098v-14.76c0-5.586,3.34-10.582,8.777-12.828c5.216-2.171,11.145-1.026,15.1,2.937
		l10.458,10.458l30.486-30.486l-10.452-10.457c-3.957-3.965-5.113-9.891-2.823-15.378c2.133-5.159,7.119-8.497,12.707-8.497h14.759
		v-43.098h-14.759C620.444,334.304,615.459,330.963,613.212,325.526z M505.582,346.702c7.837-7.649,15.688-15.465,22.462-24.501
		c3.908-1.423,7.974-2.264,12.19-2.264c19.806,0,35.915,16.112,35.915,35.915c0,19.805-16.109,35.915-35.915,35.915
		c-19.802,0-35.914-16.11-35.914-35.915C504.316,352.743,504.8,349.682,505.582,346.702z M514.208,176.553l33.208-33.215
		l25.758,25.758l-38.365,38.364C529.43,196.17,522.479,185.783,514.208,176.553z M521.658,97.267l11.392-11.392l61.673,61.673
		l-11.393,11.391L521.658,97.267z M582.821,54.17c24.041,0,43.609,19.567,43.609,43.608c0,11.645-4.535,22.598-12.771,30.835
		l-8.779,8.778l-61.672-61.674l8.777-8.777C560.224,58.71,571.171,54.17,582.821,54.17z M511.503,107.425l25.755,25.757
		l-33.193,33.193c-9.221-8.274-19.602-15.235-30.892-20.621L511.503,107.425z M533.05,262.474c0,37.375-18.818,55.733-38.744,75.164
		c-13.721,13.381-27.813,27.214-36.017,47.376c-1.374-0.278-2.793-0.43-4.251-0.43h-28.731v-35.912c0-11.883-9.67-21.55-21.55-21.55
		h-14.368c-3.958,0-7.182-3.219-7.182-7.183c0-3.965,3.227-7.183,7.182-7.183h71.831c11.88,0,21.547-9.668,21.547-21.549
		S473.1,269.66,461.22,269.66h-57.463c-3.959,0-7.184-3.218-7.184-7.184v-21.549h35.913c19.807,0,35.916-16.109,35.916-35.915
		c0-19.804-16.109-35.915-35.916-35.915c-0.199,0-0.385,0.058-0.587,0.058c0.31-2.399,0.587-4.797,0.587-7.241
		c0-4.696-0.629-9.244-1.693-13.618C488.056,154.673,533.05,203.819,533.05,262.474z M375.025,406.133
		c0-3.965,3.226-7.185,7.185-7.185h71.829c3.957,0,7.182,3.22,7.182,7.185s-3.227,7.185-7.182,7.185h-71.829
		C378.249,413.318,375.025,410.098,375.025,406.133z M284.619,406.133l52.803-52.801c8.836,8.762,17.038,17.626,23.086,28.423
		l-50.131,50.136L284.619,406.133z M209.817,197.828c0-15.845,12.887-28.732,28.733-28.732c15.847,0,28.732,12.887,28.732,28.732
		h14.367c0-23.145-18.354-42.035-41.258-43.005c-1.224-4.697-1.841-9.546-1.841-14.459c0-31.684,25.781-57.463,57.465-57.463
		c21.011,0,39.972,11.421,50.057,29.458c-15.313,8.987-26.131,24.81-28.149,43.276c-12.542,3.088-21.908,14.344-21.908,27.827
		h14.367c0-7.923,6.442-14.366,14.364-14.366c7.923,0,14.367,6.442,14.367,14.366h14.364c0-13.181-8.962-24.191-21.081-27.569
		c2.944-20.917,20.91-37.078,42.632-37.078c23.768,0,43.096,19.329,43.096,43.098c0,3.779-0.618,7.478-1.581,11.083
		c-11.78,5.896-19.968,17.964-19.968,32.015h14.367c0-11.881,9.667-21.549,21.547-21.549c11.882,0,21.549,9.669,21.549,21.549
		c0,11.881-9.667,21.548-21.549,21.548H238.551C222.704,226.561,209.817,213.674,209.817,197.828z M382.208,240.925v21.548
		c0,11.882,9.671,21.549,21.549,21.549h57.463c3.958,0,7.183,3.219,7.183,7.182c0,3.965-3.227,7.184-7.183,7.184h-71.831
		c-11.879,0-21.548,9.668-21.548,21.549c0,11.88,9.669,21.548,21.548,21.548h14.368c3.958,0,7.183,3.219,7.183,7.184v35.913h-28.732
		c-1.458,0-2.88,0.15-4.252,0.429c-8.204-20.164-22.297-33.997-36.017-47.377c-19.924-19.43-38.745-37.788-38.745-75.162
		c0-7.261,0.869-14.458,2.212-21.548h76.8L382.208,240.925L382.208,240.925z M327.166,343.276l-52.702,52.702l-25.76-25.759
		l54.806-54.807C310.257,326.001,318.616,334.837,327.166,343.276z M241.287,383.113l56.199,56.199l-47.579,18.302l-26.923-26.923
		L241.287,383.113z M216.525,470.451c-3.109,1.207-6.708-1.272-6.708-4.604c0-0.612,0.115-1.206,0.326-1.769l7.196-18.717
		l17.892,17.893L216.525,470.451z M418.122,470.781c-10.607,0-20.068-5.646-25.312-14.367h50.623
		C438.192,465.135,428.734,470.781,418.122,470.781z M454.038,442.047h-71.829c-3.959,0-7.183-3.22-7.183-7.183
		c0-3.966,3.225-7.184,7.183-7.184h71.829c3.957,0,7.185,3.218,7.185,7.184C461.22,438.83,457.995,442.047,454.038,442.047z
		 M626.428,363.036h-0.395c-11.429,0-21.627,6.822-26.08,17.612c-4.427,10.609-2.055,22.69,6.034,30.786l0.303,0.304l-10.172,10.172
		l-0.301-0.304c-8.103-8.103-20.201-10.479-31.025-5.939c-10.551,4.367-17.373,14.559-17.373,25.987v0.396H533.05v-0.396
		c0-11.429-6.821-21.626-17.61-26.086c-10.626-4.433-22.707-2.056-30.794,6.04l-0.301,0.303l-9.734-9.735
		c0.575-1.932,0.977-3.93,0.977-6.041c0-5.098-1.854-9.725-4.829-13.424c4.47-12.058,11.474-21.707,19.623-30.615
		c3.089,24.782,24.243,44.039,49.851,44.039c27.729,0,50.28-22.561,50.28-50.28c0-27.718-22.554-50.278-50.28-50.278
		c-0.704,0-1.386,0.07-2.083,0.1c4.864-10.092,8.204-21.792,9.045-36.015h0.223v0.395c0,11.428,6.823,21.635,17.604,26.081
		c10.604,4.44,22.699,2.07,30.793-6.034l0.301-0.302l10.172,10.171l-0.301,0.302c-8.088,8.095-10.456,20.184-5.939,31.017
		c4.361,10.559,14.56,17.384,25.988,17.384h0.395V363.036L626.428,363.036z"/>
</g>
</svg>
