<?xml version="1.0" encoding="utf-8"?>
<!-- Generator: Adobe Illustrator 16.0.0, SVG Export Plug-In . SVG Version: 6.00 Build 0)  -->
<!DOCTYPE svg PUBLIC "-//W3C//DTD SVG 1.1//EN" "http://www.w3.org/Graphics/SVG/1.1/DTD/svg11.dtd">
<svg version="1.1" id="Layer_1" xmlns="http://www.w3.org/2000/svg" xmlns:xlink="http://www.w3.org/1999/xlink" x="0px" y="0px"
	 width="841.891px" height="595.281px" viewBox="0 0 841.891 595.281" enable-background="new 0 0 841.891 595.281"
	 xml:space="preserve">
<g>
	<path fill="#D8529E" d="M453.711,334.424c0.889,0.347,1.838,0.524,2.793,0.524c0.956-0.002,1.905-0.18,2.798-0.524
		c169.912-66.325,158.426-173.354,156.839-184.081c-0.282-51.207-42.026-92.487-93.234-92.201
		c-25.1,0.139-49.068,10.449-66.434,28.574c-35.395-36.944-94.036-38.198-130.979-2.804c-6.272,6.01-11.668,12.874-16.031,20.386
		h-17.414c-31.645,0-49.675,25.187-55.018,36.904l-47.537,33.753l8.903,12.54l49.366-35.06c1.268-0.903,2.228-2.167,2.759-3.629
		c2.254-6.149,15.909-29.129,41.518-29.129h10.87c-3.343,12.511-5.593,25.288-6.718,38.188v0.068v0.184
		c0.048,0.484,0.143,0.965,0.285,1.432c0.053,0.487,0.15,0.969,0.292,1.438c0.279,0.607,0.641,1.174,1.077,1.683
		c0.154,0.266,0.323,0.523,0.506,0.768h0.054c0.694,0.711,1.52,1.278,2.43,1.669h0.046c0.949,0.403,1.967,0.61,2.998,0.608h36.135
		c4.246,0,7.688,3.44,7.688,7.687c0.006,2.071-0.845,4.054-2.354,5.475c-1.4,1.434-3.329,2.233-5.336,2.214H309.26
		c-4.245,0-7.687,3.442-7.687,7.688c0.001,1.394-0.113,2.785-0.346,4.159c0,0.224,0,0.399-0.077,0.63
		c-0.055,0.41-0.131,0.819-0.23,1.222c-2.377,10.565-23.642,20.898-37.788,20.898c-3.425-0.019-6.818-0.689-9.997-1.976
		c-2.853-1.141-6.112-0.474-8.286,1.7l-52.496,52.595l10.871,10.872l49.149-49.151c3.511,0.948,7.13,1.429,10.763,1.432
		c16.426-0.618,32.089-7.086,44.163-18.239C323.656,251.307,362.675,298.974,453.711,334.424z M340.025,196.558
		c1.536,0.003,3.069-0.145,4.576-0.445c4.419-0.861,8.473-3.048,11.625-6.267l0,0c0.214-0.208,0.361-0.46,0.568-0.677
		c2.96-3.065,4.986-6.91,5.835-11.085c2.549-12.482-5.504-24.666-17.985-27.213c-1.524-0.312-3.073-0.466-4.627-0.466h-27.569
		c1.288-11.931,4.095-23.649,8.357-34.868l0,0l0,0c19.524-37.978,66.139-52.94,104.12-33.416
		c9.907,5.093,18.599,12.267,25.476,21.031c2.902,3.357,7.976,3.725,11.332,0.823c0.295-0.255,0.569-0.53,0.824-0.823
		c20.671-26.356,55.975-36.385,87.417-24.834c43.6,16.037,58.432,66.22,48.591,108.214c-6.137,24.043-18.311,46.122-35.368,64.143
		c-28.793,31.469-67.429,52.75-106.662,68.359c-92.776-36.906-126.94-86.05-138.975-122.438L340.025,196.558z"/>
	<path fill="#D8529E" d="M647.559,382.939v-15.377h-38.44v-7.689c0-4.247-3.441-7.689-7.689-7.689h-30.753
		c-4.246,0-7.688,3.442-7.688,7.689v4.611c-3.26-1.346-6.758-2.767-10.364-4.172c-0.175-0.103-0.283-0.271-0.47-0.364
		c-0.526-0.21-1.074-0.36-1.638-0.445c-10.07-4.438-20.688-7.523-31.568-9.179c-12.739,0-33.729,3.483-44.724,12.8l-40.992-7.805
		c-12.792-2.404-25.188,5.753-28.033,18.452L358.3,352.552c-11.761-5.495-25.754-0.478-31.345,11.24
		c-1.543,3.131-2.334,6.581-2.307,10.072c-0.058,9.123,5.212,17.44,13.485,21.288l109.099,62.369
		c2.982,1.521,6.286,2.31,9.633,2.305c1.084,0,2.164-0.076,3.239-0.238l57.809-8.678c1.123-0.153,2.265-0.153,3.388,0
		c0.415,0.081,0.841,0.114,1.262,0.101l40.424-0.224v9.022c0,4.247,3.441,7.691,7.688,7.691h30.753c4.248,0,7.688-3.444,7.688-7.691
		v-7.688h38.44v-15.376h-38.44v-53.82L647.559,382.939z M562.987,435.419l-39.94,0.224c-2.38-0.301-4.788-0.301-7.164,0
		l-58.097,8.71c-1.087,0.194-2.21,0.068-3.229-0.361l-109.15-62.375c-0.246-0.138-0.498-0.268-0.77-0.385
		c-2.894-1.293-4.726-4.198-4.652-7.366c-0.008-1.177,0.27-2.341,0.807-3.389c1.949-4.146,6.886-5.921,11.029-3.975
		c0.013,0.007,0.027,0.015,0.043,0.021l56.64,25.641c0.085,0.133,0.131,0.277,0.215,0.4c3.456,5.186,8.833,8.782,14.948,9.994
		l60.506,15.584l3.844-14.876l-61.028-15.761c-4.698-0.87-7.801-5.385-6.933-10.079c0.005-0.021,0.01-0.04,0.015-0.063
		c0.77-4.654,5.166-7.803,9.82-7.034c0.135,0.022,0.266,0.049,0.396,0.075l45.055,8.589c2.842,0.541,5.749-0.557,7.521-2.842
		c4.313-5.567,21.157-10.45,36.058-10.45c15.163,3.651,29.919,8.828,44.038,15.453L562.987,435.419z M593.74,452.136h-15.377
		v-84.574h15.377V452.136z"/>
</g>
</svg>
