<?xml version="1.0" encoding="utf-8"?>
<!-- Generator: Adobe Illustrator 16.0.0, SVG Export Plug-In . SVG Version: 6.00 Build 0)  -->
<!DOCTYPE svg PUBLIC "-//W3C//DTD SVG 1.1//EN" "http://www.w3.org/Graphics/SVG/1.1/DTD/svg11.dtd">
<svg version="1.1" id="Layer_1" xmlns="http://www.w3.org/2000/svg" xmlns:xlink="http://www.w3.org/1999/xlink" x="0px" y="0px"
	 width="841.891px" height="595.281px" viewBox="0 0 841.891 595.281" enable-background="new 0 0 841.891 595.281"
	 xml:space="preserve">
<path fill="#D79E00" d="M196.875,395.55c0.058,3.672,0.376,7.271,0.858,10.814c0.075,0.55,0.163,1.082,0.252,1.631
	c0.549,3.501,1.275,6.929,2.219,10.284c0.036,0.124,0.059,0.252,0.097,0.384c2.092,7.292,5.096,14.175,8.864,20.568
	c0.236,0.41,0.488,0.811,0.742,1.217c1.722,2.81,3.575,5.521,5.587,8.113c0.268,0.352,0.519,0.715,0.793,1.062
	c2.256,2.827,4.659,5.52,7.241,8.05c0.394,0.386,0.823,0.733,1.224,1.112c2.151,2.033,4.401,3.946,6.736,5.767
	c0.803,0.621,1.617,1.229,2.44,1.822c2.015,1.455,4.095,2.805,6.23,4.088c0.104,0.069,0.186,0.164,0.298,0.23
	c0.304,0.177,0.608,0.354,0.92,0.533c0.386,0.252,0.769,0.497,1.171,0.726c0.022,0.015,0.044,0.027,0.066,0.044
	c0.015,0.008,0.029,0.008,0.051,0.023c0.082,0.044,0.164,0.074,0.247,0.118c3.301,1.826,6.757,3.397,10.295,4.798
	c0.326,0.127,0.651,0.237,0.977,0.365c2.851,1.09,5.764,2.024,8.74,2.817c0.696,0.186,1.401,0.372,2.106,0.541
	c2.664,0.639,5.378,1.15,8.131,1.542c0.778,0.113,1.55,0.272,2.335,0.357c3.39,0.395,6.826,0.646,10.327,0.646
	c3.552,0,7.039-0.267,10.488-0.675c0.261-0.027,0.526-0.088,0.793-0.12c3.412-0.435,6.757-1.082,10.036-1.89
	c0.096-0.024,0.193-0.029,0.28-0.054c0.053-0.016,0.091-0.044,0.135-0.052c28.668-7.238,51.792-28.363,61.82-55.826
	c0.022-0.069,0.073-0.121,0.096-0.188c0.06-0.171,0.104-0.349,0.163-0.52c0.727-2.048,1.389-4.124,1.967-6.237
	c0.163-0.594,0.313-1.188,0.46-1.78c0.468-1.861,0.903-3.74,1.252-5.645c0.217-1.157,0.365-2.321,0.535-3.486
	c0.2-1.432,0.437-2.842,0.57-4.295c0.26-2.753,0.416-5.497,0.416-8.249c0-2.899-0.156-5.784-0.437-8.662
	c-0.155-1.589-0.438-3.139-0.675-4.696c-0.185-1.216-0.321-2.438-0.556-3.647c-0.407-2.107-0.949-4.161-1.507-6.217
	c-0.17-0.623-0.298-1.262-0.481-1.884c-0.66-2.241-1.438-4.423-2.27-6.579c-0.147-0.379-0.245-0.77-0.394-1.15
	c-0.016-0.045-0.051-0.08-0.074-0.125c-8.918-22.275-26.542-40.138-48.691-49.307c-0.052-0.021-0.089-0.06-0.132-0.073
	c-0.349-0.142-0.721-0.23-1.069-0.365c-2.665-1.06-5.386-1.987-8.166-2.787c-0.608-0.172-1.226-0.313-1.833-0.477
	c-2.724-0.719-5.489-1.312-8.309-1.77c-0.43-0.068-0.86-0.136-1.291-0.2c-3.108-0.461-6.262-0.766-9.458-0.891
	c-0.098-0.01-0.193-0.017-0.298-0.017c-1.135-0.036-2.24-0.163-3.375-0.163c-13.135,0-25.584,2.937-36.822,8.071
	c-0.045,0.022-0.089,0.045-0.134,0.06c-2.945,1.351-5.792,2.864-8.553,4.518c-0.2,0.117-0.417,0.207-0.614,0.324
	c-0.068,0.037-0.105,0.112-0.175,0.148c-25.561,15.665-42.717,43.779-42.717,75.893c0,0.372,0.051,0.728,0.058,1.1
	c0,0.016-0.007,0.021-0.007,0.036C196.859,395.401,196.875,395.468,196.875,395.55z M253.91,327.326
	c1.682-0.808,3.383-1.558,5.119-2.232c0.237-0.088,0.474-0.17,0.711-0.26c7.315-2.752,15.029-4.294,22.788-4.659
	c0.668-0.026,1.336-0.087,2.003-0.102c1.307-0.03,2.612,0.021,3.919,0.064c1.105,0.036,2.208,0.082,3.3,0.173
	c1.143,0.089,2.275,0.215,3.413,0.354c1.222,0.156,2.431,0.343,3.634,0.557c1.054,0.187,2.106,0.372,3.151,0.608
	c0.335,0.074,0.653,0.178,0.987,0.252l-20.184,20.184h-22.016l-7.346-14.687C253.562,327.5,253.74,327.417,253.91,327.326z
	 M344.008,405.594l14.924-23.461c0.133,0.808,0.268,1.615,0.372,2.431c0.125,0.935,0.268,1.86,0.348,2.798
	c0.208,2.258,0.349,4.526,0.349,6.832c0,3.307-0.28,6.61-0.741,9.903c-0.075,0.541-0.164,1.082-0.252,1.623
	c-0.527,3.264-1.225,6.514-2.195,9.733l-23.744,4.746l10.616-14.139c0.021-0.023,0.021-0.06,0.036-0.082L344.008,405.594z
	 M299.469,467.036c-3.041,0.585-6.045,0.897-9.027,1.105c-0.814,0.053-1.64,0.105-2.462,0.125c-2.302,0.074-4.576,0.017-6.84-0.125
	c-0.823-0.053-1.661-0.046-2.484-0.125c-2.945-0.286-5.86-0.75-8.738-1.393c-0.49-0.104-0.957-0.255-1.438-0.372
	c-2.679-0.66-5.334-1.446-7.946-2.405c-0.17-0.059-0.333-0.124-0.502-0.185l21.667-18.055l23.923-4.784L299.469,467.036z
	 M311.258,424.56l-27.039,5.409l-3.783-18.923l-1.261-6.307l21.941-16.451l25.763,15.452L311.258,424.56z M270.987,392.338
	l-20.267-15.202l10.013-20.034h20.504l10.022,20.034L270.987,392.338z M240.29,387.863l23.976,17.984l6,29.982l-24.7,20.576
	c-0.154-0.098-0.318-0.186-0.467-0.281c-4.541-2.989-8.695-6.446-12.41-10.279c-0.355-0.365-0.683-0.758-1.023-1.128
	c-1.519-1.633-2.975-3.315-4.34-5.074c-0.318-0.409-0.622-0.83-0.935-1.256c-1.379-1.861-2.684-3.775-3.88-5.749
	c-0.186-0.294-0.363-0.591-0.542-0.896c-5.592-9.509-9.081-20.251-10.007-31.489c-0.007-0.08-0.007-0.155-0.014-0.235
	L240.29,387.863z M315.907,461.933l5.712-24.314l27.875-5.571C341.67,445.161,329.956,455.663,315.907,461.933z M353.242,363.439
	L335.38,391.54l-29.053-17.434l-11.485-22.957l23.515-23.514C333.725,335.176,346.098,347.846,353.242,363.439z M240.728,335.427
	l7.128,14.259l-11.965,23.924l-23.412,10.028C215.293,364.069,225.729,346.965,240.728,335.427z"/>
<path fill="#D79E00" d="M211.027,211.556L393.669,336.43c-0.533,1.349-0.939,2.723-1.371,4.094c-0.029,0.104-0.066,0.2-0.097,0.297
	c-0.735,2.389-1.314,4.798-1.714,7.249c-0.058,0.331-0.14,0.667-0.193,1.001c-0.377,2.61-0.622,5.236-0.622,7.9
	c0,0.028,0.008,0.053,0.008,0.081c0,0.017-0.008,0.027-0.008,0.052c0,13.449,5.096,26.564,14.739,38.334
	c-0.312,0.321-0.593,0.662-0.896,0.986c-0.142,0.155-0.305,0.281-0.446,0.437c-0.037,0.046-0.052,0.105-0.088,0.142
	c-8.243,9.168-13.31,21.243-13.31,34.508c0,13.123,4.956,25.086,13.042,34.213c0.038,0.044,0.044,0.104,0.088,0.147
	c0.17,0.19,0.363,0.349,0.535,0.541c0.919,1.003,1.877,1.965,2.871,2.895c0.318,0.297,0.644,0.593,0.972,0.882
	c1.021,0.915,2.091,1.771,3.188,2.595c0.313,0.233,0.615,0.472,0.929,0.7c1.17,0.846,2.388,1.631,3.625,2.372
	c0.259,0.155,0.52,0.325,0.787,0.476c1.341,0.769,2.73,1.475,4.141,2.129c0.186,0.079,0.363,0.183,0.549,0.268
	c1.505,0.676,3.047,1.268,4.628,1.796c0.11,0.037,0.223,0.089,0.335,0.124c1.607,0.526,3.247,0.973,4.925,1.338
	c0.086,0.021,0.184,0.053,0.271,0.074c1.603,0.341,3.236,0.603,4.883,0.786c0.165,0.023,0.325,0.06,0.488,0.074
	c1.789,0.187,3.599,0.289,5.436,0.289c9.258,0,17.938-2.477,25.468-6.766c0.028-0.015,0.052-0.027,0.079-0.044
	c1.468-0.839,2.894-1.752,4.273-2.729c0.186-0.133,0.365-0.273,0.549-0.408c1.212-0.882,2.382-1.81,3.51-2.789
	c0.27-0.229,0.521-0.475,0.777-0.713c1.037-0.942,2.032-1.914,2.991-2.931c0.118-0.126,0.261-0.236,0.377-0.37
	c0.037-0.045,0.051-0.104,0.088-0.148c7.218-7.895,12.047-17.997,13.263-29.19c7.753,0.941,15.476,1.58,23.035,1.58
	c8.946,0,17.661-0.622,26.079-1.78l33.572,20.925c2.091,14.332,14.465,25.36,29.361,25.36c16.361,0,29.671-13.309,29.671-29.669
	c0-16.364-13.31-29.673-29.671-29.673h-5.062l-4.738-3.358c7.201-3.777,13.71-8.064,19.479-12.761
	c0.335-0.2,0.697-0.319,1.012-0.577c9.374-7.826,16.259-16.519,20.681-25.756c0.032-0.074,0.065-0.155,0.103-0.23
	c1.081-2.282,2.002-4.604,2.772-6.956c0.148-0.452,0.295-0.904,0.438-1.363c0.606-2.05,1.098-4.11,1.468-6.194
	c0.111-0.593,0.244-1.173,0.332-1.765c0.365-2.572,0.603-5.172,0.603-7.796c0-2.625-0.237-5.221-0.609-7.804
	c-0.089-0.593-0.228-1.18-0.333-1.766c-0.372-2.084-0.854-4.145-1.47-6.192c-0.14-0.461-0.286-0.914-0.435-1.366
	c-0.766-2.353-1.693-4.676-2.775-6.96c-0.035-0.073-0.067-0.155-0.103-0.227c-4.422-9.234-11.304-17.93-20.681-25.756
	c-0.298-0.244-0.646-0.35-0.965-0.54c-13.582-11.077-31.483-19.798-52.068-25.125c0.498-0.192,0.979-0.415,1.47-0.616
	c0.563-0.229,1.119-0.468,1.682-0.704c18.248-7.849,34.54-19.976,47.428-35.606c0.019-0.021,0.03-0.037,0.054-0.059
	c2.547-3.094,4.999-6.276,7.269-9.634c0.099-0.142,0.136-0.297,0.217-0.446c13.449-20.057,21.32-44.15,21.32-70.062
	c0-3.095-0.193-6.35-0.498-9.763c-0.179-2.284-0.423-4.538-0.719-6.787c-0.016-0.097-0.016-0.17-0.027-0.259
	c-0.007-0.029-0.023-0.06-0.023-0.09c-6.376-47.317-39.031-86.306-82.812-101.847c-0.074-0.029-0.135-0.082-0.209-0.111
	c-0.184-0.068-0.379-0.104-0.565-0.171c-2.803-0.972-5.643-1.833-8.529-2.611c-0.898-0.244-1.796-0.468-2.691-0.698
	c-2.515-0.615-5.045-1.185-7.613-1.654c-1.69-0.312-3.384-0.535-5.075-0.778c-1.929-0.267-3.843-0.571-5.794-0.75
	c-3.843-0.363-7.692-0.585-11.547-0.585c-3.798,0-7.568,0.229-11.307,0.571c-1.254,0.109-2.501,0.266-3.747,0.415
	c-2.501,0.305-4.976,0.688-7.438,1.143c-1.373,0.252-2.752,0.468-4.11,0.757c-3.151,0.689-6.275,1.484-9.346,2.41
	c-1.885,0.564-3.718,1.231-5.564,1.878c-1.423,0.503-2.84,1.008-4.242,1.558c-1.986,0.778-3.962,1.588-5.896,2.47
	c-1.068,0.481-2.114,1.018-3.166,1.528c-3.856,1.862-7.59,3.902-11.202,6.142c-0.77,0.473-1.563,0.918-2.328,1.416
	c-1.854,1.201-3.643,2.47-5.432,3.768c-1.054,0.765-2.091,1.543-3.121,2.336c-1.685,1.299-3.353,2.611-4.971,3.991
	c-1.047,0.897-2.047,1.854-3.063,2.789c-2.607,2.388-5.11,4.873-7.514,7.469c-1.059,1.149-2.136,2.284-3.158,3.472
	c-1.291,1.498-2.524,3.042-3.74,4.605c-0.94,1.211-1.853,2.432-2.752,3.68c-1.186,1.647-2.374,3.287-3.487,4.985
	c-0.667,1.023-1.274,2.098-1.912,3.144c-2.174,3.547-4.163,7.196-5.98,10.956c-0.363,0.757-0.779,1.484-1.135,2.258
	c-0.022,0.051-0.016,0.118-0.038,0.169c-7.284,15.92-11.452,33.558-11.452,52.191c0,2.886,0.247,5.712,0.432,8.553
	c0,0.023-0.009,0.051-0.009,0.074c0,0.052,0.016,0.097,0.016,0.147c0.274,3.931,0.733,7.796,1.356,11.624
	c0.038,0.215,0.061,0.43,0.098,0.638c0.639,3.753,1.44,7.44,2.398,11.074c0.065,0.267,0.132,0.526,0.207,0.794
	c0.971,3.59,2.098,7.105,3.375,10.556c0.103,0.273,0.2,0.556,0.305,0.83c1.291,3.428,2.729,6.779,4.301,10.059
	c0.125,0.268,0.261,0.542,0.389,0.81c1.6,3.271,3.328,6.454,5.198,9.561c0.142,0.237,0.29,0.476,0.431,0.713
	c1.23,2.011,2.433,4.036,3.768,5.971c0.061,0.098,0.088,0.208,0.157,0.305c1.832,2.64,3.782,5.17,5.784,7.646
	c0.514,0.624,1.031,1.239,1.551,1.854c2.221,2.633,4.512,5.192,6.922,7.619c0.123,0.126,0.244,0.261,0.372,0.386
	c2.535,2.528,5.189,4.905,7.92,7.203c0.628,0.526,1.256,1.054,1.892,1.572c2.693,2.18,5.449,4.264,8.301,6.209
	c0.587,0.4,1.2,0.764,1.796,1.156c2.424,1.596,4.91,3.101,7.438,4.524c0.847,0.476,1.678,0.974,2.536,1.433
	c2.858,1.521,5.782,2.924,8.755,4.221c1.061,0.469,2.138,0.896,3.212,1.335c0.21,0.083,0.409,0.172,0.619,0.252l0,0
	c-12.314,3.181-23.724,7.536-33.774,12.929l-178.95-143.894c-8.256-6.64-18.596-9.503-29.078-8.056
	c-10.496,1.438-19.672,6.979-25.828,15.605c-6.001,8.405-8.315,18.634-6.513,28.807
	C196.828,196.915,202.511,205.727,211.027,211.556z M462.433,461.673c-0.695,0.49-1.446,0.882-2.172,1.313
	c-1.054,0.639-2.129,1.231-3.243,1.767c-1.172,0.532-2.365,1.017-3.591,1.424c-0.533,0.187-1.082,0.342-1.624,0.503
	c-7.033,1.991-14.665,1.924-21.69-0.252c-0.237-0.074-0.481-0.139-0.714-0.223c-1.438-0.481-2.84-1.082-4.212-1.743
	c-0.786-0.386-1.552-0.811-2.308-1.255c-0.993-0.569-1.986-1.15-2.929-1.823c-0.186-0.133-0.342-0.298-0.528-0.438
	c12.514-9.079,30.882-8.99,43.448,0.372C462.707,461.427,462.589,461.567,462.433,461.673z M440.899,439.161
	c-11.354,0-22.351,3.857-31.311,10.702c-3.145-5.422-5.081-11.638-5.081-18.352c0-6.816,1.986-13.121,5.221-18.603
	c9.013,7.011,20.134,10.956,31.636,10.956c11.488,0,22.598-3.94,31.6-10.927c0.179,0.305,0.379,0.602,0.551,0.919
	c0.431,0.776,0.898,1.526,1.272,2.346c0.609,1.325,1.07,2.736,1.521,4.145c0.268,0.822,0.565,1.638,0.77,2.485
	c0.356,1.467,0.55,2.991,0.722,4.517c0.155,1.387,0.421,2.736,0.421,4.161c0,6.914-2.033,13.323-5.361,18.858
	C463.796,443.202,452.559,439.161,440.899,439.161z M419.92,401.662c1.507-1.084,3.11-1.972,4.727-2.811
	c0.208-0.111,0.408-0.228,0.623-0.342c1.166-0.548,2.359-1.017,3.573-1.438c0.579-0.217,1.168-0.408,1.761-0.594
	c7.127-2.084,14.873-2.068,21.972,0.104c0.146,0.045,0.296,0.09,0.438,0.133c1.435,0.46,2.833,1.062,4.205,1.699
	c0.468,0.223,0.917,0.468,1.38,0.715c0.355,0.19,0.719,0.374,1.067,0.575c0.86,0.483,1.707,0.988,2.521,1.544
	c0.286,0.2,0.556,0.444,0.837,0.661c-12.544,9.154-30.85,9.147-43.381-0.028C419.742,401.817,419.825,401.729,419.92,401.662z
	 M426.998,381.88c-0.061,0.017-0.111,0.043-0.172,0.059c-1.335,0.396-2.633,0.854-3.916,1.352c-0.357,0.132-0.72,0.244-1.068,0.393
	c-0.468,0.193-0.929,0.4-1.387,0.602c-0.009,0-0.016,0.008-0.023,0.008c-1.425,0.639-2.825,1.32-4.185,2.078
	c-7.689-9.192-11.718-19.234-11.739-29.339c0-2.102,0.199-4.176,0.526-6.231c0.088-0.542,0.207-1.06,0.318-1.588
	c0.29-1.461,0.661-2.905,1.105-4.339c0.225-0.714,0.447-1.433,0.705-2.123c0.416-1.125,0.931-2.23,1.433-3.339
	c0.274-0.576,0.512-1.185,0.802-1.751c0.075-0.121,0.198-0.191,0.265-0.319c1.188-2.256,2.666-4.553,4.512-7.032
	c0.087-0.126,0.118-0.272,0.185-0.408c0.714-0.934,1.447-1.815,2.197-2.684c0.704-0.831,1.564-1.697,2.425-2.581c0,0,0,0,0.008,0
	l0.059-0.06c0.498-0.519,1.046-0.973,1.56-1.484c8.895,10.319,13.574,21.911,13.574,33.878
	C434.179,365.498,431.76,373.867,426.998,381.88z M492.178,422.254c-0.26-1.438-0.593-2.844-0.972-4.236
	c-0.025-0.111-0.059-0.229-0.089-0.341c-0.362-1.301-0.776-2.573-1.237-3.829c-0.081-0.225-0.155-0.444-0.244-0.659
	c-0.453-1.194-0.949-2.358-1.484-3.509c-0.118-0.255-0.244-0.505-0.364-0.757c-0.547-1.12-1.119-2.22-1.742-3.295
	c-0.14-0.238-0.282-0.47-0.422-0.706c-0.653-1.083-1.318-2.144-2.047-3.167c-0.106-0.141-0.216-0.273-0.313-0.422
	c-1.089-1.515-2.261-2.953-3.508-4.342c-0.037-0.043-0.054-0.104-0.091-0.142c-0.14-0.155-0.305-0.289-0.444-0.435
	c-0.949-1.023-1.928-1.998-2.959-2.939c-0.281-0.259-0.558-0.511-0.847-0.765c-1.081-0.957-2.209-1.854-3.372-2.716
	c-0.212-0.154-0.417-0.323-0.624-0.474c-0.172-0.125-0.342-0.252-0.514-0.37c-0.83-0.586-1.698-1.12-2.565-1.656
	c-0.475-0.298-0.949-0.595-1.44-0.875c-0.807-0.46-1.637-0.888-2.477-1.313c-0.594-0.298-1.177-0.588-1.789-0.862
	c-0.109-0.052-0.223-0.11-0.34-0.162c-0.007,0-0.016-0.01-0.021-0.01c-0.677-0.297-1.365-0.571-2.059-0.845
	c-0.695-0.272-1.394-0.525-2.107-0.771c-0.77-0.269-1.542-0.525-2.328-0.749c-0.816-0.237-1.647-0.438-2.478-0.639
	c-0.712-0.172-1.424-0.349-2.149-0.489c-1.002-0.192-2.019-0.325-3.045-0.468c-0.437-0.061-0.867-0.156-1.307-0.2
	c-0.014,0-0.025-0.009-0.044-0.009c-0.14-0.015-0.289-0.022-0.431-0.036c-0.672-0.066-1.356-0.082-2.03-0.119
	c3.025-7.457,4.715-15.125,4.715-22.989c0-15.534-5.881-30.354-17.029-43.335c0.556-0.377,1.047-0.742,1.631-1.138
	c1.535-1.02,3.072-2.038,4.71-2.995c0.394-0.229,0.726-0.526,1.07-0.814c19.952-11.336,46.797-18.346,76.38-18.346
	c33.55,0,63.614,8.997,84.029,23.136c-11.304,13.041-17.268,27.976-17.268,43.624c0,15.654,5.964,30.587,17.268,43.624
	c-6.208,4.304-13.271,8.138-21.104,11.382c-0.363,0.088-0.732,0.147-1.091,0.287c-10.726,4.372-22.586,7.545-35.256,9.445
	c-0.044,0.008-0.081,0.028-0.126,0.035c-8.501,1.255-17.321,1.989-26.451,1.989C508.046,423.865,500.138,423.323,492.178,422.254z
	 M503.804,274.802c-1.212-0.133-2.389-0.342-3.587-0.51c-0.007,0-0.007,0-0.014,0c-2.745-0.395-5.476-0.869-8.167-1.456
	c-1.193-0.258-2.372-0.549-3.55-0.853c-0.244-0.06-0.49-0.125-0.734-0.192c-2.44-0.639-4.85-1.38-7.241-2.182
	c-0.912-0.305-1.821-0.594-2.729-0.927c-0.593-0.216-1.193-0.423-1.781-0.652c-2.661-1.023-5.267-2.166-7.83-3.389
	c-0.104-0.052-0.216-0.091-0.32-0.142c-0.749-0.356-1.501-0.705-2.24-1.075c-1.247-0.639-2.442-1.357-3.656-2.041
	c-1.72-0.956-3.442-1.906-5.11-2.952c-1.868-1.18-3.68-2.448-5.476-3.73c-1.185-0.846-2.352-1.707-3.508-2.604
	c-1.891-1.469-3.761-2.965-5.557-4.553c-0.81-0.713-1.58-1.484-2.363-2.225c-1.813-1.698-3.622-3.397-5.313-5.207
	c-0.03-0.039-0.061-0.068-0.098-0.104c-2.203-2.367-4.302-4.832-6.297-7.374c-0.037-0.045-0.081-0.088-0.119-0.134
	c-0.474-0.607-0.881-1.276-1.351-1.899c1.223-2.67,2.589-5.281,4.089-7.782c5.25-8.812,11.793-19.768,23.646-24.256
	c15.852-6.023,32.558,3.411,51.872,14.347c7.886,4.466,16.048,9.079,24.659,12.891c20.013,8.859,42.466,13.272,67.104,12.998
	c-0.803,0.883-1.582,1.788-2.412,2.648c-0.929,0.956-1.868,1.891-2.819,2.819c-1.698,1.639-3.434,3.226-5.233,4.754
	c-1.02,0.862-2.062,1.691-3.108,2.514c-1.81,1.432-3.646,2.833-5.547,4.154c-1.2,0.832-2.434,1.595-3.666,2.375
	c-1.83,1.171-3.671,2.33-5.58,3.397c-1.479,0.823-3.01,1.557-4.531,2.313c-1.742,0.869-3.478,1.764-5.275,2.545
	c-1.868,0.809-3.791,1.491-5.706,2.196c-1.551,0.579-3.077,1.201-4.666,1.714c-2.3,0.734-4.647,1.306-7.001,1.885
	c-1.301,0.326-2.568,0.725-3.88,1.001c-2.745,0.578-5.54,0.964-8.346,1.336c-0.993,0.134-1.966,0.348-2.975,0.451
	c-3.827,0.394-7.699,0.607-11.607,0.607C511.747,275.507,507.756,275.233,503.804,274.802z M624.195,342.304
	c0.4,1.021,0.719,2.093,1.047,3.159c0.318,1.08,0.603,2.164,0.83,3.261c0.165,0.766,0.34,1.521,0.461,2.308
	c0.305,2.005,0.512,4.021,0.512,6.069c0,2.049-0.207,4.064-0.512,6.069c-0.121,0.785-0.296,1.544-0.461,2.308
	c-0.228,1.098-0.514,2.179-0.83,3.262c-0.326,1.066-0.646,2.139-1.047,3.16c-0.096,0.253-0.224,0.489-0.321,0.74
	c-3.026,7.345-7.839,13.563-12.795,18.495c-8.99-10.355-13.708-22.008-13.708-34.035c0-12.024,4.718-23.678,13.708-34.023
	c4.956,4.925,9.769,11.142,12.795,18.491C623.971,341.815,624.099,342.058,624.195,342.304z M579.383,427.632l13.701,9.702
	c1.256,0.89,2.751,1.365,4.289,1.365h7.418c8.18,0,14.835,6.653,14.835,14.835c0,8.18-6.655,14.837-14.835,14.837
	c-8.184,0-14.838-6.657-14.838-14.837c0-2.559-1.316-4.94-3.494-6.296l-23.278-14.513c0.313-0.079,0.593-0.2,0.897-0.28
	c4.436-1.194,8.725-2.559,12.886-4.058C577.75,428.114,578.602,427.922,579.383,427.632z M609.824,223.427
	c-27.112,1.899-51.612-1.817-72.791-11.195c-7.952-3.523-15.775-7.952-23.357-12.238c-20.665-11.692-42.039-23.804-64.437-15.303
	c-16.693,6.32-25.38,20.881-31.135,30.523c-0.193,0.32-0.35,0.668-0.543,0.993c-6.371-12.002-10.644-25.31-12.232-39.448
	c32.353-15.681,66.71-25.806,102.196-30.131c39.885-4.851,79.883-2.263,118.974,7.678c0.037,0.371,0.054,0.704,0.082,1.066
	c0.244,2.937,0.46,5.876,0.46,8.864C627.044,186.003,620.67,206.261,609.824,223.427z M623.913,138.484
	c-38.894-9.124-78.576-11.402-118.16-6.58c-35.012,4.258-68.941,13.969-101.06,28.81c0.408-13.033,3.05-25.495,7.588-37.038
	c6.958,1.527,13.729,2.313,20.288,2.313c7.41,0,14.547-0.979,21.357-2.938c14.36-4.123,23.351-11.415,34.737-20.635
	c6.105-4.947,13.032-10.557,22.208-16.914c13.931-9.643,28.937-18.048,44.588-25.096
	C589.413,73.438,615.354,102.581,623.913,138.484z M422.666,103.502c0.971-1.49,2.018-2.922,3.063-4.354
	c0.751-1.032,1.507-2.055,2.284-3.057c1.067-1.37,2.145-2.735,3.272-4.055c0.897-1.046,1.84-2.04,2.772-3.057
	c1.951-2.121,3.978-4.16,6.083-6.11c0.874-0.816,1.751-1.625,2.653-2.419c1.38-1.203,2.775-2.382,4.215-3.517
	c0.793-0.623,1.617-1.209,2.427-1.817c2.677-1.996,5.436-3.872,8.275-5.624c0.85-0.519,1.677-1.046,2.538-1.541
	c1.648-0.957,3.323-1.87,5.015-2.738c0.949-0.483,1.914-0.928,2.88-1.388c2.712-1.291,5.482-2.471,8.292-3.546
	c1.328-0.503,2.647-1.018,3.998-1.469c1.498-0.505,3.018-0.979,4.546-1.416c1.96-0.564,3.931-1.067,5.931-1.528
	c1.361-0.312,2.727-0.623,4.097-0.883c2.612-0.498,5.243-0.905,7.915-1.209c0.973-0.113,1.952-0.216,2.929-0.297
	c3.279-0.29,6.573-0.504,9.918-0.504c3.382,0,6.713,0.207,10.017,0.504c1.637,0.154,3.268,0.385,4.9,0.615
	c0.949,0.126,1.891,0.282,2.833,0.43c-10.786,5.646-21.194,11.928-31.102,18.79c-9.637,6.669-16.796,12.47-23.106,17.581
	c-10.86,8.797-18.033,14.613-29.499,17.907c-9.644,2.766-19.859,3.144-31.029,1.091c1.186-2.107,2.439-4.168,3.745-6.179
	C422.583,103.644,422.621,103.568,422.666,103.502z M213.625,166.575c3.759-5.267,9.367-8.657,15.777-9.533
	c1.083-0.156,2.167-0.223,3.24-0.223c5.266,0,10.333,1.772,14.524,5.141l174.787,140.518c-1.521,1.083-2.982,2.194-4.4,3.339
	c-0.052,0.037-0.104,0.073-0.155,0.119l-0.021,0.016l0,0l-0.803,0.667c-0.156,0.111-0.35,0.155-0.498,0.281
	c-3.657,3.048-6.871,6.259-9.784,9.553c-0.141,0.155-0.303,0.313-0.444,0.476c-1.589,1.237-2.828,2.855-3.828,4.807
	c-0.399,0.533-0.833,1.06-1.211,1.602L219.409,199.319c-5.2-3.56-8.664-8.937-9.761-15.146
	C208.541,177.954,209.959,171.708,213.625,166.575z"/>
<path fill="#D79E00" d="M537.994,345.472v13.017h14.428v-10.401c3.859,0.828,7.979,1.774,12.651,2.963l3.55-13.979
	c-6.024-1.528-11.354-2.749-16.21-3.729v-18.138h-14.429v15.728c-5.149-0.655-9.832-0.995-14.426-1.162v-14.563H509.13v14.557
	c-5.31,0.175-10.071,0.534-14.431,1.04v-15.597h-14.426v17.971c-4.833,1.018-9.395,2.158-13.998,3.333l-2.207,0.563l3.547,13.98
	l2.224-0.563c3.536-0.902,6.948-1.767,10.433-2.561v10.563h14.428v-13.146c4.339-0.557,9.049-0.968,14.429-1.154v14.3h14.429
	v-14.284C528.146,344.376,532.791,344.748,537.994,345.472z"/>
</svg>
