<?xml version="1.0" encoding="utf-8"?>
<!-- Generator: Adobe Illustrator 16.0.0, SVG Export Plug-In . SVG Version: 6.00 Build 0)  -->
<!DOCTYPE svg PUBLIC "-//W3C//DTD SVG 1.1//EN" "http://www.w3.org/Graphics/SVG/1.1/DTD/svg11.dtd">
<svg version="1.1" id="Layer_1" xmlns="http://www.w3.org/2000/svg" xmlns:xlink="http://www.w3.org/1999/xlink" x="0px" y="0px"
	 width="841.891px" height="595.281px" viewBox="0 0 841.891 595.281" enable-background="new 0 0 841.891 595.281"
	 xml:space="preserve">
<g>
	<path fill="#919B03" d="M635.201,379.647l-17.114,3.609l9.912-14.443l-12.278-8.408l-11.846,17.264
		c-2.201-4.521-5.011-8.719-8.349-12.479l8.929-19.928c11.411-25.441,17.339-53,17.397-80.884
		c-0.011-18.404-4.301-36.555-12.53-53.017c-8.233-16.566-20.938-30.498-36.677-40.219c-35.612-22.019-81.192-19.413-114.063,6.519
		c2.017-28.572,14.305-55.449,34.593-75.668l-10.521-10.521c-10.777,10.824-19.633,23.406-26.185,37.205
		c-11.286-28.232-38.604-46.769-69.008-46.826c-4.11,0-7.441,3.331-7.441,7.44c0.063,37.586,28.115,69.238,65.422,73.815
		c-0.866,5.022-1.448,10.091-1.741,15.18l-0.29-0.231c-24.891-19.863-57.766-26.656-88.489-18.282
		c-13.633-33.72-46.425-55.74-82.796-55.6H234.92c-4.109,0-7.441,3.332-7.441,7.441v37.205
		c-0.121,29.256,14.198,56.688,38.27,73.316c-23.543,9.599-40.449,33.008-49.192,68.457c-7.45,31.301-7.959,63.854-1.488,95.372
		c2.176,9.284,5.725,18.192,10.529,26.43l-8.848,1.801c-12.888,2.617-21.214,15.187-18.597,28.073
		c2.257,11.112,12.035,19.092,23.374,19.073H549.92c14.689,0.041,28.783-5.798,39.14-16.214l4.183-4.182
		c7.748-7.711,13.022-17.555,15.149-28.276l15.47,16.534l10.864-10.18l-18.841-20.091l22.383-4.71L635.201,379.647z M395.4,97.261
		c26.536,3.628,47.402,24.494,51.03,51.03C419.895,144.662,399.03,123.797,395.4,97.261z M434.094,189.672l11.979,9.599
		c2.719,2.177,6.583,2.177,9.302,0l11.965-9.592c27.996-22.33,66.995-24.688,97.478-5.894c13.391,8.274,24.198,20.131,31.2,34.229
		c7.196,14.396,10.946,30.27,10.953,46.364c-0.056,25.783-5.539,51.267-16.096,74.79l-7.158,15.961
		c-12.059-7.719-26.655-10.423-40.68-7.538l-137.718,28.104c1.413-11.3,0.788-22.762-1.846-33.841
		c-8.182-31.115-23.063-60.066-43.604-84.828c-17.523-20.753-36.155-33.484-54.996-37.897c0.186-0.364,0.357-0.743,0.535-1.131
		c14.242-28.815,43.658-46.999,75.802-46.855c19.21,0.027,37.844,6.559,52.869,18.528H434.094z M242.361,148.82v-29.764h29.764
		c30.028-0.104,57.15,17.924,68.681,45.65c-9.377,4.152-18.049,9.743-25.701,16.571l-13.216-13.216v-34.124h-14.882v19.242
		l-24.503-24.503l-10.521,10.521l24.503,24.503h-19.242v14.882h34.124l13.395,13.395c-4.95,5.938-9.194,12.431-12.65,19.347
		c-0.967,1.897-1.897,3.943-2.82,6.094h-1.25C260.289,205.96,242.232,178.844,242.361,148.82z M229.592,382.557
		c-5.999-29.226-5.52-59.41,1.407-88.43c5.908-23.93,18.996-53.872,47.808-60.6c28.812-6.727,53.799,14.258,69.708,33.083
		c19.073,22.949,32.892,49.794,40.486,78.651c2.579,11.047,2.792,22.514,0.625,33.648l-15.938,3.252
		c10.144-35.567-10.467-72.624-46.034-82.769c-35.567-10.144-72.624,10.467-82.769,46.034c-3.138,11.002-3.404,22.624-0.775,33.758
		c2.306,9.788,6.795,18.929,13.134,26.735l-15.998,3.267C235.782,401.089,231.835,392.065,229.592,382.557z M274.462,402.402
		c-7.916-7.014-13.454-16.315-15.85-26.616c-6.592-28.002,10.765-56.045,38.767-62.637c28.001-6.591,56.044,10.766,62.636,38.767
		c2.661,11.305,1.468,23.174-3.39,33.722L274.462,402.402z M582.713,430.426l-4.175,4.182c-7.571,7.617-17.878,11.886-28.618,11.854
		H221.526c-4.931,0.095-9.005-3.826-9.099-8.757c-0.084-4.372,3.011-8.162,7.313-8.953l99.665-20.336
		c-0.465,4.507-1.464,8.943-2.977,13.215l14.012,5.016c2.471-6.857,3.883-14.051,4.189-21.334l36.379-7.44
		c-0.193,5.911-1.29,11.758-3.252,17.338l14.019,5.015c2.878-8.155,4.286-16.756,4.16-25.403l36.394-7.441
		c0.246,7.285-0.874,14.551-3.304,21.423l14.019,5c3.31-9.433,4.656-19.441,3.959-29.414l36.319-7.44
		c0.89,8.595-0.145,17.28-3.028,25.426l14.019,5c3.772-10.705,4.996-22.143,3.572-33.402l42.793-8.729
		c0.621,6.771,0.067,13.598-1.637,20.18l-0.744,2.835l14.391,3.772l0.744-2.842c2.27-8.786,2.898-17.915,1.853-26.929l0.744-0.156
		c2.677-0.545,5.401-0.819,8.133-0.819c22.349,0.031,40.439,18.173,40.409,40.521c-0.015,10.711-4.276,20.979-11.851,28.555
		L582.713,430.426z"/>
	<path fill="#919B03" d="M624.597,208.758c1.917,4.187,3.613,8.472,5.083,12.836l14.138-4.748c-1.638-4.854-3.525-9.62-5.655-14.279
		L624.597,208.758z"/>
	<path fill="#919B03" d="M520.245,126.497c-3.581,0-7.147,0.151-10.7,0.454l1.258,14.822c3.141-0.26,6.28-0.395,9.442-0.395
		c39.549-0.182,76.346,20.22,97.143,53.858l12.649-7.857C606.532,149.358,564.945,126.297,520.245,126.497z"/>
</g>
</svg>
