<svg width="298" height="342" viewBox="0 0 298 342" fill="none" xmlns="http://www.w3.org/2000/svg">
<path d="M212.49 339.52V97.7324" stroke="#FFC91B" stroke-width="2"/>
<path d="M213.214 96.5099L263.276 150.577L296.564 112.42L290.954 46.2321L238.113 4.87774L194.742 2L148.03 15.2165L111.549 39.8371L62.7547 90.9968L21.9296 167.257L2 251.51L30.0222 339.521L213.069 95.976" stroke="#FFC91B" stroke-width="2"/>
<path d="M213.104 97.7324L296.564 112.461" stroke="#FFC91B" stroke-width="2"/>
<path d="M287.972 49.8672L210.649 97.7338" stroke="#FFC91B" stroke-width="2"/>
<path d="M213.104 96.5063L237.651 4.45508" stroke="#FFC91B" stroke-width="2"/>
<path d="M213.105 97.7333L194.694 2" stroke="#FFC91B" stroke-width="2"/>
<path d="M213.104 100.188L148.055 16.7285" stroke="#FFC91B" stroke-width="2"/>
<path d="M213.104 97.7339L112.461 43.7305" stroke="#FFC91B" stroke-width="2"/>
<path d="M210.649 96.5059L64.5947 90.3691" stroke="#FFC91B" stroke-width="2"/>
<path d="M213.104 97.7324L22.8647 168.919" stroke="#FFC91B" stroke-width="2"/>
<path d="M213.104 97.7324L2 253.606" stroke="#FFC91B" stroke-width="2"/>
<path d="M41.6174 323.566L16.7275 241.09L41.6174 160.64L82.0933 93.2531L129.797 52.6322L160.992 33.4469L198.047 22.8652L232.541 26.4584L273.834 59.1786L278.153 110.347L250.682 138.558" stroke="#FFC91B" stroke-width="2"/>
</svg>
