<?xml version="1.0" encoding="utf-8"?>
<!-- Generator: Adobe Illustrator 16.0.0, SVG Export Plug-In . SVG Version: 6.00 Build 0)  -->
<!DOCTYPE svg PUBLIC "-//W3C//DTD SVG 1.1//EN" "http://www.w3.org/Graphics/SVG/1.1/DTD/svg11.dtd">
<svg version="1.1" id="Layer_1" xmlns="http://www.w3.org/2000/svg" xmlns:xlink="http://www.w3.org/1999/xlink" x="0px" y="0px"
	 width="841.891px" height="595.279px" viewBox="0 0 841.891 595.279" enable-background="new 0 0 841.891 595.279"
	 xml:space="preserve">
<line fill="none" stroke="#C53F00" stroke-width="6" stroke-miterlimit="10" x1="523.587" y1="560.932" x2="523.587" y2="181.621"/>
<polyline fill="none" stroke="#C53F00" stroke-width="6" stroke-miterlimit="10" points="523.587,181.621 602.418,266.167 
	654.834,206.5 646,103 562.794,38.333 494.5,33.833 420.945,54.5 363.5,93 286.667,173 222.382,292.25 191,423.998 235.125,561.624 
	523.359,180.786 "/>
<line fill="none" stroke="#C53F00" stroke-width="6" stroke-miterlimit="10" x1="523.75" y1="181.621" x2="655.25" y2="206.5"/>
<line fill="none" stroke="#C53F00" stroke-width="6" stroke-miterlimit="10" x1="646" y1="103.5" x2="523.75" y2="181.797"/>
<line fill="none" stroke="#C53F00" stroke-width="6" stroke-miterlimit="10" x1="523.587" y1="181.797" x2="562.794" y2="38.75"/>
<line fill="none" stroke="#C53F00" stroke-width="6" stroke-miterlimit="10" x1="523.5" y1="181.5" x2="494.5" y2="34.25"/>
<line fill="none" stroke="#C53F00" stroke-width="6" stroke-miterlimit="10" x1="523.5" y1="181.797" x2="421.5" y2="54.5"/>
<line fill="none" stroke="#C53F00" stroke-width="6" stroke-miterlimit="10" x1="523.75" y1="181.797" x2="364" y2="93"/>
<line fill="none" stroke="#C53F00" stroke-width="6" stroke-miterlimit="10" x1="523.359" y1="181.621" x2="287.25" y2="173"/>
<line fill="none" stroke="#C53F00" stroke-width="6" stroke-miterlimit="10" x1="523.262" y1="181.5" x2="222.5" y2="291.75"/>
<line fill="none" stroke="#C53F00" stroke-width="6" stroke-miterlimit="10" x1="523.262" y1="181.797" x2="191.334" y2="423.998"/>
<polyline fill="none" stroke="#C53F00" stroke-width="6" stroke-miterlimit="10" points="254.424,536.147 215.309,406.505 
	254.424,280.048 318.033,174.124 393.001,110.273 442.025,80.115 500.258,63.483 554.467,69.131 619.358,120.563 626.146,200.994 
	582.975,245.338 "/>
<g id="Layer_2">
</g>
</svg>
