<?xml version="1.0" encoding="utf-8"?>
<!-- Generator: Adobe Illustrator 16.0.0, SVG Export Plug-In . SVG Version: 6.00 Build 0)  -->
<!DOCTYPE svg PUBLIC "-//W3C//DTD SVG 1.1//EN" "http://www.w3.org/Graphics/SVG/1.1/DTD/svg11.dtd">
<svg version="1.1" id="Layer_1" xmlns="http://www.w3.org/2000/svg" xmlns:xlink="http://www.w3.org/1999/xlink" x="0px" y="0px"
	 width="841.891px" height="595.281px" viewBox="0 0 841.891 595.281" enable-background="new 0 0 841.891 595.281"
	 xml:space="preserve">
<path fill="#C53F00" d="M197.782,396.412c0.06,3.684,0.379,7.292,0.863,10.85c0.074,0.55,0.163,1.086,0.253,1.637
	c0.55,3.512,1.279,6.95,2.225,10.313c0.037,0.126,0.06,0.253,0.097,0.387c2.099,7.314,5.112,14.22,8.892,20.634
	c0.238,0.409,0.491,0.812,0.744,1.221c1.727,2.819,3.587,5.536,5.604,8.14c0.268,0.351,0.521,0.715,0.796,1.064
	c2.263,2.835,4.673,5.536,7.263,8.073c0.395,0.388,0.826,0.737,1.228,1.116c2.158,2.039,4.413,3.959,6.757,5.782
	c0.804,0.625,1.622,1.235,2.448,1.83c2.023,1.459,4.107,2.813,6.25,4.1c0.104,0.067,0.186,0.164,0.298,0.231
	c0.305,0.179,0.61,0.356,0.923,0.535c0.387,0.253,0.773,0.499,1.176,0.729c0.021,0.015,0.044,0.029,0.066,0.045
	c0.015,0.007,0.03,0.007,0.052,0.022c0.082,0.044,0.164,0.074,0.246,0.118c3.312,1.831,6.778,3.408,10.328,4.814
	c0.327,0.127,0.654,0.238,0.982,0.365c2.857,1.094,5.781,2.031,8.766,2.827c0.699,0.187,1.406,0.372,2.112,0.543
	c2.672,0.641,5.396,1.153,8.156,1.548c0.781,0.112,1.555,0.269,2.344,0.357c3.4,0.395,6.846,0.647,10.357,0.647
	c3.564,0,7.062-0.268,10.521-0.677c0.261-0.03,0.528-0.09,0.797-0.119c3.423-0.439,6.778-1.087,10.067-1.897
	c0.097-0.022,0.193-0.03,0.282-0.053c0.053-0.015,0.09-0.044,0.135-0.052c28.759-7.263,51.953-28.454,62.013-56.001
	c0.022-0.067,0.074-0.119,0.097-0.187c0.06-0.171,0.104-0.35,0.164-0.521c0.729-2.054,1.392-4.137,1.972-6.258
	c0.164-0.596,0.313-1.19,0.462-1.786c0.469-1.867,0.907-3.75,1.257-5.662c0.216-1.161,0.365-2.329,0.536-3.497
	c0.201-1.437,0.438-2.851,0.573-4.309c0.26-2.761,0.416-5.514,0.416-8.274c0-2.909-0.156-5.804-0.438-8.691
	c-0.156-1.592-0.439-3.147-0.678-4.71c-0.186-1.221-0.319-2.448-0.558-3.661c-0.409-2.113-0.952-4.174-1.511-6.235
	c-0.171-0.625-0.298-1.265-0.483-1.89c-0.662-2.248-1.443-4.436-2.277-6.601c-0.148-0.38-0.245-0.773-0.395-1.153
	c-0.015-0.045-0.052-0.082-0.074-0.127c-8.944-22.345-26.624-40.263-48.843-49.46c-0.052-0.022-0.089-0.06-0.134-0.074
	c-0.35-0.142-0.722-0.231-1.071-0.365c-2.672-1.063-5.402-1.994-8.192-2.798c-0.61-0.171-1.229-0.313-1.838-0.476
	c-2.731-0.722-5.507-1.317-8.334-1.778c-0.432-0.067-0.863-0.135-1.295-0.201c-3.118-0.462-6.28-0.767-9.487-0.893
	c-0.097-0.008-0.193-0.016-0.298-0.016c-1.139-0.037-2.247-0.163-3.386-0.163c-13.178,0-25.664,2.946-36.937,8.096
	c-0.045,0.022-0.09,0.044-0.135,0.06c-2.954,1.354-5.811,2.872-8.579,4.531c-0.201,0.119-0.417,0.208-0.617,0.327
	c-0.067,0.037-0.104,0.112-0.172,0.149c-25.642,15.715-42.853,43.917-42.853,76.129c0,0.372,0.052,0.729,0.06,1.102
	c0,0.015-0.008,0.021-0.008,0.037C197.766,396.263,197.782,396.33,197.782,396.412z M254.996,327.977
	c1.688-0.812,3.393-1.563,5.134-2.24c0.238-0.089,0.477-0.171,0.715-0.26c7.337-2.761,15.075-4.309,22.858-4.674
	c0.67-0.029,1.34-0.089,2.009-0.104c1.31-0.03,2.619,0.022,3.93,0.066c1.108,0.037,2.217,0.082,3.311,0.172
	c1.146,0.089,2.284,0.216,3.423,0.356c1.228,0.157,2.44,0.343,3.646,0.559c1.057,0.186,2.113,0.372,3.162,0.61
	c0.335,0.074,0.655,0.179,0.99,0.253l-20.247,20.247h-22.085l-7.367-14.733C254.646,328.148,254.824,328.066,254.996,327.977z
	 M345.374,406.487l14.972-23.536c0.134,0.812,0.268,1.622,0.372,2.441c0.126,0.938,0.268,1.867,0.35,2.805
	c0.208,2.263,0.35,4.539,0.35,6.854c0,3.318-0.282,6.63-0.744,9.934c-0.074,0.543-0.164,1.086-0.253,1.63
	c-0.528,3.273-1.228,6.533-2.202,9.763l-23.819,4.762l10.648-14.183c0.022-0.022,0.022-0.06,0.037-0.082L345.374,406.487z
	 M300.698,468.121c-3.051,0.588-6.064,0.9-9.056,1.109c-0.818,0.052-1.645,0.104-2.471,0.126c-2.307,0.074-4.591,0.015-6.86-0.126
	c-0.826-0.053-1.667-0.045-2.492-0.127c-2.954-0.29-5.879-0.752-8.766-1.398c-0.491-0.104-0.96-0.254-1.443-0.372
	c-2.687-0.663-5.351-1.451-7.97-2.411c-0.171-0.06-0.335-0.127-0.506-0.187l21.735-18.111l23.997-4.799L300.698,468.121z
	 M312.522,425.513l-27.123,5.425l-3.795-18.981l-1.265-6.325l22.011-16.504l25.843,15.499L312.522,425.513z M272.125,393.19
	l-20.329-15.247l10.046-20.098h20.566l10.053,20.098L272.125,393.19z M241.334,388.703l24.05,18.037l6.02,30.077l-24.778,20.641
	c-0.156-0.097-0.32-0.186-0.469-0.282c-4.555-2.999-8.722-6.467-12.449-10.313c-0.357-0.364-0.685-0.759-1.026-1.131
	c-1.525-1.637-2.984-3.326-4.354-5.09c-0.32-0.409-0.625-0.833-0.938-1.258c-1.384-1.867-2.693-3.787-3.892-5.767
	c-0.186-0.298-0.364-0.595-0.543-0.9c-5.61-9.539-9.108-20.313-10.038-31.587c-0.008-0.082-0.008-0.156-0.015-0.238L241.334,388.703
	z M317.187,463.002l5.729-24.392l27.964-5.588C343.03,446.177,331.281,456.714,317.187,463.002z M354.638,364.2l-17.918,28.187
	L307.574,374.9l-11.519-23.03l23.588-23.588C335.06,335.849,347.472,348.559,354.638,364.2z M241.773,336.103l7.15,14.301
	l-12.002,23.998l-23.484,10.06C216.258,364.833,226.727,347.674,241.773,336.103z"/>
<path fill="#C53F00" d="M211.979,211.845l183.212,125.262c-0.535,1.354-0.944,2.731-1.376,4.107
	c-0.03,0.104-0.067,0.201-0.097,0.298c-0.737,2.396-1.317,4.814-1.719,7.27c-0.06,0.335-0.142,0.67-0.194,1.005
	c-0.379,2.619-0.625,5.253-0.625,7.925c0,0.029,0.008,0.052,0.008,0.082c0,0.015-0.008,0.029-0.008,0.052
	c0,13.49,5.112,26.646,14.786,38.455c-0.313,0.32-0.596,0.662-0.9,0.989c-0.142,0.156-0.306,0.283-0.447,0.439
	c-0.037,0.045-0.052,0.104-0.089,0.142c-8.267,9.197-13.35,21.311-13.35,34.615c0,13.163,4.971,25.165,13.082,34.318
	c0.037,0.044,0.044,0.104,0.089,0.148c0.171,0.193,0.364,0.35,0.536,0.543c0.923,1.005,1.882,1.972,2.879,2.902
	c0.32,0.298,0.647,0.595,0.976,0.886c1.026,0.915,2.098,1.778,3.199,2.604c0.313,0.231,0.617,0.469,0.931,0.7
	c1.175,0.848,2.396,1.637,3.638,2.381c0.261,0.156,0.521,0.327,0.789,0.477c1.347,0.773,2.738,1.48,4.152,2.135
	c0.187,0.082,0.365,0.187,0.551,0.269c1.511,0.677,3.059,1.272,4.644,1.801c0.111,0.037,0.223,0.089,0.335,0.126
	c1.614,0.528,3.259,0.975,4.94,1.34c0.089,0.021,0.186,0.052,0.275,0.074c1.607,0.342,3.244,0.603,4.896,0.789
	c0.164,0.021,0.328,0.059,0.491,0.074c1.794,0.186,3.609,0.29,5.455,0.29c9.286,0,17.992-2.485,25.545-6.786
	c0.029-0.015,0.052-0.03,0.081-0.045c1.474-0.841,2.902-1.756,4.286-2.738c0.187-0.134,0.365-0.275,0.551-0.409
	c1.213-0.886,2.389-1.815,3.52-2.798c0.269-0.23,0.521-0.477,0.781-0.714c1.042-0.945,2.039-1.92,2.999-2.939
	c0.119-0.127,0.261-0.238,0.38-0.372c0.037-0.045,0.052-0.104,0.089-0.148c7.24-7.918,12.084-18.053,13.305-29.281
	c7.775,0.945,15.521,1.585,23.104,1.585c8.974,0,17.717-0.625,26.162-1.785l33.678,20.991c2.099,14.376,14.511,25.44,29.452,25.44
	c16.414,0,29.764-13.35,29.764-29.764c0-16.415-13.35-29.765-29.764-29.765h-5.075l-4.755-3.37
	c7.226-3.788,13.751-8.089,19.54-12.799c0.335-0.201,0.7-0.32,1.013-0.58c9.405-7.851,16.311-16.571,20.745-25.836
	c0.037-0.074,0.067-0.156,0.104-0.23c1.086-2.292,2.009-4.621,2.782-6.979c0.149-0.454,0.298-0.908,0.439-1.369
	c0.61-2.054,1.102-4.122,1.474-6.213c0.111-0.596,0.245-1.176,0.334-1.771c0.365-2.582,0.604-5.187,0.604-7.82
	s-0.238-5.238-0.61-7.828c-0.09-0.595-0.23-1.183-0.335-1.771c-0.372-2.091-0.855-4.16-1.474-6.214
	c-0.142-0.461-0.29-0.915-0.438-1.369c-0.767-2.358-1.697-4.688-2.783-6.979c-0.037-0.074-0.067-0.156-0.104-0.23
	c-4.435-9.264-11.34-17.985-20.745-25.835c-0.298-0.246-0.647-0.351-0.968-0.544c-13.624-11.109-31.579-19.859-52.229-25.202
	c0.499-0.193,0.982-0.417,1.474-0.618c0.565-0.23,1.124-0.469,1.689-0.707c18.305-7.872,34.646-20.038,47.577-35.717
	c0.016-0.021,0.03-0.037,0.053-0.06c2.552-3.103,5.015-6.295,7.292-9.665c0.097-0.142,0.134-0.298,0.216-0.447
	c13.49-20.12,21.386-44.288,21.386-70.28c0-3.103-0.193-6.369-0.499-9.792c-0.179-2.292-0.424-4.554-0.722-6.809
	c-0.015-0.097-0.015-0.171-0.029-0.261c-0.008-0.029-0.022-0.06-0.022-0.089c-6.399-47.466-39.155-86.576-83.071-102.165
	c-0.075-0.029-0.135-0.082-0.209-0.111c-0.186-0.067-0.379-0.104-0.565-0.171c-2.813-0.976-5.662-1.838-8.557-2.62
	c-0.9-0.245-1.801-0.469-2.701-0.699c-2.522-0.617-5.061-1.19-7.635-1.659c-1.696-0.313-3.394-0.536-5.09-0.781
	c-1.935-0.268-3.854-0.573-5.812-0.752c-3.854-0.364-7.716-0.588-11.585-0.588c-3.811,0-7.59,0.231-11.341,0.573
	c-1.257,0.111-2.507,0.268-3.758,0.417c-2.507,0.305-4.992,0.691-7.463,1.146c-1.377,0.253-2.761,0.469-4.122,0.759
	c-3.163,0.692-6.295,1.488-9.376,2.419c-1.89,0.565-3.728,1.235-5.581,1.883c-1.429,0.506-2.85,1.012-4.256,1.563
	c-1.994,0.781-3.974,1.592-5.915,2.478c-1.072,0.483-2.121,1.02-3.178,1.533c-3.869,1.867-7.612,3.914-11.236,6.161
	c-0.773,0.476-1.569,0.923-2.336,1.421c-1.86,1.205-3.654,2.478-5.447,3.78c-1.057,0.767-2.098,1.548-3.133,2.344
	c-1.688,1.302-3.363,2.619-4.985,4.003c-1.049,0.9-2.054,1.86-3.073,2.798c-2.619,2.396-5.127,4.889-7.537,7.493
	c-1.064,1.153-2.144,2.292-3.17,3.482c-1.295,1.503-2.53,3.051-3.751,4.621c-0.944,1.213-1.86,2.44-2.761,3.69
	c-1.19,1.652-2.381,3.297-3.497,5.001c-0.67,1.026-1.279,2.105-1.92,3.154c-2.18,3.557-4.174,7.218-5.997,10.99
	c-0.364,0.76-0.781,1.488-1.139,2.263c-0.022,0.052-0.015,0.119-0.037,0.171c-7.307,15.969-11.489,33.663-11.489,52.354
	c0,2.895,0.246,5.73,0.432,8.58c0,0.022-0.007,0.052-0.007,0.074c0,0.052,0.015,0.097,0.015,0.148
	c0.275,3.944,0.736,7.821,1.361,11.66c0.037,0.216,0.06,0.432,0.097,0.641c0.641,3.765,1.444,7.463,2.404,11.109
	c0.066,0.268,0.134,0.528,0.208,0.796c0.975,3.602,2.105,7.128,3.386,10.589c0.104,0.275,0.201,0.558,0.305,0.833
	c1.295,3.438,2.738,6.801,4.316,10.09c0.126,0.268,0.26,0.543,0.387,0.812c1.607,3.281,3.341,6.474,5.216,9.591
	c0.142,0.238,0.29,0.477,0.432,0.715c1.235,2.017,2.44,4.048,3.78,5.99c0.06,0.097,0.089,0.208,0.156,0.305
	c1.838,2.649,3.795,5.187,5.804,7.672c0.514,0.625,1.034,1.242,1.556,1.86c2.225,2.642,4.524,5.208,6.942,7.642
	c0.126,0.127,0.245,0.261,0.372,0.387c2.545,2.537,5.209,4.919,7.947,7.226c0.632,0.528,1.257,1.057,1.897,1.577
	c2.7,2.188,5.469,4.278,8.326,6.229c0.588,0.401,1.205,0.767,1.801,1.16c2.433,1.601,4.926,3.11,7.463,4.539
	c0.849,0.477,1.682,0.976,2.545,1.437c2.865,1.525,5.797,2.932,8.78,4.234c1.064,0.469,2.144,0.899,3.223,1.339
	c0.208,0.082,0.409,0.171,0.617,0.253l0,0c-12.352,3.192-23.796,7.561-33.879,12.97L257.555,150.494
	c-8.282-6.659-18.654-9.531-29.169-8.081c-10.529,1.444-19.733,7.002-25.909,15.656c-6.021,8.431-8.342,18.691-6.533,28.894
	C197.737,197.157,203.437,205.997,211.979,211.845z M464.17,462.741c-0.699,0.491-1.451,0.886-2.18,1.317
	c-1.057,0.64-2.136,1.235-3.252,1.771c-1.176,0.536-2.374,1.02-3.602,1.429c-0.536,0.187-1.086,0.343-1.63,0.506
	c-7.054,1.995-14.711,1.928-21.757-0.253c-0.238-0.074-0.484-0.141-0.715-0.223c-1.443-0.483-2.85-1.087-4.227-1.749
	c-0.788-0.387-1.555-0.811-2.314-1.257c-0.996-0.573-1.994-1.153-2.938-1.831c-0.187-0.134-0.343-0.298-0.528-0.438
	c12.553-9.108,30.977-9.019,43.582,0.372C464.445,462.496,464.326,462.637,464.17,462.741z M442.568,440.158
	c-11.392,0-22.42,3.869-31.408,10.737c-3.155-5.439-5.097-11.675-5.097-18.409c0-6.838,1.994-13.163,5.238-18.662
	c9.041,7.032,20.195,10.99,31.736,10.99c11.525,0,22.665-3.951,31.698-10.96c0.179,0.305,0.38,0.603,0.551,0.922
	c0.432,0.781,0.9,1.533,1.279,2.352c0.61,1.332,1.072,2.746,1.525,4.16c0.269,0.825,0.566,1.644,0.774,2.492
	c0.357,1.474,0.551,2.999,0.722,4.531c0.156,1.392,0.424,2.746,0.424,4.175c0,6.935-2.038,13.364-5.38,18.915
	C465.539,444.213,454.265,440.158,442.568,440.158z M421.525,402.544c1.511-1.087,3.118-1.979,4.74-2.82
	c0.208-0.111,0.409-0.23,0.625-0.343c1.168-0.55,2.366-1.019,3.587-1.443c0.58-0.216,1.168-0.409,1.763-0.595
	c7.151-2.091,14.92-2.076,22.041,0.104c0.148,0.045,0.297,0.09,0.438,0.134c1.443,0.462,2.843,1.064,4.22,1.704
	c0.469,0.224,0.922,0.469,1.384,0.715c0.357,0.193,0.722,0.379,1.071,0.58c0.863,0.483,1.712,0.99,2.53,1.548
	c0.29,0.201,0.558,0.446,0.841,0.662c-12.583,9.183-30.947,9.175-43.516-0.029C421.346,402.7,421.428,402.61,421.525,402.544z
	 M428.624,382.698c-0.06,0.016-0.111,0.045-0.171,0.06c-1.339,0.395-2.642,0.856-3.929,1.354c-0.357,0.134-0.722,0.246-1.071,0.395
	c-0.469,0.193-0.931,0.401-1.392,0.603c-0.008,0-0.015,0.008-0.022,0.008c-1.429,0.64-2.835,1.324-4.197,2.083
	c-7.716-9.219-11.757-19.294-11.778-29.429c0-2.106,0.2-4.189,0.528-6.251c0.089-0.543,0.208-1.063,0.319-1.592
	c0.29-1.466,0.662-2.917,1.109-4.354c0.223-0.714,0.446-1.436,0.706-2.128c0.417-1.131,0.931-2.239,1.437-3.349
	c0.275-0.58,0.514-1.19,0.804-1.756c0.074-0.119,0.201-0.193,0.268-0.32c1.19-2.262,2.672-4.568,4.524-7.054
	c0.089-0.127,0.119-0.275,0.186-0.409c0.715-0.938,1.451-1.823,2.203-2.693c0.707-0.834,1.57-1.704,2.433-2.59c0,0,0,0,0.008,0
	l0.06-0.06c0.499-0.521,1.05-0.975,1.563-1.488c8.922,10.351,13.617,21.98,13.617,33.983
	C435.827,366.268,433.401,374.662,428.624,382.698z M494.009,423.2c-0.261-1.443-0.596-2.851-0.975-4.249
	c-0.03-0.111-0.06-0.23-0.09-0.342c-0.364-1.303-0.781-2.582-1.242-3.84c-0.082-0.224-0.156-0.446-0.246-0.662
	c-0.454-1.198-0.952-2.366-1.488-3.52c-0.119-0.254-0.245-0.507-0.364-0.76c-0.551-1.123-1.124-2.225-1.749-3.304
	c-0.142-0.238-0.282-0.469-0.424-0.707c-0.655-1.086-1.324-2.15-2.054-3.177c-0.104-0.142-0.216-0.275-0.313-0.424
	c-1.094-1.519-2.27-2.962-3.52-4.354c-0.037-0.045-0.052-0.104-0.09-0.142c-0.141-0.156-0.305-0.29-0.446-0.438
	c-0.952-1.027-1.935-2.002-2.969-2.947c-0.282-0.26-0.558-0.513-0.849-0.766c-1.086-0.96-2.217-1.86-3.385-2.724
	c-0.209-0.156-0.417-0.327-0.625-0.477c-0.172-0.126-0.343-0.253-0.514-0.372c-0.834-0.588-1.704-1.123-2.575-1.659
	c-0.476-0.298-0.952-0.596-1.443-0.878c-0.811-0.461-1.645-0.893-2.485-1.317c-0.595-0.298-1.183-0.588-1.793-0.863
	c-0.111-0.052-0.224-0.111-0.343-0.163c-0.007,0-0.015-0.008-0.022-0.008c-0.677-0.298-1.369-0.573-2.061-0.848
	c-0.699-0.275-1.399-0.528-2.113-0.774c-0.773-0.268-1.548-0.528-2.337-0.751c-0.818-0.238-1.651-0.439-2.485-0.641
	c-0.714-0.171-1.429-0.35-2.157-0.491c-1.005-0.193-2.024-0.327-3.051-0.469c-0.439-0.06-0.871-0.156-1.31-0.2
	c-0.016,0-0.03-0.008-0.045-0.008c-0.142-0.015-0.29-0.022-0.432-0.037c-0.677-0.067-1.361-0.082-2.039-0.119
	c3.036-7.479,4.732-15.172,4.732-23.06c0-15.582-5.9-30.449-17.084-43.471c0.558-0.38,1.049-0.744,1.637-1.139
	c1.54-1.026,3.081-2.046,4.725-3.006c0.395-0.23,0.729-0.528,1.072-0.818c20.016-11.37,46.945-18.402,76.62-18.402
	c33.655,0,63.813,9.026,84.291,23.209c-11.34,13.081-17.322,28.061-17.322,43.761s5.982,30.68,17.322,43.761
	c-6.228,4.315-13.312,8.162-21.169,11.414c-0.365,0.09-0.737,0.149-1.094,0.29c-10.76,4.383-22.658,7.567-35.367,9.473
	c-0.045,0.008-0.082,0.03-0.127,0.037c-8.527,1.258-17.375,1.994-26.534,1.994C509.925,424.814,501.993,424.271,494.009,423.2z
	 M505.669,275.287c-1.213-0.134-2.396-0.342-3.595-0.513c-0.007,0-0.007,0-0.015,0c-2.753-0.395-5.491-0.871-8.192-1.459
	c-1.198-0.26-2.381-0.551-3.564-0.855c-0.245-0.06-0.491-0.127-0.736-0.193c-2.448-0.64-4.866-1.384-7.263-2.188
	c-0.915-0.306-1.83-0.596-2.738-0.931c-0.595-0.216-1.198-0.424-1.786-0.654c-2.671-1.027-5.283-2.173-7.857-3.4
	c-0.104-0.053-0.216-0.09-0.32-0.142c-0.751-0.357-1.503-0.707-2.247-1.079c-1.25-0.64-2.448-1.361-3.668-2.047
	c-1.727-0.959-3.453-1.912-5.127-2.961c-1.875-1.184-3.69-2.456-5.491-3.743c-1.19-0.848-2.359-1.711-3.52-2.611
	c-1.897-1.474-3.772-2.977-5.573-4.569c-0.812-0.714-1.585-1.488-2.374-2.232c-1.815-1.703-3.631-3.407-5.328-5.223
	c-0.029-0.038-0.06-0.067-0.097-0.104c-2.21-2.374-4.315-4.845-6.317-7.396c-0.037-0.045-0.082-0.089-0.119-0.134
	c-0.476-0.61-0.885-1.28-1.354-1.905c1.228-2.679,2.597-5.298,4.1-7.806c5.269-8.84,11.831-19.83,23.722-24.332
	c15.901-6.042,32.659,3.423,52.035,14.392c7.91,4.479,16.095,9.107,24.733,12.932c20.076,8.885,42.601,13.313,67.312,13.037
	c-0.804,0.886-1.585,1.793-2.418,2.656c-0.931,0.96-1.875,1.897-2.828,2.828c-1.703,1.644-3.444,3.236-5.253,4.77
	c-1.02,0.863-2.068,1.696-3.118,2.522c-1.815,1.436-3.66,2.842-5.565,4.167c-1.205,0.833-2.44,1.6-3.676,2.381
	c-1.838,1.176-3.684,2.337-5.596,3.408c-1.488,0.826-3.021,1.563-4.547,2.321c-1.748,0.871-3.489,1.771-5.29,2.553
	c-1.875,0.811-3.803,1.495-5.723,2.202c-1.555,0.58-3.088,1.205-4.68,1.719c-2.307,0.736-4.666,1.31-7.024,1.89
	c-1.303,0.328-2.575,0.729-3.892,1.005c-2.753,0.58-5.559,0.968-8.371,1.34c-0.997,0.134-1.972,0.35-2.984,0.453
	c-3.839,0.395-7.724,0.61-11.645,0.61C513.637,275.994,509.635,275.719,505.669,275.287z M626.436,343.001
	c0.401,1.026,0.722,2.099,1.049,3.17c0.319,1.086,0.603,2.173,0.833,3.273c0.164,0.767,0.343,1.525,0.462,2.314
	c0.305,2.009,0.513,4.033,0.513,6.087s-0.208,4.077-0.513,6.087c-0.119,0.788-0.298,1.548-0.462,2.313
	c-0.23,1.102-0.514,2.188-0.833,3.274c-0.327,1.071-0.647,2.144-1.049,3.17c-0.097,0.253-0.224,0.491-0.32,0.744
	c-3.036,7.366-7.865,13.603-12.836,18.551c-9.019-10.388-13.751-22.078-13.751-34.14s4.732-23.752,13.751-34.132
	c4.971,4.94,9.8,11.177,12.836,18.551C626.213,342.51,626.34,342.755,626.436,343.001z M581.485,428.594l13.743,9.732
	c1.258,0.894,2.761,1.369,4.301,1.369h7.441c8.207,0,14.882,6.675,14.882,14.883c0,8.207-6.675,14.882-14.882,14.882
	c-8.208,0-14.883-6.675-14.883-14.882c0-2.567-1.324-4.956-3.504-6.317l-23.351-14.555c0.313-0.082,0.596-0.201,0.9-0.283
	c4.45-1.198,8.751-2.567,12.926-4.07C579.847,429.078,580.704,428.885,581.485,428.594z M612.022,223.751
	c-27.196,1.905-51.774-1.823-73.019-11.229c-7.977-3.534-15.826-7.977-23.432-12.277c-20.73-11.728-42.168-23.878-64.64-15.351
	c-16.742,6.34-25.456,20.946-31.23,30.619c-0.193,0.32-0.35,0.67-0.543,0.997c-6.392-12.039-10.678-25.389-12.271-39.571
	c32.451-15.73,66.918-25.887,102.516-30.225c40.01-4.867,80.132-2.27,119.346,7.701c0.037,0.372,0.053,0.707,0.082,1.071
	c0.246,2.946,0.461,5.894,0.461,8.892C629.293,186.211,622.901,206.532,612.022,223.751z M626.153,138.544
	c-39.013-9.152-78.822-11.437-118.527-6.6c-35.122,4.271-69.157,14.011-101.377,28.9c0.409-13.073,3.059-25.574,7.612-37.152
	c6.979,1.532,13.773,2.321,20.352,2.321c7.434,0,14.592-0.982,21.422-2.947c14.406-4.137,23.425-11.451,34.847-20.7
	c6.124-4.963,13.074-10.589,22.278-16.966c13.975-9.673,29.027-18.104,44.728-25.173
	C591.545,73.294,617.566,102.529,626.153,138.544z M424.279,103.452c0.975-1.495,2.023-2.932,3.072-4.367
	c0.752-1.035,1.511-2.062,2.292-3.066c1.071-1.376,2.15-2.745,3.282-4.07c0.9-1.049,1.845-2.046,2.782-3.065
	c1.957-2.128,3.988-4.174,6.102-6.131c0.878-0.819,1.757-1.63,2.664-2.426c1.384-1.206,2.783-2.389,4.227-3.527
	c0.796-0.625,1.622-1.213,2.434-1.823c2.686-2.002,5.454-3.884,8.304-5.641c0.849-0.521,1.682-1.049,2.545-1.547
	c1.652-0.96,3.334-1.876,5.03-2.746c0.952-0.483,1.92-0.93,2.887-1.392c2.724-1.295,5.499-2.478,8.319-3.557
	c1.332-0.506,2.656-1.02,4.011-1.474c1.503-0.506,3.028-0.982,4.562-1.421c1.964-0.565,3.943-1.071,5.952-1.533
	c1.362-0.313,2.731-0.625,4.107-0.885c2.62-0.499,5.261-0.908,7.94-1.213c0.975-0.112,1.957-0.216,2.938-0.298
	c3.289-0.29,6.593-0.506,9.949-0.506c3.393,0,6.733,0.208,10.045,0.506c1.645,0.156,3.281,0.387,4.919,0.617
	c0.952,0.127,1.897,0.283,2.842,0.432c-10.819,5.663-21.259,11.965-31.2,18.849c-9.665,6.689-16.846,12.508-23.179,17.635
	c-10.894,8.825-18.089,14.659-29.593,17.963c-9.673,2.775-19.919,3.154-31.126,1.094c1.191-2.113,2.448-4.182,3.758-6.198
	C424.197,103.594,424.234,103.519,424.279,103.452z M214.584,166.723c3.772-5.283,9.397-8.684,15.827-9.563
	c1.086-0.156,2.173-0.223,3.251-0.223c5.283,0,10.365,1.778,14.57,5.156L423.564,303.05c-1.525,1.087-2.991,2.202-4.413,3.349
	c-0.052,0.037-0.104,0.074-0.156,0.119l-0.021,0.015l0,0l-0.804,0.67c-0.156,0.111-0.35,0.156-0.499,0.282
	c-3.668,3.059-6.891,6.28-9.814,9.584c-0.142,0.156-0.306,0.313-0.446,0.477c-1.593,1.242-2.835,2.865-3.84,4.822
	c-0.401,0.535-0.833,1.063-1.213,1.607l-181.97-124.407c-5.216-3.571-8.691-8.966-9.792-15.194
	C209.486,178.137,210.908,171.872,214.584,166.723z"/>
<path fill="#C53F00" d="M540.001,344.422v13.424h14.883v-10.73c3.98,0.856,8.229,1.831,13.051,3.059l3.661-14.421
	c-6.213-1.577-11.712-2.835-16.72-3.847v-18.707h-14.882v16.222c-5.313-0.677-10.143-1.026-14.882-1.198v-15.023h-14.883v15.017
	c-5.477,0.179-10.388,0.551-14.882,1.071v-16.088h-14.882v18.536c-4.985,1.049-9.688,2.225-14.436,3.438l-2.276,0.58l3.66,14.421
	l2.292-0.58c3.646-0.931,7.166-1.823,10.76-2.642v10.894h14.882v-13.558c4.473-0.573,9.331-0.997,14.882-1.19v14.748h14.883v-14.733
	C529.844,343.291,534.636,343.677,540.001,344.422z"/>
</svg>
