<?xml version="1.0" encoding="utf-8"?>
<!-- Generator: Adobe Illustrator 16.0.0, SVG Export Plug-In . SVG Version: 6.00 Build 0)  -->
<!DOCTYPE svg PUBLIC "-//W3C//DTD SVG 1.1//EN" "http://www.w3.org/Graphics/SVG/1.1/DTD/svg11.dtd">
<svg version="1.1" id="Layer_1" xmlns="http://www.w3.org/2000/svg" xmlns:xlink="http://www.w3.org/1999/xlink" x="0px" y="0px"
	 width="100.89px" height="100.279px" viewBox="0 0 100.89 100.279" enable-background="new 0 0 100.89 100.279"
	 xml:space="preserve">
<path fill="#FFAC1E" d="M25.751,55.672V71.4c0,0.443,0.359,0.802,0.802,0.802h47.8c0.443,0,0.803-0.358,0.803-0.802V55.672
	c0-7.732-5.506-14.044-12.381-14.377l0.082-0.146c0.185-0.336,0.107-0.755-0.186-1.002l-1.904-1.604
	c4.826-0.642,7.229-2.697,7.352-2.805c0.211-0.186,0.309-0.469,0.257-0.745c-0.05-0.276-0.241-0.507-0.503-0.606
	c-2.83-1.074-4.357-5.49-4.6-6.249c0.764-1.761,1.194-3.702,1.194-5.745c0-7.896-6.331-14.319-14.113-14.319
	c-7.782,0-14.113,6.424-14.113,14.319c0,2.105,0.462,4.101,1.271,5.903c-0.002,0.009-0.009,0.016-0.012,0.024
	c-0.014,0.049-1.351,4.9-4.42,6.066c-0.262,0.1-0.453,0.33-0.504,0.606c-0.05,0.276,0.047,0.559,0.258,0.745
	c0.122,0.107,2.541,2.177,7.401,2.812l-1.896,1.597c-0.294,0.247-0.372,0.666-0.186,1.002l0.078,0.14
	C31.309,41.565,25.751,47.902,25.751,55.672z M62.21,42.867c0.669,0,1.322,0.079,1.96,0.205c-1.308,2.729-3.419,5.02-6.015,6.554
	l3.748-6.759H62.21z M55.446,51.202l-3.494-2.929l7.03-9.137l2.151,1.812L55.446,51.202z M37.846,22.393
	c0-0.549,0.046-1.086,0.112-1.616c0.325,0.053,1.149,0.163,2.367,0.163c2.752,0,7.47-0.575,12.737-3.681
	c0.978,1.356,3.904,4.644,9.768,5.793c-0.341,6.704-5.797,12.057-12.476,12.057C43.457,35.108,37.846,29.404,37.846,22.393z
	 M44.92,35.605c1.674,0.711,3.508,1.106,5.433,1.106c2.058,0,4.009-0.46,5.773-1.267v4.771l-5.623,7.308l-5.583-7.257L44.92,35.605
	L44.92,35.605z M50.504,49.155l2.767,2.318c-1.828,0.341-3.722,0.344-5.551,0.015L50.504,49.155z M66.036,35.211
	c-1.37,0.774-4.132,1.914-8.304,1.907v-2.542c1.832-1.146,3.385-2.699,4.537-4.543C62.921,31.581,64.146,33.894,66.036,35.211z
	 M62.813,21.41c-4.96-1.072-7.515-3.854-8.384-5.01c1.403-0.932,2.834-2.045,4.271-3.385c0.012-0.012,0.017-0.026,0.028-0.039
	C61.035,15.098,62.56,18.073,62.813,21.41z M50.354,9.678c2.647,0,5.102,0.847,7.126,2.278c-9.018,8.324-17.979,7.418-19.219,7.242
	C39.66,13.732,44.543,9.678,50.354,9.678z M38.541,30.204c1.214,1.883,2.852,3.453,4.775,4.582v2.332
	c-4.225,0.024-7.015-1.124-8.396-1.905C36.797,33.916,37.946,31.682,38.541,30.204z M42.028,39.137l7.03,9.137l-3.495,2.929
	l-5.686-10.254L42.028,39.137z M42.901,49.714c-2.666-1.533-4.83-3.854-6.165-6.643c0.638-0.126,1.29-0.205,1.959-0.205h0.41
	L42.901,49.714z M35.168,43.509c1.798,3.926,5.073,7.057,9.09,8.651l0.373,0.671c0.117,0.21,0.32,0.355,0.555,0.399
	c0.049,0.009,0.098,0.014,0.146,0.014c0.187,0,0.37-0.064,0.516-0.187l0.322-0.27c1.391,0.365,2.83,0.558,4.283,0.558
	c1.48,0,2.946-0.197,4.363-0.578l0.346,0.289c0.146,0.122,0.328,0.187,0.516,0.187c0.049,0,0.098-0.005,0.146-0.014
	c0.235-0.044,0.439-0.189,0.555-0.399l0.4-0.722c0.008-0.003,0.018-0.002,0.025-0.005c3.943-1.608,7.162-4.729,8.934-8.595
	c4.53,1.679,7.813,6.492,7.813,12.161v14.927h-8.986v-5.019c0-0.443-0.359-0.803-0.803-0.803s-0.803,0.359-0.803,0.803v5.019h-25.21
	v-5.019c0-0.443-0.358-0.803-0.802-0.803c-0.443,0-0.802,0.359-0.802,0.803v5.019h-8.789V55.672
	C27.355,50.003,30.638,45.19,35.168,43.509z"/>
</svg>
