<?xml version="1.0" encoding="utf-8"?>
<!-- Generator: Adobe Illustrator 16.0.0, SVG Export Plug-In . SVG Version: 6.00 Build 0)  -->
<!DOCTYPE svg PUBLIC "-//W3C//DTD SVG 1.1//EN" "http://www.w3.org/Graphics/SVG/1.1/DTD/svg11.dtd">
<svg version="1.1" id="Layer_1" xmlns="http://www.w3.org/2000/svg" xmlns:xlink="http://www.w3.org/1999/xlink" x="0px" y="0px"
	 width="100.89px" height="100.279px" viewBox="0 0 100.89 100.279" enable-background="new 0 0 100.89 100.279"
	 xml:space="preserve">
<path fill="#919B03" d="M26.37,71.4c0,0.442,0.359,0.802,0.802,0.802h46.546c0.442,0,0.802-0.359,0.802-0.802V60.043
	c0-10.434-7.487-18.923-16.69-18.923h-0.398v-3.75c0-0.007-0.004-0.013-0.004-0.02c3.676-2.434,6.133-6.684,6.158-11.529
	c0.951-4.923,0.412-8.644-1.602-11.063c-1.803-2.165-4.232-2.591-5.195-2.674c-3.838-4.75-8.29-4.568-11.377-3.559
	c-4.867,1.591-9.558,6.5-9.588,7.773c-0.005,0.213,0.074,0.418,0.221,0.572c1.079,1.135,1.234,5.232,1.075,8.077
	c-0.001,0.042-0.012,0.084-0.006,0.125c-0.014,0.231-0.029,0.457-0.046,0.668c0,4.947,2.535,9.281,6.319,11.708v3.669h-0.321
	c-9.206,0-16.696,8.492-16.696,18.93L26.37,71.4L26.37,71.4z M43.096,51.961c-0.15-0.218-0.397-0.349-0.661-0.349h-2.701
	l3.769-8.888h0.037l5.669,26.23c-5.885-5.457-7.441-10.782-7.708-11.879l1.682-4.374C43.279,52.456,43.247,52.179,43.096,51.961z
	 M61.232,51.424h-2.651c-0.263,0-0.51,0.129-0.659,0.345c-0.15,0.217-0.184,0.493-0.093,0.739l1.659,4.428
	c-0.258,1.111-1.804,6.641-7.869,12.277l5.658-26.488h0.359L61.232,51.424z M50.44,67.054l-4.277-19.79
	c0.976,0.28,2.566,0.629,4.442,0.629c1.257,0,2.643-0.161,4.056-0.6L50.44,67.054z M72.916,60.043v10.554h-8.773v-4.979
	c0-0.442-0.359-0.802-0.803-0.802c-0.442,0-0.802,0.359-0.802,0.802v4.979H52.472c7.34-6.697,8.59-13.296,8.641-13.585
	c0.024-0.142,0.011-0.286-0.039-0.421l-1.336-3.563h2.694c0.268,0,0.519-0.134,0.667-0.356c0.148-0.222,0.177-0.504,0.074-0.752
	l-3.76-9.099C66.99,43.734,72.916,51.109,72.916,60.043z M47.653,9.637c3.122-0.451,5.847,0.8,8.096,3.721
	c0.151,0.197,0.39,0.313,0.64,0.313c0,0,0,0,0.001,0c-0.005-0.006,2.613-0.002,4.376,2.134c1.166,1.41,1.707,3.43,1.655,6
	c-2.159-4.587-6.128-5.933-6.333-6c-0.225-0.073-0.473-0.043-0.673,0.083c-0.2,0.125-0.336,0.333-0.369,0.567
	c-0.001,0.004-0.104,0.445-0.683,0.862c-0.827,0.595-2.609,1.158-6.407,0.463c-4.75-0.867-7.625,1.608-9.204,3.845
	c-0.083-1.967-0.379-4.142-1.196-5.408C38.468,14.835,42.889,10.328,47.653,9.637z M38.668,25.811c0.01-0.116,0.03-0.381,0.05-0.731
	c0.344-0.999,2.652-6.879,8.948-5.722c3.497,0.638,6.064,0.39,7.634-0.739c0.455-0.328,0.757-0.684,0.956-1
	c1.454,0.722,4.858,2.943,5.724,8.185c-0.031,6.679-5.246,12.103-11.653,12.103C43.899,37.906,38.671,32.449,38.668,25.811z
	 M50.326,39.51c1.964,0,3.823-0.457,5.501-1.256v3.583l-0.772,3.613c-4.432,1.805-8.979,0.113-9.285-0.005l-0.78-3.608v-3.501
	C46.625,39.086,48.427,39.51,50.326,39.51z M27.974,60.05c0-9.036,6.059-16.475,13.757-17.254l-3.946,9.306
	c-0.105,0.247-0.08,0.531,0.069,0.756c0.149,0.224,0.4,0.359,0.669,0.359h2.744l-1.35,3.51c-0.052,0.138-0.066,0.286-0.041,0.431
	c0.052,0.287,1.321,6.813,8.762,13.439H38.175v-4.979c0-0.442-0.359-0.802-0.802-0.802s-0.802,0.359-0.802,0.802v4.979h-8.597V60.05
	z"/>
</svg>
