<?xml version="1.0" encoding="utf-8"?>
<!-- Generator: Adobe Illustrator 16.0.0, SVG Export Plug-In . SVG Version: 6.00 Build 0)  -->
<!DOCTYPE svg PUBLIC "-//W3C//DTD SVG 1.1//EN" "http://www.w3.org/Graphics/SVG/1.1/DTD/svg11.dtd">
<svg version="1.1" id="Layer_1" xmlns="http://www.w3.org/2000/svg" xmlns:xlink="http://www.w3.org/1999/xlink" x="0px" y="0px"
	 width="100.891px" height="100.279px" viewBox="0 0 100.891 100.279" enable-background="new 0 0 100.891 100.279"
	 xml:space="preserve">
<g>
	<path fill="#3DC6ED" d="M56.429,4.03c-0.886,0.034-1.576,0.778-1.543,1.664c0.032,0.886,0.78,1.58,1.662,1.543
		c6.96-0.283,13.903,2.549,19.063,7.708s7.969,12.105,7.708,19.063c-0.033,0.887,0.658,1.631,1.543,1.664c0.021,0,0.041,0,0.062,0
		c0.858,0,1.569-0.679,1.604-1.544c0.293-7.845-2.857-15.664-8.646-21.452C72.092,6.887,64.269,3.735,56.429,4.03z"/>
	<path fill="#3DC6ED" d="M67.642,22.915c2.846,2.848,4.51,6.598,4.811,10.846c0.062,0.847,0.765,1.491,1.6,1.491
		c0.037,0,0.076-0.002,0.115-0.004c0.885-0.063,1.549-0.831,1.486-1.715c-0.356-5.03-2.342-9.487-5.742-12.887
		c-3.4-3.401-7.856-5.389-12.888-5.743c-0.882-0.055-1.651,0.603-1.714,1.487c-0.063,0.884,0.604,1.65,1.487,1.714
		C61.044,18.405,64.794,20.07,67.642,22.915z"/>
	<path fill="#3DC6ED" d="M74.777,48.753c-1.764-1.764-4.107-2.733-6.603-2.733c-2.491,0-4.837,0.971-6.6,2.733l-2.869,2.867
		c-1.33,1.33-3.436,1.497-5.007,0.398c-2.916-2.039-5.688-4.368-8.242-6.922l0,0c-2.556-2.558-4.885-5.329-6.921-8.24
		c-1.099-1.572-0.932-3.679,0.398-5.007l2.868-2.869c3.64-3.64,3.64-9.562,0-13.2L35.32,9.299c-1.762-1.763-4.106-2.733-6.601-2.733
		c-2.493,0-4.838,0.972-6.601,2.733l-2.956,2.954c-3.656,3.658-5.395,8.793-4.649,13.735c1.024,6.811,3.56,13.77,7.324,20.12
		c2.703,4.583,6.03,8.862,9.889,12.721c3.856,3.856,8.136,7.184,12.717,9.885c6.354,3.77,13.313,6.303,20.123,7.327
		c0.755,0.113,1.514,0.17,2.271,0.17c4.206,0,8.366-1.722,11.464-4.82l2.955-2.955c1.765-1.764,2.734-4.106,2.734-6.602
		c0-2.492-0.971-4.837-2.734-6.601L74.777,48.753z M78.99,66.167l-2.956,2.954c-2.938,2.941-7.047,4.341-10.988,3.748
		c-6.404-0.965-12.962-3.355-18.968-6.917c-4.351-2.566-8.416-5.726-12.082-9.392c-3.667-3.667-6.827-7.731-9.394-12.085
		c-3.56-6-5.949-12.56-6.915-18.966c-0.593-3.938,0.808-8.048,3.747-10.987l2.955-2.954c2.389-2.389,6.273-2.389,8.661,0l6.482,6.48
		c2.388,2.39,2.388,6.274,0,8.663l-2.868,2.868c-2.432,2.433-2.751,6.268-0.758,9.115c2.144,3.063,4.593,5.981,7.281,8.671
		l1.135-1.135l-1.134,1.135c2.685,2.686,5.603,5.135,8.671,7.282c2.85,1.993,6.684,1.674,9.115-0.759l2.869-2.868
		c1.155-1.156,2.694-1.793,4.329-1.793c1.638,0,3.177,0.637,4.332,1.793l6.482,6.48c1.156,1.157,1.793,2.696,1.793,4.332
		C80.781,63.47,80.146,65.009,78.99,66.167z"/>
</g>
</svg>
