<?xml version="1.0" encoding="utf-8"?>
<!-- Generator: Adobe Illustrator 16.0.0, SVG Export Plug-In . SVG Version: 6.00 Build 0)  -->
<!DOCTYPE svg PUBLIC "-//W3C//DTD SVG 1.1//EN" "http://www.w3.org/Graphics/SVG/1.1/DTD/svg11.dtd">
<svg version="1.1" id="Layer_1" xmlns="http://www.w3.org/2000/svg" xmlns:xlink="http://www.w3.org/1999/xlink" x="0px" y="0px"
	 width="100.89px" height="100.279px" viewBox="0 0 100.89 100.279" enable-background="new 0 0 100.89 100.279"
	 xml:space="preserve">
<path fill="#50007E" d="M81.416,39.226c-0.287-0.285-0.693-0.416-1.092-0.351l-2.302,0.384v-5.415c0-0.194-0.046-0.386-0.132-0.561
	l-5.015-10.027c-0.369-0.619-1.17-0.822-1.789-0.453c-0.187,0.11-0.343,0.267-0.454,0.453l-5.014,10.027
	c-0.086,0.175-0.132,0.366-0.132,0.561v7.504l-7.848,1.309c0.14-0.539,0.212-1.093,0.216-1.649v-5.635
	c-0.011-1.131,0.475-2.209,1.326-2.951c5.97-5.166,6.621-14.192,1.456-20.161c-0.386-0.446-0.799-0.867-1.237-1.263
	c-2.89-2.612-6.769-3.848-10.637-3.387c-6.508,0.824-11.564,6.068-12.15,12.603c-0.462,4.654,1.387,9.24,4.949,12.272
	c0.816,0.735,1.272,1.788,1.251,2.887v5.635c0.003,0.543,0.073,1.084,0.207,1.61l-8.87-1.479V25.07c0-0.691-0.56-1.253-1.252-1.253
	c0,0-0.001,0-0.001,0H22.868c-0.692-0.001-1.253,0.56-1.253,1.252v0.001v13.98l-1.048-0.175c-0.399-0.065-0.805,0.064-1.092,0.351
	l-7.521,7.521c-0.489,0.49-0.489,1.285,0.001,1.774c0.169,0.169,0.384,0.286,0.618,0.338l5.281,1.147v20.189
	c0,0.58,0.397,1.084,0.961,1.22l31.337,7.521c0.191,0.051,0.393,0.046,0.582-0.014l0.003,0.014l31.337-7.521
	c0.563-0.136,0.96-0.64,0.961-1.22V50.006l5.28-1.147c0.678-0.148,1.105-0.817,0.958-1.494c-0.052-0.233-0.169-0.448-0.338-0.618
	L81.416,39.226z M71.754,26.619l2.985,5.972h-5.971L71.754,26.619z M67.994,35.098h7.521v4.579l-7.521,1.254V35.098z M39.107,20.45
	c0.471-5.356,4.605-9.662,9.938-10.351c3.158-0.372,6.324,0.636,8.686,2.767c4.83,4.363,5.209,11.815,0.846,16.646
	c-0.321,0.355-0.663,0.69-1.025,1.004c-1.408,1.219-2.213,2.993-2.203,4.856v2.232H45.319v-2.232
	c0.03-1.838-0.754-3.596-2.141-4.803C40.245,28.068,38.724,24.286,39.107,20.45z M45.319,41.007v-0.896h10.028v0.896
	c0,0.749-0.201,1.484-0.584,2.129l-4.318,0.72l-4.562-0.761C45.514,42.461,45.32,41.74,45.319,41.007z M24.122,36.352h3.76v-2.508
	h-3.76v-2.507h3.76V28.83h-3.76v-2.507h7.521v14.398l-7.521-1.254V36.352z M20.791,41.454l27.046,4.508l-6.569,6.568L15.35,46.896
	L20.791,41.454z M20.361,69.208V50.551l21.042,4.575c0.088,0.018,0.177,0.027,0.267,0.027c0.333,0,0.651-0.132,0.886-0.367
	l6.635-6.635v27.976L20.361,69.208z M80.529,69.208l-28.83,6.918V48.152l6.635,6.635c0.234,0.235,0.553,0.367,0.886,0.367
	c0.09,0,0.179-0.01,0.267-0.027l21.043-4.575V69.208z M59.623,52.531l-6.569-6.568l27.046-4.508l5.441,5.441L59.623,52.531z"/>
<path fill="#50007E" d="M46.285,22.664l-0.564,3.457c-0.112,0.684,0.352,1.327,1.035,1.439c0.277,0.045,0.562-0.005,0.808-0.141
	l2.88-1.591l2.881,1.591c0.42,0.232,0.936,0.204,1.328-0.072c0.392-0.276,0.592-0.753,0.515-1.227l-0.563-3.457l2.378-2.438
	c0.483-0.495,0.474-1.289-0.022-1.772c-0.188-0.183-0.427-0.302-0.686-0.341l-3.236-0.495l-1.459-3.108
	c-0.294-0.626-1.041-0.896-1.667-0.602c-0.265,0.124-0.478,0.337-0.602,0.602l-1.459,3.108l-3.237,0.495
	c-0.684,0.104-1.154,0.744-1.049,1.428c0.04,0.259,0.159,0.499,0.342,0.686L46.285,22.664z M48.892,19.994
	c0.413-0.063,0.768-0.327,0.945-0.706l0.608-1.296l0.608,1.296c0.177,0.379,0.532,0.644,0.944,0.706l1.486,0.229l-1.116,1.145
	c-0.277,0.284-0.403,0.684-0.34,1.077l0.251,1.533L51.05,23.3c-0.376-0.209-0.834-0.209-1.211,0l-1.228,0.678l0.25-1.533
	c0.064-0.394-0.063-0.793-0.34-1.077l-1.117-1.145L48.892,19.994z"/>
<rect x="49.191" y="1.253" fill="#50007E" width="2.507" height="3.761"/>
<rect x="36.339" y="6.577" transform="matrix(-0.7072 0.707 -0.707 -0.7072 70.1579 -12.1401)" fill="#50007E" width="2.507" height="3.76"/>
<rect x="61.417" y="7.204" transform="matrix(-0.707 0.7072 -0.7072 -0.707 114.0284 -30.3298)" fill="#50007E" width="3.76" height="2.507"/>
</svg>
