<?xml version="1.0" encoding="utf-8"?>
<!-- Generator: Adobe Illustrator 16.0.0, SVG Export Plug-In . SVG Version: 6.00 Build 0)  -->
<!DOCTYPE svg PUBLIC "-//W3C//DTD SVG 1.1//EN" "http://www.w3.org/Graphics/SVG/1.1/DTD/svg11.dtd">
<svg version="1.1" id="Layer_1" xmlns="http://www.w3.org/2000/svg" xmlns:xlink="http://www.w3.org/1999/xlink" x="0px" y="0px"
	 width="100.89px" height="100.279px" viewBox="0 0 100.89 100.279" enable-background="new 0 0 100.89 100.279"
	 xml:space="preserve">
<g>
	<path fill="#50007E" d="M64.941,64.815c14.117-2.824,24.362-15.321,24.362-29.717V28.83c0-2.765-2.249-5.014-5.015-5.014
		c-2.765,0-5.014,2.249-5.014,5.014v0.164c-1.451,0.455-2.507,1.814-2.507,3.415c0,1.362,0.757,2.588,1.978,3.2l0.514,0.256
		c-0.37,8.297-6.725,15.068-15.068,15.904l-7.725,0.771l-0.35-1.746c3.277-1.274,5.609-4.455,5.609-8.176v-1.254
		c2.766,0,5.014-2.249,5.014-5.014c0-0.985-0.295-1.898-0.788-2.674c0.505-1.957,0.774-3.967,0.784-5.989L69.479,7.11L58.414,9.877
		l-7.969-9.296l-7.968,9.296L31.409,7.112l2.744,20.578c0.009,2.023,0.279,4.032,0.783,5.989c-0.491,0.774-0.787,1.688-0.787,2.673
		c0,2.765,2.249,5.014,5.014,5.014v1.254c0,3.721,2.333,6.901,5.61,8.175l-0.35,1.746L36.7,51.768
		c-8.344-0.834-14.699-7.607-15.068-15.904l0.513-0.256c1.22-0.61,1.977-1.837,1.977-3.2c0-1.599-1.056-2.958-2.507-3.414V28.83
		c0-2.765-2.249-5.014-5.014-5.014c-2.766,0-5.014,2.249-5.014,5.014v6.268c0,14.396,10.245,26.893,24.362,29.717l0.708,0.142
		v11.507h-25.07v2.507h77.717v-2.507H64.234V64.956L64.941,64.815z M80.345,31.337h1.438V28.83c0-1.383,1.124-2.507,2.506-2.507
		c1.383,0,2.508,1.124,2.508,2.507v6.268c0,0.421-0.037,0.836-0.055,1.254h-5.018c0.025-0.417,0.059-0.831,0.059-1.254v-0.774
		l-1.914-0.958c-0.367-0.182-0.594-0.549-0.594-0.958C79.275,31.819,79.755,31.337,80.345,31.337z M47.841,56.508l-2.97,1.781
		l-1.098-3.295l1.303,0.131L47.841,56.508z M50.253,63.928h0.384l2.089,12.535h-4.563L50.253,63.928z M50.924,61.421h-0.958
		l-1.256-2.512l1.735-1.04l1.734,1.04L50.924,61.421z M53.048,56.508l2.764-1.383l1.304-0.131l-1.098,3.295L53.048,56.508z
		 M37.076,31.806c-0.193-0.981-0.319-1.976-0.377-2.976h3.162c-0.431,0.741-0.697,1.59-0.697,2.507
		C38.417,31.337,37.714,31.513,37.076,31.806z M44.177,22.563c0-3.456,2.812-6.268,6.268-6.268c1.916,0,3.611,0.883,4.762,2.24
		l-4.762,4.762l-2.874-2.874l-1.772,1.772l4.646,4.646l5.998-5.998c0.158,0.551,0.27,1.118,0.27,1.719
		c0,3.456-2.812,6.268-6.268,6.268S44.177,26.019,44.177,22.563z M56.574,28.83h7.615c-0.057,1-0.183,1.994-0.377,2.976
		c-0.637-0.293-1.339-0.469-2.086-0.469h-0.957l-4.486-2.242C56.381,29.007,56.48,28.922,56.574,28.83z M61.726,38.859v-5.015
		c1.383,0,2.508,1.125,2.508,2.508C64.234,37.734,63.109,38.859,61.726,38.859z M43.372,12.686l7.073-8.253l7.073,8.253l8.989-2.248
		L64.39,26.323h-6.029c0.544-1.142,0.858-2.414,0.858-3.761c0-1.313-0.298-2.557-0.818-3.677l2.958-2.958l-1.772-1.772l-2.591,2.591
		c-1.608-1.81-3.945-2.958-6.551-2.958c-4.838,0-8.774,3.938-8.774,8.774c0,1.347,0.314,2.619,0.858,3.761H36.5l-2.117-15.886
		L43.372,12.686z M36.656,36.352c0-1.383,1.125-2.508,2.507-2.508v5.015C37.781,38.859,36.656,37.734,36.656,36.352z M41.67,42.619
		V31.337c0-1.382,1.125-2.507,2.507-2.507h0.139c1.583,1.548,3.746,2.507,6.128,2.507c1.193,0,2.33-0.241,3.369-0.674l5.405,2.702
		v9.254c0,3.455-2.812,6.267-6.268,6.267h-5.014C44.482,48.886,41.67,46.074,41.67,42.619z M47.938,51.394h5.014
		c0.243,0,0.483-0.018,0.72-0.037l0.369,1.851l-3.596,1.799l-3.598-1.799l0.37-1.851C47.455,51.376,47.695,51.394,47.938,51.394z
		 M14.093,28.83c0-1.383,1.125-2.507,2.507-2.507c1.382,0,2.507,1.124,2.507,2.507v2.507h1.437c0.59,0,1.07,0.481,1.07,1.07
		c0,0.408-0.227,0.775-0.591,0.958l-1.916,0.958v0.774c0,0.423,0.033,0.837,0.059,1.254h-5.018
		c-0.019-0.418-0.055-0.833-0.055-1.254V28.83z M36.656,60.168v2.232l-0.217-0.044c-11.699-2.341-20.473-11.931-22.063-23.498h5.101
		c1.607,8.187,8.367,14.543,16.974,15.404l4.589,0.459l2.443,7.325l3.071-1.843l1.333,2.667l-2.265,13.592h-6.459V60.168H36.656z
		 M55.267,76.463l-2.266-13.592l1.334-2.667l3.071,1.843l2.442-7.325l4.59-0.459c8.607-0.861,15.367-7.218,16.974-15.404h5.101
		c-1.59,11.567-10.364,21.157-22.063,23.498l-0.217,0.044v-2.232h-2.508v16.295H55.267z"/>
	<circle fill="#50007E" cx="45.431" cy="35.098" r="1.254"/>
	<circle fill="#50007E" cx="55.458" cy="35.098" r="1.254"/>
	<path fill="#50007E" d="M56.712,40.112v-1.253H44.177v1.253c0,3.456,2.812,6.268,6.268,6.268S56.712,43.568,56.712,40.112z
		 M46.899,41.365h7.091c-0.518,1.459-1.912,2.507-3.546,2.507S47.417,42.824,46.899,41.365z"/>
</g>
</svg>
