<?xml version="1.0" encoding="utf-8"?>
<!-- Generator: Adobe Illustrator 16.0.0, SVG Export Plug-In . SVG Version: 6.00 Build 0)  -->
<!DOCTYPE svg PUBLIC "-//W3C//DTD SVG 1.1//EN" "http://www.w3.org/Graphics/SVG/1.1/DTD/svg11.dtd">
<svg version="1.1" id="Layer_1" xmlns="http://www.w3.org/2000/svg" xmlns:xlink="http://www.w3.org/1999/xlink" x="0px" y="0px"
	 width="100.89px" height="100.279px" viewBox="0 0 100.89 100.279" enable-background="new 0 0 100.89 100.279"
	 xml:space="preserve">
<g>
	<path fill="#50007E" d="M70.883,52.251l-11.664-3.078v-3.914c4.261-2.467,7.293-6.607,8.358-11.415h0.416
		c2.77,0,5.014-2.244,5.014-5.014c0-2.769-2.244-5.014-5.014-5.014v-1.603c0.773-0.444,1.251-1.267,1.254-2.158v-2.507
		c-0.002-0.471-0.137-0.931-0.389-1.327c2.043-1.85,2.201-5.005,0.352-7.049c-0.729-0.805-1.698-1.35-2.764-1.553
		c-0.976-2.951-4.158-4.552-7.109-3.575c-0.383,0.126-0.75,0.294-1.098,0.499c-1.482-2.01-4.219-2.622-6.416-1.436
		c-1.739-2.147-4.89-2.479-7.038-0.74c-0.129,0.104-0.252,0.215-0.37,0.332c-2.666-2.209-6.616-1.838-8.825,0.827
		c-0.931,1.123-1.44,2.535-1.441,3.993c0,0.053,0,0.105,0,0.158c-2.673,0.68-4.289,3.397-3.61,6.07
		c0.242,0.952,0.76,1.813,1.489,2.473c-0.251,0.396-0.385,0.857-0.386,1.327v2.507c0.002,0.892,0.48,1.714,1.253,2.158v1.603
		c-2.77,0-5.014,2.245-5.014,5.014c0,2.77,2.245,5.014,5.014,5.014h0.416c1.065,4.808,4.097,8.948,8.358,11.415v3.914l-11.658,3.076
		c-7.164,1.875-12.16,8.348-12.159,15.753v8.461c0,0.692,0.561,1.254,1.253,1.254h62.675c0.691,0,1.253-0.562,1.253-1.254v-8.461
		C83.037,60.6,78.044,54.128,70.883,52.251z M32.896,54.081l5.11-1.348c0.74,5.591,6.032,9.941,12.438,9.941
		c6.406,0,11.699-4.351,12.438-9.941l5.11,1.348V75.21H32.896V54.081z M70.501,28.83c0,1.385-1.123,2.507-2.508,2.507v-5.014
		C69.378,26.323,70.501,27.446,70.501,28.83z M35.393,10.028c0.391,0.058,0.785-0.075,1.062-0.356
		c0.31-0.312,0.434-0.763,0.327-1.188c-0.081-0.314-0.124-0.638-0.125-0.962c0.007-2.076,1.696-3.755,3.773-3.748
		c1.229,0.004,2.377,0.608,3.078,1.617c0.392,0.571,1.172,0.716,1.743,0.324c0.188-0.129,0.337-0.307,0.432-0.515
		c0.584-1.248,2.07-1.786,3.318-1.202c0.594,0.278,1.054,0.778,1.282,1.393c0.151,0.411,0.505,0.714,0.935,0.799
		c0.43,0.09,0.875-0.056,1.168-0.383c0.467-0.51,1.129-0.798,1.821-0.792c1.118-0.006,2.101,0.738,2.399,1.816
		c0.179,0.669,0.866,1.065,1.535,0.886c0.239-0.063,0.455-0.198,0.617-0.385c1.135-1.297,3.106-1.428,4.403-0.293
		c0.563,0.492,0.931,1.172,1.035,1.913c0.11,0.625,0.655,1.08,1.291,1.076c1.385,0,2.507,1.123,2.507,2.508
		c0,1.384-1.122,2.507-2.507,2.507H35.403c-1.385,0.003-2.509-1.117-2.512-2.502C32.888,11.156,34.008,10.031,35.393,10.028z
		 M35.403,17.549h30.108h1.229v2.507h-32.59v-2.507H35.403z M32.896,31.337c-1.385,0-2.507-1.122-2.507-2.507
		s1.123-2.507,2.507-2.507V31.337z M35.403,30.084v-7.521h30.084v7.521c0,8.308-6.734,15.042-15.042,15.042
		S35.403,38.392,35.403,30.084z M43.244,51.352c0.55-0.145,0.934-0.643,0.934-1.212v-3.684c4.031,1.569,8.504,1.569,12.535,0v3.684
		c0,0.569,0.383,1.067,0.934,1.212l2.787,0.734c-0.406,4.515-4.724,8.082-9.988,8.082c-5.232,0-9.537-3.527-9.983-8.083
		L43.244,51.352z M20.361,68.002c0.002-6.163,4.098-11.574,10.028-13.249V75.21H20.361V68.002z M80.529,75.21H70.501V54.753
		c5.931,1.674,10.027,7.086,10.027,13.249V75.21z"/>
</g>
</svg>
