<?xml version="1.0" encoding="utf-8"?>
<!-- Generator: Adobe Illustrator 16.0.0, SVG Export Plug-In . SVG Version: 6.00 Build 0)  -->
<!DOCTYPE svg PUBLIC "-//W3C//DTD SVG 1.1//EN" "http://www.w3.org/Graphics/SVG/1.1/DTD/svg11.dtd">
<svg version="1.1" id="Layer_1" xmlns="http://www.w3.org/2000/svg" xmlns:xlink="http://www.w3.org/1999/xlink" x="0px" y="0px"
	 width="100.89px" height="100.279px" viewBox="0 0 100.89 100.279" enable-background="new 0 0 100.89 100.279"
	 xml:space="preserve">
<g>
	<g>
		<path fill="#50007E" d="M32.896,48.886H22.868c-0.692,0-1.253,0.561-1.253,1.254v17.549c0,0.693,0.562,1.254,1.253,1.254h10.028
			c0.692,0,1.253-0.561,1.253-1.254V50.14C34.149,49.447,33.588,48.886,32.896,48.886z M31.643,66.436h-7.521V51.394h7.521V66.436z"
			/>
		<path fill="#50007E" d="M47.938,43.872H37.91c-0.692,0-1.253,0.561-1.253,1.254v22.563c0,0.693,0.562,1.254,1.253,1.254h10.028
			c0.692,0,1.253-0.561,1.253-1.254V45.126C49.191,44.433,48.63,43.872,47.938,43.872z M46.684,66.436h-7.521V46.379h7.521V66.436z"
			/>
		<path fill="#50007E" d="M62.98,36.352H52.952c-0.692,0-1.253,0.562-1.253,1.253v30.084c0,0.693,0.561,1.254,1.253,1.254H62.98
			c0.693,0,1.254-0.561,1.254-1.254V37.605C64.234,36.913,63.673,36.352,62.98,36.352z M61.726,66.436h-7.521V38.859h7.521V66.436z"
			/>
		<path fill="#50007E" d="M78.022,26.323H67.994c-0.693,0-1.254,0.562-1.254,1.254v40.111c0,0.693,0.561,1.254,1.254,1.254h10.028
			c0.692,0,1.253-0.561,1.253-1.254V27.577C79.275,26.885,78.714,26.323,78.022,26.323z M76.768,66.436h-7.521V28.83h7.521V66.436z"
			/>
		<path fill="#50007E" d="M70.162,21.31c0.693,0,1.253-0.562,1.253-1.254v-7.521c0-0.026-0.014-0.047-0.015-0.072
			c-0.006-0.087-0.027-0.169-0.052-0.253c-0.021-0.076-0.036-0.15-0.07-0.219c-0.032-0.068-0.08-0.126-0.126-0.186
			c-0.053-0.073-0.104-0.143-0.171-0.201c-0.021-0.018-0.028-0.04-0.048-0.055c-0.041-0.033-0.093-0.043-0.137-0.069
			c-0.076-0.045-0.147-0.088-0.232-0.116c-0.083-0.028-0.164-0.04-0.25-0.051c-0.051-0.007-0.1-0.032-0.152-0.032H62.98
			c-0.693,0-1.254,0.562-1.254,1.254c0,0.691,0.561,1.253,1.254,1.253h4.501c-7.729,8.796-24.836,22.563-44.613,22.563
			c-0.692,0-1.253,0.562-1.253,1.253c0,0.692,0.562,1.254,1.253,1.254c20.263,0,37.784-13.749,46.04-22.9v4.098
			C68.908,20.748,69.468,21.31,70.162,21.31z"/>
	</g>
</g>
</svg>
