<?xml version="1.0" encoding="utf-8"?>
<!-- Generator: Adobe Illustrator 16.0.0, SVG Export Plug-In . SVG Version: 6.00 Build 0)  -->
<!DOCTYPE svg PUBLIC "-//W3C//DTD SVG 1.1//EN" "http://www.w3.org/Graphics/SVG/1.1/DTD/svg11.dtd">
<svg version="1.1" id="Layer_1" xmlns="http://www.w3.org/2000/svg" xmlns:xlink="http://www.w3.org/1999/xlink" x="0px" y="0px"
	 width="100.89px" height="100.279px" viewBox="0 0 100.89 100.279" enable-background="new 0 0 100.89 100.279"
	 xml:space="preserve">
<title>trust-Care-faith-confidence-faith</title>
<g>
	<path fill="#50007E" d="M85.936,50.26c2.834-2.841,2.834-7.439,0-10.28L74.773,28.817c4.842-5.131,4.609-13.216-0.521-18.059
		c-5.025-4.743-12.911-4.631-17.799,0.255l-6.008,6.008l-6.008-6.008c-4.986-4.992-13.074-4.997-18.065-0.011
		c-4.895,4.889-5.008,12.787-0.255,17.814L14.954,39.98c-2.834,2.841-2.834,7.439,0,10.28l7.908,7.907v0.747h-1.254
		c-0.692,0-1.253,0.562-1.253,1.254v12.534h2.507V61.421h22.563v11.281h2.507V60.168c0-0.692-0.561-1.254-1.253-1.254h-1.254v-5.014
		c-0.004-3.669-2.651-6.801-6.267-7.417v-4.614l3.907,3.906c4.079,4.069,10.683,4.069,14.762,0l3.906-3.906v4.614
		c-3.615,0.616-6.262,3.748-6.267,7.417v5.014h-1.254c-0.692,0-1.253,0.562-1.253,1.254v12.534h2.507V61.421h22.563v11.281h2.507
		V60.168c0-0.692-0.561-1.254-1.253-1.254h-1.254v-0.747L85.936,50.26z M42.917,53.901v5.014H25.369v-1.266
		c0-0.333-0.132-0.651-0.367-0.887l-8.276-8.275c-1.856-1.86-1.856-4.873,0-6.734l11.157-11.157l1.936,1.937
		c-0.464,0.775-0.708,1.662-0.708,2.566v3.746l-4.871,4.87l1.772,1.773l3.098-3.099v5.244h2.507V35.098
		c0.002-1.387,1.124-2.511,2.51-2.517h0.006c1.39,0.001,2.516,1.127,2.516,2.517v12.535c0,0.692,0.562,1.253,1.254,1.253
		C40.671,48.89,42.915,51.132,42.917,53.901z M56.053,44.003c-3.1,3.092-8.117,3.092-11.217,0l-5.679-5.68v-3.226
		c0-2.774-2.249-5.022-5.023-5.023h-0.013c-0.887,0.002-1.758,0.24-2.522,0.69l-3.458-3.457c-4.04-3.979-4.089-10.481-0.109-14.522
		c3.98-4.04,10.482-4.089,14.522-0.109c0.037,0.036,0.073,0.073,0.109,0.109l6.895,6.895c0.489,0.489,1.283,0.489,1.773,0l0,0
		l6.895-6.895c3.994-4.025,10.496-4.049,14.521-0.054s4.05,10.497,0.055,14.522c-0.018,0.019-0.036,0.036-0.055,0.054l-3.457,3.458
		c-0.764-0.451-1.635-0.689-2.521-0.69h-0.014c-2.773-0.001-5.022,2.248-5.023,5.022v3.226L56.053,44.003z M57.972,58.914v-5.014
		c0.003-2.769,2.246-5.011,5.014-5.015c0.692,0,1.254-0.561,1.254-1.253V35.098c0-1.39,1.127-2.517,2.516-2.517l0,0h0.007
		c1.386,0.007,2.507,1.131,2.51,2.517v12.535h2.507v-5.244l3.098,3.099l1.773-1.773l-4.871-4.87v-3.746
		c0.001-0.904-0.244-1.791-0.709-2.566l1.937-1.937l11.157,11.157c1.857,1.861,1.857,4.874,0,6.734l-8.275,8.275
		c-0.234,0.235-0.367,0.554-0.367,0.887v1.266H57.972z"/>
</g>
</svg>
