<?xml version="1.0" encoding="utf-8"?>
<!-- Generator: Adobe Illustrator 16.0.0, SVG Export Plug-In . SVG Version: 6.00 Build 0)  -->
<!DOCTYPE svg PUBLIC "-//W3C//DTD SVG 1.1//EN" "http://www.w3.org/Graphics/SVG/1.1/DTD/svg11.dtd">
<svg version="1.1" id="Layer_1" xmlns="http://www.w3.org/2000/svg" xmlns:xlink="http://www.w3.org/1999/xlink" x="0px" y="0px"
	 width="100.89px" height="100.279px" viewBox="0 0 100.89 100.279" enable-background="new 0 0 100.89 100.279"
	 xml:space="preserve">
<path fill="#50007E" d="M67.097,39.809c0.551,0,1.033-0.401,1.118-0.963L69.102,33c0.094-0.618-0.331-1.195-0.95-1.289
	c-0.618-0.091-1.195,0.332-1.289,0.95l-0.887,5.846c-0.094,0.618,0.332,1.195,0.95,1.289C66.984,39.805,67.041,39.809,67.097,39.809
	z"/>
<path fill="#50007E" d="M60.039,33.526c-0.578,0.24-0.852,0.903-0.611,1.48l1.52,3.653c0.182,0.436,0.603,0.698,1.047,0.698
	c0.145,0,0.291-0.028,0.434-0.087c0.578-0.24,0.851-0.903,0.611-1.48l-1.521-3.653C61.278,33.56,60.615,33.286,60.039,33.526z"/>
<path fill="#50007E" d="M72.822,41.09l2.297-2.668c0.408-0.474,0.355-1.188-0.119-1.597c-0.473-0.407-1.188-0.355-1.596,0.119
	l-2.298,2.668c-0.407,0.474-0.354,1.188,0.12,1.597c0.213,0.184,0.477,0.274,0.737,0.274C72.282,41.484,72.598,41.351,72.822,41.09z
	"/>
<path fill="#50007E" d="M83.492,50.12c0.645-0.253,0.963-0.979,0.712-1.624s-0.976-0.963-1.624-0.712
	c-1.369,0.535-2.428,1.062-3.361,1.526c-0.337,0.168-0.666,0.331-0.993,0.487c-2.767-4.315-8.556-6.993-15.456-7.064
	c-0.092-0.001-0.182-0.001-0.273-0.001c-6.566,0-12.297,2.47-15.099,6.423c-0.99-0.491-1.932-0.52-3.086-0.341
	c2.863-6.838,2.04-11.659,1.242-16.338c-0.425-2.491-0.836-4.901-0.651-7.576c3.109,2.076,13.051,2.331,16.486,0.65
	c0.146-0.07,0.274-0.169,0.382-0.289c5.41-6.026,5.313-12.304-0.295-19.192c-0.177-0.218-0.423-0.37-0.697-0.432
	c-7.418-1.658-14.618-2.867-21.18,0.499c-0.085,0.044-0.164,0.097-0.237,0.158c-9.243,7.815-14.99,20.843-21.025,35.812
	c-3.417,8.478-1.072,17.301,1.195,25.835c0.428,1.608,0.87,3.272,1.27,4.916c0.109,0.449,0.457,0.802,0.904,0.918
	c0.393,0.102,0.778,0.22,1.164,0.339c1.982,0.609,4.213,1.294,7.205-0.11c10.829,6.79,22.39,10.209,34.478,10.209
	c2.873,0,5.777-0.193,8.706-0.58c0.687-0.091,1.169-0.721,1.078-1.406c-0.091-0.688-0.723-1.168-1.406-1.078
	c-15.095,1.991-28.87-1.161-42.113-9.643c-0.389-0.249-0.881-0.266-1.285-0.041c-2.407,1.336-3.959,0.857-5.927,0.253
	c-0.181-0.056-0.362-0.111-0.544-0.166c-0.357-1.433-0.737-2.864-1.106-4.255c-2.262-8.511-4.398-16.551-1.293-24.253
	c5.882-14.593,11.468-27.283,20.208-34.741C46.535,5.461,53.053,6.497,59.8,7.99c4.502,5.705,4.585,10.479,0.274,15.405
	c-3.197,1.344-11.875,0.636-13.624-0.439c-0.082-1.209-0.031-3.953-0.01-4.549c0.018-0.368-0.126-0.733-0.408-0.99
	c-0.388-0.354-0.954-0.428-1.419-0.188c-0.364,0.188-0.539,0.278-0.625,0.736c-2.421,6.061-1.652,10.571-0.908,14.934
	c0.854,5.005,1.66,9.731-2.072,17.08c-0.22,0.433-0.17,0.952,0.126,1.335c0.297,0.384,0.789,0.56,1.262,0.457l0.536-0.119
	c2.192-0.49,2.826-0.601,3.563-0.135c-0.035,1.54,0.177,5.136,2.687,7.473c0.241,0.225,0.548,0.336,0.854,0.336
	c0.335,0,0.671-0.134,0.917-0.399c0.472-0.507,0.442-1.3-0.064-1.771c-1.939-1.806-1.923-4.97-1.877-5.857
	c2.086-3.699,7.319-6.058,13.478-6.058c0.084,0,0.168,0,0.253,0.001c6.398,0.066,11.828,2.707,13.834,6.726
	c0.293,0.59,0.991,0.852,1.602,0.599c0.756-0.313,1.437-0.651,2.156-1.01C81.265,51.092,82.226,50.614,83.492,50.12z"/>
</svg>
