<?xml version="1.0" encoding="utf-8"?>
<!-- Generator: Adobe Illustrator 16.0.0, SVG Export Plug-In . SVG Version: 6.00 Build 0)  -->
<!DOCTYPE svg PUBLIC "-//W3C//DTD SVG 1.1//EN" "http://www.w3.org/Graphics/SVG/1.1/DTD/svg11.dtd">
<svg version="1.1" id="Layer_1" xmlns="http://www.w3.org/2000/svg" xmlns:xlink="http://www.w3.org/1999/xlink" x="0px" y="0px"
	 width="100.89px" height="100.279px" viewBox="0 0 100.89 100.279" enable-background="new 0 0 100.89 100.279"
	 xml:space="preserve">
<title>miscellaneous 187_expandline</title>
<path fill="#50007E" d="M23.648,22.563c1.426-0.018,2.766-0.686,3.64-1.813c0.957-1.255,1.379-2.836,1.175-4.4
	c-0.369-3.078-2.851-5.352-5.632-5.039c-1.24,0.151-2.368,0.794-3.13,1.784c-0.957,1.254-1.379,2.836-1.175,4.399
	C18.871,20.384,21.073,22.563,23.648,22.563z M21.667,14.651c0.397-0.527,1.014-0.845,1.674-0.862c1.285,0,2.441,1.256,2.633,2.858
	c0.127,0.901-0.107,1.817-0.651,2.548c-0.349,0.466-0.872,0.771-1.449,0.849c-1.376,0.154-2.656-1.149-2.858-2.846
	C20.889,16.296,21.123,15.381,21.667,14.651z"/>
<path fill="#50007E" d="M90.042,50.381c-0.324-0.236-0.74-0.304-1.121-0.182L11.204,75.105c-0.519,0.166-0.871,0.648-0.871,1.193
	v2.672c0,0.692,0.561,1.254,1.253,1.254s1.253-0.562,1.253-1.254v-1.757l75.21-24.102V78.97c0,0.692,0.561,1.254,1.253,1.254
	s1.253-0.562,1.253-1.254V51.394C90.557,50.993,90.366,50.616,90.042,50.381z"/>
<path fill="#50007E" d="M27.313,24.026c-0.868,0.536-1.842,0.876-2.854,0.996l7.914,5.918c0.339,0.253,0.783,0.318,1.18,0.174
	c0,0,8.074-2.947,8.077-2.948c0.615-0.235,1.303,0.072,1.538,0.687c0.001,0.005,0.003,0.01,0.005,0.014
	c0.211,0.663-0.145,1.374-0.802,1.603l-9.782,3.54l-6.456-3.727c-0.601-0.345-1.367-0.138-1.712,0.463
	c-0.344,0.599-0.139,1.362,0.458,1.709l2.452,1.414l0.698,6.367c0.143,0.979,0.643,1.871,1.403,2.504l5.969,4.606
	c0.303,0.271,0.539,0.61,0.688,0.988l4.595,14.691l2.388-0.765l-4.59-14.675c-0.303-0.87-0.839-1.64-1.549-2.226l-5.969-4.606
	c-0.221-0.215-0.375-0.49-0.442-0.791l-0.499-4.541l1.818,1.05c0.321,0.184,0.706,0.218,1.054,0.093l7.326-2.651l5.652,27.45
	l2.401-0.77l-5.67-27.543l0.621-0.225c1.939-0.699,2.968-2.815,2.32-4.772c-0.315-0.931-0.995-1.693-1.882-2.113
	c-0.801-0.383-1.714-0.465-2.57-0.229l-0.7-3.4c-0.14-0.678-0.802-1.114-1.48-0.975s-1.115,0.803-0.975,1.48l0,0l0.772,3.748
	l-5.376,1.962L27.313,24.026z"/>
<path fill="#50007E" d="M20.058,69.634l3.294-15.413c0.03-0.142,0.036-0.288,0.016-0.432l-0.361-2.639l-1.756-0.708
	c-0.325-0.135-0.638-0.295-0.937-0.479l0.54,3.947l-3.549,16.605L20.058,69.634z"/>
<polygon fill="#50007E" points="23.781,68.441 26.653,67.521 29.8,56.57 28.735,53.463 28.152,53.227 "/>
<path fill="#50007E" d="M13.685,43.455c0.253,1.034,0.909,1.924,1.82,2.474c0.743,0.438,1.631,0.56,2.465,0.339l1.738-0.479
	c0.545,1.03,1.419,1.85,2.482,2.328l8.546,3.449l4.52,13.197l2.388-0.766l-4.721-13.785c-0.118-0.345-0.379-0.62-0.717-0.757
	l-9.078-3.664c-0.73-0.371-1.265-1.041-1.465-1.836l-2.856-17.289c-0.061-0.56,0.253-1.093,0.771-1.313l1.862-0.645
	c-1.042-0.348-1.996-0.918-2.795-1.673c-1.607,0.654-2.561,2.32-2.312,4.037l0.031,0.188l-1.491,0.416l-0.16-0.49
	c-0.21-0.66-0.916-1.023-1.576-0.813c-0.659,0.211-1.023,0.916-0.813,1.575c0.001,0.005,0.003,0.01,0.005,0.016l0.202,0.618
	c-1.267,0.939-1.84,2.551-1.452,4.079L13.685,43.455z M19.026,43.376l-1.722,0.475c-0.583,0.16-1.069-0.516-1.186-1.001
	l-2.605-10.792c-0.197-0.696,0.193-1.424,0.882-1.644l2.38-0.663L19.026,43.376z"/>
</svg>
