<?xml version="1.0" encoding="utf-8"?>
<!-- Generator: Adobe Illustrator 16.0.0, SVG Export Plug-In . SVG Version: 6.00 Build 0)  -->
<!DOCTYPE svg PUBLIC "-//W3C//DTD SVG 1.1//EN" "http://www.w3.org/Graphics/SVG/1.1/DTD/svg11.dtd">
<svg version="1.1" id="Layer_1" xmlns="http://www.w3.org/2000/svg" xmlns:xlink="http://www.w3.org/1999/xlink" x="0px" y="0px"
	 width="100.89px" height="100.279px" viewBox="0 0 100.89 100.279" enable-background="new 0 0 100.89 100.279"
	 xml:space="preserve">
<g>
	<path fill="#50007E" d="M50.445,72.367L20.519,42.44c-7.897-7.898-7.897-20.75,0-28.649c3.826-3.826,8.914-5.934,14.325-5.934
		c5.411,0,10.499,2.107,14.325,5.934l1.276,1.276l1.277-1.276c3.824-3.826,8.912-5.934,14.324-5.934
		c5.41,0,10.499,2.107,14.324,5.934c7.898,7.899,7.898,20.751,0,28.649L50.445,72.367z M34.844,10.127
		c-4.805,0-9.321,1.872-12.718,5.269c-7.013,7.015-7.014,18.425-0.001,25.438l28.32,28.322l28.32-28.321
		c7.012-7.013,7.012-18.423,0-25.438c-3.398-3.396-7.914-5.268-12.72-5.268c-4.804,0-9.321,1.872-12.72,5.268l-2.881,2.883
		l-2.88-2.883C44.166,11.999,39.649,10.127,34.844,10.127z M52.613,52.194h-4.282c-1.54,0-2.794-1.252-2.794-2.793v-4.778h-4.776
		c-1.542,0-2.795-1.253-2.795-2.794v-4.282c0-1.54,1.253-2.794,2.795-2.794h4.776v-4.776c0-1.54,1.253-2.793,2.794-2.793h4.282
		c1.541,0,2.795,1.252,2.795,2.793v4.776h4.776c1.541,0,2.794,1.253,2.794,2.794v4.282c0,1.541-1.252,2.794-2.794,2.794h-4.776
		v4.778C55.408,50.941,54.155,52.194,52.613,52.194z M40.761,37.024c-0.289,0-0.524,0.234-0.524,0.522v4.282
		c0,0.288,0.235,0.522,0.524,0.522h7.048v7.05c0,0.287,0.234,0.522,0.522,0.522h4.282c0.289,0,0.522-0.235,0.522-0.522v-7.05h7.049
		c0.288,0,0.522-0.234,0.522-0.522v-4.282c0-0.288-0.234-0.522-0.522-0.522h-7.049v-7.048c0-0.288-0.233-0.521-0.522-0.521h-4.282
		c-0.289,0-0.522,0.233-0.522,0.521v7.048H40.761z"/>
</g>
</svg>
