<?xml version="1.0" encoding="utf-8"?>
<!-- Generator: Adobe Illustrator 16.0.0, SVG Export Plug-In . SVG Version: 6.00 Build 0)  -->
<!DOCTYPE svg PUBLIC "-//W3C//DTD SVG 1.1//EN" "http://www.w3.org/Graphics/SVG/1.1/DTD/svg11.dtd">
<svg version="1.1" id="Layer_1" xmlns="http://www.w3.org/2000/svg" xmlns:xlink="http://www.w3.org/1999/xlink" x="0px" y="0px"
	 width="100.89px" height="100.279px" viewBox="0 0 100.89 100.279" enable-background="new 0 0 100.89 100.279"
	 xml:space="preserve">
<path fill="#50007E" d="M84.289,20.056H69.248v-3.761c0-3.764-2.012-7.273-5.665-9.883c-3.525-2.519-8.191-3.905-13.138-3.905
	s-9.612,1.387-13.138,3.905c-3.653,2.609-5.665,6.119-5.665,9.883v3.761H16.601c-2.074,0-3.761,1.968-3.761,4.388v16.922
	c0,0.595,0.417,1.107,1,1.228l0.254,0.053V74c0.002,2.052,1.665,3.714,3.717,3.717H83.08c2.052-0.003,3.715-1.665,3.717-3.717
	V42.646l0.254-0.053c0.582-0.12,1-0.633,1-1.228V24.444C88.05,22.024,86.363,20.056,84.289,20.056z M64.234,20.056v-2.507h2.506
	v2.507H64.234z M39.164,16.295c0-3.397,5.166-6.268,11.281-6.268s11.281,2.87,11.281,6.268v3.761H39.164V16.295z M50.445,5.014
	c8.373,0,15.291,4.396,16.194,10.028h-2.542c-0.93-4.306-6.591-7.521-13.652-7.521s-12.723,3.216-13.652,7.521H34.25
	C35.154,9.409,42.071,5.014,50.445,5.014z M34.149,17.549h2.507v2.507h-2.507V17.549z M15.347,24.444
	c0-1.002,0.586-1.881,1.254-1.881h67.688c0.668,0,1.254,0.879,1.254,1.881v15.901l-28.834,5.966
	c-0.035-0.664-0.584-1.185-1.25-1.185H45.431c-0.665,0-1.214,0.521-1.25,1.185l-28.834-5.966V24.444z M46.684,50.14v-2.507h7.521
	v2.507H46.684z M47.938,52.647h5.014v2.507h-5.014V52.647z M84.289,74c0,0.668-0.541,1.209-1.209,1.21H17.811
	c-0.668-0.001-1.209-0.542-1.21-1.21V43.164l27.577,5.705v2.524c0,0.692,0.562,1.253,1.253,1.253v3.761
	c0,0.692,0.562,1.254,1.253,1.254h7.521c0.692,0,1.253-0.562,1.253-1.254v-3.761c0.692,0,1.254-0.561,1.254-1.253v-2.524
	l27.576-5.705V74z"/>
</svg>
