<?xml version="1.0" encoding="utf-8"?>
<!-- Generator: Adobe Illustrator 16.0.0, SVG Export Plug-In . SVG Version: 6.00 Build 0)  -->
<!DOCTYPE svg PUBLIC "-//W3C//DTD SVG 1.1//EN" "http://www.w3.org/Graphics/SVG/1.1/DTD/svg11.dtd">
<svg version="1.1" id="Layer_1" xmlns="http://www.w3.org/2000/svg" xmlns:xlink="http://www.w3.org/1999/xlink" x="0px" y="0px"
	 width="100.89px" height="100.279px" viewBox="0 0 100.89 100.279" enable-background="new 0 0 100.89 100.279"
	 xml:space="preserve">
<g display="none">
	
		<rect x="-858.544" y="-399.11" display="inline" stroke="#000000" stroke-width="4" stroke-miterlimit="10" width="978.831" height="602.929"/>
</g>
<g>
	<polygon fill="none" points="33.47,14.457 26.589,14.457 26.589,28.242 33.47,21.313 	"/>
	<path fill="none" d="M50.982,7.112L17.486,40.837c-0.244,0.246-0.166,0.521-0.122,0.628c0.045,0.107,0.185,0.358,0.532,0.358h5.338
		v31.136h6.972V56.265c0-2.459,1.334-4.751,3.481-5.979l0.515-0.295l-0.464-0.367c-2.007-1.592-3.159-3.962-3.159-6.504
		c0-4.576,3.724-8.301,8.301-8.301c4.578,0,8.302,3.725,8.302,8.301c0,2.542-1.152,4.913-3.159,6.504l-0.465,0.368l0.515,0.295
		c1.028,0.588,1.894,1.437,2.5,2.453l0.182,0.302l0.322-0.14c0.967-0.418,2.013-0.615,3.056-0.539l0.519,0.034v-1.46
		c0-3.241,1.951-6.12,4.968-7.333l0.739-0.298l-0.679-0.417c-2.876-1.763-4.593-4.813-4.593-8.159c0-5.279,4.296-9.574,9.575-9.574
		c5.278,0,9.574,4.296,9.574,9.574c0,3.346-1.717,6.396-4.593,8.159l-0.681,0.417l0.741,0.298c3.021,1.213,4.973,4.092,4.973,7.333
		v22.022h7.351V41.823h4.941c0.356,0,0.502-0.252,0.548-0.361c0.047-0.107,0.126-0.386-0.12-0.639L50.982,7.112z"/>
	<path fill="none" d="M67.818,34.731c0-3.946-3.211-7.157-7.157-7.157c-3.947,0-7.157,3.211-7.157,7.157s3.21,7.156,7.157,7.156
		C64.607,41.887,67.818,38.676,67.818,34.731z"/>
	<path fill="none" d="M38.879,37.235c-3.244,0-5.883,2.64-5.883,5.883c0,3.244,2.639,5.884,5.883,5.884
		c3.245,0,5.884-2.639,5.884-5.884C44.763,39.873,42.124,37.235,38.879,37.235z"/>
	<path fill="none" d="M49.77,54.762c-2.432,0-4.41,1.978-4.41,4.409s1.978,4.41,4.41,4.41c2.431,0,4.409-1.979,4.409-4.41
		S52.201,54.762,49.77,54.762z"/>
	<path fill="#50007E" d="M51.009,3.654L35.887,18.879v-6.84H24.171v18.636l-8.401,8.46c-0.851,0.857-1.102,2.135-0.641,3.252
		c0.461,1.118,1.544,1.846,2.758,1.854h2.931v30.64h11.804V56.264c0-2.467,2.007-4.474,4.474-4.474h3.566
		c1.701,0,3.231,0.954,3.996,2.491l0.119,0.238l-0.174,0.202c-1.071,1.241-1.66,2.821-1.66,4.448c0,1.853,0.735,3.588,2.072,4.888
		l0.121,0.118v0.919l-0.164,0.121c-1.477,1.086-2.323,2.754-2.323,4.576v5.086h2.417v-5.086c0-1.246,0.701-2.373,1.829-2.94
		c0.33-0.167,0.682-0.276,1.043-0.323l0.104-0.011c0.099-0.012,0.207-0.017,0.314-0.017h2.825c0.107,0,0.216,0.005,0.318,0.018
		l0.181,0.027c1.591,0.235,2.792,1.632,2.792,3.246v5.086h2.417v-5.086c0-1.939-0.987-3.734-2.644-4.799l-0.452-0.291l0.409-0.351
		c1.521-1.304,2.394-3.192,2.394-5.181c0-2.38-1.278-4.624-3.335-5.855l-0.195-0.117v-2.263c0-3.026,2.462-5.488,5.488-5.488h4.211
		c3.029,0,5.496,2.462,5.496,5.488v23.943h12.183V44.24h2.525c1.21,0,2.298-0.719,2.772-1.832c0.479-1.128,0.248-2.378-0.604-3.262
		L51.009,3.654z M26.589,14.457h6.881v6.855l-6.881,6.93V14.457z M38.879,49.001c-3.244,0-5.883-2.639-5.883-5.884
		c0-3.244,2.639-5.883,5.883-5.883c3.245,0,5.884,2.64,5.884,5.883C44.763,46.362,42.124,49.001,38.879,49.001z M54.179,59.171
		c0,2.432-1.979,4.41-4.409,4.41c-2.432,0-4.41-1.979-4.41-4.41s1.978-4.409,4.41-4.409C52.201,54.762,54.179,56.74,54.179,59.171z
		 M60.661,41.887c-3.947,0-7.157-3.211-7.157-7.157s3.21-7.157,7.157-7.157c3.946,0,7.157,3.211,7.157,7.157
		S64.607,41.887,60.661,41.887z M83.516,41.462c-0.046,0.109-0.19,0.361-0.548,0.361h-4.941v31.136h-7.351V50.937
		c0-3.241-1.952-6.12-4.973-7.333l-0.741-0.298l0.681-0.417c2.876-1.763,4.593-4.813,4.593-8.159c0-5.279-4.296-9.574-9.574-9.574
		c-5.279,0-9.575,4.296-9.575,9.574c0,3.346,1.717,6.396,4.593,8.159l0.679,0.417l-0.739,0.297c-3.02,1.214-4.968,4.093-4.968,7.334
		v1.46l-0.519-0.034c-1.043-0.076-2.089,0.121-3.056,0.539l-0.322,0.14l-0.182-0.302c-0.607-1.017-1.472-1.865-2.5-2.453
		l-0.515-0.295l0.465-0.368c2.008-1.591,3.159-3.962,3.159-6.504c0-4.576-3.724-8.301-8.302-8.301c-4.577,0-8.301,3.725-8.301,8.301
		c0,2.542,1.152,4.913,3.159,6.504l0.464,0.367l-0.515,0.295c-2.147,1.229-3.481,3.521-3.481,5.979v16.694h-6.972V41.823h-5.338
		c-0.347,0-0.487-0.251-0.532-0.358c-0.044-0.106-0.121-0.382,0.122-0.628L50.982,7.112l32.413,33.711
		C83.642,41.075,83.562,41.354,83.516,41.462z"/>
</g>
</svg>
