<?xml version="1.0" encoding="utf-8"?>
<!-- Generator: Adobe Illustrator 16.0.0, SVG Export Plug-In . SVG Version: 6.00 Build 0)  -->
<!DOCTYPE svg PUBLIC "-//W3C//DTD SVG 1.1//EN" "http://www.w3.org/Graphics/SVG/1.1/DTD/svg11.dtd">
<svg version="1.1" id="Layer_1" xmlns="http://www.w3.org/2000/svg" xmlns:xlink="http://www.w3.org/1999/xlink" x="0px" y="0px"
	 width="100.89px" height="100.279px" viewBox="0 0 100.89 100.279" enable-background="new 0 0 100.89 100.279"
	 xml:space="preserve">
<path fill="#50007E" d="M82.663,41.94c-3.466-3.228-15.573-13.456-30.315-14.29c-0.63-0.036-1.263-0.061-1.902-0.061
	s-1.273,0.024-1.903,0.061c-14.739,0.834-26.848,11.063-30.316,14.291c-0.407,0.381-0.632,0.878-0.632,1.399
	c0,0.522,0.225,1.02,0.633,1.4c3.468,3.228,15.576,13.456,30.315,14.29c0.63,0.036,1.264,0.061,1.903,0.061s1.272-0.024,1.902-0.061
	c14.742-0.834,26.85-11.063,30.315-14.29c0.408-0.381,0.634-0.878,0.634-1.4C83.296,42.819,83.072,42.321,82.663,41.94z
	 M19.265,43.625c-0.067-0.063-0.147-0.164-0.147-0.285s0.08-0.222,0.147-0.284c2.785-2.593,11.303-9.832,22.204-12.724
	c-4.127,2.857-6.841,7.619-6.841,13.008s2.713,10.15,6.841,13.008C30.567,53.456,22.05,46.218,19.265,43.625z M52.197,57.513
	c-0.575,0.071-1.158,0.119-1.752,0.119c-0.594,0-1.177-0.048-1.752-0.119c-7.055-0.868-12.54-6.887-12.54-14.173
	s5.484-13.305,12.54-14.173c0.576-0.071,1.158-0.119,1.752-0.119c0.594,0,1.177,0.048,1.752,0.119
	c7.056,0.868,12.539,6.887,12.539,14.173S59.252,56.645,52.197,57.513z M81.625,43.624c-2.785,2.594-11.302,9.833-22.205,12.724
	c4.128-2.856,6.842-7.619,6.842-13.008s-2.714-10.151-6.842-13.008c10.903,2.891,19.42,10.13,22.205,12.724
	c0.066,0.063,0.147,0.163,0.147,0.284S81.691,43.562,81.625,43.624z M50.445,35.129c-4.535,0-8.211,3.677-8.211,8.211
	c0,4.535,3.676,8.211,8.211,8.211c4.534,0,8.211-3.676,8.211-8.211C58.656,38.806,54.979,35.129,50.445,35.129z M53.142,43.321
	c-1.443,0-2.612-1.169-2.612-2.612c0-1.442,1.169-2.611,2.612-2.611c1.442,0,2.611,1.169,2.611,2.611
	C55.753,42.152,54.584,43.321,53.142,43.321z"/>
</svg>
