<?xml version="1.0" encoding="utf-8"?>
<!-- Generator: Adobe Illustrator 16.0.0, SVG Export Plug-In . SVG Version: 6.00 Build 0)  -->
<!DOCTYPE svg PUBLIC "-//W3C//DTD SVG 1.1//EN" "http://www.w3.org/Graphics/SVG/1.1/DTD/svg11.dtd">
<svg version="1.1" id="Layer_1" xmlns="http://www.w3.org/2000/svg" xmlns:xlink="http://www.w3.org/1999/xlink" x="0px" y="0px"
	 width="841.891px" height="595.281px" viewBox="0 0 841.891 595.281" enable-background="new 0 0 841.891 595.281"
	 xml:space="preserve">
<title>expand lines</title>
<path fill="#0083A9" d="M548,135.615h-12.055c-6.037,6.122-13.085,11.156-20.835,14.882H548
	c13.266-0.041,24.064,10.658,24.146,23.923v146.402c-0.021,4.582-3.752,8.28-8.334,8.26l0,0h-20.277
	c-0.371-0.028-0.744-0.028-1.116,0v-70.69c0-4.109-3.331-7.44-7.44-7.44c-4.11,0-7.441,3.331-7.441,7.44v218.617
	c0.233,4.352-3.091,8.074-7.44,8.334h-29.765V358.845c0-4.109-3.331-7.441-7.44-7.441c-4.11,0-7.441,3.332-7.441,7.441v126.497
	h-29.764c-4.35-0.26-7.674-3.982-7.441-8.334V413.76c-2.353,0.468-4.745,0.704-7.144,0.707h-7.738v62.356
	c-0.249,12.572,9.741,22.967,22.314,23.215c0.003,0.001,0.006,0.001,0.009,0.001h74.41c12.572-0.244,22.566-10.635,22.322-23.208
	c0-0.003,0-0.005,0-0.008V343.964c0.372,0.027,0.745,0.027,1.116,0h20.277c12.807,0.021,23.212-10.335,23.253-23.142V174.42
	C586.983,152.921,569.499,135.553,548,135.615z"/>
<path fill="#0083A9" d="M482.891,143.056c32.876,0,59.527-26.652,59.527-59.528S515.767,24,482.891,24
	c-32.877,0-59.528,26.652-59.528,59.528S450.014,143.056,482.891,143.056z M482.891,38.882c24.657,0,44.646,19.989,44.646,44.646
	s-19.988,44.646-44.646,44.646c-24.658,0-44.646-19.988-44.646-44.646S458.233,38.882,482.891,38.882z"/>
<path fill="#0083A9" d="M450.672,150.497c-7.749-3.726-14.798-8.76-20.835-14.882h-7.776c1.896,4.796,3.256,9.787,4.056,14.882
	H450.672z"/>
<path fill="#0083A9" d="M270.822,191.423h21.542c-2.24-4.755-3.938-9.747-5.06-14.882h-16.482v-26.044h15.85
	c0.8-5.095,2.159-10.086,4.056-14.882h-19.905c-8.219,0-14.882,6.663-14.882,14.882v26.044
	C255.94,184.76,262.603,191.423,270.822,191.423z"/>
<path fill="#0083A9" d="M431.101,399.771c12.13,0.021,21.984-9.785,22.025-21.914V242.691
	c-0.082-20.148-16.461-36.428-36.609-36.387h-5.396c-4.771,5.816-10.435,10.839-16.779,14.882h22.323
	c11.931-0.041,21.646,9.575,21.728,21.505v135.166c-0.039,3.925-3.253,7.073-7.178,7.034c-0.038-0.001-0.076-0.001-0.114-0.003
	h-18.9v-70.689c0-4.109-3.331-7.44-7.44-7.44s-7.441,3.331-7.441,7.44v164.187c0.169,3.665-2.66,6.776-6.325,6.957h-27.159V392.33
	c0-4.109-3.331-7.441-7.441-7.441c-4.109,0-7.44,3.332-7.44,7.441v93.013h-27.16c-3.665-0.181-6.493-3.292-6.324-6.957V314.199
	c0-4.109-3.332-7.44-7.441-7.44s-7.441,3.331-7.441,7.44v70.689h-18.899c-3.91,0.021-7.103-3.121-7.144-7.031V242.691
	c0.082-11.93,9.798-21.546,21.728-21.505h22.323c-6.345-4.043-12.008-9.065-16.779-14.882h-5.544
	c-20.148-0.041-36.527,16.238-36.609,36.387v135.166c0.041,12.129,9.896,21.935,22.025,21.914h18.899v78.614
	c-0.165,11.883,9.324,21.655,21.207,21.839h69.201c11.884-0.184,21.373-9.956,21.207-21.839v-78.614H431.101z"/>
<path fill="#0083A9" d="M356.393,217.467c30.822,0,55.808-24.986,55.808-55.808c0-30.822-24.985-55.808-55.808-55.808
	c-30.821,0-55.808,24.985-55.808,55.808C300.586,192.48,325.572,217.467,356.393,217.467z M356.393,120.733
	c22.603,0,40.926,18.323,40.926,40.926s-18.323,40.925-40.926,40.925s-40.925-18.322-40.925-40.925S333.791,120.733,356.393,120.733
	z"/>
</svg>
