<?xml version="1.0" encoding="utf-8"?>
<!-- Generator: Adobe Illustrator 16.0.0, SVG Export Plug-In . SVG Version: 6.00 Build 0)  -->
<!DOCTYPE svg PUBLIC "-//W3C//DTD SVG 1.1//EN" "http://www.w3.org/Graphics/SVG/1.1/DTD/svg11.dtd">
<svg version="1.1" id="Layer_1" xmlns="http://www.w3.org/2000/svg" xmlns:xlink="http://www.w3.org/1999/xlink" x="0px" y="0px"
	 width="841.891px" height="595.281px" viewBox="0 0 841.891 595.281" enable-background="new 0 0 841.891 595.281"
	 xml:space="preserve">
<path fill="#919B03" d="M256.457,190.138l-14.882-29.765c-1.81-3.689-6.268-5.214-9.957-3.404c-3.69,1.81-5.215,6.268-3.405,9.957
	c0.018,0.034,0.034,0.069,0.052,0.104l2.057,4.113h-25.165c-4.109,0-7.441,3.331-7.441,7.44v29.765c0,4.109,3.332,7.44,7.441,7.44
	h25.165l-2.057,4.113c-1.866,3.661-0.411,8.143,3.25,10.009c3.661,1.867,8.143,0.412,10.009-3.249
	c0.018-0.034,0.034-0.069,0.052-0.104l14.882-29.764C257.505,194.699,257.505,192.233,256.457,190.138z M212.596,200.907v-14.882
	h25.166l3.721,7.441l-3.721,7.44H212.596z"/>
<path fill="#919B03" d="M556.539,215.597c3.383-0.771,5.783-3.779,5.785-7.249v-44.646c0-4.109-3.331-7.44-7.44-7.44h-6.005
	l12.972-34.593c1.443-3.848-0.506-8.137-4.354-9.58c-0.835-0.313-1.721-0.474-2.612-0.474H287.007c-4.109,0-7.441,3.331-7.441,7.44
	c0,0.893,0.161,1.778,0.474,2.613l12.973,34.593h-6.005c-4.109,0-7.44,3.331-7.44,7.44v44.646c0.002,3.47,2.402,6.478,5.785,7.249
	c-18.495,47.862-32.83,97.229-42.847,147.553c-0.096,0.48-0.144,0.969-0.144,1.459v141.38c0,4.109,3.331,7.44,7.44,7.44H391.18
	c4.11,0,7.441-3.331,7.441-7.44v-22.323h44.646v22.323c0,4.109,3.331,7.44,7.44,7.44h141.379c4.11,0,7.441-3.331,7.441-7.44v-141.38
	c0-0.49-0.048-0.979-0.145-1.459C589.369,312.826,575.034,263.46,556.539,215.597z M447.47,468.784h-53.045
	c-13.383-14.295-81.337-85.046-136.098-108.743c3.32-16.019,6.931-31.227,10.686-45.542c29.285,11.646,82.416,27.787,151.932,27.787
	c17.408,0.001,34.801-1.032,52.087-3.092v103.742C460.622,454.946,451.485,464.51,447.47,468.784z M316.771,178.584
	c4.109,0,7.44-3.331,7.44-7.44h14.882v7.44c0,4.11,3.332,7.441,7.441,7.441s7.44-3.331,7.44-7.441v-7.44h14.883
	c0,4.109,3.331,7.44,7.44,7.44s7.441-3.331,7.441-7.44h14.882v29.764H294.448v-29.764h14.882
	C309.33,175.253,312.661,178.584,316.771,178.584z M465.592,186.025c4.109,0,7.44-3.331,7.44-7.441v-7.44h14.882
	c0,4.109,3.332,7.44,7.441,7.44s7.44-3.331,7.44-7.44h14.883v7.44c0,4.11,3.331,7.441,7.44,7.441s7.441-3.331,7.441-7.441v-7.44
	h14.882v29.764H443.268v-29.764h14.882v7.44C458.15,182.694,461.481,186.025,465.592,186.025z M531.072,233.647l-13.394-17.858
	h22.938c10.918,27.565,20.378,55.686,28.34,84.245c-11.898,4.763-24.049,8.869-36.396,12.303v-74.225
	C532.559,236.503,532.038,234.936,531.072,233.647z M428.386,200.907h-14.883v-29.764h14.883V200.907z M473.032,215.789v108.415
	c-17.28,2.133-34.676,3.201-52.087,3.2c-68.429,0-120.24-16.137-148.012-27.369c7.962-28.56,17.422-56.681,28.34-84.246H473.032z
	 M487.914,483.666c4.109,0,7.441-3.332,7.441-7.441s-3.332-7.44-7.441-7.44v-14.883h7.441c4.109,0,7.44-3.331,7.44-7.44
	s-3.331-7.441-7.44-7.441h-7.441v-14.882c4.109,0,7.441-3.331,7.441-7.44c0-4.11-3.332-7.441-7.441-7.441v-14.882h7.441
	c4.109,0,7.44-3.332,7.44-7.441s-3.331-7.44-7.44-7.44h-7.441v-14.883c4.109,0,7.441-3.331,7.441-7.44
	c0-4.11-3.332-7.441-7.441-7.441v-14.882h7.441c4.109,0,7.44-3.332,7.44-7.441s-3.331-7.44-7.44-7.44h-7.441v-14.883
	c4.109,0,7.441-3.331,7.441-7.44s-3.332-7.441-7.441-7.441v-14.882h7.441c4.109,0,7.44-3.331,7.44-7.44
	c0-4.11-3.331-7.441-7.44-7.441h-7.441v-14.882c4.109,0,7.441-3.332,7.441-7.441s-3.332-7.44-7.441-7.44v-14.883h11.162
	l18.603,24.804v257.955h-29.765V483.666z M532.56,327.769c13.681-3.653,27.141-8.086,40.315-13.276
	c3.755,14.319,7.367,29.532,10.687,45.556c-14.928,6.46-32.018,16.937-51.002,31.264V327.769z M297.744,126.497h246.402
	l-11.162,29.765H308.906L297.744,126.497z M257.243,498.548v-122.65c50.928,24.392,114.63,90.645,126.497,103.26v19.391H257.243z
	 M458.15,479.154c2.643-2.813,7.849-8.277,14.882-15.33v34.724H458.15V479.154z M532.56,498.548v-88.412
	c19.589-15.562,37.052-27.044,52.087-34.241v122.653H532.56z"/>
<circle fill="#919B03" cx="420.945" cy="238.113" r="7.441"/>
<path fill="#919B03" d="M636.734,163.702h-25.165l2.056-4.112c1.867-3.661,0.412-8.143-3.248-10.01
	c-3.662-1.866-8.143-0.412-10.01,3.249c-0.018,0.035-0.035,0.069-0.052,0.104l-14.882,29.764c-1.048,2.096-1.048,4.562,0,6.656
	l14.882,29.764c1.81,3.69,6.268,5.215,9.957,3.405s5.214-6.268,3.405-9.957c-0.018-0.035-0.035-0.069-0.053-0.104l-2.056-4.113
	h25.165c4.109,0,7.441-3.332,7.441-7.441v-29.764C644.176,167.034,640.844,163.702,636.734,163.702z M629.293,193.467h-25.165
	l-3.721-7.441l3.721-7.441h25.165V193.467z"/>
</svg>
