<?xml version="1.0" encoding="utf-8"?>
<!-- Generator: Adobe Illustrator 16.0.0, SVG Export Plug-In . SVG Version: 6.00 Build 0)  -->
<!DOCTYPE svg PUBLIC "-//W3C//DTD SVG 1.1//EN" "http://www.w3.org/Graphics/SVG/1.1/DTD/svg11.dtd">
<svg version="1.1" id="Layer_1" xmlns="http://www.w3.org/2000/svg" xmlns:xlink="http://www.w3.org/1999/xlink" x="0px" y="0px"
	 width="841.891px" height="595.281px" viewBox="0 0 841.891 595.281" enable-background="new 0 0 841.891 595.281"
	 xml:space="preserve">
<path fill="#FEB9E0" d="M582.181,324.234V255.35H559.68v-10.422l-4.976-1.752c-5.323-1.87-10.805-3.497-16.391-4.891v-24.148
	l-1.176-1.836c-11.767-18.35-32.834-33.296-58.972-42.25c17.665-15.774,28.86-38.644,28.86-64.131
	c0-47.464-38.613-86.078-86.082-86.078s-86.083,38.614-86.083,86.083c0,25.487,11.201,48.356,28.861,64.131
	c-27.259,9.312-48.838,25.062-60.342,44.458l-1.041,1.756v22.353c-5.159,1.325-10.234,2.823-15.165,4.554l-4.976,1.752v10.422
	h-22.497v68.89c-10.561,3.641-18.274,14.817-18.274,28.013c0,13.181,7.714,24.342,18.274,27.982v76.146h322.474V380.23
	c10.562-3.636,18.275-14.797,18.275-27.982C600.457,339.057,592.743,327.881,582.181,324.234z M559.685,270.232h7.619v54.002
	c-2.768,0.953-5.327,2.437-7.619,4.321V270.232z M526.836,410.267V251.069c6.116,1.23,12.153,2.659,17.968,4.489v159.749
	c-7.68-2.212-15.289-3.85-22.74-5.04H526.836z M349.75,105.926c0-39.264,31.937-71.201,71.195-71.201s71.2,31.938,71.2,71.201
	s-31.937,71.195-71.2,71.195S349.75,145.184,349.75,105.926z M379.032,181.04c12.417,6.955,26.698,10.963,41.913,10.963
	c15.22,0,29.501-4.008,41.923-10.968c23.612,6.151,43.326,17.277,55.753,31.421c-8.181,0.034-16.415,0.63-24.585,1.791v-11.703
	h-7.441c-31.515,0-54.771,22.532-65.649,35.697c-10.879-13.165-34.135-35.697-65.649-35.697h-7.441v11.703
	c-8.15-1.161-16.36-1.757-24.521-1.791C335.735,198.323,355.315,187.211,379.032,181.04z M511.954,227.486v12.353V395.45
	c-6.385,0.114-12.298,0.407-17.918,0.799V239.844v-8.935v-1.513C499.988,228.473,505.97,227.764,511.954,227.486z M479.154,217.987
	v12.917v8.935v146.746c-22.497,1.96-39.83,12.462-50.763,21.336V252.637C433.054,246.293,452.5,221.995,479.154,217.987z
	 M421.213,250.201h-0.163l-0.025-0.024l0.064-0.06L421.213,250.201z M420.945,250.196L420.945,250.196L420.945,250.196
	L420.945,250.196z M420.876,250.181v0.015h-0.03L420.876,250.181z M413.504,252.637v155.288
	c-10.934-8.879-28.271-19.376-50.768-21.335V239.844v-8.935v-12.922C389.39,221.99,408.841,246.293,413.504,252.637z
	 M347.854,229.396v1.513v8.935v156.405c-5.62-0.387-11.533-0.68-17.918-0.794V239.844v-12.353
	C335.919,227.764,341.901,228.473,347.854,229.396z M297.092,255.564c5.814-1.836,11.852-3.26,17.968-4.49v159.198h4.787
	c-7.461,1.19-15.07,2.828-22.755,5.04V255.564z M274.595,270.232h7.614v58.338c-2.287-1.89-4.847-3.378-7.614-4.336V270.232z
	 M267.154,366.608c-5.873,0-10.834-6.577-10.834-14.36c0-7.938,4.856-14.392,10.834-14.392s10.834,6.459,10.834,14.392
	C277.983,360.036,273.022,366.608,267.154,366.608z M567.3,441.5H274.595v-61.27c2.768-0.952,5.327-2.44,7.614-4.325v60.083
	l9.906-3.482c57.42-20.154,113.084-4.306,124.285-0.709l0.858,1.092h0.104h0.839h2.634h0.035l0.074-7.401l0,0l0.069,0.104v7.303
	h0.035h2.634h0.838h0.104l0.858-1.092c11.201-3.606,66.87-19.455,124.284,0.71l9.907,3.482V375.92
	c2.286,1.885,4.852,3.363,7.619,4.315V441.5H567.3z M574.741,366.608c-5.894,0-10.869-6.577-10.869-14.36
	c0-7.804,4.976-14.392,10.869-14.392c5.973,0,10.834,6.459,10.834,14.392C585.575,360.036,580.614,366.608,574.741,366.608z"/>
</svg>
