<?xml version="1.0" encoding="utf-8"?>
<!-- Generator: Adobe Illustrator 16.0.0, SVG Export Plug-In . SVG Version: 6.00 Build 0)  -->
<!DOCTYPE svg PUBLIC "-//W3C//DTD SVG 1.1//EN" "http://www.w3.org/Graphics/SVG/1.1/DTD/svg11.dtd">
<svg version="1.1" id="Layer_1" xmlns="http://www.w3.org/2000/svg" xmlns:xlink="http://www.w3.org/1999/xlink" x="0px" y="0px"
	 width="841.891px" height="595.281px" viewBox="0 0 841.891 595.281" enable-background="new 0 0 841.891 595.281"
	 xml:space="preserve">
<title>travel icon-44</title>
<g>
	<path fill="#A90556" d="M381.466,374.598c-2.619-7.524-5.429-15.097-8.381-22.525c-1.21-3.064-4.675-4.567-7.739-3.357
		c-3.063,1.21-4.567,4.675-3.357,7.738c2.905,7.286,5.667,14.716,8.239,22.05c0.831,2.393,3.086,3.998,5.619,4
		c3.261,0.035,5.934-2.58,5.969-5.842C381.822,375.959,381.704,375.26,381.466,374.598L381.466,374.598z"/>
	<path fill="#A90556" d="M388.99,397.409c-0.96-3.155-4.297-4.937-7.453-3.976c-3.155,0.96-4.937,4.296-3.976,7.452l0,0
		c2.285,7.524,4.476,15.145,6.381,22.669c0.703,2.613,3.057,4.441,5.763,4.477c0.507,0.046,1.017,0.046,1.523,0
		c3.18-0.837,5.079-4.093,4.242-7.271c-0.001-0.005-0.002-0.01-0.004-0.016C393.514,412.886,391.324,405.077,388.99,397.409z"/>
	<path fill="#A90556" d="M330.463,265.876c-1.697-2.827-5.364-3.744-8.191-2.048c-2.827,1.697-3.744,5.364-2.048,8.191
		c4,6.667,7.953,13.572,11.668,20.478c1.062,1.899,3.063,3.081,5.238,3.096c0.996-0.005,1.976-0.25,2.857-0.715
		c2.877-1.59,3.939-5.2,2.381-8.096C338.701,279.782,334.653,272.733,330.463,265.876z"/>
	<path fill="#A90556" d="M363.798,329.881c-3.238-7.286-6.667-14.62-10.19-21.764c-1.44-2.955-5.003-4.185-7.959-2.745
		c-2.955,1.44-4.185,5.003-2.745,7.959c0.012,0.024,0.024,0.049,0.036,0.072c3.429,7.001,6.811,14.287,10.001,21.335
		c0.947,2.15,3.079,3.534,5.429,3.524c0.836-0.014,1.661-0.192,2.429-0.524C363.794,336.395,365.136,332.88,363.798,329.881z"/>
	<path fill="#A90556" d="M401.468,171.822c0.674,0.237,1.381,0.366,2.095,0.381c2.484,0.014,4.711-1.528,5.572-3.857
		c2.762-7.239,5.81-14.287,9.096-21.525c1.558-2.896,0.473-6.505-2.423-8.063s-6.505-0.473-8.063,2.423
		c-0.104,0.192-0.195,0.39-0.277,0.592c-3.429,7.286-6.619,14.811-9.524,22.335C396.788,167.211,398.365,170.663,401.468,171.822z"
		/>
	<path fill="#A90556" d="M420.945,128.581c0.901,0.506,1.919,0.769,2.952,0.762c2.133,0.011,4.104-1.139,5.144-3
		c3.857-6.763,8.048-13.43,12.382-19.812c1.764-2.774,0.943-6.453-1.831-8.217c-2.664-1.692-6.185-1.013-8.026,1.55
		c-4.524,6.62-8.858,13.525-12.858,20.573C417.093,123.306,418.092,126.939,420.945,128.581z"/>
	<path fill="#A90556" d="M580.623,338.786h19.049c3.288,0.007,5.959-2.652,5.966-5.939c0.002-0.895-0.198-1.778-0.584-2.585
		l-26.145-54.052h8.715c1.968-0.126,3.749-1.213,4.762-2.904c1.107-1.715,1.233-3.884,0.334-5.715l-35.955-75.243
		c-1.405-2.973-4.954-4.242-7.927-2.837c-1.245,0.589-2.247,1.592-2.836,2.837l-10.144,21.239
		c-33.427-5.727-67.352-8.024-101.245-6.857c10.815-48.841,34.321-93.965,68.147-130.819c33.161,9.07,64.84,22.88,94.054,41.003
		c0.91,0.58,1.97,0.878,3.049,0.857c3.287-0.032,5.926-2.724,5.893-6.012c-0.02-2.031-1.074-3.912-2.798-4.989
		c-30.761-19.153-64.212-33.6-99.245-42.86c-0.793-0.367-1.65-0.577-2.523-0.619c-112.056-27.383-184.062,25.288-201.776,40.289
		l-4.001-8.334h3.382c3.287,0.007,5.958-2.652,5.965-5.94c0.002-0.895-0.197-1.777-0.584-2.584l-25.621-53.385
		c-1.405-2.972-4.954-4.242-7.926-2.836c-1.245,0.589-2.248,1.591-2.837,2.836l-25.62,53.385c-0.899,1.848-0.773,4.03,0.333,5.763
		c1.103,1.72,3.005,2.761,5.048,2.762h3.381l-17.286,36.146c-1.421,2.965-0.169,6.52,2.797,7.94
		c0.792,0.379,1.658,0.579,2.536,0.584h10.239l-23.525,35.384c-1.818,2.771-1.045,6.49,1.726,8.309
		c0.905,0.594,1.955,0.932,3.036,0.978h28.24v20.811c0,3.288,2.665,5.953,5.953,5.953h17.049c3.269-0.026,5.905-2.684,5.905-5.953
		v-20.811h28.24c3.311-0.141,5.881-2.939,5.739-6.25c-0.046-1.082-0.384-2.131-0.978-3.036l-23.812-35.384h10.239
		c2.04-0.01,3.931-1.072,5-2.81c1.107-1.715,1.233-3.884,0.334-5.715l-7.953-16.668c7.286-6.715,50.623-43.622,122.818-47.099
		c-40.814,40.008-68.968,91.13-80.958,147.011c-9.239,1.381-17.954,2.81-26.002,4.286c-0.27-0.027-0.541-0.027-0.81,0
		c-36.003,6.523-59.48,13.144-60.052,13.334c-3.156,0.921-4.969,4.226-4.048,7.382c0.74,2.539,3.068,4.285,5.714,4.285
		c0.554,0.066,1.113,0.066,1.667,0c0,0,5.191-1.476,13.716-3.571c34.098,58.005,51.813,138.105,63.48,201.348
		c0.547,2.773,2.983,4.771,5.81,4.763h1.096c3.232-0.602,5.365-3.709,4.765-6.94c-0.001-0.005-0.002-0.009-0.003-0.013
		c-11.619-63.29-29.287-142.772-63.1-202.063l8.191-1.81c3.81,5.382,7.524,10.858,11.191,16.383c1.724,2.799,5.391,3.671,8.19,1.947
		c2.799-1.724,3.671-5.391,1.947-8.19c-0.059-0.096-0.121-0.189-0.185-0.281c-2.763-4.191-5.572-8.334-8.43-12.478l10.049-1.904
		c41.669,45.098,93.816,129.247,111.96,210.682c0.581,2.753,2.997,4.733,5.811,4.762h1.333c3.188-0.732,5.188-3.902,4.477-7.096
		c-18.001-80.958-66.672-161.916-109.531-210.539c52.813-8.81,127.58-15.953,197.3-3.952l-20.478,42.86
		c-0.9,1.831-0.774,4,0.333,5.714c1.103,1.721,3.005,2.762,5.048,2.763h8.524l-26.097,53.956c-0.9,1.831-0.774,4.001,0.333,5.715
		c1.085,1.745,2.993,2.808,5.048,2.81h19.049l-36.002,53.385c-1.947,2.683-1.351,6.435,1.331,8.381
		c0.999,0.726,2.197,1.125,3.431,1.144h42.003v31.621c0,3.288,2.665,5.953,5.953,5.953h23.812c3.287,0,5.952-2.665,5.952-5.953
		v-31.859h42.384c3.313-0.052,5.958-2.779,5.906-6.093c-0.02-1.234-0.419-2.433-1.144-3.432L580.623,338.786z M275.84,199.443
		h-5.238v-14.858h5.143L275.84,199.443z M286.078,128.01c-3.285,0.109-5.86,2.862-5.75,6.148c0.037,1.102,0.379,2.171,0.988,3.09
		l23.811,35.431h-63.528l23.812-35.431c1.816-2.74,1.068-6.435-1.672-8.251c-0.919-0.608-1.988-0.951-3.09-0.987h-11.906
		l17.287-36.146c1.42-2.966,0.168-6.521-2.797-7.94c-0.807-0.387-1.69-0.586-2.584-0.584h-3.382l16.049-33.813l16.191,33.813h-3.381
		c-3.288-0.008-5.958,2.652-5.966,5.939c-0.002,0.895,0.198,1.778,0.585,2.585l17.286,36.146H286.078z M445.566,67.481
		c3.619,0,7.286,0.285,11.048,0.571c-2.81,2.952-6.381,6.953-10.524,12.049c-2.091,2.536-1.729,6.288,0.808,8.379
		c0.001,0.001,0.001,0.002,0.002,0.002c1.067,0.857,2.394,1.328,3.763,1.334c1.842,0.053,3.604-0.758,4.762-2.19
		c4.792-5.977,9.962-11.639,15.478-16.954c0.295-0.3,0.551-0.636,0.762-1c5.81,0.81,11.763,1.81,17.858,3.096
		c-33.561,38.269-56.659,84.563-67.053,134.391c-8.619,0.428-17.049,0.952-25.335,1.619c1.381-6.144,2.905-12.287,4.763-18.287
		c0.92-3.17-0.902-6.485-4.072-7.405c-3.169-0.921-6.484,0.902-7.405,4.071c-2.143,7.477-4.048,15.097-5.619,22.764
		c-8.953,0.857-17.573,1.842-25.859,2.952C372.16,156.647,402.412,105.872,445.566,67.481z M557.526,427.126H545.43v-25.669h12.096
		V427.126z M563.479,389.552h-60.814l35.765-53.433c1.842-2.691,1.152-6.366-1.539-8.208c-0.95-0.65-2.071-1.009-3.223-1.03h-20.716
		l25.906-54.194c0.9-1.831,0.773-4.001-0.333-5.715c-1.098-1.731-2.998-2.789-5.048-2.81h-8.524l26.525-55.433l26.621,55.433h-8.62
		c-2.05,0.021-3.95,1.078-5.048,2.81c-1.107,1.714-1.233,3.884-0.333,5.715l25.906,54.194h-20.525
		c-3.261,0.062-5.854,2.755-5.793,6.016c0.022,1.151,0.38,2.272,1.031,3.223l35.573,53.433H563.479z"/>
</g>
</svg>
