<?xml version="1.0" encoding="utf-8"?>
<!-- Generator: Adobe Illustrator 16.0.0, SVG Export Plug-In . SVG Version: 6.00 Build 0)  -->
<!DOCTYPE svg PUBLIC "-//W3C//DTD SVG 1.1//EN" "http://www.w3.org/Graphics/SVG/1.1/DTD/svg11.dtd">
<svg version="1.1" id="Layer_1" xmlns="http://www.w3.org/2000/svg" xmlns:xlink="http://www.w3.org/1999/xlink" x="0px" y="0px"
	 width="841.891px" height="595.281px" viewBox="0 0 841.891 595.281" enable-background="new 0 0 841.891 595.281"
	 xml:space="preserve">
<title>podium, sport, star, tournament, winner</title>
<g>
	<path fill="#D79E00" d="M636.734,484.579H606.97V358.082c0-4.11-3.332-7.441-7.44-7.441H487.914V239.025
		c0-4.109-3.331-7.441-7.44-7.441H361.417c-4.109,0-7.441,3.332-7.441,7.441v66.969H242.361c-4.11,0-7.441,3.332-7.441,7.44v171.145
		h-29.764c-4.109,0-7.441,3.331-7.441,7.439v29.765c0,4.109,3.332,7.44,7.441,7.44h431.578c4.108,0,7.44-3.331,7.44-7.44v-29.765
		C644.176,487.91,640.844,484.579,636.734,484.579z M592.088,365.522v119.057H487.914V365.522H592.088z M368.858,246.467h104.174
		v238.112H368.858V246.467z M249.802,320.876h104.174v163.703H249.802V320.876z M629.293,514.343H212.596v-14.882h416.696
		L629.293,514.343L629.293,514.343z M377.578,148.915l-7.688,44.832c-0.694,4.051,2.026,7.896,6.077,8.59
		c1.613,0.276,3.273,0.014,4.722-0.749l40.256-21.168l40.256,21.168c3.637,1.913,8.137,0.516,10.05-3.121
		c0.762-1.449,1.024-3.109,0.748-4.723l-7.688-44.829l32.569-31.744c2.943-2.867,3.006-7.578,0.138-10.522
		c-1.143-1.174-2.641-1.937-4.262-2.172l-45.01-6.54L427.615,57.15c-2.174-3.685-6.923-4.909-10.606-2.735
		c-1.129,0.666-2.069,1.607-2.735,2.735l-20.133,40.784l-45.009,6.54c-4.067,0.59-6.886,4.365-6.296,8.432
		c0.235,1.621,0.999,3.119,2.172,4.263L377.578,148.915z M400.155,112.102c2.424-0.353,4.518-1.876,5.599-4.073l15.191-30.776
		l15.19,30.773c1.082,2.197,3.177,3.721,5.6,4.073l33.961,4.935l-24.571,23.95c-1.754,1.71-2.556,4.173-2.145,6.587l5.805,33.826
		l-30.375-15.972c-2.168-1.14-4.758-1.14-6.925,0l-30.375,15.972l5.804-33.826c0.411-2.414-0.39-4.877-2.144-6.587l-24.574-23.95
		L400.155,112.102z"/>
</g>
</svg>
