<?xml version="1.0" encoding="utf-8"?>
<!-- Generator: Adobe Illustrator 16.0.0, SVG Export Plug-In . SVG Version: 6.00 Build 0)  -->
<!DOCTYPE svg PUBLIC "-//W3C//DTD SVG 1.1//EN" "http://www.w3.org/Graphics/SVG/1.1/DTD/svg11.dtd">
<svg version="1.1" id="Layer_1" xmlns="http://www.w3.org/2000/svg" xmlns:xlink="http://www.w3.org/1999/xlink" x="0px" y="0px"
	 width="841.891px" height="595.281px" viewBox="0 0 841.891 595.281" enable-background="new 0 0 841.891 595.281"
	 xml:space="preserve">
<title>Business-Management 03 expandlines</title>
<path fill="#FFC862" d="M499.258,84.966c1.117,0.436,2.23,0.882,3.339,1.337c3.805,1.555,8.149-0.269,9.704-4.073
	c1.556-3.805-0.268-8.149-4.072-9.704c-1.185-0.483-2.375-0.958-3.572-1.425c-3.828-1.49-8.141,0.404-9.632,4.233
	C493.534,79.162,495.428,83.474,499.258,84.966L499.258,84.966z"/>
<path fill="#FFC861" d="M615.77,379.167c1.154,4.205,2.206,8.583,3.099,13.187l1.357,1.355c0.084,0.003,0.168,0.029,0.253,0.029
	c2.817,0.003,5.395-1.587,6.655-4.105c0.572-1.142,1.137-2.284,1.691-3.43c1.796-3.686,0.265-8.128-3.421-9.923
	C621.931,374.587,617.741,375.843,615.77,379.167z"/>
<path fill="#FFC862" d="M468.401,75.558c1.17,0.262,2.337,0.534,3.499,0.817c3.996,0.967,8.018-1.489,8.983-5.485
	c0.966-3.993-1.487-8.014-5.48-8.982c-1.239-0.298-2.481-0.587-3.729-0.868c-4.007-0.914-7.996,1.593-8.91,5.6
	c-0.915,4.007,1.592,7.996,5.599,8.91C468.376,75.552,468.388,75.555,468.401,75.558L468.401,75.558z"/>
<path fill="#FFC862" d="M436.521,70.876c1.189,0.083,2.377,0.178,3.563,0.283c0.224,0.018,0.445,0.029,0.666,0.029
	c4.11-0.005,7.438-3.34,7.433-7.45c-0.004-3.852-2.947-7.063-6.783-7.403c-1.275-0.112-2.553-0.214-3.832-0.305
	c-4.099-0.299-7.663,2.782-7.961,6.882c-0.299,4.099,2.782,7.663,6.881,7.961C436.499,70.874,436.51,70.875,436.521,70.876
	L436.521,70.876z"/>
<path fill="#FFC861" d="M205.276,227.816c0.705,0.219,1.439,0.33,2.178,0.33c3.271-0.003,6.157-2.141,7.114-5.268
	c0.351-1.145,0.71-2.286,1.079-3.423c1.284-3.903-0.839-8.109-4.742-9.394c-3.903-1.285-8.109,0.838-9.395,4.741
	c-0.004,0.013-0.008,0.025-0.012,0.038c-0.399,1.225-0.787,2.452-1.163,3.684c-1.201,3.929,1.009,8.088,4.938,9.29
	C205.274,227.815,205.275,227.815,205.276,227.816z"/>
<path fill="#FFC861" d="M193.349,248.366c-0.205,1.257-0.402,2.516-0.591,3.774c-0.603,4.066,2.204,7.852,6.27,8.455
	c0.364,0.054,0.732,0.08,1.101,0.08c3.685-0.005,6.811-2.704,7.353-6.348c0.176-1.188,0.36-2.371,0.554-3.55
	c0.662-4.056-2.09-7.881-6.146-8.542C197.839,241.576,194.019,244.318,193.349,248.366L193.349,248.366z"/>
<path fill="#FFC861" d="M190.298,282.675c-0.017,1.145-0.023,2.289-0.023,3.543l0.001,0.276c0,4.109,3.332,7.44,7.441,7.44
	s7.441-3.331,7.441-7.44l-0.002-0.382c0-1.075,0.008-2.148,0.023-3.219c0.061-4.109-3.223-7.49-7.332-7.55
	C193.738,275.283,190.357,278.565,190.298,282.675L190.298,282.675L190.298,282.675z"/>
<path fill="#FFC861" d="M641.207,217.403c-1.22-3.924-5.39-6.116-9.314-4.896c-3.924,1.221-6.115,5.391-4.896,9.314
	c0.354,1.145,0.701,2.292,1.041,3.444c0.932,3.164,3.835,5.339,7.134,5.341c0.713-0.002,1.422-0.104,2.105-0.305
	c3.942-1.163,6.196-5.301,5.036-9.243C641.954,219.841,641.585,218.623,641.207,217.403z"/>
<path fill="#FFC861" d="M628.511,185.372c-1.064-2.191-3.137-3.72-5.545-4.09l-2.166,17.402c-0.007,0.055-0.021,0.111-0.028,0.167
	c3.789,1.5,8.076-0.355,9.577-4.145c0.753-1.902,0.683-4.031-0.195-5.88C629.617,187.668,629.069,186.516,628.511,185.372z"/>
<path fill="#FFC861" d="M634.245,253.231c0.183,1.181,0.353,2.363,0.513,3.549c0.502,3.685,3.646,6.434,7.365,6.438
	c0.338,0.001,0.676-0.022,1.012-0.068c4.07-0.553,6.923-4.3,6.371-8.37c0-0.002,0-0.004,0-0.005
	c-0.175-1.272-0.357-2.537-0.549-3.797c-0.622-4.063-4.42-6.852-8.482-6.229S633.624,249.169,634.245,253.231L634.245,253.231z"/>
<path fill="#FFC861" d="M651.584,289.941c0.021-1.274,0.032-2.552,0.032-3.829v-0.763c0-4.109-3.331-7.441-7.44-7.441
	c-4.11,0-7.441,3.332-7.441,7.441v0.763c0,1.199-0.01,2.396-0.029,3.59c-0.066,4.108,3.211,7.493,7.319,7.561h0.122
	C648.208,297.261,651.518,294.003,651.584,289.941z"/>
<path fill="#FFC861" d="M648.477,324.247c0.207-1.257,0.405-2.515,0.596-3.774c0.604-4.065-2.202-7.851-6.267-8.455
	c-4.058-0.603-7.838,2.19-8.452,6.246c-0.178,1.188-0.364,2.371-0.56,3.55c-0.672,4.054,2.069,7.886,6.124,8.558
	C643.973,331.044,647.804,328.302,648.477,324.247L648.477,324.247L648.477,324.247z"/>
<path fill="#FFC861" d="M633.203,362.885c3.22-0.004,6.073-2.076,7.072-5.138c0.397-1.221,0.786-2.445,1.164-3.674
	c1.227-3.922-0.959-8.096-4.881-9.322s-8.096,0.958-9.322,4.881c-0.008,0.022-0.015,0.045-0.021,0.067
	c-0.352,1.148-0.715,2.293-1.088,3.434c-1.271,3.914,0.873,8.117,4.787,9.388C631.653,362.76,632.426,362.883,633.203,362.885
	L633.203,362.885z"/>
<path fill="#FFC861" d="M405.011,501.324c-1.205-0.091-2.407-0.189-3.606-0.295c-4.096-0.345-7.696,2.696-8.041,6.793
	c-0.344,4.087,2.684,7.682,6.77,8.039c1.261,0.104,2.521,0.21,3.787,0.301c0.186,0.015,0.369,0.022,0.553,0.022
	c4.109-0.004,7.438-3.338,7.434-7.447C411.903,504.842,408.896,501.609,405.011,501.324L405.011,501.324z"/>
<path fill="#FFC861" d="M342.301,487.125c-1.117-0.439-2.231-0.888-3.341-1.345c-3.803-1.56-8.15,0.258-9.711,4.061
	c-1.557,3.796,0.251,8.136,4.043,9.703c1.183,0.486,2.371,0.964,3.565,1.432c3.825,1.503,8.144-0.38,9.646-4.204
	S346.125,488.628,342.301,487.125L342.301,487.125z"/>
<path fill="#FFC861" d="M373.118,496.583c-1.163-0.262-2.321-0.534-3.476-0.818c-3.993-0.969-8.017,1.482-8.986,5.477
	c-0.966,3.979,1.466,7.991,5.44,8.978c1.244,0.305,2.494,0.599,3.748,0.883c4.007,0.913,7.996-1.595,8.909-5.603
	c0.913-4.007-1.595-7.996-5.603-8.909C373.14,496.588,373.129,496.585,373.118,496.583z"/>
<path fill="#FFC861" d="M192.874,320.861c0.608,4.064,4.396,6.866,8.462,6.257c4.064-0.608,6.865-4.397,6.257-8.462
	c-0.002-0.009-0.003-0.018-0.004-0.025c-0.181-1.182-0.35-2.364-0.509-3.55c-0.548-4.073-4.294-6.93-8.366-6.382
	s-6.93,4.293-6.382,8.365l0,0C192.503,318.336,192.683,319.601,192.874,320.861z"/>
<path fill="#FFC861" d="M437.267,501.295c-1.195,0.087-2.393,0.167-3.591,0.24c-4.103,0.24-7.232,3.761-6.992,7.862
	c0.23,3.931,3.483,7.001,7.421,7.005c0.146,0,0.294-0.004,0.443-0.015c1.274-0.073,2.545-0.16,3.813-0.255
	c4.098-0.299,7.177-3.864,6.877-7.962s-3.864-7.177-7.962-6.877C437.273,501.295,437.27,501.295,437.267,501.295L437.267,501.295z"
	/>
<path fill="#FFC861" d="M469.13,496.506c-1.16,0.266-2.324,0.521-3.491,0.767c-4.021,0.846-6.596,4.792-5.75,8.813
	c0.846,4.021,4.791,6.596,8.813,5.75l0,0c1.254-0.262,2.505-0.536,3.754-0.824c4.007-0.909,6.519-4.895,5.609-8.902
	c-0.909-4.007-4.895-6.519-8.902-5.609C469.151,496.501,469.14,496.504,469.13,496.506z"/>
<path fill="#FFC861" d="M499.921,486.994c-1.104,0.437-2.214,0.862-3.328,1.279c-3.858,1.415-5.839,5.689-4.424,9.547
	c1.415,3.858,5.689,5.839,9.548,4.424c0.023-0.009,0.048-0.018,0.071-0.026c1.206-0.447,2.406-0.907,3.601-1.381
	c3.822-1.51,5.697-5.833,4.188-9.655C508.066,487.358,503.743,485.484,499.921,486.994L499.921,486.994z"/>
<path fill="#FFC861" d="M213.209,386.508c1.104,2.247,3.273,3.779,5.76,4.069l2.121-17.036c0.019-0.155,0.057-0.313,0.077-0.469
	c-1.914-0.81-4.081-0.772-5.967,0.102c-3.729,1.726-5.354,6.148-3.628,9.879l0,0C212.106,384.212,212.653,385.36,213.209,386.508z"
	/>
<path fill="#FFC861" d="M200.567,354.451c1.209,3.928,5.373,6.131,9.301,4.922c3.927-1.209,6.131-5.373,4.922-9.301
	c-0.002-0.006-0.004-0.012-0.006-0.018c-0.354-1.145-0.699-2.296-1.035-3.444c-1.159-3.943-5.296-6.2-9.238-5.041
	c-3.938,1.158-6.195,5.286-5.045,9.227C199.824,352.016,200.191,353.235,200.567,354.451z"/>
<path fill="#FFC862" d="M338.885,85.891c0.938-0.001,1.866-0.18,2.736-0.526c1.103-0.437,2.211-0.862,3.324-1.279
	c3.844-1.455,5.78-5.751,4.324-9.595c-1.445-3.817-5.695-5.758-9.527-4.35c-1.204,0.451-2.403,0.913-3.597,1.388
	c-3.821,1.514-5.692,5.839-4.179,9.66C333.09,84.027,335.833,85.891,338.885,85.891L338.885,85.891z"/>
<path fill="#FFC861" d="M226.129,193.091c-1.158-4.216-2.212-8.604-3.108-13.22l-0.972-0.971c-3.087-0.351-6.066,1.259-7.465,4.033
	c-0.575,1.145-1.141,2.295-1.694,3.452c-1.791,3.687-0.253,8.127,3.434,9.917C219.924,198.051,224.261,196.63,226.129,193.091
	L226.129,193.091z"/>
<path fill="#FFC862" d="M403.688,70.977c0.191,0,0.384-0.008,0.576-0.022c1.195-0.091,2.393-0.173,3.592-0.247
	c4.102-0.253,7.222-3.782,6.969-7.884s-3.783-7.222-7.885-6.969c-1.275,0.08-2.545,0.163-3.813,0.262
	c-4.097,0.314-7.164,3.891-6.85,7.988C396.574,67.979,399.802,70.973,403.688,70.977z"/>
<path fill="#FFC862" d="M370.721,75.995c0.563,0.001,1.122-0.063,1.67-0.189c1.168-0.265,2.339-0.522,3.512-0.773
	c4.02-0.857,6.583-4.81,5.726-8.829c-0.856-4.02-4.81-6.583-8.829-5.727c-1.248,0.266-2.492,0.541-3.732,0.825
	c-4.006,0.918-6.509,4.91-5.59,8.915C364.252,73.594,367.256,75.991,370.721,75.995z"/>
<path fill="#FFC861" d="M411.368,349.83c-3.7-3.142-8.226-5.152-13.037-5.792c-1.141-7.256-5.076-13.776-10.965-18.166
	c-6.092-4.064-13.43-5.833-20.704-4.989c-3.372-5.945-8.791-10.462-15.246-12.709c-5.889-1.849-12.19-1.932-18.126-0.239
	c-1.85-4.627-5.217-8.486-9.549-10.947c-6.93-3.283-14.938-3.417-21.974-0.367c-0.848,0.371-1.617,0.897-2.271,1.552
	c0,0-18.461,18.479-18.517,18.529c-5.15,4.618-8.414,10.975-9.165,17.851l-31.385,31.337c-2.465,2.574-4.06,5.856-4.56,9.385
	l-2.872,23.119c-0.089,0.269-0.198,0.529-0.327,0.781l-47.654,47.582c-2.913,2.897-2.926,7.608-0.027,10.521
	c2.897,2.913,7.608,2.926,10.521,0.027c0.007-0.006,0.014-0.013,0.021-0.02l47.658-47.586c2.463-2.575,4.057-5.856,4.56-9.385
	l2.874-23.129c0.087-0.266,0.195-0.523,0.325-0.771l27.4-27.359c4.463,5.341,10.778,8.798,17.682,9.679
	c0.916,5.613,3.999,10.643,8.587,14.004c0.107,0.083,0.217,0.163,0.327,0.239c4.071,2.695,8.848,4.127,13.73,4.113
	c8.888-0.191,17.103-4.776,21.933-12.24c2.407-3.331,1.659-7.982-1.671-10.39c-3.311-2.394-7.931-1.671-10.353,1.618
	c-6.342,8.684-12.635,6.231-15.091,4.709c-2.771-2.18-3.725-5.953-2.32-9.188l5.636-6.018c2.81-3,2.655-7.709-0.345-10.519
	s-7.709-2.655-10.519,0.345l0,0l-5.942,6.348c-0.092,0.102-0.183,0.203-0.271,0.305c-1.563,1.871-2.551,1.9-2.874,1.86
	c-3.029-0.763-5.713-2.527-7.613-5.007c-0.278-0.348-0.587-0.67-0.923-0.963c-1.673-1.457-1.684-2.395-1.689-2.794
	c0.557-2.854,2.052-5.439,4.247-7.347c0.315-0.28,17.947-17.927,17.947-17.927c2.532-0.896,5.306-0.835,7.797,0.171
	c2.632,2.222,4.223,5.437,4.393,8.876c0.632,4.061,4.436,6.84,8.496,6.208c0.889-0.138,1.746-0.437,2.529-0.881
	c4.488-2.37,9.671-3.071,14.627-1.98c4.288,1.777,7.582,5.344,9.015,9.759c1.473,3.431,5.26,5.238,8.853,4.226
	c0.085-0.021,8.694-2.205,14.177,1.715c3.341,2.391,5.224,6.983,5.594,13.654c0.266,4.135,3.834,7.272,7.97,7.006
	c0.092-0.006,0.183-0.014,0.274-0.022c3.208-0.319,6.421,0.545,9.036,2.431c1.984,2.128,3.003,4.98,2.815,7.884
	c-0.053,0.139-0.093,0.236-0.065,0.232l-18.424,18.395c-3.021-7.42-6.509-14.641-10.442-21.62
	c-5.057-8.493-15.647-11.891-24.701-7.925c-5.77,2.602-12.7,8.869-12.939,23.966c-0.055,3.51-0.071,8.483,0.104,13.134
	c-16.408-2.887-33.271,1.301-46.421,11.529c-3.146,2.644-3.555,7.337-0.91,10.483c2.644,3.146,7.337,3.554,10.483,0.91l0,0
	c13.888-10.563,32.755-11.767,47.873-3.056c3.575,2.025,8.116,0.77,10.142-2.807s0.77-8.117-2.807-10.143l0,0
	c-1.044-0.591-2.08-1.139-3.111-1.655c-0.482-6.042-0.641-12.105-0.473-18.164c0.14-8.814,3.177-10.181,4.163-10.624
	c2.024-0.792,4.329-0.124,5.616,1.628c8.1,14.464,16.069,33.19,15.027,43.792c-4.479,5.693-26.019,30.063-71.835,37.845
	c-3.384,0.665-6.508,2.283-9.003,4.665l-49.44,49.369c-2.913,2.898-2.926,7.609-0.027,10.522c2.897,2.913,7.608,2.926,10.521,0.027
	c0.007-0.007,0.014-0.014,0.021-0.021l49.377-49.308c0.321-0.235,0.67-0.432,1.037-0.585c58.479-9.93,81.672-44.014,82.631-45.46
	c0.535-0.808,0.907-1.712,1.096-2.663c0.928-5.965,0.627-12.058-0.885-17.902l23.853-23.812c2.739-2.835,4.319-6.592,4.429-10.533
	C419.614,361.86,416.717,354.795,411.368,349.83z"/>
<path fill="#FFC861" d="M430.522,222.395c3.7,3.141,8.226,5.151,13.036,5.791c1.142,7.256,5.077,13.776,10.966,18.167
	c6.094,4.06,13.43,5.827,20.704,4.988c3.372,5.945,8.791,10.462,15.245,12.709c5.89,1.849,12.191,1.933,18.127,0.24
	c3.218,8.354,11.336,13.787,20.286,13.577c3.856-0.025,7.671-0.794,11.236-2.264c0.847-0.371,1.617-0.897,2.271-1.551
	c0,0,18.46-18.479,18.518-18.53c5.149-4.618,8.413-10.975,9.165-17.851l31.385-31.337c2.465-2.574,4.06-5.856,4.56-9.385
	l2.872-23.119c0.089-0.269,0.198-0.529,0.327-0.781l47.654-47.582c2.912-2.898,2.923-7.609,0.023-10.521s-7.609-2.923-10.521-0.023
	c-0.006,0.005-0.012,0.011-0.017,0.016l-47.658,47.586c-2.463,2.575-4.058,5.856-4.56,9.385l-2.874,23.129
	c-0.087,0.266-0.196,0.523-0.325,0.771l-27.4,27.359c-4.463-5.341-10.778-8.798-17.682-9.679c-0.916-5.613-4-10.643-8.587-14.004
	c-0.107-0.083-0.217-0.163-0.327-0.239c-7.966-5.465-24.031-7.809-35.663,8.127c-2.408,3.331-1.66,7.982,1.67,10.391
	c3.311,2.393,7.932,1.67,10.353-1.619c6.339-8.684,12.63-6.235,15.091-4.709c2.771,2.18,3.725,5.953,2.321,9.188l-5.637,6.018
	c-2.809,3-2.654,7.709,0.345,10.519c3,2.81,7.71,2.655,10.519-0.345l5.942-6.347c0.093-0.103,0.184-0.204,0.271-0.306
	c1.565-1.871,2.581-1.838,2.873-1.86c3.03,0.763,5.713,2.527,7.614,5.007c0.278,0.348,0.587,0.67,0.923,0.963
	c1.673,1.457,1.684,2.395,1.689,2.794c-0.557,2.854-2.052,5.44-4.247,7.347c-0.317,0.282-17.947,17.927-17.947,17.927
	c-2.533,0.892-5.305,0.831-7.797-0.171c-2.632-2.222-4.223-5.437-4.393-8.876c-0.632-4.061-4.436-6.84-8.496-6.208
	c-0.89,0.139-1.746,0.437-2.529,0.882c-4.485,2.376-9.671,3.078-14.628,1.979c-4.287-1.777-7.582-5.344-9.014-9.759
	c-1.474-3.429-5.26-5.236-8.853-4.226c-0.086,0.019-8.694,2.202-14.178-1.715c-3.341-2.391-5.223-6.983-5.593-13.654
	c-0.267-4.135-3.834-7.271-7.97-7.006c-0.092,0.006-0.184,0.014-0.274,0.023c-3.208,0.318-6.421-0.546-9.036-2.431
	c-1.984-2.128-3.004-4.981-2.815-7.885c0.051-0.138,0.085-0.236,0.064-0.232l18.425-18.395c3.021,7.42,6.509,14.642,10.442,21.621
	c3.521,5.983,9.97,9.633,16.913,9.569c2.683,0.009,5.337-0.553,7.788-1.646c5.77-2.602,12.7-8.869,12.939-23.965
	c0.055-3.51,0.07-8.482-0.104-13.133c3.44,0.677,6.938,1.02,10.444,1.022c13.038-0.161,25.668-4.567,35.977-12.553
	c3.146-2.644,3.554-7.338,0.91-10.484c-2.644-3.146-7.337-3.554-10.483-0.91c-13.887,10.565-32.756,11.77-47.873,3.056
	c-3.567-2.04-8.113-0.803-10.153,2.765c-2.041,3.567-0.804,8.113,2.764,10.154c0.019,0.01,0.036,0.021,0.055,0.03
	c1.044,0.592,2.077,1.118,3.109,1.635c0.484,6.049,0.644,12.119,0.475,18.186c-0.14,8.813-3.177,10.18-4.164,10.623
	c-2.024,0.793-4.328,0.125-5.615-1.628c-8.101-14.464-16.069-33.189-15.027-43.792c4.479-5.693,26.019-30.062,71.834-37.844
	c3.385-0.665,6.509-2.284,9.004-4.666l49.44-49.369c2.919-2.892,2.941-7.603,0.05-10.521c-2.892-2.92-7.602-2.942-10.521-0.051
	c-0.015,0.015-0.029,0.028-0.044,0.043l-49.376,49.308c-0.322,0.235-0.67,0.432-1.038,0.585c-58.478,9.93-81.671,44.014-82.63,45.46
	c-0.535,0.809-0.907,1.713-1.096,2.663c-0.928,5.966-0.627,12.058,0.885,17.903l-23.853,23.811c-2.74,2.835-4.32,6.592-4.429,10.533
	C422.276,210.364,425.173,217.429,430.522,222.395z"/>
<path fill="#FFC861" d="M236.345,172.139c0.233,0.317,0.428,0.661,0.58,1.024c9.946,58.397,44.083,81.557,45.532,82.516
	c0.807,0.531,1.709,0.901,2.656,1.09c2.033,0.39,4.1,0.578,6.169,0.563c3.959-0.059,7.9-0.548,11.754-1.458l23.854,23.817
	c2.806,2.715,6.518,4.294,10.419,4.433h0.123c7.305,0.329,14.385-2.571,19.358-7.932c3.132-3.688,5.138-8.197,5.778-12.992
	c7.276-1.137,13.817-5.08,18.22-10.983c4.051-6.074,5.813-13.389,4.976-20.642c5.959-3.366,10.486-8.788,12.734-15.252
	c1.841-5.862,1.926-12.134,0.246-18.043c4.646-1.842,8.517-5.227,10.963-9.585c3.273-6.921,3.402-14.918,0.354-21.941
	c-0.373-0.848-0.9-1.617-1.556-2.271c0,0-18.513-18.435-18.563-18.49c-4.628-5.152-10.996-8.413-17.881-9.156l-31.372-31.326
	c-2.577-2.463-5.861-4.056-9.392-4.553l-23.16-2.87c-0.271-0.089-0.535-0.199-0.789-0.33l-47.652-47.582
	c-2.891-2.921-7.602-2.945-10.522-0.055c-2.92,2.891-2.945,7.601-0.055,10.521c0.021,0.021,0.042,0.042,0.063,0.063l47.652,47.582
	c2.578,2.461,5.862,4.054,9.392,4.552l23.168,2.871c0.27,0.089,0.53,0.199,0.781,0.33l27.381,27.342
	c-5.338,4.448-8.795,10.752-9.677,17.645c-5.617,0.909-10.653,3.987-14.023,8.572c-0.084,0.105-0.163,0.215-0.24,0.327
	c-5.477,7.957-7.829,24.017,8.139,35.639c3.323,2.418,7.978,1.685,10.396-1.639c2.418-3.322,1.685-7.977-1.639-10.395l0,0
	c-8.691-6.325-6.238-12.589-4.716-15.042c2.196-2.772,5.982-3.724,9.229-2.318l6.022,5.628c3.002,2.807,7.711,2.648,10.517-0.354
	c2.807-3.002,2.647-7.711-0.354-10.517l-6.354-5.938c-0.102-0.094-0.203-0.185-0.309-0.275c-1.867-1.559-1.862-2.533-1.86-2.853
	c0.766-3.021,2.532-5.695,5.011-7.586c0.347-0.277,0.669-0.585,0.961-0.92c1.464-1.675,2.412-1.686,2.817-1.692h0.038
	c2.846,0.569,5.423,2.063,7.332,4.247c0.283,0.315,17.967,17.927,17.967,17.927c0.871,2.502,0.815,5.234-0.156,7.699
	c-2.222,2.663-5.459,4.272-8.924,4.436c-4.073,0.653-6.846,4.485-6.192,8.559c0.137,0.856,0.422,1.682,0.843,2.439
	c2.422,4.488,3.128,9.705,1.985,14.676c-1.799,4.256-5.359,7.52-9.755,8.941c-3.438,1.471-5.249,5.264-4.233,8.861
	c0.023,0.084,2.198,8.654-1.704,14.115c-2.391,3.35-6.999,5.235-13.697,5.606c-4.135,0.266-7.271,3.833-7.006,7.968
	c0.006,0.093,0.014,0.185,0.022,0.276c0.313,3.193-0.55,6.392-2.425,8.996c-2.139,1.994-5.007,3.016-7.925,2.823
	c-0.129-0.048-0.269-0.113-0.239-0.069l-18.401-18.372c7.424-3.015,14.649-6.495,21.633-10.422
	c8.505-5.041,11.911-15.636,7.938-24.688c-2.604-5.763-8.878-12.681-23.993-12.92c-3.519-0.059-8.503-0.074-13.16,0.101
	c2.886-16.389-1.312-33.233-11.55-46.353c-2.652-3.139-7.348-3.533-10.486-0.88c-3.133,2.647-3.532,7.332-0.893,10.472
	c10.566,13.846,11.772,32.687,3.057,47.767c-2.03,3.573-0.78,8.115,2.793,10.146c3.572,2.03,8.115,0.78,10.146-2.792
	c0.593-1.043,1.141-2.078,1.658-3.108c6.056-0.487,12.133-0.644,18.205-0.471c8.842,0.138,10.212,3.168,10.656,4.152
	c0.784,2.017,0.114,4.309-1.633,5.585c-14.484,8.091-33.254,16.06-43.881,15.006c-5.695-4.466-30.107-25.972-37.901-71.726
	c-0.67-3.382-2.293-6.502-4.678-8.992l-49.442-49.366c-2.902-2.908-7.613-2.913-10.521-0.011c-2.909,2.902-2.914,7.613-0.012,10.522
	c0.007,0.006,0.013,0.012,0.019,0.018L236.345,172.139z"/>
<path fill="#FFC861" d="M605.544,400.086c-0.232-0.317-0.428-0.661-0.579-1.024c-9.946-58.398-44.083-81.558-45.532-82.517
	c-0.807-0.531-1.709-0.901-2.656-1.09c-5.977-0.931-12.08-0.631-17.937,0.881l-23.841-23.804c-2.806-2.714-6.518-4.293-10.419-4.433
	h-0.123c-7.305-0.329-14.385,2.571-19.358,7.932c-3.132,3.688-5.138,8.197-5.779,12.992c-7.276,1.137-13.817,5.08-18.219,10.984
	c-4.051,6.073-5.813,13.388-4.976,20.641c-5.959,3.366-10.486,8.789-12.735,15.253c-1.84,5.861-1.925,12.133-0.245,18.043
	c-4.646,1.842-8.518,5.226-10.963,9.584c-3.273,6.922-3.403,14.919-0.354,21.942c0.372,0.847,0.899,1.617,1.555,2.271
	c0,0,18.514,18.435,18.563,18.489c4.628,5.152,10.996,8.413,17.882,9.156l31.371,31.326c2.577,2.463,5.862,4.056,9.393,4.553
	l23.16,2.87c0.271,0.089,0.535,0.199,0.789,0.331l47.652,47.581c2.925,2.887,7.636,2.855,10.521-0.069
	c2.862-2.9,2.859-7.563-0.007-10.459l-47.652-47.582c-2.578-2.462-5.862-4.054-9.393-4.553l-23.167-2.87
	c-0.27-0.089-0.53-0.199-0.782-0.331l-27.381-27.342c5.342-4.45,8.8-10.758,9.679-17.654c5.616-0.905,10.651-3.98,14.022-8.563
	c0.083-0.105,0.163-0.214,0.239-0.327c5.478-7.957,7.83-24.016-8.139-35.639c-3.322-2.418-7.977-1.685-10.395,1.639
	s-1.685,7.977,1.639,10.395c8.69,6.326,6.238,12.59,4.716,15.042c-2.198,2.772-5.984,3.723-9.231,2.317l-6.021-5.627
	c-3.001-2.807-7.71-2.647-10.516,0.354c-2.807,3.002-2.648,7.71,0.354,10.517c0,0,6.557,6.122,6.662,6.213
	c1.867,1.559,1.861,2.532,1.86,2.852c-0.766,3.022-2.532,5.696-5.011,7.587c-0.348,0.276-0.669,0.584-0.961,0.919
	c-1.464,1.675-2.413,1.686-2.817,1.693c-2.87-0.533-5.471-2.031-7.371-4.248l-17.966-17.926c-0.872-2.503-0.816-5.234,0.156-7.699
	c2.221-2.664,5.459-4.273,8.923-4.437c4.074-0.653,6.847-4.484,6.193-8.559c-0.138-0.855-0.423-1.682-0.843-2.439
	c-2.422-4.488-3.128-9.704-1.985-14.675c1.798-4.256,5.358-7.52,9.755-8.941c3.437-1.472,5.248-5.265,4.233-8.862
	c-0.024-0.083-2.198-8.654,1.704-14.115c2.391-3.35,6.999-5.235,13.697-5.606c4.135-0.266,7.271-3.833,7.006-7.968
	c-0.006-0.093-0.014-0.185-0.022-0.276c-0.313-3.193,0.55-6.392,2.425-8.996c2.139-1.994,5.007-3.016,7.925-2.823
	c0.127,0.044,0.26,0.099,0.239,0.069l18.399,18.371c-7.423,3.016-14.647,6.498-21.631,10.423
	c-8.506,5.041-11.911,15.637-7.938,24.689c2.604,5.762,8.878,12.68,23.993,12.92c3.513,0.05,8.501,0.065,13.161-0.108
	c-2.888,16.392,1.309,33.238,11.548,46.36c2.656,3.137,7.352,3.526,10.488,0.871c3.127-2.647,3.525-7.325,0.892-10.463
	c-10.567-13.846-11.773-32.688-3.058-47.768c2.031-3.572,0.781-8.115-2.792-10.146c-3.572-2.031-8.115-0.781-10.146,2.792
	c-0.593,1.042-1.142,2.078-1.658,3.108c-6.056,0.488-12.133,0.646-18.205,0.47c-8.842-0.138-10.212-3.168-10.657-4.152
	c-0.783-2.017-0.113-4.309,1.634-5.585c14.486-8.091,33.275-16.008,43.881-15.006c5.695,4.466,30.107,25.972,37.901,71.726
	c0.67,3.383,2.293,6.503,4.678,8.992l49.441,49.366c2.903,2.908,7.614,2.914,10.522,0.011c2.909-2.902,2.914-7.613,0.012-10.521
	c-0.007-0.006-0.013-0.013-0.019-0.019L605.544,400.086z"/>
</svg>
