<?xml version="1.0" encoding="utf-8"?>
<!-- Generator: Adobe Illustrator 16.0.0, SVG Export Plug-In . SVG Version: 6.00 Build 0)  -->
<!DOCTYPE svg PUBLIC "-//W3C//DTD SVG 1.1//EN" "http://www.w3.org/Graphics/SVG/1.1/DTD/svg11.dtd">
<svg version="1.1" id="Layer_1" xmlns="http://www.w3.org/2000/svg" xmlns:xlink="http://www.w3.org/1999/xlink" x="0px" y="0px"
	 width="841.891px" height="595.281px" viewBox="0 0 841.891 595.281" enable-background="new 0 0 841.891 595.281"
	 xml:space="preserve">
<g>
	<g>
		<g>
			<path fill="#D79E00" d="M440.529,316.399c-2.382,0-4.287-1.43-4.765-3.811c-0.475-2.381,0.953-4.762,3.812-5.238
				c57.623-11.43,99.53-61.909,99.53-120.96c0-68.1-55.241-123.342-122.866-123.342c-68.1,0-123.342,55.242-123.342,123.342
				c0,58.1,41.432,109.056,98.103,120.484c2.381,0.477,4.285,2.856,3.81,5.239c-0.477,2.381-2.857,4.285-5.238,3.81
				c-61.434-12.382-105.722-67.147-105.722-129.533C283.851,113.528,342.903,54,416.24,54c72.862,0,132.39,59.528,132.39,132.391
				c0,63.338-44.764,117.626-106.674,130.009C441.479,316.399,441.004,316.399,440.529,316.399z"/>
		</g>
		<g>
			<path fill="#D79E00" d="M514.344,272.587c-2.381,0-4.287-1.904-4.762-3.81c-2.383-20.001-11.906-40.003-30.479-65.719
				c-13.336-18.097-22.383-35.241-27.146-50.479c-0.951-2.382,0.477-5.239,2.856-5.715c2.384-0.953,5.24,0.476,5.716,2.857
				c4.287,14.286,13.336,30.002,25.717,47.622c19.524,26.669,29.049,48.099,31.906,70.005
				C518.629,269.729,516.724,272.111,514.344,272.587C514.82,272.587,514.82,272.587,514.344,272.587z"/>
		</g>
		<g>
			<path fill="#D79E00" d="M454.34,120.672c-0.477,0-0.953,0-0.953,0c-2.381-0.477-3.811-3.334-3.334-5.715
				c7.619-29.526,38.099-36.669,39.052-37.146c2.381-0.477,4.762,0.952,5.715,3.334c0.477,2.381-0.953,4.762-3.334,5.714l0,0
				c-1.429,0.477-26.191,6.191-32.384,30.479C458.625,119.243,456.72,120.672,454.34,120.672z"/>
		</g>
		<g>
			<path fill="#D79E00" d="M317.662,272.587h-0.477c-2.381-0.476-4.286-2.857-3.81-5.238c2.857-21.43,12.858-43.336,31.907-70.005
				c12.857-17.62,21.43-33.336,25.716-47.622c0.952-2.382,3.334-3.811,5.715-2.857c2.381,0.952,3.81,3.333,2.857,5.715
				c-4.763,15.238-13.811,31.906-27.145,50.479c-18.573,25.24-27.621,45.718-30.479,65.719
				C321.948,270.682,320.043,272.587,317.662,272.587z"/>
		</g>
		<g>
			<path fill="#D79E00" d="M377.191,118.766c-1.905,0-3.811-1.429-4.286-3.333c-6.667-22.859-31.431-28.574-31.907-29.05
				c-2.381-0.477-3.81-2.857-3.334-5.715c0.477-2.381,2.857-3.81,5.715-3.334c1.429,0.477,30.479,7.144,38.574,35.241
				c0.952,2.381-0.476,5.238-3.333,5.715C378.143,118.766,377.666,118.766,377.191,118.766z"/>
		</g>
		<g>
			<path fill="#D79E00" d="M416.24,294.493c-2.381,0-4.762-1.904-4.762-4.762V151.15c0-2.382,1.904-4.763,4.762-4.763
				c2.381,0,4.763,1.905,4.763,4.763v139.057C420.527,292.589,418.621,294.493,416.24,294.493z"/>
		</g>
		<g>
			<path fill="#D79E00" d="M416.24,114.957c-2.381,0-4.762-1.905-4.762-4.763V58.762c0-2.381,1.904-4.763,4.762-4.763
				c2.381,0,4.763,1.905,4.763,4.763v51.908C420.527,113.052,418.621,114.957,416.24,114.957z"/>
		</g>
		<g>
			<path fill="#D79E00" d="M524.344,160.675c-0.477,0-1.428,0-1.903-0.477c-64.769-33.336-142.868-34.288-208.111-1.905
				c-2.381,0.953-5.238,0-6.19-1.904c-0.952-2.381,0-5.238,1.904-6.191c68.101-33.813,149.059-32.859,216.682,1.905
				c2.382,0.952,3.334,3.81,1.906,6.19C527.677,159.721,525.772,160.675,524.344,160.675z"/>
		</g>
	</g>
	<g>
		<path fill="#D79E00" d="M455.291,530.224c-0.478,0-0.478,0-0.951,0c-2.383-0.477-4.287-2.856-3.811-5.237
			c2.856-16.191,9.049-27.621,21.43-40.479c3.812-4.286,8.572-7.619,12.859-10.477c5.713-4.286,10.952-8.097,14.762-13.334
			c5.715-8.572,10.477-25.24,3.811-34.288c-1.43-1.905-0.952-4.763,0.951-6.668c1.906-1.428,4.765-0.952,6.668,0.953
			c9.525,13.334,3.812,34.288-3.334,44.765c-4.762,6.667-10.953,11.43-17.145,15.716c-4.285,3.333-8.097,6.19-11.904,9.524
			c-10.953,11.43-16.191,21.43-19.049,35.717C459.578,528.796,457.672,530.224,455.291,530.224z"/>
	</g>
	<g>
		<path fill="#D79E00" d="M390.048,528.32L390.048,528.32c-2.857,0-4.762-2.383-4.762-4.764c1.429-19.049,2.381-38.098,2.857-57.146
			l1.429-55.242c0-5.715,4.286-10.953,10-12.382l23.335-5.238l42.858-9.524c12.859-2.382,25.718,5.715,28.574,18.572v0.478
			c1.904,7.143,1.904,7.619,1.431,21.43c0,4.286,0,9.524,0,16.668c0,7.619-6.191,13.812-13.812,13.812H454.34
			c-7.621,0-13.811-6.191-13.811-13.812v-4.286c0-5.715,3.809-10.953,9.522-12.857l14.287-4.286
			c2.381-0.952,5.238,0.477,5.715,2.856c0.953,2.382-0.477,5.239-2.856,5.716L452.91,432.6c-1.904,0.478-2.857,1.905-2.857,3.811
			v4.286c0,2.382,1.906,4.286,4.287,4.286h28.097c2.383,0,4.286-1.904,4.286-4.286c0-7.145,0-12.857,0-16.668
			c0-13.334,0-13.334-1.43-19.05v-0.476c-1.904-8.096-9.522-12.858-17.619-11.43l-42.385,9.523l-23.334,4.764
			c-1.429,0.476-2.857,1.903-2.857,3.81l-1.429,55.242c-0.477,19.049-1.429,38.573-2.857,57.623
			C394.811,526.415,392.43,528.32,390.048,528.32z"/>
	</g>
	<g>
		<path fill="#D79E00" d="M402.43,406.883C402.43,406.883,401.954,406.883,402.43,406.883c-2.857,0-4.762-2.381-4.762-4.763
			l6.667-88.103c0.477-4.285,2.857-8.096,6.667-9.523c3.81-1.905,8.096-1.429,11.429,1.429c5.715,4.286,12.383,12.858,11.431,30.002
			l0.477,40.956c0,2.381-1.904,4.762-4.762,4.762c-2.381,0-4.765-1.903-4.765-4.762l-0.475-40.956c0,0,0,0,0-0.476
			c0.475-10.479-1.906-18.098-7.621-22.383c-0.952-0.478-1.905-0.478-2.381,0c-0.477,0-1.429,0.476-1.429,1.903l-6.667,88.104
			C406.716,404.977,404.812,406.883,402.43,406.883z"/>
	</g>
	<g>
		<g>
			<path fill="#D79E00" d="M496.246,327.829c-1.428,0-3.332-0.952-3.81-2.381c-1.43-2.381-0.477-5.238,1.429-6.191
				c12.858-7.619,24.764-17.144,35.239-28.097c1.906-1.905,4.765-1.905,6.669,0c1.903,1.904,1.903,4.762,0,6.667
				c-10.953,11.43-23.334,21.43-37.146,29.524C498.152,327.829,497.199,327.829,496.246,327.829z"/>
		</g>
		<g>
			<path fill="#D79E00" d="M498.629,363.546c-1.43,0-3.334-0.952-4.287-2.381c-1.428-2.381-0.477-5.238,1.904-6.19
				c2.856-1.429,6.19-3.334,9.049-4.763c16.191-9.524,30.955-21.431,43.813-34.765c9.049-9.049,16.668-19.525,23.813-30.002
				c1.428-1.905,4.285-2.857,6.189-1.429c1.906,1.429,2.856,4.286,1.43,6.19c-7.145,10.954-15.717,21.907-24.764,31.432
				c-13.334,14.286-29.051,26.668-45.719,36.669c-2.857,1.905-6.189,3.334-9.048,5.238
				C500.056,363.546,499.103,363.546,498.629,363.546z"/>
		</g>
	</g>
	<g>
		<g>
			<path fill="#D79E00" d="M343.378,342.116c-0.952,0-1.429,0-2.381-0.478c-3.334-1.429-6.191-3.334-9.048-5.237
				c-16.668-10.001-32.384-22.384-45.718-36.669c-9.049-9.525-17.62-20.002-24.764-31.433c-1.429-1.904-0.953-5.238,1.429-6.19
				c1.904-1.429,5.238-0.952,6.19,1.429c7.144,10.477,14.764,20.954,23.812,30.002c12.858,13.811,27.621,25.24,43.813,34.765
				c2.857,1.904,5.715,3.333,9.049,4.763c2.381,1.429,3.333,3.811,1.904,6.19C346.712,341.163,345.283,342.116,343.378,342.116z"/>
		</g>
		<g>
			<path fill="#D79E00" d="M307.186,356.879c-0.953,0-1.429,0-2.382-0.476c-13.811-8.098-26.192-18.099-37.146-29.526
				c-1.904-1.905-1.904-4.763,0-6.667c1.905-1.905,4.763-1.905,6.667,0c10.478,10.953,22.383,20.478,35.241,28.097
				c2.381,1.43,2.857,4.286,1.429,6.191C310.519,355.927,309.09,356.879,307.186,356.879z"/>
		</g>
	</g>
</g>
</svg>
