<?xml version="1.0" encoding="utf-8"?>
<!-- Generator: Adobe Illustrator 16.0.0, SVG Export Plug-In . SVG Version: 6.00 Build 0)  -->
<!DOCTYPE svg PUBLIC "-//W3C//DTD SVG 1.1//EN" "http://www.w3.org/Graphics/SVG/1.1/DTD/svg11.dtd">
<svg version="1.1" id="Layer_1" xmlns="http://www.w3.org/2000/svg" xmlns:xlink="http://www.w3.org/1999/xlink" x="0px" y="0px"
	 width="841.891px" height="595.281px" viewBox="0 0 841.891 595.281" enable-background="new 0 0 841.891 595.281"
	 xml:space="preserve">
<g>
	<path fill="#0083A9" d="M338.683,491.213c0.293,0.115,0.555,0.272,0.864,0.361c0.031,0.01,0.063,0.01,0.094,0.021
		c26.171,10.738,54.787,16.699,84.778,16.699c30.447,0,59.486-6.128,85.982-17.181c0.047-0.011,0.094-0.011,0.136-0.031
		c0.293-0.089,0.544-0.235,0.816-0.346c0.142-0.063,0.283-0.12,0.424-0.178c0.299-0.136,0.607-0.246,0.885-0.403
		c79.78-34.329,135.797-113.696,135.797-205.922c0-49.7-15.935-96.769-46.089-136.122c-3.679-4.804-10.556-5.725-15.365-2.036
		c-4.804,3.685-5.714,10.562-2.035,15.365c27.191,35.492,41.567,77.954,41.567,122.793c0,79.31-45.932,148.069-112.572,181.153
		l-60.967-194.901l14.271-45.126l56.247,31.195c2.988,1.653,6.558,1.815,9.682,0.471c3.124-1.355,5.438-4.087,6.264-7.39
		l40.076-159.948c0.592-2.381,0.372-4.893-0.628-7.138l-16.145-36.1c-1.522-3.401-4.668-5.793-8.352-6.358
		c-0.377-0.057-0.749-0.01-1.12-0.025c-0.178-0.031-0.277-0.089-0.534-0.089H295.76c-0.293,0-0.402,0.063-0.591,0.099
		c-0.356,0.016-0.707-0.025-1.058,0.026c-3.684,0.561-6.829,2.957-8.353,6.358L269.615,82.55c-0.999,2.239-1.225,4.757-0.628,7.138
		l40.076,159.948c0.827,3.303,3.146,6.034,6.265,7.39c1.397,0.602,2.884,0.905,4.364,0.905c1.837,0,3.663-0.46,5.317-1.376
		l56.702-31.446l14.35,45.403l-60.099,195.451c-67.247-32.876-113.682-101.97-113.682-181.729
		c0-44.854,14.386-87.333,41.604-122.835c3.679-4.804,2.768-11.681-2.036-15.364c-4.799-3.689-11.67-2.774-15.365,2.03
		c-30.175,39.364-46.12,86.453-46.12,136.169C200.369,377.427,257.563,457.479,338.683,491.213z M521.679,230.471l-75.693-41.976
		l75.484-85.537c0.162-0.167,0.355-0.293,0.513-0.471l27.752-31.52l7.635,17.07L521.679,230.471z M424.263,179.992l-65.107-73.788
		H489.38L424.263,179.992z M528.483,61.888l-19.767,22.403H339.872l-19.798-22.403H528.483z M291.166,88.039l7.646-17.092
		L402.54,188.491l-75.688,41.976L291.166,88.039z M424.268,201.506l23.455,13.01l-14.088,44.546h-18.206l-14.161-44.802
		L424.268,201.506z M415.492,281.873h18.117l60.146,192.253c-21.639,7.934-44.989,12.257-69.335,12.257
		c-23.91,0-46.858-4.202-68.168-11.858L415.492,281.873z"/>
	<path fill="#0083A9" d="M524.615,343.337v-25.13h37.047c6.049,0,10.958-4.908,10.958-10.958s-4.909-10.959-10.958-10.959h-48.005
		c-6.05,0-10.958,4.909-10.958,10.959v42.619c0,4.024,2.203,7.72,5.746,9.64l39.118,21.158c1.628,0.879,3.417,1.318,5.212,1.318
		s3.59-0.439,5.213-1.318l39.123-21.158c3.543-1.915,5.746-5.615,5.746-9.64v-42.619c0-6.05-4.908-10.959-10.958-10.959
		s-10.958,4.909-10.958,10.959v36.088l-28.166,15.229L524.615,343.337z"/>
</g>
</svg>
