<?xml version="1.0" encoding="utf-8"?>
<!-- Generator: Adobe Illustrator 16.0.0, SVG Export Plug-In . SVG Version: 6.00 Build 0)  -->
<!DOCTYPE svg PUBLIC "-//W3C//DTD SVG 1.1//EN" "http://www.w3.org/Graphics/SVG/1.1/DTD/svg11.dtd">
<svg version="1.1" id="Layer_1" xmlns="http://www.w3.org/2000/svg" xmlns:xlink="http://www.w3.org/1999/xlink" x="0px" y="0px"
	 width="841.891px" height="595.281px" viewBox="0 0 841.891 595.281" enable-background="new 0 0 841.891 595.281"
	 xml:space="preserve">
<g>
	<g>
		<path fill="#0083A9" d="M238.063,176.555c3.854,0,7.482-2.362,8.922-6.18c27.812-73.86,99.548-123.484,178.498-123.484
			c5.271,0,9.534-4.271,9.534-9.536c0-5.266-4.266-9.533-9.534-9.533c-88.713,0-166.029,55.337-196.345,135.832
			C227.286,168.587,231.433,176.555,238.063,176.555z"/>
		<path fill="#0083A9" d="M603.173,330.403c-4.544-2.665-10.381-1.139-13.047,3.402c-24.959,42.608-64.722,73.525-111.977,87.074
			c-5.062,1.453-7.987,6.731-6.538,11.794c1.466,5.103,6.785,7.982,11.796,6.539c51.983-14.904,95.727-48.912,123.171-95.765
			C609.24,338.9,607.718,333.063,603.173,330.403z"/>
		<path fill="#0083A9" d="M474.678,17.099c-12.772,5.75-19.461,19.478-16.895,32.67L350.235,161.32l-99.029,44.6
			c-4.802,2.161-6.941,7.805-4.776,12.606l6.654,14.779c-25.027,12.525-35.969,42.78-24.376,68.528
			c5.76,12.794,16.16,22.576,29.281,27.548c12.325,4.668,25.76,4.623,38.188-0.391l8.026,17.832c2.15,4.77,7.773,6.948,12.612,4.776
			l7.496-3.373l8.469,18.797c1.591,3.529,5.063,5.623,8.699,5.623c2.912,0,4.607-1.271,6.417-1.972l37.354,82.948
			c4.933,10.964,15.755,17.467,27.066,17.467c21.468,0,35.766-22.281,26.971-41.804l-21.762-48.329l10.648-4.799
			c14.372-6.473,20.773-23.345,14.29-37.714c-3.126-6.943-8.771-12.26-15.894-14.959c-4.416-1.676-9.07-2.213-13.624-1.644
			l-5.072-11.251l8.045-3.626l152.753-9.472c7.666,12.906,23.816,18.136,37.64,11.915c14.897-6.714,21.558-24.293,14.853-39.193
			L513.865,31.95C507.184,17.104,489.659,10.351,474.678,17.099z M419.584,287.64l-52.422-116.408l98.441-102.107l94.481,209.804
			L419.584,287.64z M246.089,293.999c-7.274-16.156-0.594-35.072,14.844-43.255l27.387,60.823
			C271.798,317.775,253.345,310.118,246.089,293.999z M267.726,219.391l83.317-37.519l49.947,110.91l-9.63,4.337h-0.002
			c0,0-0.001,0.002-0.003,0.002l-73.681,33.182L267.726,219.391z M416.604,451.09c-5.315,2.39-11.581,0.021-13.976-5.299
			l-37.356-82.948l19.27-8.676c14.967,33.233,19.06,42.322,37.355,82.947C424.292,442.433,421.915,448.699,416.604,451.09z
			 M420.344,358.769l-10.655,4.808l-7.759-17.234l9.634-4.338c0,0,0,0,0.001-0.004c0.49-0.129,3.823-2.351,8.247-0.675
			C424.693,343.171,427.926,355.362,420.344,358.769z M395.039,328.526l-9.63,4.337c0,0,0,0.002-0.002,0.002s-0.002,0-0.007,0
			c-0.203,0.099-3.344,1.514-39.159,17.64l-4.554-10.105l48.799-21.977L395.039,328.526z M598.484,292.018
			c-5.38,2.424-11.604-0.04-13.975-5.293L477.282,48.624c0-0.002,0-0.002,0-0.002l-0.074-0.162
			c-2.39-5.315-0.021-11.584,5.292-13.976c5.398-2.426,11.612,0.043,13.979,5.296l107.302,238.263
			C606.178,283.358,603.804,289.626,598.484,292.018z"/>
		<path fill="#0083A9" d="M349.376,226.71c4.8-2.162,6.941-7.808,4.776-12.612c-2.16-4.802-7.803-6.942-12.607-4.778l-47.075,21.204
			c-4.802,2.161-6.939,7.808-4.778,12.609c2.15,4.769,7.772,6.953,12.608,4.777L349.376,226.71z"/>
		<path fill="#0083A9" d="M361.761,254.2c4.8-2.159,6.94-7.803,4.777-12.608c-2.161-4.803-7.805-6.943-12.607-4.778l-47.076,21.202
			c-4.8,2.163-6.939,7.807-4.776,12.61c2.17,4.82,7.83,6.933,12.607,4.777L361.761,254.2z"/>
		<path fill="#0083A9" d="M378.919,269.083c-2.162-4.797-7.805-6.94-12.61-4.777l-47.074,21.207
			c-4.803,2.164-6.939,7.809-4.779,12.607c2.146,4.77,7.772,6.955,12.608,4.777l47.076-21.198
			C378.942,279.53,381.083,273.886,378.919,269.083z"/>
	</g>
</g>
</svg>
