<?xml version="1.0" encoding="utf-8"?>
<!-- Generator: Adobe Illustrator 16.0.0, SVG Export Plug-In . SVG Version: 6.00 Build 0)  -->
<!DOCTYPE svg PUBLIC "-//W3C//DTD SVG 1.1//EN" "http://www.w3.org/Graphics/SVG/1.1/DTD/svg11.dtd">
<svg version="1.1" id="Layer_1" xmlns="http://www.w3.org/2000/svg" xmlns:xlink="http://www.w3.org/1999/xlink" x="0px" y="0px"
	 width="841.891px" height="595.281px" viewBox="0 0 841.891 595.281" enable-background="new 0 0 841.891 595.281"
	 xml:space="preserve">
<g>
	<g>
		<path fill="#0083A9" d="M329.551,212.472c1.852,0,3.594-1.132,4.285-2.967c13.36-35.475,47.815-59.31,85.735-59.31
			c2.53,0,4.579-2.051,4.579-4.579c0-2.529-2.049-4.579-4.579-4.579c-42.611,0-79.746,26.579-94.306,65.24
			C324.374,208.645,326.366,212.472,329.551,212.472z"/>
		<path fill="#0083A9" d="M504.916,286.365c-2.183-1.279-4.988-0.546-6.267,1.636c-11.987,20.462-31.086,35.313-53.782,41.821
			c-2.431,0.698-3.837,3.233-3.141,5.664c0.704,2.451,3.259,3.835,5.665,3.14c24.969-7.159,45.979-23.493,59.16-45.995
			C507.831,290.448,507.097,287.642,504.916,286.365z"/>
		<path fill="#0083A9" d="M443.198,135.885c-6.134,2.762-9.347,9.357-8.114,15.693l-51.658,53.579l-47.563,21.421
			c-2.307,1.038-3.334,3.749-2.295,6.055l3.196,7.097c-12.021,6.016-17.276,20.548-11.708,32.914
			c2.767,6.145,7.762,10.845,14.063,13.232c5.92,2.243,12.373,2.219,18.342-0.187l3.857,8.565c1.032,2.291,3.733,3.339,6.056,2.295
			l3.601-1.621l4.067,9.029c0.764,1.695,2.432,2.7,4.178,2.7c1.398,0,2.213-0.612,3.082-0.947l17.941,39.84
			c2.371,5.265,7.568,8.388,13,8.388c10.311,0,17.179-10.7,12.956-20.078l-10.454-23.212l5.116-2.306
			c6.903-3.109,9.977-11.21,6.864-18.113c-1.502-3.336-4.213-5.887-7.634-7.184c-2.121-0.804-4.356-1.064-6.544-0.788l-2.434-5.406
			l3.864-1.74l73.368-4.551c3.682,6.2,11.44,8.711,18.078,5.722c7.157-3.224,10.356-11.667,7.134-18.824L462.02,143.018
			C458.81,135.887,450.393,132.644,443.198,135.885z M416.737,265.826l-25.179-55.91l47.282-49.042l45.38,100.767L416.737,265.826z
			 M333.406,268.882c-3.495-7.761-0.287-16.847,7.128-20.778l13.156,29.213C345.754,280.301,336.891,276.623,333.406,268.882z
			 M343.798,233.047l40.018-18.022l23.99,53.272l-4.626,2.082c0,0.001-0.001,0.001-0.001,0.001s-0.001,0.001-0.002,0.001
			l-35.389,15.937L343.798,233.047z M415.305,344.332c-2.553,1.148-5.563,0.008-6.713-2.544l-17.942-39.84l9.256-4.169
			c7.188,15.964,9.154,20.328,17.941,39.841C418.997,340.172,417.856,343.183,415.305,344.332z M417.101,299.991l-5.117,2.306
			l-3.727-8.277l4.627-2.084c0,0,0,0,0.001-0.001c0.235-0.062,1.836-1.129,3.961-0.325
			C419.19,292.499,420.743,298.354,417.101,299.991z M404.948,285.466l-4.626,2.082c0,0,0,0.001-0.001,0.001
			s-0.001,0.001-0.003,0.001c-0.098,0.044-1.608,0.725-18.809,8.471l-2.186-4.854l23.438-10.556L404.948,285.466z M502.664,267.93
			c-2.585,1.164-5.575-0.019-6.713-2.544L444.45,151.027c0-0.001,0-0.001,0-0.001l-0.035-0.078c-1.149-2.553-0.01-5.563,2.542-6.713
			c2.591-1.165,5.577,0.022,6.713,2.544l51.538,114.439C506.358,263.77,505.217,266.781,502.664,267.93z"/>
		<path fill="#0083A9" d="M383.015,236.562c2.306-1.038,3.334-3.75,2.295-6.056c-1.038-2.307-3.748-3.334-6.056-2.295l-22.61,10.183
			c-2.306,1.038-3.333,3.75-2.295,6.056c1.032,2.291,3.733,3.34,6.056,2.295L383.015,236.562z"/>
		<path fill="#0083A9" d="M388.963,249.766c2.306-1.038,3.334-3.749,2.295-6.055c-1.038-2.307-3.749-3.334-6.056-2.295
			l-22.61,10.182c-2.306,1.039-3.333,3.75-2.295,6.056c1.042,2.314,3.761,3.331,6.056,2.295L388.963,249.766z"/>
		<path fill="#0083A9" d="M397.204,256.915c-1.038-2.306-3.749-3.334-6.055-2.295l-22.611,10.183
			c-2.306,1.04-3.333,3.75-2.295,6.056c1.032,2.291,3.734,3.339,6.056,2.295l22.61-10.183
			C397.216,261.932,398.243,259.221,397.204,256.915z"/>
	</g>
</g>
</svg>
