<?xml version="1.0" encoding="utf-8"?>
<!-- Generator: Adobe Illustrator 16.0.0, SVG Export Plug-In . SVG Version: 6.00 Build 0)  -->
<!DOCTYPE svg PUBLIC "-//W3C//DTD SVG 1.1//EN" "http://www.w3.org/Graphics/SVG/1.1/DTD/svg11.dtd">
<svg version="1.1" id="Layer_1" xmlns="http://www.w3.org/2000/svg" xmlns:xlink="http://www.w3.org/1999/xlink" x="0px" y="0px"
	 width="841.891px" height="595.281px" viewBox="0 0 841.891 595.281" enable-background="new 0 0 841.891 595.281"
	 xml:space="preserve">
<title>expand lines</title>
<g>
	<g>
		<path fill="#3DC6ED" d="M266.394,206.684c3.213,0,6.237-1.968,7.437-5.151c23.183-61.566,82.979-102.931,148.789-102.931
			c4.392,0,7.947-3.56,7.947-7.948c0-4.39-3.556-7.947-7.947-7.947c-73.948,0-138.395,46.127-163.666,113.223
			C257.41,200.043,260.867,206.684,266.394,206.684z"/>
		<path fill="#3DC6ED" d="M570.734,334.926c-3.788-2.221-8.653-0.949-10.875,2.836c-20.805,35.518-53.949,61.288-93.339,72.582
			c-4.219,1.21-6.658,5.61-5.45,9.83c1.222,4.254,5.655,6.654,9.832,5.451c43.332-12.424,79.794-40.771,102.671-79.825
			C575.792,342.009,574.522,337.142,570.734,334.926z"/>
		<path fill="#3DC6ED" d="M463.625,73.769c-10.646,4.793-16.221,16.236-14.082,27.232l-89.648,92.985l-82.546,37.176
			c-4.003,1.801-5.786,6.506-3.982,10.508l5.547,12.319c-20.861,10.441-29.982,35.66-20.319,57.123
			c4.802,10.663,13.471,18.818,24.407,22.961c10.274,3.892,21.473,3.854,31.832-0.325l6.691,14.863
			c1.792,3.977,6.479,5.793,10.513,3.983l6.249-2.813l7.059,15.669c1.326,2.943,4.22,4.686,7.251,4.686
			c2.427,0,3.84-1.058,5.349-1.642l31.137,69.142c4.111,9.139,13.132,14.559,22.561,14.559c17.895,0,29.813-18.572,22.481-34.846
			l-18.139-40.285l8.876-3.999c11.98-5.396,17.316-19.46,11.912-31.437c-2.606-5.788-7.312-10.219-13.248-12.47
			c-3.681-1.396-7.561-1.844-11.357-1.369l-4.227-9.379l6.706-3.021l127.329-7.897c6.39,10.758,19.852,15.118,31.374,9.932
			c12.418-5.597,17.971-20.25,12.381-32.67L496.291,86.148C490.721,73.773,476.114,68.144,463.625,73.769z M417.702,299.28
			l-43.697-97.032l82.057-85.112l78.756,174.883L417.702,299.28z M273.083,304.581c-6.063-13.467-0.495-29.235,12.374-36.056
			l22.829,50.699C294.514,324.4,279.132,318.017,273.083,304.581z M291.119,242.391l69.45-31.274l41.634,92.45l-8.028,3.614h-0.002
			c0,0-0.001,0.003-0.003,0.003l-61.417,27.659L291.119,242.391z M415.218,435.525c-4.43,1.992-9.654,0.017-11.65-4.417
			l-31.139-69.142l16.063-7.232c12.475,27.702,15.887,35.278,31.137,69.142C421.626,428.309,419.645,433.532,415.218,435.525z
			 M418.335,358.57l-8.881,4.007l-6.468-14.365l8.03-3.616c0,0,0,0,0.001-0.003c0.408-0.109,3.187-1.96,6.874-0.563
			C421.96,345.568,424.656,355.731,418.335,358.57z M397.243,333.362l-8.028,3.614c0,0,0,0.003-0.002,0.003s-0.002,0-0.005,0
			c-0.169,0.081-2.788,1.261-32.642,14.703l-3.796-8.423l40.677-18.32L397.243,333.362z M566.825,302.93
			c-4.485,2.02-9.673-0.034-11.649-4.413l-89.38-198.47c0-0.002,0-0.002,0-0.002l-0.061-0.135c-1.991-4.431-0.017-9.656,4.411-11.65
			c4.5-2.022,9.68,0.036,11.653,4.415l89.442,198.605C573.239,295.711,571.259,300.936,566.825,302.93z"/>
		<path fill="#3DC6ED" d="M359.179,248.492c4.001-1.802,5.786-6.508,3.982-10.513c-1.801-4.003-6.504-5.787-10.509-3.983
			l-39.24,17.675c-4.002,1.801-5.785,6.508-3.983,10.51c1.792,3.975,6.479,5.796,10.509,3.982L359.179,248.492z"/>
		<path fill="#3DC6ED" d="M369.503,271.406c4.001-1.799,5.786-6.504,3.982-10.509c-1.801-4.004-6.506-5.787-10.509-3.983
			l-39.24,17.673c-4.001,1.803-5.784,6.508-3.982,10.511c1.809,4.018,6.527,5.779,10.509,3.982L369.503,271.406z"/>
		<path fill="#3DC6ED" d="M383.805,283.812c-1.802-3.999-6.506-5.785-10.511-3.982l-39.239,17.677
			c-4.004,1.803-5.784,6.509-3.983,10.508c1.789,3.977,6.478,5.797,10.51,3.983l39.24-17.67
			C383.825,292.52,385.609,287.816,383.805,283.812z"/>
	</g>
</g>
</svg>
