<?xml version="1.0" encoding="utf-8"?>
<!-- Generator: Adobe Illustrator 16.0.0, SVG Export Plug-In . SVG Version: 6.00 Build 0)  -->
<!DOCTYPE svg PUBLIC "-//W3C//DTD SVG 1.1//EN" "http://www.w3.org/Graphics/SVG/1.1/DTD/svg11.dtd">
<svg version="1.1" id="Layer_1" xmlns="http://www.w3.org/2000/svg" xmlns:xlink="http://www.w3.org/1999/xlink" x="0px" y="0px"
	 width="841.891px" height="595.281px" viewBox="0 0 841.891 595.281" enable-background="new 0 0 841.891 595.281"
	 xml:space="preserve">
<title>mental health, disorder, mental illness, Schizophrenia, sick, paranoia, psychosis</title>
<path fill="#FFC861" d="M541.758,447.844H402.61c-6.418,0.018-11.917-4.59-13.021-10.912c-4.926-28.164-11.054-48.508-15.998-53.096
	c-8.353-7.761-27.811-5.715-43.438-4.063c-5.245,0.551-10.197,1.075-14.621,1.254c-37.897,1.972-40.182-22.543-42.34-46.231
	c-0.556-9.282-2.006-18.49-4.33-27.494c-2.418-8.824-8.359-16.267-16.43-20.578c-6.325-4.163-13.469-8.877-12.847-20.771
	c0.301-5.733,4.866-10.79,10.647-17.186c9.004-9.963,21.33-23.61,21.382-45.227c0.022-5.58-0.555-13.021-1.116-20.213
	c-0.454-5.819-0.882-11.318-1.026-16.039c-0.931-34.781,12.908-68.33,38.09-92.339c32.76-32.09,81.085-48.962,132.621-46.302
	c89.195,4.58,147.57,54.933,160.16,138.153c7.612,50.309-6.645,94.481-47.67,147.704c-9.112,11.82-13.115,32.603-12.256,46.152
	c1.556,24.496,9.465,54.562,14.037,70.317c2.03,7-1.998,14.32-8.998,16.351c-1.202,0.349-2.448,0.524-3.699,0.522V447.844z
	 M352.011,368.907c10.979,0,21.125,1.785,27.934,8.118c8.505,7.905,14.927,36.07,18.818,58.304c0.329,1.866,1.955,3.224,3.851,3.214
	H541.76c1.239,0.009,2.407-0.573,3.147-1.565c0.737-0.973,0.968-2.238,0.622-3.408c-4.681-16.11-12.776-46.927-14.392-72.312
	c-0.989-15.626,3.561-38.656,14.172-52.426c39.851-51.716,53.133-92.443,45.84-140.636C579.282,89.75,524.085,42.272,439.726,37.942
	c-48.978-2.557-94.75,13.375-125.653,43.648c-23.464,22.094-36.313,53.199-35.277,85.411c0.142,4.506,0.558,9.897,1.001,15.627
	c0.573,7.377,1.164,15.012,1.142,20.961c-0.06,25.173-14.335,40.974-23.781,51.433c-3.999,4.423-8.133,8.999-8.26,11.433
	c-0.331,6.325,2.263,8.293,8.677,12.523c9.9,5.542,17.184,14.803,20.235,25.731c2.493,9.578,4.057,19.375,4.67,29.254
	c2.251,24.499,3.579,39.304,32.65,37.789c4.175-0.167,8.981-0.673,14.067-1.213C336.769,369.604,344.384,369.059,352.011,368.907z"
	/>
<path fill="#FFC861" d="M514.575,254.11c-16.905,0-33.183-6.696-49.955-13.628c-18.479-7.623-37.577-15.5-59.617-15.5
	c-44.092,0-77.115-10.417-95.502-30.136c-11.241-11.802-16.924-27.833-15.626-44.08c4.237-60.768,47.437-96.733,121.66-101.295
	c53.768-3.46,106.144,17.968,142.068,58.122c21.508,25.099,40.014,93.638,4.535,125.846
	C545.243,248.767,529.658,254.11,514.575,254.11z M416.082,58.761c-68.955,4.234-109.063,37.142-112.932,92.641
	c-1.09,13.671,3.694,27.158,13.155,37.086c16.583,17.78,47.251,27.179,88.697,27.179c23.874,0,44.75,8.605,63.163,16.202
	c31.438,12.963,56.276,23.205,87.699-5.324c29.701-26.97,14.082-90.236-5.35-112.909C516.51,75.669,466.943,55.435,416.082,58.761z
	 M415.796,54.119L415.796,54.119z"/>
<path fill="#FFC861" d="M509.921,230.251c-16.054,0-31.717-6.44-47.09-12.758c-16.512-6.786-33.585-13.803-51.916-13.803
	c-48.129,0-70.508-13.268-80.803-24.399c-8.009-8.369-12.053-19.766-11.109-31.312c3.527-45.193,39.229-71.936,100.521-75.296
	c66.873-3.646,106.407,31.837,116.936,42.805c13.282,13.841,26.465,45.274,24.928,70.009c-0.837,13.446-5.641,23.812-14.275,30.813
	C536.778,225.251,523.585,230.196,509.921,230.251z M419.761,77.338l0.253,4.644c-56.049,3.073-88.637,26.788-91.759,66.731
	c-0.707,8.96,2.453,17.794,8.684,24.272c9.037,9.77,29.206,21.415,73.976,21.415c20.173,0,38.105,7.37,55.436,14.51
	c26.746,10.99,49.854,20.485,74.863,0.197c6.925-6.127,10.878-14.938,10.854-24.184c1.369-21.97-10.682-50.829-22.354-62.995
	c-20.221-21.103-59.695-42.704-109.699-39.958L419.761,77.338z"/>
<path fill="#FFC861" d="M494.804,201.785c-13.442,0-27.654-4.952-41.588-9.807c-13.371-4.662-26.002-9.063-37.421-9.063
	c-31.167,0-52.068-6.221-62.133-18.491c-5.874-7.33-8.033-16.963-5.849-26.099c6.56-32.797,45.368-39.084,78.443-40.896l0,0
	c40.453-2.232,68.859,14.745,89.099,29.765c11.268,9.258,17.921,22.981,18.208,37.562c0.688,10.554-3.623,20.817-11.641,27.715
	C514.28,198.703,504.665,202.007,494.804,201.785z M426.767,106.716c-44.144,2.422-65.689,12.713-69.815,33.432
	c-1.633,6.403-0.182,13.202,3.926,18.38c5.64,6.879,19.752,15.086,54.933,15.086c12.992,0,26.967,4.871,40.483,9.581
	c22.412,7.813,43.589,15.187,59.784,2.054c5.751-5.114,8.779-12.623,8.186-20.296c-0.246-11.701-5.51-22.732-14.45-30.284
	c-18.975-14.094-45.576-30.018-83.05-27.952H426.767z M426.526,102.072L426.526,102.072z"/>
<path fill="#FFC861" d="M488.592,176.973c-8.837,0-20.068-2.977-33.035-6.392c-12.262-3.603-24.793-6.215-37.473-7.813
	c-3.226-0.305-6.303-0.547-9.212-0.773c-18.319-1.437-34.143-2.676-34.124-19.76c0.175-4.251,2.06-8.251,5.227-11.091
	c8.387-8.309,25.869-13.595,44.494-13.42l0,0c40.379,0.335,74.577,26.226,74.92,26.49c5.008,4.35,7.88,10.659,7.872,17.292
	c0.088,4.735-2.117,9.221-5.919,12.044C497.565,176.022,493.097,177.221,488.592,176.973z M423.62,127.018
	c-18.138,0-31.673,5.357-37.097,10.729c-1.352,1.142-2.232,2.742-2.475,4.494c0,7.643,5.164,8.881,25.549,10.474
	c2.958,0.23,6.083,0.477,9.364,0.785c13.186,1.655,26.218,4.36,38.973,8.088c15.868,4.193,32.283,8.531,37.949,4.432
	c1.452-1.082,2.238-2.84,2.076-4.644c-0.023-3.699-1.546-7.231-4.22-9.789c-0.315-0.241-32.033-24.254-69.335-24.555L423.62,127.018
	z"/>
</svg>
