<?xml version="1.0" encoding="utf-8"?>
<!-- Generator: Adobe Illustrator 16.0.0, SVG Export Plug-In . SVG Version: 6.00 Build 0)  -->
<!DOCTYPE svg PUBLIC "-//W3C//DTD SVG 1.1//EN" "http://www.w3.org/Graphics/SVG/1.1/DTD/svg11.dtd">
<svg version="1.1" id="Layer_1" xmlns="http://www.w3.org/2000/svg" xmlns:xlink="http://www.w3.org/1999/xlink" x="0px" y="0px"
	 width="841.891px" height="595.281px" viewBox="0 0 841.891 595.281" enable-background="new 0 0 841.891 595.281"
	 xml:space="preserve">
<g>
	<path fill="#B4C321" d="M623.125,275.317c-7.604,0-14.763,2.962-20.143,8.349l-10.895,10.894l-15.521-15.521l1.28-1.28
		c4.383-4.383,6.801-10.216,6.801-16.422c0-12.531-9.986-22.703-22.405-23.142c-0.432-12.144-10.179-21.892-22.322-22.323
		c-0.432-12.144-10.18-21.892-22.323-22.323c-0.439-12.419-10.618-22.404-23.142-22.404c-6.206,0-12.04,2.418-16.422,6.801
		l-1.28,1.28l-30.404-30.404l10.894-10.894c5.388-5.388,8.35-12.538,8.35-20.143c0-15.716-12.776-28.492-28.492-28.492
		c-7.604,0-14.763,2.962-20.143,8.349l-76.955,76.955c-5.388,5.388-8.349,12.538-8.349,20.143c0,15.716,12.776,28.492,28.491,28.492
		c7.604,0,14.763-2.962,20.143-8.349l10.894-10.894l6.236,6.235l-15.783,42.086c-2.901,7.739-7.15,14.793-12.649,20.977
		l-23.692,26.653c-5-56.12-24.86-91.368-44.222-112.835c19.689-28.12,30.583-62.043,30.583-96.398V52.087h-44.646
		c-53.337,0-96.732,43.396-96.732,96.733c0,55.257,10.402,109.294,30.932,160.614l16.579,41.446
		c17.799,44.497,60.271,73.257,108.207,73.257c31.133,0,60.398-12.121,82.409-34.132l33.648-33.648l31.69-9.056
		c9.815-2.805,19.02-7.471,27.115-13.64l16.065,16.065l-10.894,10.894c-5.388,5.388-8.349,12.538-8.349,20.143
		c0,15.716,12.775,28.492,28.491,28.492c7.604,0,14.763-2.962,20.143-8.349l76.963-76.963c5.38-5.38,8.341-12.53,8.341-20.135
		C651.616,288.094,638.84,275.317,623.125,275.317z M369.765,204.36c-2.574,2.574-5.99,3.988-9.621,3.988
		c-7.508,0-13.609-6.102-13.609-13.61c0-3.631,1.414-7.046,3.988-9.621l76.963-76.962c2.566-2.567,5.982-3.981,9.613-3.981
		c7.508,0,13.609,6.103,13.609,13.61c0,3.631-1.413,7.046-3.988,9.621L369.765,204.36z M435.827,159.342l30.404,30.404
		l-20.329,20.328c-7.366,7.367-20.217,7.367-27.584,0l-16.615-16.607L435.827,159.342z M489.648,332.985l-35.397,10.112
		l-36.379,36.379c-19.198,19.205-44.728,29.779-71.88,29.779c-41.812,0-78.86-25.084-94.39-63.903l-16.578-41.446
		c-19.815-49.55-29.868-101.727-29.868-155.086c0-45.13,36.721-81.851,81.851-81.851h29.765v23.736
		c0,30.456-9.384,60.532-26.401,85.728c-15.856-14.107-29.243-19.234-30.582-19.726l-5.09,13.989
		c0.729,0.26,72.155,27.65,76.687,144.876l-12.738,14.332l11.124,9.889l50.331-56.626c6.712-7.561,11.92-16.185,15.462-25.635
		l13.461-35.91c6.354,5.781,14.443,9.048,23.082,9.048c9.183,0,17.821-3.571,24.317-10.074l32.131-32.131
		c1.577-1.57,3.668-2.44,5.9-2.44c4.599,0,8.341,3.743,8.341,8.342c0,2.231-0.87,4.322-2.44,5.9l-32.584,32.584l10.521,10.521
		l32.584-32.584c1.578-1.57,3.669-2.44,5.901-2.44c4.599,0,8.341,3.742,8.341,8.341c0,2.232-0.87,4.323-2.44,5.901l-32.584,32.584
		l10.521,10.521l32.584-32.584c1.577-1.57,3.669-2.441,5.9-2.441c4.599,0,8.342,3.743,8.342,8.342c0,2.232-0.87,4.323-2.44,5.9
		l-32.584,32.585l10.521,10.521l32.584-32.585c1.577-1.569,3.668-2.44,5.9-2.44c4.599,0,8.342,3.743,8.342,8.342
		c0,2.232-0.871,4.323-2.441,5.9l-48.708,48.709C510.58,323.981,500.571,329.875,489.648,332.985z M531.921,323.684l34.124-34.125
		l15.521,15.522l-34.124,34.124L531.921,323.684z M632.746,313.43l-76.955,76.955c-2.574,2.574-5.99,3.988-9.621,3.988
		c-7.508,0-13.609-6.102-13.609-13.61c0-3.631,1.414-7.046,3.988-9.621l76.962-76.962c2.567-2.567,5.982-3.981,9.614-3.981
		c7.508,0,13.609,6.102,13.609,13.61C636.734,307.44,635.32,310.855,632.746,313.43z"/>
</g>
</svg>
