<?xml version="1.0" encoding="utf-8"?>
<!-- Generator: Adobe Illustrator 16.0.0, SVG Export Plug-In . SVG Version: 6.00 Build 0)  -->
<!DOCTYPE svg PUBLIC "-//W3C//DTD SVG 1.1//EN" "http://www.w3.org/Graphics/SVG/1.1/DTD/svg11.dtd">
<svg version="1.1" id="Layer_1" xmlns="http://www.w3.org/2000/svg" xmlns:xlink="http://www.w3.org/1999/xlink" x="0px" y="0px"
	 width="841.891px" height="595.281px" viewBox="0 0 841.891 595.281" enable-background="new 0 0 841.891 595.281"
	 xml:space="preserve">
<path fill="#FFAC1E" d="M236.898,326.354c-3.868,0-7.003-3.136-7.003-7.004v-85.44c-0.031-48.804,18.582-95.775,52.034-131.312
	c1.701-1.809,4.232-2.581,6.653-2.031c2.413,0.551,4.357,2.335,5.112,4.692c2.455,7.52,7.976,13.65,15.197,16.878
	c2.052,0.921,3.536,2.771,3.991,4.973c0.44,2.183-0.184,4.444-1.681,6.093c-25.244,27.465-39.265,63.402-39.288,100.707v58.408
	c0,3.867-3.136,7.003-7.003,7.003c-3.868,0-7.004-3.136-7.004-7.003V233.91c-0.075-37.814,12.996-74.48,36.978-103.719
	c-3.788-2.831-7.037-6.317-9.595-10.295c-26.796,31.942-41.454,72.32-41.39,114.014v85.44
	C243.901,323.219,240.766,326.354,236.898,326.354L236.898,326.354z"/>
<path fill="#FFAC1E" d="M604.992,326.354h-15.617c-3.868,0-7.004-3.136-7.004-7.004v-9.174c0.006-5.01-3.09-9.499-7.773-11.275
	c-2.773-1.003-4.621-3.635-4.622-6.583V233.91c0.106-37.306-13.789-73.293-38.938-100.848c-2.589-2.873-2.357-7.302,0.517-9.891
	c0.534-0.481,1.14-0.877,1.795-1.174c7.103-3.322,12.487-9.47,14.847-16.948c0.755-2.357,2.698-4.142,5.112-4.692
	c2.53-0.688,5.233,0.097,7.003,2.031c33.374,35.643,51.863,82.693,51.685,131.521v85.44
	C611.995,323.219,608.859,326.354,604.992,326.354z M596.378,312.347h1.61V233.91c0.045-41.702-14.638-82.081-41.459-114.014
	c-2.537,3.972-5.762,7.458-9.524,10.295c23.981,29.238,37.053,65.904,36.978,103.719v54.065c7.707,4.745,12.4,13.15,12.396,22.201
	V312.347z"/>
<path fill="#FFAC1E" d="M570.536,455.215c-14.322-0.039-25.913-11.66-25.913-25.982V310.177
	c0.077-14.279,11.634-25.836,25.913-25.913c14.283,0.039,25.842,11.629,25.842,25.913v119.056
	C596.417,443.543,584.846,455.176,570.536,455.215L570.536,455.215z M570.536,298.411c-3.141-0.021-6.151,1.244-8.334,3.502
	c-2.287,2.196-3.577,5.232-3.572,8.403v119.057c-0.504,6.556,4.402,12.278,10.958,12.782c6.557,0.505,12.279-4.401,12.783-10.958
	c0.047-0.607,0.047-1.217,0-1.824V310.316c0.116-6.574-5.119-11.998-11.693-12.114c-0.047-0.001-0.095-0.001-0.142-0.002V298.411z"
	/>
<path fill="#FFAC1E" d="M605.622,427.201h-16.247c-3.868,0-7.004-3.135-7.004-7.003V319.281c0-3.868,3.136-7.004,7.004-7.004h16.247
	c19.97,0.039,36.138,16.238,36.138,36.207v42.02c0.271,19.995-15.719,36.424-35.714,36.694
	C605.904,427.2,605.763,427.201,605.622,427.201z M596.378,413.195h9.244c12.233-0.039,22.131-9.967,22.131-22.201v-42.02
	c-0.038-12.218-9.913-22.123-22.131-22.2h-9.244V413.195z"/>
<path fill="#FFAC1E" d="M271.354,455.215c-14.256-0.23-25.647-11.936-25.492-26.192V309.967c0-14.284,11.559-25.874,25.843-25.913
	c14.279,0.077,25.835,11.634,25.912,25.913v119.056c0.117,14.349-11.421,26.076-25.77,26.193
	C271.682,455.217,271.518,455.217,271.354,455.215z M271.354,298.411c-6.33,0.223-11.377,5.362-11.485,11.695v119.056
	c-0.504,6.557,4.402,12.279,10.958,12.783c6.557,0.504,12.279-4.402,12.783-10.958c0.047-0.607,0.047-1.218,0-1.825V310.106
	c-0.038-6.56-5.346-11.867-11.905-11.906L271.354,298.411z"/>
<path fill="#FFAC1E" d="M252.866,427.201h-16.598c-19.97-0.038-36.138-16.237-36.138-36.207v-42.02
	c0-19.969,16.168-36.168,36.138-36.207h16.598c3.867,0,7.003,3.136,7.003,7.004v100.427
	C259.869,424.066,256.733,427.201,252.866,427.201z M236.268,326.284c-12.218,0.077-22.093,9.982-22.131,22.2v42.02
	c-0.271,12.259,9.446,22.415,21.705,22.686c0.142,0.003,0.283,0.005,0.426,0.006h9.594v-86.911H236.268z"/>
<path fill="#FFAC1E" d="M271.354,455.215c-14.256-0.23-25.647-11.936-25.492-26.192v-1.821h-9.594
	c-19.97-0.038-36.138-16.237-36.138-36.207v-42.02c-0.271-19.956,15.688-36.353,35.644-36.624c0.165-0.002,0.329-0.003,0.494-0.003
	h9.594v-2.171c-0.038-14.312,11.531-25.944,25.843-25.982l0,0c6.9-0.059,13.526,2.697,18.349,7.634
	c4.869,4.86,7.593,11.468,7.563,18.349v119.056c0.001,14.35-11.631,25.983-25.98,25.984
	C271.542,455.217,271.448,455.216,271.354,455.215z M236.338,326.564c-12.206,0.038-22.092,9.924-22.13,22.13v42.021
	c-0.155,12.26,9.658,22.324,21.918,22.479c0.047,0.001,0.095,0.001,0.143,0.002h16.598c3.867,0,7.003,3.135,7.003,7.003v9.104
	c-0.504,6.556,4.402,12.279,10.958,12.783c6.557,0.504,12.279-4.402,12.783-10.958c0.047-0.607,0.047-1.218,0-1.825V310.246
	c0.051-3.151-1.189-6.188-3.432-8.403l0,0c-2.189-2.238-5.203-3.479-8.334-3.432c-6.532-0.001-11.861,5.233-11.976,11.766v9.174
	c0,3.868-3.136,7.004-7.003,7.004L236.338,326.564z"/>
<path fill="#FFAC1E" d="M521.512,138.595c-8.931,0.01-17.626-2.864-24.792-8.194c-44.955-33.523-106.596-33.523-151.552,0
	c-18.604,13.886-44.941,10.061-58.827-8.544c-13.886-18.604-10.061-44.942,8.544-58.827c74.817-55.679,177.302-55.679,252.119,0
	c18.644,13.819,22.554,40.136,8.733,58.779c-7.979,10.765-20.615,17.079-34.016,16.996L521.512,138.595z M420.945,91.043
	c30.306,0,59.795,9.83,84.039,28.014c4.742,3.569,10.523,5.487,16.458,5.462c12.267,0.217,23.188-7.73,26.753-19.469
	c4.039-11.412,0.041-24.12-9.805-31.165c-69.721-51.827-165.171-51.827-234.891,0c-9.846,7.045-13.844,19.753-9.805,31.165
	c3.609,11.657,14.48,19.532,26.683,19.329l0,0c5.943,0.081,11.749-1.788,16.527-5.322C361.15,100.873,390.638,91.043,420.945,91.043
	z"/>
<path fill="#FFAC1E" d="M420.945,419.218c-1.184,0.015-2.348-0.301-3.361-0.91c-4.133-2.241-100.708-56.026-100.708-138.176
	c-0.015-33.186,26.876-60.1,60.062-60.114c16.691-0.008,32.635,6.928,44.008,19.146c22.653-24.251,60.678-25.547,84.929-2.894
	c12.152,11.353,19.057,27.232,19.07,43.862c0,82.149-96.506,135.935-100.567,138.176
	C423.338,418.92,422.151,419.234,420.945,419.218z M377.034,234.12c-25.423,0-46.043,20.589-46.081,46.012
	c0,65.691,73.324,113.804,90.062,123.959c16.669-10.155,89.923-58.268,89.923-123.959c-0.119-25.449-20.847-45.984-46.297-45.865
	c-15.089,0.071-29.188,7.524-37.742,19.953c-1.291,1.91-3.438,3.063-5.743,3.082l0,0c-2.316,0.019-4.492-1.108-5.813-3.012
	C406.697,241.641,392.354,234.091,377.034,234.12z"/>
</svg>
