<?xml version="1.0" encoding="utf-8"?>
<!-- Generator: Adobe Illustrator 16.0.0, SVG Export Plug-In . SVG Version: 6.00 Build 0)  -->
<!DOCTYPE svg PUBLIC "-//W3C//DTD SVG 1.1//EN" "http://www.w3.org/Graphics/SVG/1.1/DTD/svg11.dtd">
<svg version="1.1" id="Layer_1" xmlns="http://www.w3.org/2000/svg" xmlns:xlink="http://www.w3.org/1999/xlink" x="0px" y="0px"
	 width="841.891px" height="595.281px" viewBox="0 0 841.891 595.281" enable-background="new 0 0 841.891 595.281"
	 xml:space="preserve">
<path fill="#FFAB1B" d="M298.925,407.516l5.929-13.65c-57.769-25.084-92.257-66.619-92.257-111.107
	c0-44.051,33.965-85.358,90.854-110.494c25.698-11.275,54.025-15.182,81.815-11.28c10.839,1.484,20.934,6.351,28.847,13.905
	l2.97,2.868c7.547,7.17,11.824,17.121,11.834,27.531c0.046,8.786,3.639,17.181,9.964,23.279c6.369,6.143,14.886,9.556,23.734,9.513
	h0.102l16.862-0.049l3.828,9.633c-15.946,8.352-25.257,21.109-25.257,35.094c0,25.035,29.416,44.646,66.969,44.646
	s66.969-19.61,66.969-44.646c0-19.213-17.518-35.717-44.049-42.011l-33.718-109.541c18.874-26.886,12.38-63.981-14.506-82.855
	c-7.95-5.581-17.146-9.13-26.783-10.337v-5.378c0-9.794-7.939-17.734-17.733-17.734c-4.703,0-9.215,1.868-12.54,5.194l-8.209,8.209
	c-18.3,18.2-28.558,42.965-28.486,68.774c0.032,25.269,15.99,47.772,39.825,56.162l12.787,32.183l13.831-5.495l-9.291-23.384
	c0.789,0.03,1.581,0.061,2.376,0.061c13.442,0.01,26.489-4.556,36.994-12.943l50.492,164.039c-8.94,3.234-18.381,4.866-27.888,4.82
	L479.75,198.16l-13.83,5.495l7.752,19.512l-10.999,0.032h-0.058c-4.986,0.007-9.784-1.903-13.4-5.337
	c-3.45-3.273-5.408-7.818-5.418-12.574c-0.078-14.433-5.983-28.222-16.376-38.237l-2.969-2.867
	c-10.189-9.744-23.193-16.023-37.16-17.943c-30.523-4.279-61.635,0.018-89.855,12.41c-62.442,27.592-99.722,73.986-99.722,124.108
	C197.715,333.357,235.551,379.998,298.925,407.516z M473.032,282.759c0-7.787,5.953-15.521,15.914-21.15l19.586,49.297
	C488.139,306.84,473.032,295.594,473.032,282.759z M465.592,141.726c-24.646-0.028-44.619-20-44.646-44.646
	c-0.06-21.86,8.629-42.836,24.129-58.252l8.209-8.208c0.504-0.541,1.207-0.851,1.946-0.855c0.398,0.004,0.793,0.085,1.16,0.239
	c1.09,0.41,1.798,1.469,1.761,2.633v12.356c0,4.109,3.331,7.441,7.441,7.441c24.657,0,44.646,19.988,44.646,44.646
	S490.249,141.726,465.592,141.726z M553.308,257.869c14.524,5.466,23.897,14.854,23.897,24.89c0,6.631-4.035,12.835-10.742,17.85
	L553.308,257.869z"/>
<path fill="#FFAB1B" d="M582.331,222.858c-0.128,0-0.26,0-0.39,0l-12.4,0.372l0.448,14.882l12.296-0.372h0.046
	c25.765,0,46.816,19.938,46.96,44.5v0.521c0,52.1-46.515,97.342-114.247,119.479l-4.262-8.526c-1.24-2.48-2.874-4.745-4.837-6.705
	l-7.396-7.397c-2.055-2.043-3.206-4.822-3.199-7.72v-3.797c-0.019-14.269-11.602-25.82-25.87-25.802
	c-9.767,0.014-18.689,5.532-23.064,14.263l-2.686,5.37c-2.449,4.838-8.063,7.164-13.216,5.476
	c-6.489-2.185-13.583-1.683-19.699,1.395l-3.721,1.86c-4.015,2.011-7.437,5.032-9.929,8.767l-4.572,6.857
	c-5.867,8.889-5.713,20.459,0.389,29.188c-25.141-2.091-49.906-7.423-73.682-15.862l-5.063,13.994
	c32.511,11.762,69.411,17.98,106.709,17.98c45.373,0,88.712-8.94,125.39-25.54l1.599,4.025c0.036,0.094,0.075,0.187,0.115,0.279
	c2.755,6.261,7.971,11.106,14.417,13.394c13.013,4.668,27.346-2.098,32.013-15.11c1.822-5.082,1.954-10.616,0.373-15.778
	l-4.092-13.292c34.57-26.873,53.416-60.78,53.416-96.798v-0.602C643.98,249.421,616.256,222.858,582.331,222.858z M413.182,416.594
	l-7.509-9.01c-3.074-3.725-3.357-9.02-0.696-13.051l4.57-6.856c1.056-1.581,2.506-2.859,4.205-3.71l3.721-1.86
	c2.589-1.303,5.591-1.516,8.337-0.593c12.18,4.002,25.455-1.497,31.237-12.938l2.686-5.371c2.717-5.405,9.301-7.586,14.706-4.869
	c3.689,1.854,6.022,5.625,6.036,9.753v3.797c-0.019,6.848,2.702,13.417,7.557,18.246l7.397,7.397
	c0.831,0.829,1.521,1.787,2.046,2.837l3.08,6.16c-25.983,6.829-52.745,10.248-79.61,10.171
	C418.354,416.696,415.766,416.655,413.182,416.594z M580.627,397.209c1.638,5.36-1.381,11.033-6.742,12.67
	c-4.856,1.482-10.062-0.853-12.184-5.466l-1.963-4.94c6.19-3.276,12.146-6.782,17.871-10.52c0.133-0.088,0.261-0.178,0.395-0.267
	L580.627,397.209z"/>
<path fill="#FFAB1B" d="M234.92,249.273c0,14.604,16.887,26.044,38.445,26.044c21.558,0,38.445-11.44,38.445-26.044
	c0-14.603-16.888-26.043-38.445-26.043C251.806,223.23,234.92,234.671,234.92,249.273z M296.928,249.273
	c0,4.552-9.18,11.162-23.563,11.162c-14.385,0-23.563-6.61-23.563-11.162c0-4.551,9.18-11.161,23.563-11.161
	C287.748,238.112,296.928,244.722,296.928,249.273z"/>
<path fill="#FFAB1B" d="M280.805,342.287c21.559,0,38.446-11.441,38.446-26.044s-16.888-26.044-38.446-26.044
	s-38.444,11.441-38.444,26.044S259.247,342.287,280.805,342.287z M280.805,305.082c14.385,0,23.564,6.61,23.564,11.161
	s-9.18,11.161-23.564,11.161c-14.384,0-23.563-6.61-23.563-11.161S266.423,305.082,280.805,305.082z"/>
<path fill="#FFAB1B" d="M347.775,386.932c21.558,0,38.445-11.44,38.445-26.044c0-14.603-16.888-26.043-38.445-26.043
	c-21.559,0-38.445,11.44-38.445,26.043C309.33,375.492,326.217,386.932,347.775,386.932z M347.775,349.727
	c14.384,0,23.563,6.61,23.563,11.161c0,4.552-9.18,11.162-23.563,11.162c-14.385,0-23.563-6.61-23.563-11.162
	C324.212,356.338,333.391,349.727,347.775,349.727z"/>
<path fill="#FFAB1B" d="M337.854,230.671c21.559,0,38.444-11.44,38.444-26.043c0-14.604-16.886-26.044-38.444-26.044
	s-38.446,11.44-38.446,26.044C299.408,219.23,316.296,230.671,337.854,230.671z M337.854,193.467
	c14.383,0,23.563,6.61,23.563,11.161s-9.18,11.161-23.563,11.161c-14.384,0-23.564-6.61-23.564-11.161
	S323.468,193.467,337.854,193.467z"/>
<path fill="#FFAB1B" d="M430.584,289.766l1.751-7.008c2.736-11.146-3.514-22.531-14.386-26.207l-1.953-0.65
	c-2.31-0.765-4.066-2.661-4.65-5.023c-2.947-11.787-14.892-18.953-26.679-16.007c-3.069,0.768-5.937,2.188-8.407,4.164
	l-17.465,13.969c-0.655,0.524-1.397,0.929-2.194,1.193l-12.949,4.318c-6.561,2.203-11.71,7.354-13.913,13.915l-1.147,3.441
	c-3.411,10.384,1.277,21.703,11.032,26.634c13.355,6.688,28.394,9.263,43.212,7.401l29.139-3.643
	C420.971,305.098,428.347,298.56,430.584,289.766z M380.985,295.136c-11.903,1.5-23.984-0.569-34.71-5.945
	c-3.156-1.596-4.674-5.258-3.57-8.618l1.146-3.441l0,0c0.713-2.122,2.379-3.788,4.501-4.502l12.955-4.317
	c2.462-0.819,4.76-2.069,6.785-3.691l17.462-13.969c1.244-1.014,2.799-1.569,4.404-1.574c0.788,0.003,1.571,0.134,2.317,0.389
	c2.31,0.755,4.063,2.654,4.63,5.017c1.807,7.306,7.239,13.172,14.385,15.533l1.954,0.651c3.516,1.19,5.536,4.874,4.65,8.479
	l-1.751,7.006c-0.724,2.846-3.111,4.961-6.023,5.337L380.985,295.136z"/>
</svg>
