<?xml version="1.0" encoding="utf-8"?>
<!-- Generator: Adobe Illustrator 16.0.0, SVG Export Plug-In . SVG Version: 6.00 Build 0)  -->
<!DOCTYPE svg PUBLIC "-//W3C//DTD SVG 1.1//EN" "http://www.w3.org/Graphics/SVG/1.1/DTD/svg11.dtd">
<svg version="1.1" id="Layer_1" xmlns="http://www.w3.org/2000/svg" xmlns:xlink="http://www.w3.org/1999/xlink" x="0px" y="0px"
	 width="841.891px" height="595.281px" viewBox="0 0 841.891 595.281" enable-background="new 0 0 841.891 595.281"
	 xml:space="preserve">
<title>Miscellaneous 103 expandlines</title>
<path fill="#919B03" d="M421.954,438.572c-0.634,0.624-1.651,0.623-2.284-0.002L236.313,256.52
	c-12.694-12.603-22.658-27.685-29.27-44.307h105.049c6.341,0,20.166-3.935,23.98-11.454c0.063-0.12,24.462-55.474,24.462-55.474
	c0.075-0.006,0.15-0.008,0.226-0.003c0,0,32.788,96.106,32.839,96.229c1.922,4.227,5.922,7.134,10.535,7.657
	c5.274,1.031,10.708-0.724,14.381-4.646c0.18-0.213,47.661-71.015,47.661-71.015c0.306-0.034,0.615-0.028,0.92,0.018l22.782,28.618
	c3.297,3.894,11.446,10.07,19.271,10.07h26.999c2.313-5.182,5.062-10.158,8.217-14.874h-35.215
	c-2.964-0.803-5.649-2.403-7.765-4.628l-23.263-29.221c-6.2-6.378-16.397-6.521-22.774-0.32c-0.108,0.105-0.215,0.212-0.32,0.32
	c-0.179,0.21-47.661,71.015-47.661,71.015c-0.137,0.013-0.284,0.018-0.437,0.018c0,0-32.787-96.106-32.839-96.229
	c-2.277-4.875-7.205-7.956-12.585-7.869c-5.569-0.56-10.953,2.185-13.772,7.021c-0.062,0.122-24.78,56.198-24.78,56.198
	c-3.263,2.104-6.993,3.374-10.862,3.696H202.091c-11.659-42.464-0.404-87.936,29.716-120.059
	c47.558-50.226,126.379-53.683,178.152-7.814c6.209,5.454,15.501,5.454,21.709,0c51.775-45.866,130.596-42.408,178.155,7.814
	c30.109,32.13,41.339,77.607,29.645,120.059h-37.56c-1.441,4.099-4.055,7.684-7.515,10.311c-1.724,1.425-3.363,2.948-4.909,4.563
	h45.019c-1.582,3.964-3.289,7.888-5.271,11.711c2.203,0.83,4.358,1.781,6.456,2.849c2.323,1.211,4.561,2.58,6.695,4.1
	c3.821-7.425,6.997-15.164,9.49-23.133c0.227-0.529,0.392-1.084,0.489-1.651c15.245-48.691,3.112-101.819-31.759-139.064
	c-53.072-56.036-141.021-59.889-198.788-8.708c-0.575,0.497-1.428,0.497-2.003,0c-57.768-51.183-145.718-47.33-198.788,8.708
	c-52.742,55.316-50.591,145.058,4.794,200.045l183.354,182.05c6.45,6.377,16.83,6.377,23.279,0l38.14-37.868
	c-3.237-3.818-6.273-7.805-9.094-11.941L421.954,438.572z"/>
<path fill="#919B03" d="M653.041,270.125c-3.779-12.813-12.443-23.625-24.124-30.106c-23.474-11.976-52.188-1.785-70.33,7.471
	c-0.782-30.363,26.462-51.423,26.76-51.65c3.278-2.477,3.928-7.143,1.45-10.42c-2.473-3.272-7.128-3.926-10.406-1.461
	c-1.495,1.121-33.659,25.779-32.722,63.574c-18.143-9.268-46.917-19.508-70.411-7.514c-11.684,6.481-20.351,17.295-24.132,30.109
	c-10.257,29.923-7.48,58.604,9.004,92.996c10.766,22.469,28.464,53.393,57.698,62.492c11.592,3.516,24.041,2.937,35.257-1.64
	c6.436,2.557,13.292,3.889,20.217,3.926c5.099,0.001,10.169-0.769,15.037-2.284c29.238-9.102,46.937-40.025,57.702-62.494
	C660.525,328.732,663.302,300.051,653.041,270.125z M630.614,356.7c-9.566,19.959-25.019,47.345-48.706,54.718
	c-9.216,2.704-19.108,1.89-27.758-2.284c-1.959-0.831-4.171-0.831-6.129,0c-8.652,4.173-18.545,4.986-27.763,2.282
	c-23.685-7.372-39.136-34.757-48.702-54.716c-14.667-30.597-17.24-55.811-8.346-81.753c2.522-9.164,8.568-16.959,16.818-21.682
	c22.601-11.544,54.478,5.45,67.134,13.292c2.403,1.489,5.441,1.489,7.844,0c12.66-7.842,44.534-24.834,67.139-13.292
	c8.246,4.724,14.29,12.517,16.811,21.68C647.854,300.889,645.28,326.103,630.614,356.7z"/>
<path fill="#919B03" d="M612.51,276.28c-3.637,1.909-5.037,6.404-3.128,10.04c0,0.002,0.001,0.003,0.002,0.004
	c8.625,16.391,6.092,31.83-8.469,51.632c-2.431,3.309-1.72,7.961,1.589,10.392c0.002,0.001,0.005,0.003,0.007,0.005
	c3.322,2.396,7.952,1.688,10.406-1.591c11.278-15.344,24.557-39.021,9.646-67.358C620.647,275.767,616.148,274.37,612.51,276.28z"/>
</svg>
