<?xml version="1.0" encoding="utf-8"?>
<!-- Generator: Adobe Illustrator 16.0.0, SVG Export Plug-In . SVG Version: 6.00 Build 0)  -->
<!DOCTYPE svg PUBLIC "-//W3C//DTD SVG 1.1//EN" "http://www.w3.org/Graphics/SVG/1.1/DTD/svg11.dtd">
<svg version="1.1" id="Layer_1" xmlns="http://www.w3.org/2000/svg" xmlns:xlink="http://www.w3.org/1999/xlink" x="0px" y="0px"
	 width="841.891px" height="595.281px" viewBox="0 0 841.891 595.281" enable-background="new 0 0 841.891 595.281"
	 xml:space="preserve">
<path fill="#0083A9" d="M641.369,423.16l-34.696-49.664V98.646c0-4.082-2.722-6.803-6.804-6.803h-63.27
	c-18.368-45.582-63.27-78.237-115.654-78.237c-42.86,0-80.278,21.771-102.729,53.745c-0.681,0.681-1.36,1.361-2.041,2.722
	c-4.082,6.804-8.164,13.606-10.885,21.771h-62.59c-4.082,0-6.803,2.721-6.803,6.803v274.85l-34.697,49.664
	c-4.762,7.483-5.442,17.688-1.36,25.852s12.246,13.606,21.771,13.606h398.668c9.524,0,17.688-5.442,22.45-13.606
	C647.492,440.847,646.811,430.643,641.369,423.16z M327.06,79.597h36.058c-4.082,15.647-6.804,33.336-7.483,52.385h-45.582
	C311.413,112.933,317.536,95.245,327.06,79.597z M531.838,131.982h-45.582c-0.68-19.049-2.721-36.737-7.483-52.385h36.057
	C524.353,95.245,530.476,112.933,531.838,131.982z M355.635,145.589c0.68,16.327,2.041,31.975,5.442,45.581h-38.099l0,0
	c-7.483-13.606-11.565-29.254-12.245-45.581H355.635L355.635,145.589z M427.748,248.997v-44.221h34.697
	C454.281,228.588,441.354,244.916,427.748,248.997z M379.445,204.776h34.696v44.221
	C400.535,244.916,387.609,228.588,379.445,204.776z M427.748,191.17v-45.581h44.901c-0.68,16.328-2.721,31.975-6.123,45.581H427.748
	L427.748,191.17z M414.141,191.17h-38.778c-3.401-13.606-5.442-29.254-6.122-45.581h44.9V191.17z M365.159,204.776
	c4.762,16.328,12.245,29.254,20.409,39.459c-21.771-7.483-40.819-21.09-53.745-39.459H365.159z M476.731,204.776h34.017
	c-13.606,18.369-31.976,31.976-53.746,39.459C464.486,234.711,471.289,221.104,476.731,204.776z M518.911,191.85
	c-0.68,0-1.36-0.681-2.041-0.681h-36.057c3.401-14.286,5.442-29.254,5.442-45.581h45.582
	C530.476,161.916,526.394,177.563,518.911,191.85z M472.649,131.982h-44.901V79.597h36.738
	C469.248,95.245,471.969,112.933,472.649,131.982z M427.748,65.991V28.573c12.246,4.082,23.812,17.688,31.976,37.418H427.748z
	 M414.141,28.573v37.418h-31.975C390.331,46.261,401.896,31.975,414.141,28.573z M414.141,79.597v52.385h-44.9
	c0.68-19.049,3.401-36.737,8.163-52.385H414.141z M296.446,138.105v1.36c0,68.713,55.786,124.499,124.499,124.499
	c68.712,0,124.499-55.786,124.499-124.499v-0.681v-0.68c0-2.041,0-4.763-0.681-6.804h21.771v212.261H274.676V131.302h22.451
	C296.446,133.343,296.446,136.064,296.446,138.105z M505.304,65.991H474.69c-4.762-12.926-10.885-24.491-17.688-32.655
	C475.371,39.459,492.379,51.024,505.304,65.991z M385.568,33.336c-6.803,8.844-12.926,19.729-17.688,32.655h-30.614
	C349.511,51.024,366.519,39.459,385.568,33.336z M249.504,105.45h51.705c-1.361,4.082-2.041,8.163-2.722,12.245h-30.614
	c-4.082,0-6.804,2.722-6.804,6.804v225.866c0,4.082,2.722,6.804,6.804,6.804h306.145c3.401,0,6.803-3.402,6.123-6.804V124.499
	c0-4.082-2.722-6.804-6.804-6.804h-29.934c-0.681-4.082-1.361-8.163-2.722-12.245h52.385v263.284H249.504V105.45z M631.164,442.888
	c-2.041,4.082-6.123,6.123-10.205,6.123H221.611c-4.763,0-8.164-2.041-10.205-6.123c-2.041-3.401-2.041-8.163,0.681-11.565
	l34.016-48.982h350.365l34.017,48.982C633.205,434.725,633.205,438.806,631.164,442.888z"/>
<path fill="#0083A9" d="M461.764,405.471c-1.36-2.722-3.401-4.763-6.804-4.763H388.29c-3.402,0-6.123,2.041-6.804,4.763
	l-7.483,25.852c-0.681,2.041,0,4.763,1.36,6.123c1.361,2.041,3.402,2.722,5.443,2.722h80.277c2.722,0,4.763-1.361,6.804-2.722
	c1.36-2.041,2.041-4.082,1.36-6.123L461.764,405.471z M389.65,426.561l3.401-12.246h56.467l3.401,12.246H389.65z"/>
</svg>
