<?xml version="1.0" encoding="utf-8"?>
<!-- Generator: Adobe Illustrator 16.0.0, SVG Export Plug-In . SVG Version: 6.00 Build 0)  -->
<!DOCTYPE svg PUBLIC "-//W3C//DTD SVG 1.1//EN" "http://www.w3.org/Graphics/SVG/1.1/DTD/svg11.dtd">
<svg version="1.1" id="Layer_1" xmlns="http://www.w3.org/2000/svg" xmlns:xlink="http://www.w3.org/1999/xlink" x="0px" y="0px"
	 width="783.646px" height="184.914px" viewBox="0 0 783.646 184.914" enable-background="new 0 0 783.646 184.914"
	 xml:space="preserve">
<rect y="121.37" fill="none" width="117.377" height="31.251"/>
<text transform="matrix(1 0 0 1 0 142.6099)" fill="#50007E" font-family="'KumbhSans-Regular'" font-size="29">SALUD</text>
<rect x="142.442" y="121.37" fill="none" width="124.18" height="31.251"/>
<text transform="matrix(1 0 0 1 142.4424 142.6099)" fill="#50007E" font-family="'KumbhSans-Regular'" font-size="29">TRABAJO</text>
<rect x="339.082" y="121.369" fill="none" width="73.16" height="31.251"/>
<text transform="matrix(1 0 0 1 339.0815 142.6089)" fill="#50007E" font-family="'KumbhSans-Regular'" font-size="29">ARTE</text>
<rect x="465.292" y="121.369" fill="none" width="134.384" height="31.251"/>
<text transform="matrix(1 0 0 1 465.2925 142.6089)" fill="#50007E" font-family="'KumbhSans-Regular'" font-size="29">DEPORTE</text>
<rect x="616.793" y="121.369" fill="none" width="166.853" height="57.136"/>
<text transform="matrix(1 0 0 1 664.7622 142.6089)"><tspan x="0" y="0" fill="#50007E" font-family="'KumbhSans-Regular'" font-size="29">VIDA</tspan><tspan x="-40.802" y="34.8" fill="#50007E" font-family="'KumbhSans-Regular'" font-size="29">PERSONAL</tspan></text>
<path fill="#50007E" d="M411.6,47.347c-0.341-0.338-0.822-0.494-1.296-0.417l-2.731,0.455v-6.423c0-0.23-0.054-0.458-0.156-0.666
	l-5.949-11.896c-0.438-0.733-1.389-0.974-2.123-0.536c-0.221,0.129-0.407,0.316-0.539,0.536l-5.948,11.896
	c-0.102,0.208-0.157,0.435-0.157,0.666v8.903l-9.31,1.553c0.166-0.64,0.251-1.297,0.256-1.957v-6.685
	c-0.014-1.342,0.563-2.621,1.573-3.501c7.083-6.129,7.854-16.836,1.728-23.917c-0.459-0.53-0.949-1.029-1.468-1.499
	c-3.429-3.098-8.031-4.565-12.619-4.018c-7.722,0.977-13.72,7.199-14.415,14.951c-0.548,5.521,1.645,10.962,5.872,14.56
	c0.968,0.873,1.509,2.122,1.484,3.425v6.685c0.003,0.645,0.085,1.286,0.246,1.91l-10.523-1.754V30.552
	c0-0.82-0.666-1.486-1.485-1.486h-0.001H342.14c-0.821-0.001-1.487,0.664-1.487,1.485v0.001v16.585l-1.243-0.208
	c-0.475-0.077-0.955,0.076-1.296,0.417l-8.923,8.922c-0.581,0.582-0.581,1.525,0.001,2.105c0.2,0.201,0.455,0.339,0.733,0.401
	l6.266,1.36v23.953c0,0.688,0.47,1.286,1.14,1.447l37.178,8.923c0.226,0.06,0.466,0.055,0.69-0.018l0.003,0.018l37.178-8.923
	c0.669-0.161,1.14-0.759,1.141-1.447V60.135l6.265-1.36c0.803-0.176,1.31-0.97,1.136-1.773c-0.062-0.277-0.2-0.532-0.401-0.733
	L411.6,47.347z M400.137,32.39l3.541,7.084h-7.083L400.137,32.39z M395.676,42.449h8.923v5.433l-8.923,1.488V42.449z
	 M361.405,25.071c0.559-6.354,5.463-11.463,11.79-12.28c3.747-0.441,7.502,0.754,10.305,3.282c5.73,5.176,6.18,14.017,1.003,19.749
	c-0.381,0.42-0.787,0.818-1.216,1.191c-1.67,1.446-2.625,3.551-2.613,5.76v2.648h-11.9v-2.648c0.036-2.18-0.894-4.266-2.54-5.698
	C362.755,34.108,360.951,29.622,361.405,25.071z M368.775,49.459v-1.063h11.897v1.063c0,0.888-0.238,1.761-0.693,2.527l-5.123,0.854
	l-5.413-0.902C369.007,51.184,368.776,50.329,368.775,49.459z M343.627,43.937h4.46v-2.976h-4.46v-2.975h4.46v-2.974h-4.46v-2.975
	h8.923v17.083l-8.923-1.489V43.937z M339.675,49.99l32.087,5.348l-7.793,7.792l-30.749-6.684L339.675,49.99z M339.166,82.916V60.783
	l24.964,5.427c0.104,0.022,0.21,0.033,0.316,0.033c0.396,0,0.773-0.157,1.052-0.436l7.871-7.871v33.189L339.166,82.916z
	 M410.548,82.916l-34.204,8.208V57.936l7.871,7.871c0.278,0.279,0.657,0.436,1.052,0.436c0.106,0,0.212-0.011,0.316-0.033
	l24.966-5.427L410.548,82.916L410.548,82.916z M385.745,63.131l-7.792-7.792l32.086-5.348l6.455,6.455L385.745,63.131z"/>
<path fill="#50007E" d="M369.921,27.697l-0.668,4.102c-0.133,0.812,0.417,1.574,1.227,1.708c0.329,0.053,0.667-0.006,0.959-0.168
	l3.417-1.887l3.417,1.887c0.499,0.276,1.111,0.242,1.576-0.084c0.464-0.328,0.702-0.894,0.61-1.457l-0.667-4.101l2.821-2.892
	c0.572-0.587,0.562-1.529-0.027-2.103c-0.222-0.216-0.506-0.357-0.813-0.404l-3.84-0.587l-1.731-3.688
	c-0.349-0.743-1.235-1.063-1.978-0.714c-0.314,0.147-0.567,0.4-0.714,0.714l-1.731,3.688l-3.84,0.587
	c-0.811,0.123-1.37,0.883-1.244,1.694c0.047,0.307,0.188,0.592,0.405,0.814L369.921,27.697z M373.014,24.53
	c0.49-0.074,0.911-0.388,1.121-0.837l0.722-1.538l0.722,1.538c0.21,0.449,0.631,0.764,1.119,0.837l1.763,0.272l-1.324,1.358
	c-0.329,0.337-0.478,0.812-0.403,1.278l0.298,1.819l-1.458-0.806c-0.446-0.248-0.99-0.248-1.437,0l-1.456,0.806l0.297-1.819
	c0.075-0.467-0.076-0.94-0.403-1.278l-1.326-1.358L373.014,24.53z"/>
<rect x="373.369" y="2.295" fill="#50007E" width="2.974" height="4.463"/>
<rect x="358.122" y="8.612" transform="matrix(0.7074 -0.7069 0.7069 0.7074 97.5748 257.367)" fill="#50007E" width="2.975" height="4.461"/>
<rect x="387.872" y="9.353" transform="matrix(0.707 -0.7072 0.7072 0.707 106.6351 279.0631)" fill="#50007E" width="4.461" height="2.974"/>
<g>
	<path fill="#50007E" d="M557.673,62.609l-14.318-3.779v-4.805c5.23-3.029,8.953-8.111,10.26-14.013h0.511
		c3.401,0,6.155-2.755,6.155-6.157c0-3.398-2.754-6.155-6.155-6.155v-1.969c0.95-0.544,1.536-1.555,1.54-2.648v-3.079
		c-0.003-0.578-0.168-1.143-0.478-1.628c2.508-2.272,2.702-6.146,0.432-8.655c-0.895-0.988-2.084-1.657-3.393-1.906
		c-1.198-3.623-5.105-5.588-8.729-4.389c-0.47,0.154-0.921,0.361-1.348,0.612c-1.819-2.467-5.179-3.219-7.876-1.762
		c-2.136-2.636-6.003-3.044-8.641-0.909c-0.158,0.128-0.31,0.264-0.454,0.408c-3.273-2.712-8.123-2.256-10.835,1.015
		c-1.143,1.379-1.767,3.112-1.769,4.902c0,0.065,0,0.128,0,0.194c-3.281,0.834-5.266,4.17-4.432,7.451
		c0.297,1.169,0.933,2.227,1.828,3.037c-0.309,0.486-0.473,1.052-0.474,1.628v3.079c0.002,1.095,0.589,2.104,1.538,2.648V27.7
		c-3.401,0-6.156,2.756-6.156,6.155c0,3.401,2.756,6.156,6.156,6.156h0.511c1.307,5.902,5.029,10.984,10.26,14.013v4.805
		l-14.311,3.776c-8.796,2.302-14.929,10.25-14.928,19.339v10.387c0,0.85,0.688,1.54,1.538,1.54h76.943
		c0.85,0,1.539-0.689,1.539-1.54V81.945C572.594,72.86,566.464,64.914,557.673,62.609z M511.039,64.856l6.272-1.654
		c0.909,6.863,7.406,12.204,15.271,12.204c7.865,0,14.363-5.341,15.27-12.204l6.273,1.654v25.939h-43.086V64.856z M557.205,33.856
		c0,1.7-1.379,3.078-3.079,3.078v-6.155C555.826,30.779,557.205,32.157,557.205,33.856z M514.104,10.774
		c0.479,0.071,0.964-0.092,1.304-0.438c0.381-0.382,0.533-0.937,0.401-1.458c-0.1-0.386-0.152-0.783-0.153-1.181
		c0.009-2.549,2.082-4.61,4.633-4.602c1.508,0.005,2.918,0.746,3.777,1.985c0.481,0.7,1.439,0.879,2.14,0.397
		c0.231-0.158,0.414-0.376,0.531-0.632c0.717-1.532,2.541-2.193,4.073-1.476c0.729,0.342,1.294,0.956,1.574,1.711
		c0.186,0.505,0.619,0.876,1.146,0.981c0.529,0.11,1.074-0.07,1.436-0.47c0.573-0.627,1.386-0.98,2.234-0.972
		c1.373-0.008,2.58,0.905,2.946,2.229c0.219,0.821,1.063,1.308,1.885,1.087c0.292-0.077,0.559-0.242,0.756-0.472
		c1.395-1.592,3.813-1.753,5.406-0.36c0.691,0.604,1.143,1.439,1.271,2.349c0.136,0.768,0.805,1.326,1.585,1.321
		c1.7,0,3.078,1.379,3.078,3.079c0,1.699-1.378,3.078-3.078,3.078h-36.933c-1.7,0.004-3.08-1.37-3.084-3.071
		C511.029,12.159,512.403,10.777,514.104,10.774z M514.117,20.006h36.963h1.508v3.079h-40.009v-3.079H514.117z M511.039,36.934
		c-1.7,0-3.077-1.377-3.077-3.078c0-1.7,1.379-3.077,3.077-3.077V36.934z M514.117,35.396v-9.232h36.933v9.232
		c0,10.2-8.268,18.467-18.467,18.467C522.384,53.862,514.117,45.596,514.117,35.396z M523.743,61.506
		c0.675-0.179,1.146-0.79,1.146-1.488v-4.523c4.948,1.927,10.44,1.927,15.389,0v4.523c0,0.698,0.471,1.309,1.146,1.488l3.422,0.9
		c-0.499,5.543-5.8,9.922-12.262,9.922c-6.424,0-11.709-4.329-12.257-9.923L523.743,61.506z M495.65,81.946
		c0.002-7.566,5.03-14.208,12.312-16.266v25.115H495.65V81.946z M569.516,90.795h-12.312V65.681
		c7.282,2.056,12.311,8.699,12.311,16.266L569.516,90.795L569.516,90.795z"/>
</g>
<g>
	<path fill="#50007E" d="M47.612,95.266L10.847,58.5c-9.702-9.703-9.702-25.492,0-35.197c4.701-4.7,10.951-7.29,17.599-7.29
		c6.646,0,12.897,2.588,17.598,7.29l1.568,1.568l1.569-1.568c4.697-4.7,10.947-7.29,17.597-7.29c6.646,0,12.898,2.588,17.598,7.29
		c9.704,9.705,9.704,25.494,0,35.197L47.612,95.266z M28.446,18.801c-5.904,0-11.452,2.3-15.625,6.474
		c-8.616,8.618-8.617,22.636-0.002,31.251l34.793,34.795l34.793-34.794c8.614-8.615,8.614-22.633,0-31.251
		c-4.175-4.173-9.723-6.473-15.628-6.473c-5.902,0-11.451,2.3-15.627,6.473l-3.539,3.542l-3.538-3.542
		C39.897,21.102,34.349,18.801,28.446,18.801z M50.275,70.483h-5.26c-1.892,0-3.433-1.538-3.433-3.431v-5.871h-5.867
		c-1.894,0-3.435-1.539-3.435-3.432v-5.261c0-1.892,1.541-3.433,3.435-3.433h5.867v-5.867c0-1.892,1.54-3.431,3.433-3.431h5.26
		c1.894,0,3.434,1.538,3.434,3.431v5.867h5.868c1.893,0,3.432,1.54,3.432,3.433v5.261c0,1.893-1.538,3.432-3.432,3.432h-5.868v5.871
		C53.709,68.944,52.17,70.483,50.275,70.483z M35.715,51.846c-0.355,0-0.644,0.287-0.644,0.641v5.261
		c0,0.354,0.289,0.642,0.644,0.642h8.659v8.661c0,0.352,0.287,0.641,0.641,0.641h5.26c0.355,0,0.641-0.289,0.641-0.641V58.39h8.661
		c0.354,0,0.641-0.288,0.641-0.642v-5.261c0-0.354-0.287-0.641-0.641-0.641h-8.661v-8.659c0-0.354-0.286-0.641-0.641-0.641h-5.26
		c-0.355,0-0.641,0.287-0.641,0.641v8.659H35.715z"/>
</g>
<path fill="#50007E" d="M243.691,27.174h-17.496v-4.376c0-4.377-2.34-8.459-6.59-11.496c-4.1-2.929-9.527-4.542-15.282-4.542
	c-5.754,0-11.181,1.614-15.282,4.542c-4.25,3.035-6.589,7.118-6.589,11.496v4.376h-17.496c-2.413,0-4.375,2.289-4.375,5.104v19.684
	c0,0.692,0.485,1.288,1.163,1.429l0.296,0.061v36.47c0.002,2.388,1.936,4.32,4.324,4.323h75.92c2.387-0.003,4.321-1.936,4.323-4.323
	V53.451l0.295-0.061c0.677-0.14,1.163-0.737,1.163-1.429V32.278C248.065,29.463,246.104,27.174,243.691,27.174z M220.363,27.174
	v-2.917h2.915v2.917H220.363z M191.202,22.798c0-3.951,6.009-7.29,13.122-7.29s13.123,3.338,13.123,7.29v4.376h-26.245V22.798z
	 M204.324,9.677c9.74,0,17.787,5.113,18.837,11.664h-2.957c-1.083-5.008-7.667-8.748-15.88-8.748c-8.214,0-14.799,3.741-15.88,8.748
	h-2.958C186.537,14.789,194.583,9.677,204.324,9.677z M185.368,24.257h2.916v2.917h-2.916V24.257z M163.498,32.278
	c0-1.166,0.682-2.188,1.458-2.188h78.734c0.777,0,1.458,1.022,1.458,2.188v18.497l-33.54,6.939
	c-0.041-0.772-0.679-1.379-1.454-1.379h-11.664c-0.773,0-1.413,0.606-1.454,1.379l-33.54-6.939V32.278z M199.949,62.168v-2.917
	h8.748v2.917H199.949z M201.408,65.084h5.832V68h-5.832V65.084z M243.691,89.921c0,0.777-0.629,1.406-1.406,1.407h-75.92
	c-0.777-0.001-1.406-0.63-1.408-1.407V54.053l32.078,6.636v2.937c0,0.804,0.653,1.458,1.457,1.458v4.375
	c0,0.805,0.653,1.458,1.458,1.458h8.748c0.805,0,1.458-0.653,1.458-1.458v-4.375c0.805,0,1.458-0.653,1.458-1.458v-2.937
	l32.077-6.636L243.691,89.921L243.691,89.921z"/>
<g>
	<polygon fill="none" points="677.523,14.947 668.33,14.947 668.33,33.363 677.523,24.107 	"/>
	<path fill="none" d="M700.917,5.135l-44.748,45.054c-0.326,0.329-0.223,0.696-0.163,0.838c0.061,0.144,0.247,0.479,0.711,0.479
		h7.132v41.596h9.313V70.8c0-3.285,1.782-6.347,4.65-7.987l0.689-0.395l-0.621-0.491c-2.681-2.126-4.221-5.293-4.221-8.688
		c0-6.113,4.976-11.089,11.09-11.089c6.116,0,11.093,4.976,11.093,11.089c0,3.396-1.539,6.564-4.221,8.688L691,62.42l0.687,0.395
		c1.375,0.784,2.53,1.919,3.342,3.276l0.241,0.403l0.431-0.187c1.291-0.559,2.688-0.821,4.083-0.719l0.692,0.045v-1.95
		c0-4.331,2.607-8.177,6.639-9.797l0.987-0.398l-0.908-0.557c-3.842-2.356-6.138-6.43-6.138-10.899
		c0-7.053,5.741-12.791,12.793-12.791c7.051,0,12.791,5.739,12.791,12.791c0,4.469-2.295,8.543-6.136,10.899l-0.911,0.557
		l0.99,0.398c4.037,1.62,6.643,5.466,6.643,9.797v29.419h9.823V51.506h6.599c0.477,0,0.672-0.335,0.733-0.482
		c0.063-0.142,0.168-0.515-0.16-0.853L700.917,5.135z"/>
	<path fill="none" d="M723.409,42.033c0-5.272-4.29-9.562-9.562-9.562c-5.274,0-9.562,4.29-9.562,9.562
		c0,5.272,4.287,9.561,9.562,9.561C719.119,51.593,723.409,47.304,723.409,42.033z"/>
	<path fill="none" d="M684.747,45.377c-4.333,0-7.857,3.526-7.857,7.859c0,4.335,3.524,7.86,7.857,7.86
		c4.337,0,7.863-3.524,7.863-7.86C692.61,48.901,689.083,45.377,684.747,45.377z"/>
	<path fill="none" d="M699.298,68.793c-3.251,0-5.893,2.641-5.893,5.889c0,3.249,2.642,5.891,5.893,5.891
		c3.246,0,5.89-2.643,5.89-5.891C705.188,71.435,702.544,68.793,699.298,68.793z"/>
	<path fill="#50007E" d="M700.952,0.516l-20.2,20.338v-9.137h-15.653v24.896l-11.221,11.304c-1.139,1.144-1.474,2.851-0.857,4.344
		c0.615,1.492,2.062,2.465,3.684,2.476h3.916v40.933h15.769v-24.87c0-3.296,2.682-5.978,5.979-5.978h4.763
		c2.273,0,4.317,1.274,5.338,3.328l0.161,0.318l-0.232,0.27c-1.432,1.656-2.219,3.768-2.219,5.941c0,2.477,0.982,4.793,2.768,6.531
		l0.163,0.157v1.229l-0.221,0.16c-1.973,1.453-3.103,3.681-3.103,6.114v6.794h3.229V88.87c0-1.665,0.936-3.17,2.442-3.927
		c0.441-0.223,0.911-0.369,1.394-0.431l0.138-0.015c0.133-0.017,0.279-0.023,0.422-0.023h3.773c0.143,0,0.288,0.006,0.425,0.024
		l0.241,0.035c2.126,0.315,3.73,2.182,3.73,4.337v6.794h3.23V88.87c0-2.59-1.32-4.988-3.535-6.412l-0.603-0.388l0.546-0.469
		c2.032-1.743,3.198-4.265,3.198-6.923c0-3.179-1.707-6.177-4.454-7.821l-0.262-0.157v-3.022c0-4.042,3.288-7.332,7.332-7.332h5.624
		c4.047,0,7.345,3.29,7.345,7.332v31.986h16.274V54.736h3.372c1.618,0,3.072-0.96,3.704-2.448c0.642-1.507,0.331-3.177-0.807-4.357
		L700.952,0.516z M668.33,14.947h9.193v9.159l-9.193,9.257V14.947z M684.747,61.096c-4.333,0-7.857-3.524-7.857-7.86
		c0-4.334,3.524-7.859,7.857-7.859c4.337,0,7.863,3.526,7.863,7.859C692.61,57.571,689.083,61.096,684.747,61.096z M705.188,74.682
		c0,3.25-2.646,5.891-5.89,5.891c-3.251,0-5.893-2.643-5.893-5.891c0-3.248,2.642-5.889,5.893-5.889
		C702.544,68.793,705.188,71.435,705.188,74.682z M713.847,51.593c-5.274,0-9.562-4.29-9.562-9.562c0-5.273,4.287-9.563,9.562-9.563
		c5.271,0,9.562,4.29,9.562,9.563C723.409,47.304,719.119,51.593,713.847,51.593z M744.38,51.024
		c-0.062,0.147-0.255,0.482-0.733,0.482h-6.599v41.596h-9.823V63.683c0-4.331-2.605-8.177-6.643-9.797l-0.99-0.398l0.911-0.557
		c3.841-2.356,6.136-6.43,6.136-10.899c0-7.053-5.74-12.791-12.791-12.791c-7.052,0-12.793,5.739-12.793,12.791
		c0,4.469,2.296,8.543,6.138,10.899l0.908,0.557l-0.987,0.397c-4.035,1.621-6.639,5.467-6.639,9.798v1.95l-0.692-0.045
		c-1.395-0.102-2.792,0.161-4.083,0.719l-0.431,0.187l-0.241-0.403c-0.813-1.358-1.967-2.492-3.342-3.276L691,62.42l0.621-0.492
		c2.683-2.125,4.221-5.293,4.221-8.688c0-6.113-4.977-11.089-11.093-11.089c-6.114,0-11.09,4.976-11.09,11.089
		c0,3.396,1.54,6.564,4.221,8.688l0.621,0.491l-0.689,0.395c-2.868,1.642-4.65,4.704-4.65,7.987v22.302h-9.313V51.506h-7.132
		c-0.464,0-0.65-0.334-0.711-0.479c-0.06-0.141-0.162-0.509,0.163-0.838l44.748-45.054l43.303,45.036
		C744.548,50.507,744.441,50.881,744.38,51.024z"/>
</g>
</svg>
