<?xml version="1.0" encoding="utf-8"?>
<!-- Generator: Adobe Illustrator 16.0.0, SVG Export Plug-In . SVG Version: 6.00 Build 0)  -->
<!DOCTYPE svg PUBLIC "-//W3C//DTD SVG 1.1//EN" "http://www.w3.org/Graphics/SVG/1.1/DTD/svg11.dtd">
<svg version="1.1" id="Layer_1" xmlns="http://www.w3.org/2000/svg" xmlns:xlink="http://www.w3.org/1999/xlink" x="0px" y="0px"
	 width="783.646px" height="184.914px" viewBox="0 0 783.646 184.914" enable-background="new 0 0 783.646 184.914"
	 xml:space="preserve">
<rect x="0" y="121.37" fill="none" width="117.377" height="31.251"/>
<g enable-background="new    ">
	<path fill="#50007E" d="M2.379,138.575c0.727,0.755,1.548,1.31,2.464,1.663c0.916,0.354,1.817,0.531,2.705,0.531
		c0.859,0,1.654-0.151,2.386-0.453c0.731-0.302,1.319-0.734,1.763-1.296s0.666-1.234,0.666-2.018c0-0.803-0.231-1.473-0.694-2.011
		s-1.064-1.008-1.806-1.409c-0.741-0.401-1.527-0.785-2.357-1.154c-0.689-0.311-1.374-0.639-2.053-0.983s-1.295-0.741-1.848-1.189
		c-0.552-0.448-0.993-0.979-1.324-1.593c-0.331-0.614-0.496-1.351-0.496-2.209c0-1.152,0.302-2.139,0.906-2.96
		s1.418-1.451,2.442-1.891c1.024-0.438,2.165-0.658,3.42-0.658c0.831,0,1.694,0.102,2.591,0.305s1.789,0.521,2.676,0.956
		l-1.005,2.123c-0.661-0.387-1.345-0.67-2.053-0.85c-0.708-0.179-1.397-0.269-2.067-0.269c-1.199,0-2.226,0.273-3.08,0.821
		c-0.854,0.548-1.281,1.331-1.281,2.351c0,0.718,0.217,1.321,0.651,1.813s1,0.921,1.699,1.288c0.699,0.369,1.444,0.732,2.237,1.091
		c0.708,0.321,1.416,0.661,2.124,1.02s1.354,0.774,1.94,1.246s1.055,1.031,1.409,1.678c0.354,0.646,0.531,1.419,0.531,2.315
		c0,1.189-0.323,2.252-0.97,3.186c-0.647,0.936-1.527,1.672-2.641,2.209c-1.114,0.539-2.379,0.808-3.795,0.808
		c-1.095,0-2.195-0.185-3.299-0.552c-1.104-0.369-2.133-0.939-3.087-1.714L2.379,138.575z"/>
	<path fill="#50007E" d="M16.624,142.61l8.298-21.24h2.733l8.298,21.24h-2.662l-2.167-5.537h-9.742l-2.167,5.537H16.624z
		 M24.441,129.229l-2.181,5.578h7.986l-2.181-5.578c-0.387-0.992-0.72-1.879-0.998-2.662c-0.279-0.784-0.55-1.577-0.814-2.379
		c-0.255,0.802-0.524,1.595-0.807,2.379C25.163,127.351,24.828,128.237,24.441,129.229z"/>
	<path fill="#50007E" d="M50.963,142.61H38.502v-21.24h2.478v18.975h9.983V142.61z"/>
	<path fill="#50007E" d="M53.37,133.265V121.37h2.478v12.319c0,1.369,0.255,2.584,0.765,3.646c0.51,1.062,1.227,1.899,2.152,2.513
		c0.925,0.614,2.006,0.921,3.243,0.921c1.246,0,2.329-0.307,3.25-0.921c0.92-0.613,1.635-1.451,2.145-2.513
		c0.51-1.063,0.765-2.277,0.765-3.646V121.37h2.478v11.895c0,1.982-0.342,3.705-1.026,5.168c-0.685,1.464-1.671,2.597-2.96,3.398
		c-1.288,0.803-2.839,1.204-4.651,1.204c-1.803,0-3.351-0.401-4.645-1.204c-1.293-0.802-2.282-1.935-2.967-3.398
		C53.712,136.97,53.37,135.247,53.37,133.265z"/>
	<path fill="#50007E" d="M80.954,142.639h-5.777v-21.24h5.777c4.172,0,7.377,0.923,9.615,2.769s3.356,4.453,3.356,7.823
		c0,3.38-1.119,5.999-3.356,7.858C88.331,141.709,85.126,142.639,80.954,142.639z M80.954,140.373c3.361,0,5.938-0.731,7.731-2.194
		c1.793-1.464,2.69-3.526,2.69-6.188c0-2.652-0.897-4.703-2.69-6.152s-4.371-2.174-7.731-2.174h-3.299v16.709H80.954z"/>
</g>
<rect x="142.442" y="121.37" fill="none" width="124.18" height="31.251"/>
<g enable-background="new    ">
	<path fill="#50007E" d="M143.009,123.636v-2.266h15.576v2.266h-6.556v18.975h-2.464v-18.975H143.009z"/>
	<path fill="#50007E" d="M161.417,121.37h6.698c2.294,0,4.087,0.536,5.381,1.607s1.94,2.556,1.94,4.453
		c0,1.473-0.392,2.705-1.175,3.695c-0.784,0.992-1.893,1.681-3.328,2.068l5.438,9.416h-2.875l-5.225-9.063h-4.375v9.063h-2.478
		V121.37z M167.605,131.282c1.718,0,3.028-0.326,3.929-0.977c0.902-0.652,1.353-1.605,1.353-2.861c0-1.246-0.448-2.192-1.345-2.839
		s-2.209-0.97-3.937-0.97h-3.71v7.646H167.605z"/>
	<path fill="#50007E" d="M177.645,142.61l8.298-21.24h2.733l8.298,21.24h-2.662l-2.167-5.537h-9.742l-2.167,5.537H177.645z
		 M185.461,129.229l-2.181,5.578h7.986l-2.181-5.578c-0.387-0.992-0.72-1.879-0.998-2.662c-0.279-0.784-0.55-1.577-0.814-2.379
		c-0.255,0.802-0.524,1.595-0.807,2.379C186.183,127.351,185.848,128.237,185.461,129.229z"/>
	<path fill="#50007E" d="M199.522,121.37h6.287c2.275,0,4.043,0.46,5.303,1.381c1.261,0.92,1.891,2.258,1.891,4.014
		c0,1.124-0.264,2.077-0.793,2.861c-0.529,0.783-1.284,1.387-2.266,1.813c1.246,0.424,2.204,1.083,2.875,1.975
		c0.67,0.893,1.005,1.999,1.005,3.32c0,1.907-0.68,3.363-2.039,4.369c-1.359,1.005-3.262,1.508-5.707,1.508h-6.556V121.37z
		 M202,123.636v6.797h4.135c1.369,0,2.431-0.29,3.186-0.871c0.755-0.58,1.133-1.423,1.133-2.527s-0.377-1.947-1.133-2.527
		c-0.755-0.581-1.817-0.871-3.186-0.871H202z M206.418,140.345c1.539,0,2.733-0.328,3.583-0.984s1.274-1.607,1.274-2.854
		c0-1.236-0.425-2.18-1.274-2.832c-0.85-0.65-2.044-0.977-3.583-0.977H202v7.646H206.418z"/>
	<path fill="#50007E" d="M215.169,142.61l8.298-21.24h2.733l8.298,21.24h-2.662l-2.167-5.537h-9.742l-2.167,5.537H215.169z
		 M222.986,129.229l-2.181,5.578h7.986l-2.181-5.578c-0.387-0.992-0.72-1.879-0.998-2.662c-0.279-0.784-0.55-1.577-0.814-2.379
		c-0.255,0.802-0.524,1.595-0.807,2.379C223.708,127.351,223.373,128.237,222.986,129.229z"/>
	<path fill="#50007E" d="M233.153,145.825c1.454,0,2.466-0.359,3.038-1.076c0.571-0.718,0.856-1.699,0.856-2.945V121.37h2.478
		v20.574c0,1.964-0.486,3.479-1.458,4.546s-2.61,1.601-4.914,1.601V145.825z"/>
	<path fill="#50007E" d="M242.923,131.99c0-1.596,0.274-3.065,0.821-4.411c0.547-1.345,1.317-2.514,2.308-3.504
		c0.991-0.992,2.16-1.761,3.504-2.309c1.346-0.548,2.816-0.821,4.411-0.821s3.065,0.273,4.411,0.821
		c1.345,0.548,2.513,1.316,3.504,2.309c0.991,0.99,1.761,2.159,2.308,3.504c0.547,1.346,0.821,2.815,0.821,4.411
		s-0.274,3.065-0.821,4.411c-0.547,1.345-1.317,2.514-2.308,3.504c-0.991,0.992-2.16,1.761-3.504,2.309
		c-1.346,0.548-2.816,0.821-4.411,0.821s-3.065-0.273-4.411-0.821c-1.345-0.548-2.513-1.316-3.504-2.309
		c-0.991-0.99-1.761-2.159-2.308-3.504C243.197,135.056,242.923,133.586,242.923,131.99z M245.472,131.99
		c0,1.681,0.366,3.184,1.098,4.51c0.731,1.326,1.739,2.37,3.023,3.13s2.742,1.14,4.375,1.14s3.089-0.38,4.368-1.14
		c1.279-0.76,2.287-1.804,3.023-3.13s1.104-2.829,1.104-4.51c0-1.689-0.368-3.195-1.104-4.517c-0.736-1.322-1.744-2.363-3.023-3.123
		c-1.279-0.76-2.735-1.14-4.368-1.14s-3.092,0.38-4.375,1.14s-2.292,1.801-3.023,3.123
		C245.838,128.795,245.472,130.301,245.472,131.99z"/>
</g>
<rect x="339.082" y="121.369" fill="none" width="73.16" height="31.251"/>
<g enable-background="new    ">
	<path fill="#50007E" d="M339.365,142.608l8.298-21.24h2.733l8.298,21.24h-2.662l-2.167-5.537h-9.742l-2.167,5.537H339.365z
		 M347.181,129.228l-2.181,5.578h7.986l-2.181-5.578c-0.387-0.992-0.72-1.879-0.998-2.662c-0.279-0.784-0.55-1.577-0.814-2.379
		c-0.255,0.802-0.524,1.595-0.807,2.379C347.904,127.349,347.569,128.235,347.181,129.228z"/>
	<path fill="#50007E" d="M361.242,121.368h6.698c2.294,0,4.087,0.536,5.381,1.607s1.94,2.556,1.94,4.453
		c0,1.473-0.392,2.705-1.175,3.695c-0.784,0.992-1.893,1.681-3.328,2.068l5.438,9.416h-2.875l-5.225-9.063h-4.375v9.063h-2.478
		V121.368z M367.43,131.28c1.718,0,3.028-0.326,3.929-0.977c0.902-0.652,1.353-1.605,1.353-2.861c0-1.246-0.448-2.192-1.345-2.839
		s-2.209-0.97-3.937-0.97h-3.71v7.646H367.43z"/>
	<path fill="#50007E" d="M377.328,123.634v-2.266h15.577v2.266h-6.557v18.975h-2.464v-18.975H377.328z"/>
	<path fill="#50007E" d="M395.737,121.368h12.178v2.266h-9.7v6.924h9.134v2.266h-9.134v7.52h10.124v2.266h-12.602V121.368z"/>
</g>
<rect x="465.292" y="121.369" fill="none" width="134.385" height="31.251"/>
<g enable-background="new    ">
	<path fill="#50007E" d="M473.336,142.637h-5.777v-21.24h5.777c4.173,0,7.378,0.923,9.614,2.769
		c2.238,1.846,3.356,4.453,3.356,7.823c0,3.38-1.118,5.999-3.356,7.858C480.714,141.707,477.509,142.637,473.336,142.637z
		 M473.336,140.371c3.36,0,5.938-0.731,7.731-2.194c1.793-1.464,2.69-3.526,2.69-6.188c0-2.652-0.897-4.703-2.69-6.152
		s-4.371-2.174-7.731-2.174h-3.3v16.709H473.336z"/>
	<path fill="#50007E" d="M489.705,121.368h12.178v2.266h-9.7v6.924h9.134v2.266h-9.134v7.52h10.125v2.266h-12.603V121.368z"/>
	<path fill="#50007E" d="M506.697,121.368h7.292c2.37,0,4.178,0.583,5.424,1.749s1.869,2.707,1.869,4.623
		c0,1.907-0.623,3.445-1.869,4.616s-3.054,1.756-5.424,1.756h-4.814v8.496h-2.478V121.368z M509.175,123.634v8.213h4.814
		c1.549,0,2.727-0.378,3.533-1.133c0.808-0.755,1.211-1.746,1.211-2.974c0-1.236-0.403-2.23-1.211-2.98
		c-0.807-0.751-1.984-1.126-3.533-1.126H509.175z"/>
	<path fill="#50007E" d="M523.264,131.988c0-1.596,0.273-3.065,0.821-4.411c0.548-1.345,1.317-2.514,2.308-3.504
		c0.992-0.992,2.16-1.761,3.505-2.309c1.346-0.548,2.815-0.821,4.411-0.821s3.065,0.273,4.411,0.821
		c1.345,0.548,2.513,1.316,3.505,2.309c0.99,0.99,1.76,2.159,2.308,3.504c0.548,1.346,0.821,2.815,0.821,4.411
		s-0.273,3.065-0.821,4.411c-0.548,1.345-1.317,2.514-2.308,3.504c-0.992,0.992-2.16,1.761-3.505,2.309
		c-1.346,0.548-2.815,0.821-4.411,0.821s-3.065-0.273-4.411-0.821c-1.345-0.548-2.513-1.316-3.505-2.309
		c-0.99-0.99-1.76-2.159-2.308-3.504C523.538,135.054,523.264,133.584,523.264,131.988z M525.813,131.988
		c0,1.681,0.365,3.184,1.098,4.51c0.731,1.326,1.739,2.37,3.023,3.13c1.283,0.76,2.742,1.14,4.375,1.14s3.09-0.38,4.368-1.14
		c1.279-0.76,2.287-1.804,3.023-3.13s1.104-2.829,1.104-4.51c0-1.689-0.368-3.195-1.104-4.517c-0.736-1.322-1.744-2.363-3.023-3.123
		c-1.278-0.76-2.735-1.14-4.368-1.14s-3.092,0.38-4.375,1.14c-1.284,0.76-2.292,1.801-3.023,3.123
		C526.178,128.793,525.813,130.299,525.813,131.988z"/>
	<path fill="#50007E" d="M548.753,121.368h6.697c2.295,0,4.088,0.536,5.381,1.607c1.294,1.071,1.94,2.556,1.94,4.453
		c0,1.473-0.392,2.705-1.175,3.695c-0.784,0.992-1.893,1.681-3.328,2.068l5.438,9.416h-2.875l-5.225-9.063h-4.375v9.063h-2.479
		V121.368z M554.94,131.28c1.719,0,3.028-0.326,3.93-0.977c0.902-0.652,1.353-1.605,1.353-2.861c0-1.246-0.448-2.192-1.345-2.839
		c-0.897-0.646-2.209-0.97-3.938-0.97h-3.709v7.646H554.94z"/>
	<path fill="#50007E" d="M564.839,123.634v-2.266h15.576v2.266h-6.557v18.975h-2.463v-18.975H564.839z"/>
	<path fill="#50007E" d="M583.247,121.368h12.178v2.266h-9.699v6.924h9.133v2.266h-9.133v7.52h10.124v2.266h-12.603V121.368z"/>
</g>
<rect x="616.794" y="121.369" fill="none" width="166.853" height="57.136"/>
<g enable-background="new    ">
	<path fill="#50007E" d="M668.288,121.368l7.406,18.125l7.406-18.125h2.676l-8.68,21.24h-2.805l-8.68-21.24H668.288z"/>
	<path fill="#50007E" d="M691.37,121.368v21.24h-2.479v-21.24H691.37z"/>
	<path fill="#50007E" d="M701.678,142.637h-5.777v-21.24h5.777c4.172,0,7.377,0.923,9.614,2.769s3.356,4.453,3.356,7.823
		c0,3.38-1.119,5.999-3.356,7.858C709.055,141.707,705.85,142.637,701.678,142.637z M701.678,140.371c3.36,0,5.938-0.731,7.73-2.194
		c1.794-1.464,2.691-3.526,2.691-6.188c0-2.652-0.897-4.703-2.691-6.152c-1.793-1.449-4.37-2.174-7.73-2.174h-3.3v16.709H701.678z"
		/>
	<path fill="#50007E" d="M715.639,142.608l8.299-21.24h2.732l8.298,21.24h-2.662l-2.167-5.537h-9.742l-2.166,5.537H715.639z
		 M723.456,129.228l-2.18,5.578h7.986l-2.182-5.578c-0.387-0.992-0.719-1.879-0.998-2.662c-0.278-0.784-0.55-1.577-0.814-2.379
		c-0.254,0.802-0.523,1.595-0.807,2.379C724.178,127.349,723.844,128.235,723.456,129.228z"/>
</g>
<g enable-background="new    ">
	<path fill="#50007E" d="M626.226,156.169h7.292c2.37,0,4.178,0.583,5.424,1.749s1.869,2.707,1.869,4.623
		c0,1.907-0.623,3.445-1.869,4.616s-3.054,1.756-5.424,1.756h-4.814v8.496h-2.478V156.169z M628.704,158.435v8.213h4.814
		c1.549,0,2.727-0.378,3.533-1.133c0.808-0.755,1.211-1.746,1.211-2.974c0-1.236-0.403-2.23-1.211-2.98
		c-0.807-0.751-1.984-1.126-3.533-1.126H628.704z"/>
	<path fill="#50007E" d="M643.927,156.169h12.178v2.266h-9.699v6.924h9.133v2.266h-9.133v7.52h10.124v2.266h-12.603V156.169z"/>
	<path fill="#50007E" d="M660.919,156.169h6.697c2.295,0,4.088,0.536,5.381,1.607c1.294,1.071,1.94,2.556,1.94,4.453
		c0,1.473-0.392,2.705-1.175,3.695c-0.784,0.992-1.893,1.681-3.328,2.068l5.438,9.416h-2.875l-5.225-9.063h-4.375v9.063h-2.479
		V156.169z M667.106,166.081c1.719,0,3.028-0.326,3.93-0.977c0.902-0.652,1.353-1.605,1.353-2.861c0-1.246-0.448-2.192-1.345-2.839
		c-0.897-0.646-2.209-0.97-3.938-0.97h-3.709v7.646H667.106z"/>
	<path fill="#50007E" d="M679.242,173.374c0.728,0.755,1.548,1.31,2.464,1.663c0.916,0.354,1.817,0.531,2.705,0.531
		c0.858,0,1.654-0.151,2.386-0.453s1.319-0.734,1.763-1.296s0.666-1.234,0.666-2.018c0-0.803-0.232-1.473-0.694-2.011
		s-1.064-1.008-1.806-1.409c-0.74-0.401-1.527-0.785-2.357-1.154c-0.689-0.311-1.373-0.639-2.053-0.983s-1.296-0.741-1.849-1.189
		c-0.552-0.448-0.993-0.979-1.323-1.593c-0.331-0.614-0.496-1.351-0.496-2.209c0-1.152,0.303-2.139,0.906-2.96
		s1.418-1.451,2.442-1.891c1.024-0.438,2.165-0.658,3.42-0.658c0.831,0,1.694,0.102,2.591,0.305
		c0.897,0.203,1.789,0.521,2.677,0.956l-1.005,2.123c-0.661-0.387-1.346-0.67-2.054-0.85c-0.708-0.179-1.397-0.269-2.067-0.269
		c-1.199,0-2.226,0.273-3.08,0.821c-0.854,0.548-1.281,1.331-1.281,2.351c0,0.718,0.217,1.321,0.651,1.813s1.001,0.921,1.699,1.288
		c0.698,0.369,1.444,0.732,2.237,1.091c0.708,0.321,1.416,0.661,2.124,1.02s1.354,0.774,1.94,1.246
		c0.585,0.472,1.055,1.031,1.408,1.678c0.354,0.646,0.531,1.419,0.531,2.315c0,1.189-0.323,2.252-0.97,3.186
		c-0.647,0.936-1.527,1.672-2.642,2.209c-1.113,0.539-2.379,0.808-3.795,0.808c-1.095,0-2.194-0.185-3.299-0.552
		c-1.104-0.369-2.133-0.939-3.087-1.714L679.242,173.374z"/>
	<path fill="#50007E" d="M694.62,166.789c0-1.596,0.273-3.065,0.821-4.411c0.548-1.345,1.317-2.514,2.308-3.504
		c0.992-0.992,2.16-1.761,3.505-2.309c1.346-0.548,2.815-0.821,4.411-0.821s3.065,0.273,4.411,0.821
		c1.345,0.548,2.513,1.316,3.505,2.309c0.99,0.99,1.76,2.159,2.308,3.504c0.548,1.346,0.821,2.815,0.821,4.411
		s-0.273,3.065-0.821,4.411c-0.548,1.345-1.317,2.514-2.308,3.504c-0.992,0.992-2.16,1.761-3.505,2.309
		c-1.346,0.548-2.815,0.821-4.411,0.821s-3.065-0.273-4.411-0.821c-1.345-0.548-2.513-1.316-3.505-2.309
		c-0.99-0.99-1.76-2.159-2.308-3.504C694.893,169.854,694.62,168.385,694.62,166.789z M697.169,166.789
		c0,1.681,0.365,3.184,1.098,4.51c0.731,1.326,1.739,2.37,3.023,3.13c1.283,0.76,2.742,1.14,4.375,1.14s3.09-0.38,4.368-1.14
		c1.279-0.76,2.287-1.804,3.023-3.13s1.104-2.829,1.104-4.51c0-1.689-0.368-3.195-1.104-4.517c-0.736-1.322-1.744-2.363-3.023-3.123
		c-1.278-0.76-2.735-1.14-4.368-1.14s-3.092,0.38-4.375,1.14c-1.284,0.76-2.292,1.801-3.023,3.123
		C697.534,163.594,697.169,165.1,697.169,166.789z"/>
	<path fill="#50007E" d="M722.515,156.169l13.183,17.275v-17.275h2.479v21.24h-2.479l-13.183-17.275v17.275h-2.407v-21.24H722.515z"
		/>
	<path fill="#50007E" d="M740.725,177.409l8.298-21.24h2.733l8.297,21.24h-2.662l-2.166-5.537h-9.742l-2.166,5.537H740.725z
		 M748.542,164.028l-2.181,5.578h7.986l-2.181-5.578c-0.387-0.992-0.72-1.879-0.998-2.662c-0.279-0.784-0.551-1.577-0.814-2.379
		c-0.255,0.802-0.523,1.595-0.807,2.379C749.264,162.149,748.928,163.036,748.542,164.028z"/>
	<path fill="#50007E" d="M775.063,177.409h-12.461v-21.24h2.479v18.975h9.982V177.409z"/>
</g>
<path fill="#50007E" d="M411.6,47.347c-0.341-0.338-0.822-0.494-1.296-0.417l-2.731,0.455v-6.423c0-0.23-0.054-0.458-0.155-0.666
	L401.469,28.4c-0.438-0.733-1.39-0.974-2.123-0.536c-0.222,0.129-0.407,0.316-0.539,0.536l-5.948,11.896
	c-0.102,0.208-0.157,0.435-0.157,0.666v8.903l-9.31,1.553c0.166-0.64,0.251-1.297,0.256-1.957v-6.685
	c-0.014-1.342,0.563-2.621,1.573-3.501c7.083-6.129,7.854-16.836,1.728-23.917c-0.459-0.53-0.949-1.029-1.468-1.499
	c-3.429-3.098-8.031-4.565-12.619-4.018c-7.722,0.977-13.72,7.199-14.415,14.951c-0.548,5.521,1.646,10.962,5.872,14.56
	c0.968,0.873,1.509,2.122,1.484,3.425v6.685c0.003,0.645,0.085,1.286,0.246,1.91l-10.523-1.754V30.552
	c0-0.82-0.666-1.486-1.484-1.486h-0.001H342.14c-0.821-0.001-1.487,0.664-1.487,1.485v0.001v16.585l-1.243-0.208
	c-0.475-0.077-0.955,0.076-1.296,0.417l-8.923,8.922c-0.581,0.582-0.581,1.525,0.001,2.105c0.2,0.201,0.455,0.339,0.733,0.401
	l6.266,1.36v23.953c0,0.688,0.47,1.286,1.14,1.447l37.179,8.923c0.226,0.061,0.466,0.055,0.689-0.018l0.003,0.018l37.179-8.923
	c0.669-0.161,1.14-0.759,1.141-1.447V60.135l6.265-1.36c0.804-0.176,1.311-0.97,1.137-1.773c-0.063-0.277-0.2-0.532-0.401-0.733
	L411.6,47.347z M400.137,32.39l3.541,7.084h-7.083L400.137,32.39z M395.677,42.449h8.923v5.433l-8.923,1.488V42.449z
	 M361.405,25.071c0.56-6.354,5.463-11.463,11.79-12.28c3.747-0.441,7.502,0.754,10.306,3.282c5.729,5.176,6.18,14.017,1.003,19.749
	c-0.382,0.42-0.787,0.818-1.217,1.191c-1.67,1.446-2.625,3.551-2.612,5.76v2.648h-11.9v-2.648c0.036-2.18-0.894-4.266-2.54-5.698
	C362.756,34.108,360.951,29.622,361.405,25.071z M368.775,49.459v-1.063h11.897v1.063c0,0.888-0.238,1.761-0.693,2.527l-5.123,0.854
	l-5.413-0.902C369.008,51.184,368.776,50.329,368.775,49.459z M343.628,43.937h4.46v-2.976h-4.46v-2.975h4.46v-2.974h-4.46v-2.975
	h8.923V49.12l-8.923-1.489V43.937z M339.676,49.99l32.087,5.348l-7.793,7.792l-30.749-6.684L339.676,49.99z M339.166,82.916V60.783
	l24.965,5.427c0.104,0.022,0.21,0.033,0.315,0.033c0.396,0,0.773-0.157,1.052-0.436l7.871-7.871v33.189L339.166,82.916z
	 M410.549,82.916l-34.204,8.208V57.936l7.871,7.871c0.277,0.279,0.656,0.436,1.052,0.436c0.105,0,0.212-0.011,0.315-0.033
	l24.967-5.427L410.549,82.916L410.549,82.916z M385.745,63.131l-7.792-7.792l32.086-5.348l6.455,6.455L385.745,63.131z"/>
<path fill="#50007E" d="M369.922,27.697l-0.668,4.102c-0.134,0.812,0.417,1.574,1.227,1.708c0.329,0.053,0.667-0.006,0.959-0.168
	l3.417-1.887l3.417,1.887c0.499,0.276,1.111,0.242,1.576-0.084c0.464-0.328,0.702-0.894,0.609-1.457l-0.667-4.101l2.821-2.892
	c0.572-0.587,0.563-1.529-0.026-2.103c-0.223-0.216-0.507-0.357-0.813-0.404l-3.84-0.587l-1.731-3.688
	c-0.349-0.743-1.234-1.063-1.978-0.714c-0.314,0.147-0.567,0.4-0.714,0.714l-1.731,3.688l-3.84,0.587
	c-0.811,0.123-1.37,0.883-1.244,1.694c0.047,0.307,0.188,0.592,0.405,0.814L369.922,27.697z M373.014,24.53
	c0.49-0.074,0.911-0.388,1.121-0.837l0.722-1.538l0.722,1.538c0.21,0.449,0.632,0.764,1.119,0.837l1.764,0.271l-1.324,1.358
	c-0.329,0.337-0.479,0.812-0.403,1.278l0.298,1.819l-1.458-0.806c-0.446-0.248-0.99-0.248-1.437,0l-1.456,0.806l0.297-1.819
	c0.075-0.467-0.076-0.94-0.403-1.278l-1.326-1.358L373.014,24.53z"/>
<rect x="373.369" y="2.295" fill="#50007E" width="2.975" height="4.463"/>
<rect x="358.14" y="8.599" transform="matrix(-0.7074 0.7069 -0.7069 -0.7074 621.666 -235.7176)" fill="#50007E" width="2.975" height="4.461"/>
<rect x="387.873" y="9.36" transform="matrix(-0.7071 0.7072 -0.7072 -0.7071 673.5976 -257.3509)" fill="#50007E" width="4.461" height="2.973"/>
<g>
	<path fill="#50007E" d="M557.674,62.609l-14.318-3.779v-4.805c5.229-3.029,8.953-8.111,10.26-14.013h0.511
		c3.401,0,6.155-2.755,6.155-6.157c0-3.398-2.754-6.155-6.155-6.155v-1.969c0.95-0.544,1.536-1.555,1.54-2.648v-3.079
		c-0.003-0.578-0.168-1.143-0.478-1.628c2.508-2.272,2.702-6.146,0.432-8.655c-0.895-0.988-2.084-1.657-3.393-1.906
		c-1.198-3.623-5.105-5.588-8.729-4.389c-0.47,0.154-0.921,0.361-1.348,0.612c-1.819-2.467-5.179-3.219-7.876-1.762
		c-2.136-2.636-6.003-3.044-8.641-0.909c-0.158,0.128-0.311,0.264-0.454,0.408c-3.273-2.712-8.123-2.256-10.835,1.015
		c-1.144,1.379-1.768,3.112-1.77,4.902c0,0.065,0,0.128,0,0.194c-3.281,0.834-5.266,4.17-4.432,7.451
		c0.297,1.169,0.933,2.227,1.828,3.037c-0.31,0.486-0.474,1.052-0.475,1.628v3.079c0.002,1.095,0.59,2.104,1.538,2.648V27.7
		c-3.4,0-6.155,2.756-6.155,6.155c0,3.401,2.756,6.156,6.155,6.156h0.512c1.307,5.902,5.028,10.984,10.26,14.013v4.805
		l-14.312,3.776c-8.796,2.302-14.929,10.25-14.928,19.339v10.387c0,0.851,0.688,1.54,1.538,1.54h76.943
		c0.85,0,1.538-0.689,1.538-1.54V81.945C572.594,72.86,566.465,64.914,557.674,62.609z M511.039,64.856l6.272-1.654
		c0.909,6.863,7.406,12.204,15.271,12.204c7.865,0,14.363-5.341,15.271-12.204l6.273,1.654v25.939h-43.087V64.856z M557.205,33.856
		c0,1.7-1.379,3.078-3.078,3.078v-6.155C555.826,30.779,557.205,32.157,557.205,33.856z M514.104,10.774
		c0.479,0.071,0.964-0.092,1.304-0.438c0.381-0.382,0.533-0.937,0.401-1.458c-0.1-0.386-0.152-0.783-0.153-1.181
		c0.009-2.549,2.082-4.61,4.633-4.603c1.509,0.005,2.919,0.746,3.777,1.985c0.481,0.7,1.439,0.879,2.14,0.397
		c0.231-0.158,0.414-0.376,0.531-0.632c0.717-1.532,2.541-2.193,4.073-1.476c0.729,0.342,1.294,0.956,1.574,1.711
		c0.186,0.505,0.619,0.876,1.146,0.981c0.529,0.11,1.074-0.07,1.437-0.47c0.572-0.627,1.386-0.98,2.233-0.972
		c1.373-0.008,2.58,0.905,2.946,2.229c0.219,0.821,1.063,1.308,1.885,1.087c0.292-0.077,0.56-0.242,0.756-0.472
		c1.396-1.592,3.813-1.753,5.406-0.36c0.691,0.604,1.144,1.439,1.271,2.349c0.136,0.768,0.805,1.326,1.585,1.321
		c1.699,0,3.078,1.379,3.078,3.079c0,1.699-1.379,3.078-3.078,3.078h-36.934c-1.7,0.004-3.08-1.37-3.084-3.071
		C511.029,12.159,512.403,10.777,514.104,10.774z M514.117,20.006h36.963h1.509v3.079h-40.01v-3.079H514.117z M511.039,36.934
		c-1.699,0-3.076-1.377-3.076-3.078c0-1.7,1.379-3.077,3.076-3.077V36.934z M514.117,35.396v-9.232h36.934v9.232
		c0,10.2-8.269,18.467-18.468,18.467C522.385,53.862,514.117,45.596,514.117,35.396z M523.743,61.506
		c0.676-0.179,1.146-0.79,1.146-1.488v-4.523c4.948,1.927,10.439,1.927,15.389,0v4.523c0,0.698,0.471,1.309,1.146,1.488l3.422,0.9
		c-0.499,5.543-5.8,9.922-12.263,9.922c-6.424,0-11.709-4.329-12.257-9.923L523.743,61.506z M495.65,81.946
		c0.002-7.566,5.03-14.208,12.313-16.266v25.115H495.65V81.946z M569.516,90.795h-12.313V65.681
		c7.282,2.056,12.312,8.699,12.312,16.266L569.516,90.795L569.516,90.795z"/>
</g>
<g>
	<path fill="#50007E" d="M47.612,95.266L10.847,58.5c-9.702-9.703-9.702-25.492,0-35.197c4.7-4.7,10.95-7.29,17.599-7.29
		c6.646,0,12.896,2.588,17.598,7.29l1.568,1.568l1.569-1.568c4.696-4.7,10.946-7.29,17.597-7.29c6.646,0,12.897,2.588,17.598,7.29
		c9.704,9.705,9.704,25.494,0,35.197L47.612,95.266z M28.446,18.801c-5.904,0-11.452,2.3-15.625,6.474
		c-8.616,8.618-8.617,22.636-0.002,31.251l34.793,34.795l34.793-34.794c8.614-8.615,8.614-22.633,0-31.251
		c-4.175-4.173-9.723-6.473-15.628-6.473c-5.902,0-11.451,2.3-15.627,6.473l-3.539,3.542l-3.538-3.542
		C39.897,21.102,34.349,18.801,28.446,18.801z M50.275,70.483h-5.26c-1.893,0-3.434-1.538-3.434-3.431v-5.871h-5.867
		c-1.894,0-3.435-1.539-3.435-3.432v-5.261c0-1.892,1.541-3.433,3.435-3.433h5.867v-5.867c0-1.892,1.54-3.431,3.434-3.431h5.26
		c1.894,0,3.434,1.538,3.434,3.431v5.867h5.868c1.894,0,3.432,1.54,3.432,3.433v5.261c0,1.893-1.537,3.432-3.432,3.432h-5.868v5.871
		C53.709,68.944,52.17,70.483,50.275,70.483z M35.715,51.846c-0.354,0-0.644,0.287-0.644,0.641v5.261
		c0,0.354,0.289,0.642,0.644,0.642h8.659v8.661c0,0.352,0.287,0.641,0.642,0.641h5.26c0.354,0,0.641-0.289,0.641-0.641V58.39h8.661
		c0.354,0,0.641-0.288,0.641-0.642v-5.261c0-0.354-0.286-0.641-0.641-0.641h-8.661v-8.659c0-0.354-0.286-0.641-0.641-0.641h-5.26
		c-0.355,0-0.642,0.287-0.642,0.641v8.659H35.715z"/>
</g>
<path fill="#50007E" d="M243.691,27.174h-17.496v-4.376c0-4.377-2.34-8.459-6.59-11.496c-4.101-2.929-9.527-4.542-15.282-4.542
	c-5.754,0-11.181,1.614-15.282,4.542c-4.25,3.035-6.589,7.118-6.589,11.496v4.376h-17.496c-2.413,0-4.375,2.289-4.375,5.104v19.684
	c0,0.692,0.485,1.288,1.163,1.429l0.296,0.061v36.47c0.002,2.388,1.937,4.32,4.324,4.323h75.92c2.387-0.003,4.321-1.936,4.323-4.323
	V53.451l0.295-0.061c0.677-0.14,1.163-0.737,1.163-1.429V32.278C248.065,29.463,246.104,27.174,243.691,27.174z M220.363,27.174
	v-2.917h2.915v2.917H220.363z M191.202,22.798c0-3.951,6.009-7.29,13.122-7.29s13.123,3.338,13.123,7.29v4.376h-26.245V22.798z
	 M204.324,9.677c9.74,0,17.787,5.113,18.837,11.664h-2.957c-1.083-5.008-7.667-8.748-15.88-8.748c-8.214,0-14.799,3.741-15.88,8.748
	h-2.958C186.537,14.789,194.583,9.677,204.324,9.677z M185.368,24.257h2.916v2.917h-2.916V24.257z M163.498,32.278
	c0-1.166,0.683-2.188,1.458-2.188h78.734c0.776,0,1.458,1.022,1.458,2.188v18.497l-33.54,6.939
	c-0.041-0.772-0.679-1.379-1.454-1.379H198.49c-0.773,0-1.413,0.606-1.454,1.379l-33.54-6.939V32.278H163.498z M199.949,62.168
	v-2.917h8.748v2.917H199.949z M201.408,65.084h5.832V68h-5.832V65.084z M243.691,89.921c0,0.777-0.629,1.406-1.406,1.407h-75.92
	c-0.777-0.001-1.406-0.63-1.408-1.407V54.053l32.078,6.636v2.937c0,0.804,0.653,1.458,1.457,1.458v4.375
	c0,0.805,0.653,1.458,1.458,1.458h8.748c0.805,0,1.458-0.653,1.458-1.458v-4.375c0.805,0,1.458-0.653,1.458-1.458v-2.937
	l32.077-6.636V89.921L243.691,89.921z"/>
<g>
	<polygon fill="none" points="677.523,14.947 668.33,14.947 668.33,33.363 677.523,24.107 	"/>
	<path fill="none" d="M700.917,5.135L656.17,50.189c-0.326,0.329-0.224,0.696-0.163,0.838c0.061,0.144,0.247,0.479,0.711,0.479
		h7.132v41.596h9.313V70.8c0-3.285,1.782-6.347,4.65-7.987l0.689-0.395l-0.621-0.491c-2.682-2.126-4.222-5.293-4.222-8.688
		c0-6.113,4.977-11.089,11.091-11.089c6.115,0,11.093,4.976,11.093,11.089c0,3.396-1.539,6.563-4.221,8.688l-0.621,0.493
		l0.687,0.395c1.375,0.784,2.53,1.919,3.342,3.276l0.241,0.403l0.431-0.187c1.291-0.559,2.688-0.821,4.083-0.719l0.692,0.045v-1.95
		c0-4.331,2.607-8.177,6.639-9.797l0.987-0.398l-0.908-0.557c-3.842-2.356-6.138-6.43-6.138-10.899
		c0-7.053,5.741-12.791,12.793-12.791c7.051,0,12.791,5.739,12.791,12.791c0,4.469-2.295,8.543-6.136,10.899l-0.911,0.557
		l0.99,0.398c4.036,1.62,6.643,5.466,6.643,9.797v29.418h9.823V51.506h6.599c0.478,0,0.672-0.335,0.733-0.482
		c0.063-0.142,0.168-0.515-0.16-0.853L700.917,5.135z"/>
	<path fill="none" d="M723.409,42.033c0-5.272-4.29-9.562-9.562-9.562c-5.274,0-9.563,4.29-9.563,9.562
		c0,5.272,4.287,9.561,9.563,9.561C719.119,51.593,723.409,47.304,723.409,42.033z"/>
	<path fill="none" d="M684.747,45.377c-4.333,0-7.856,3.526-7.856,7.859c0,4.335,3.523,7.86,7.856,7.86
		c4.338,0,7.863-3.524,7.863-7.86C692.61,48.901,689.083,45.377,684.747,45.377z"/>
	<path fill="none" d="M699.299,68.793c-3.251,0-5.894,2.641-5.894,5.889c0,3.249,2.643,5.891,5.894,5.891
		c3.245,0,5.89-2.643,5.89-5.891C705.188,71.435,702.545,68.793,699.299,68.793z"/>
	<path fill="#50007E" d="M700.952,0.516l-20.199,20.338v-9.137h-15.653v24.896l-11.221,11.304c-1.14,1.144-1.475,2.851-0.857,4.344
		c0.615,1.492,2.062,2.465,3.684,2.476h3.916V95.67h15.77V70.8c0-3.296,2.682-5.978,5.979-5.978h4.764
		c2.272,0,4.316,1.274,5.338,3.328l0.161,0.318l-0.232,0.27c-1.432,1.656-2.219,3.768-2.219,5.941c0,2.477,0.981,4.793,2.768,6.531
		l0.163,0.157v1.229l-0.221,0.16c-1.973,1.453-3.104,3.681-3.104,6.114v6.794h3.229V88.87c0-1.665,0.936-3.17,2.442-3.927
		c0.44-0.223,0.91-0.369,1.394-0.431l0.138-0.015c0.134-0.017,0.279-0.023,0.422-0.023h3.773c0.143,0,0.288,0.006,0.425,0.024
		l0.241,0.035c2.126,0.315,3.729,2.182,3.729,4.337v6.794h3.23V88.87c0-2.59-1.32-4.988-3.535-6.412l-0.603-0.388l0.546-0.469
		c2.032-1.743,3.198-4.265,3.198-6.923c0-3.179-1.707-6.177-4.454-7.821l-0.263-0.157v-3.022c0-4.042,3.288-7.332,7.332-7.332h5.624
		c4.047,0,7.346,3.29,7.346,7.332v31.986h16.273V54.736h3.372c1.618,0,3.072-0.96,3.704-2.448c0.642-1.507,0.331-3.177-0.807-4.357
		L700.952,0.516z M668.33,14.947h9.193v9.159l-9.193,9.257V14.947z M684.747,61.096c-4.333,0-7.856-3.524-7.856-7.86
		c0-4.334,3.523-7.859,7.856-7.859c4.338,0,7.863,3.526,7.863,7.859C692.61,57.571,689.083,61.096,684.747,61.096z M705.188,74.682
		c0,3.25-2.646,5.891-5.89,5.891c-3.251,0-5.894-2.643-5.894-5.891s2.643-5.889,5.894-5.889
		C702.545,68.793,705.188,71.435,705.188,74.682z M713.847,51.593c-5.274,0-9.563-4.29-9.563-9.562c0-5.273,4.287-9.563,9.563-9.563
		c5.271,0,9.562,4.29,9.562,9.563C723.409,47.304,719.119,51.593,713.847,51.593z M744.381,51.024
		c-0.063,0.147-0.255,0.482-0.733,0.482h-6.599v41.596h-9.823V63.683c0-4.331-2.605-8.177-6.643-9.797l-0.99-0.398l0.911-0.557
		c3.841-2.356,6.136-6.43,6.136-10.899c0-7.053-5.74-12.791-12.791-12.791c-7.052,0-12.793,5.739-12.793,12.791
		c0,4.469,2.296,8.543,6.138,10.899l0.908,0.557l-0.987,0.397c-4.035,1.621-6.639,5.467-6.639,9.798v1.95l-0.692-0.045
		c-1.395-0.102-2.792,0.161-4.083,0.719l-0.431,0.187l-0.241-0.403c-0.813-1.358-1.967-2.492-3.342-3.276l-0.686-0.395l0.62-0.492
		c2.684-2.125,4.222-5.293,4.222-8.688c0-6.113-4.978-11.089-11.094-11.089c-6.113,0-11.09,4.976-11.09,11.089
		c0,3.396,1.54,6.564,4.222,8.688l0.62,0.491l-0.688,0.395c-2.868,1.642-4.65,4.704-4.65,7.987v22.303h-9.313V51.506h-7.132
		c-0.465,0-0.65-0.334-0.711-0.479c-0.061-0.141-0.162-0.509,0.162-0.838l44.748-45.054l43.304,45.036
		C744.549,50.507,744.441,50.881,744.381,51.024z"/>
</g>
</svg>
