<?xml version="1.0" encoding="utf-8"?>
<!-- Generator: Adobe Illustrator 16.0.0, SVG Export Plug-In . SVG Version: 6.00 Build 0)  -->
<!DOCTYPE svg PUBLIC "-//W3C//DTD SVG 1.1//EN" "http://www.w3.org/Graphics/SVG/1.1/DTD/svg11.dtd">
<svg version="1.1" id="Layer_1" xmlns="http://www.w3.org/2000/svg" xmlns:xlink="http://www.w3.org/1999/xlink" x="0px" y="0px"
	 width="801.351px" height="78.842px" viewBox="0 0 801.351 78.842" enable-background="new 0 0 801.351 78.842"
	 xml:space="preserve">
<path fill="#50007E" d="M64.035,34.669c-3.411-3.177-15.326-13.242-29.833-14.063c-0.621-0.036-1.244-0.061-1.873-0.061
	c-0.628,0-1.253,0.024-1.873,0.061C15.951,21.427,4.034,31.493,0.622,34.67C0.221,35.046,0,35.535,0,36.047
	c0,0.514,0.221,1.004,0.623,1.378c3.412,3.177,15.328,13.242,29.833,14.063c0.62,0.035,1.245,0.059,1.873,0.059
	c0.629,0,1.251-0.021,1.873-0.059c14.507-0.821,26.423-10.888,29.833-14.063c0.402-0.375,0.624-0.864,0.624-1.378
	C64.657,35.535,64.438,35.044,64.035,34.669z M1.643,36.328c-0.066-0.062-0.145-0.161-0.145-0.281c0-0.118,0.079-0.218,0.145-0.279
	c2.74-2.553,11.124-9.676,21.852-12.523c-4.062,2.812-6.732,7.499-6.732,12.802c0,5.304,2.669,9.99,6.732,12.802
	C12.766,46.002,4.383,38.88,1.643,36.328z M34.052,49.996c-0.566,0.069-1.14,0.115-1.724,0.115c-0.584,0-1.158-0.046-1.724-0.115
	c-6.943-0.855-12.342-6.779-12.342-13.949c0-7.169,5.398-13.093,12.342-13.948c0.566-0.069,1.14-0.117,1.724-0.117
	c0.584,0,1.158,0.048,1.724,0.117c6.944,0.855,12.34,6.779,12.34,13.948C46.393,43.217,40.995,49.141,34.052,49.996z M63.013,36.326
	c-2.741,2.554-11.122,9.677-21.853,12.522c4.063-2.811,6.734-7.498,6.734-12.802c0-5.303-2.671-9.99-6.734-12.802
	c10.73,2.846,19.111,9.969,21.853,12.523c0.065,0.062,0.145,0.161,0.145,0.279C63.158,36.167,63.079,36.266,63.013,36.326z
	 M32.328,27.966c-4.463,0-8.08,3.62-8.08,8.081c0,4.463,3.617,8.081,8.08,8.081c4.462,0,8.081-3.618,8.081-8.081
	C40.409,31.585,36.791,27.966,32.328,27.966z M34.983,36.029c-1.421,0-2.571-1.15-2.571-2.571c0-1.418,1.15-2.569,2.571-2.569
	c1.418,0,2.569,1.15,2.569,2.569C37.552,34.878,36.401,36.029,34.983,36.029z"/>
<g>
	<g>
		<path fill="#50007E" d="M136.342,37.703h-8.724c-0.603,0-1.09,0.487-1.09,1.09V54.06c0,0.603,0.488,1.091,1.09,1.091h8.724
			c0.602,0,1.09-0.488,1.09-1.091V38.793C137.432,38.19,136.944,37.703,136.342,37.703z M135.252,52.97h-6.543V39.884h6.543V52.97z"
			/>
		<path fill="#50007E" d="M149.428,33.34h-8.724c-0.602,0-1.09,0.488-1.09,1.09V54.06c0,0.603,0.489,1.091,1.09,1.091h8.724
			c0.602,0,1.09-0.488,1.09-1.091V34.431C150.518,33.829,150.029,33.34,149.428,33.34z M148.337,52.97h-6.543V35.521h6.543V52.97z"
			/>
		<path fill="#50007E" d="M162.513,26.798h-8.724c-0.603,0-1.09,0.489-1.09,1.09V54.06c0,0.603,0.488,1.091,1.09,1.091h8.724
			c0.603,0,1.091-0.488,1.091-1.091V27.889C163.604,27.286,163.116,26.798,162.513,26.798z M161.422,52.97h-6.543v-23.99h6.543
			V52.97z"/>
		<path fill="#50007E" d="M175.599,18.074h-8.724c-0.604,0-1.091,0.489-1.091,1.09v34.894c0,0.603,0.487,1.091,1.091,1.091h8.724
			c0.602,0,1.09-0.488,1.09-1.091V19.165C176.689,18.563,176.2,18.074,175.599,18.074z M174.508,52.97h-6.543V20.254h6.543V52.97z"
			/>
		<path fill="#50007E" d="M168.761,13.713c0.604,0,1.09-0.489,1.09-1.091V6.079c0-0.023-0.012-0.041-0.013-0.063
			c-0.005-0.076-0.023-0.147-0.045-0.22c-0.019-0.066-0.031-0.13-0.061-0.19c-0.028-0.06-0.07-0.11-0.109-0.162
			c-0.046-0.063-0.091-0.125-0.149-0.175c-0.019-0.016-0.025-0.035-0.042-0.048c-0.036-0.028-0.082-0.038-0.12-0.06
			c-0.065-0.039-0.127-0.077-0.201-0.101c-0.072-0.024-0.143-0.035-0.217-0.044c-0.044-0.006-0.087-0.028-0.133-0.028h-6.248
			c-0.603,0-1.091,0.489-1.091,1.091s0.488,1.09,1.091,1.09h3.916c-6.724,7.652-21.605,19.629-38.811,19.629
			c-0.603,0-1.09,0.488-1.09,1.09s0.489,1.091,1.09,1.091c17.627,0,32.87-11.961,40.052-19.922v3.565
			C167.67,13.224,168.157,13.713,168.761,13.713z"/>
	</g>
</g>
<path fill="#50007E" d="M453.593,26.829c0.341,0,0.638-0.248,0.691-0.595l0.549-3.614c0.057-0.382-0.205-0.738-0.589-0.797
	c-0.382-0.056-0.737,0.206-0.795,0.587l-0.549,3.614c-0.06,0.382,0.204,0.739,0.586,0.797
	C453.523,26.826,453.559,26.829,453.593,26.829z"/>
<path fill="#50007E" d="M449.231,22.945c-0.358,0.148-0.527,0.558-0.379,0.915l0.94,2.258c0.112,0.27,0.372,0.431,0.646,0.431
	c0.091,0,0.181-0.017,0.269-0.053c0.356-0.149,0.525-0.559,0.378-0.916l-0.94-2.258C449.997,22.966,449.586,22.796,449.231,22.945z"
	/>
<path fill="#50007E" d="M457.132,27.62l1.421-1.649c0.251-0.292,0.219-0.734-0.075-0.987c-0.292-0.251-0.733-0.219-0.985,0.074
	l-1.421,1.649c-0.251,0.293-0.22,0.734,0.074,0.987c0.131,0.114,0.294,0.17,0.455,0.17C456.798,27.864,456.994,27.782,457.132,27.62
	z"/>
<path fill="#50007E" d="M463.729,33.202c0.397-0.156,0.595-0.604,0.439-1.004c-0.155-0.398-0.604-0.595-1.004-0.44
	c-0.848,0.331-1.501,0.657-2.077,0.943c-0.21,0.104-0.413,0.205-0.614,0.301c-1.711-2.667-5.29-4.323-9.555-4.367
	c-0.057,0-0.113,0-0.168,0c-4.061,0-7.603,1.527-9.335,3.97c-0.612-0.303-1.194-0.321-1.908-0.211
	c1.771-4.227,1.263-7.207,0.769-10.099c-0.263-1.541-0.516-3.03-0.401-4.683c1.921,1.283,8.067,1.44,10.19,0.401
	c0.09-0.043,0.169-0.104,0.237-0.178c3.343-3.725,3.282-7.606-0.184-11.864c-0.11-0.134-0.261-0.229-0.431-0.267
	c-4.586-1.025-9.037-1.772-13.093,0.309c-0.053,0.026-0.102,0.06-0.147,0.097c-5.713,4.832-9.266,12.885-12.997,22.138
	c-2.111,5.241-0.661,10.695,0.739,15.97c0.265,0.994,0.538,2.022,0.786,3.039c0.065,0.278,0.281,0.495,0.558,0.567
	c0.243,0.063,0.48,0.136,0.72,0.21c1.226,0.376,2.604,0.799,4.454-0.068c6.694,4.197,13.84,6.311,21.313,6.311
	c1.775,0,3.571-0.119,5.382-0.358c0.424-0.056,0.722-0.445,0.666-0.869c-0.057-0.426-0.447-0.722-0.87-0.667
	c-9.33,1.231-17.846-0.717-26.031-5.96c-0.24-0.154-0.545-0.164-0.796-0.026c-1.487,0.826-2.446,0.531-3.663,0.158
	c-0.112-0.035-0.225-0.069-0.337-0.103c-0.22-0.886-0.455-1.771-0.684-2.63c-1.397-5.261-2.717-10.231-0.799-14.993
	c3.636-9.021,7.089-16.865,12.492-21.475c3.501-1.757,7.531-1.117,11.701-0.194c2.783,3.526,2.834,6.478,0.169,9.523
	c-1.976,0.831-7.341,0.393-8.421-0.271c-0.052-0.748-0.02-2.444-0.006-2.812c0.01-0.228-0.079-0.454-0.254-0.612
	c-0.24-0.218-0.59-0.264-0.876-0.116c-0.226,0.116-0.334,0.172-0.386,0.455c-1.498,3.747-1.022,6.534-0.563,9.232
	c0.529,3.094,1.026,6.015-1.28,10.558c-0.138,0.268-0.106,0.589,0.077,0.825c0.185,0.237,0.488,0.346,0.78,0.283l0.331-0.074
	c1.354-0.303,1.747-0.371,2.203-0.083c-0.022,0.952,0.109,3.175,1.661,4.619c0.149,0.139,0.339,0.208,0.527,0.208
	c0.207,0,0.415-0.083,0.566-0.246c0.293-0.314,0.274-0.804-0.039-1.095c-1.199-1.116-1.189-3.072-1.16-3.621
	c1.289-2.286,4.524-3.745,8.331-3.745c0.053,0,0.104,0,0.156,0c3.955,0.041,7.313,1.673,8.553,4.158
	c0.181,0.364,0.612,0.526,0.99,0.37c0.467-0.194,0.888-0.403,1.333-0.625C462.352,33.803,462.946,33.508,463.729,33.202z"/>
<path fill="#50007E" d="M288.234,12.959c1.04-0.014,2.018-0.501,2.655-1.323c0.699-0.915,1.005-2.068,0.857-3.208
	c-0.269-2.245-2.08-3.904-4.108-3.676c-0.905,0.11-1.728,0.579-2.283,1.302c-0.699,0.915-1.007,2.068-0.857,3.208
	C284.75,11.369,286.356,12.959,288.234,12.959z M286.79,7.188c0.289-0.384,0.74-0.616,1.221-0.629c0.937,0,1.781,0.916,1.92,2.085
	c0.092,0.657-0.078,1.325-0.475,1.858c-0.255,0.34-0.636,0.562-1.058,0.619c-1.003,0.112-1.937-0.838-2.084-2.076
	C286.223,8.387,286.393,7.72,286.79,7.188z"/>
<path fill="#50007E" d="M336.662,33.248c-0.237-0.171-0.54-0.221-0.818-0.132l-56.685,18.166c-0.379,0.121-0.636,0.473-0.636,0.87
	v1.949c0,0.505,0.41,0.914,0.915,0.914s0.914-0.409,0.914-0.914v-1.282l54.857-17.579v18.861c0,0.505,0.41,0.914,0.914,0.914
	s0.914-0.409,0.914-0.914V33.988C337.037,33.695,336.897,33.42,336.662,33.248z"/>
<path fill="#50007E" d="M290.908,14.026c-0.633,0.391-1.344,0.639-2.083,0.727l5.773,4.316c0.247,0.185,0.572,0.231,0.862,0.127
	c0,0,5.887-2.15,5.89-2.15c0.449-0.171,0.951,0.053,1.123,0.501c0,0.003,0.001,0.007,0.004,0.01
	c0.154,0.483-0.105,1.002-0.585,1.169l-7.136,2.582l-4.709-2.719c-0.437-0.251-0.996-0.1-1.248,0.338
	c-0.251,0.437-0.101,0.994,0.334,1.246l1.79,1.032l0.509,4.644c0.103,0.713,0.468,1.365,1.023,1.826l4.354,3.36
	c0.22,0.197,0.393,0.444,0.5,0.72l3.353,10.716l1.742-0.558l-3.349-10.705c-0.22-0.634-0.611-1.196-1.129-1.623l-4.354-3.36
	c-0.161-0.156-0.273-0.356-0.322-0.577l-0.364-3.312l1.325,0.767c0.234,0.134,0.515,0.158,0.77,0.067l5.344-1.934l4.122,20.021
	l1.751-0.561l-4.135-20.09l0.452-0.164c1.414-0.51,2.165-2.053,1.692-3.48c-0.23-0.68-0.726-1.235-1.373-1.542
	c-0.585-0.279-1.25-0.339-1.875-0.167l-0.509-2.479c-0.103-0.495-0.586-0.813-1.08-0.711c-0.495,0.102-0.813,0.586-0.711,1.08l0,0
	l0.563,2.734l-3.922,1.431L290.908,14.026z"/>
<path fill="#50007E" d="M285.616,47.292l2.403-11.242c0.021-0.104,0.026-0.21,0.012-0.315l-0.264-1.925l-1.281-0.516
	c-0.237-0.099-0.464-0.215-0.682-0.35l0.393,2.879l-2.588,12.112L285.616,47.292z"/>
<polygon fill="#50007E" points="288.332,46.422 290.426,45.75 292.721,37.763 291.945,35.497 291.519,35.325 "/>
<path fill="#50007E" d="M280.967,28.197c0.185,0.754,0.663,1.403,1.328,1.805c0.542,0.319,1.19,0.408,1.798,0.247l1.267-0.35
	c0.398,0.751,1.035,1.35,1.811,1.698l6.233,2.516l3.296,9.626l1.742-0.56L295,33.125c-0.085-0.251-0.276-0.452-0.523-0.552
	l-6.621-2.672c-0.533-0.271-0.922-0.759-1.069-1.339l-2.083-12.61c-0.045-0.408,0.185-0.797,0.563-0.958l1.358-0.471
	c-0.76-0.253-1.456-0.669-2.039-1.22c-1.172,0.478-1.868,1.692-1.686,2.945l0.022,0.137l-1.087,0.304l-0.117-0.358
	c-0.153-0.481-0.667-0.746-1.148-0.593c-0.481,0.154-0.747,0.668-0.593,1.149c0,0.003,0.002,0.007,0.003,0.012l0.147,0.451
	c-0.924,0.685-1.342,1.86-1.059,2.975L280.967,28.197z M284.863,28.139l-1.255,0.347c-0.426,0.117-0.78-0.376-0.866-0.73l-1.9-7.872
	c-0.143-0.508,0.141-1.039,0.644-1.2l1.736-0.483L284.863,28.139z"/>
<g>
	<path fill="#50007E" d="M571.622,44.486c9.775-1.956,16.871-10.611,16.871-20.581v-4.341c0-1.915-1.558-3.473-3.474-3.473
		c-1.914,0-3.472,1.558-3.472,3.473v0.113c-1.006,0.315-1.736,1.257-1.736,2.365c0,0.944,0.524,1.793,1.369,2.217l0.356,0.177
		c-0.256,5.746-4.657,10.436-10.436,11.015l-5.351,0.534l-0.241-1.209c2.27-0.882,3.885-3.085,3.885-5.663v-0.869
		c1.915,0,3.472-1.557,3.472-3.472c0-0.683-0.204-1.315-0.546-1.852c0.35-1.355,0.536-2.748,0.544-4.148l1.899-14.25l-7.664,1.916
		L561.581,0l-5.518,6.438l-7.665-1.914l1.9,14.252c0.006,1.399,0.194,2.792,0.542,4.147c-0.341,0.536-0.545,1.168-0.545,1.851
		c0,1.915,1.558,3.473,3.472,3.473v0.868c0,2.577,1.616,4.78,3.886,5.662l-0.242,1.209l-5.349-0.535
		c-5.779-0.578-10.181-5.269-10.436-11.015l0.355-0.178c0.845-0.422,1.369-1.271,1.369-2.216c0-1.107-0.731-2.049-1.736-2.365
		v-0.113c0-1.915-1.558-3.473-3.473-3.473c-1.916,0-3.473,1.558-3.473,3.473v4.341c0,9.97,7.095,18.625,16.872,20.581l0.49,0.098
		v7.969l0.007,1.737h18.988l0.104-1.737v-7.969L571.622,44.486z M582.29,21.3h0.995v-1.736c0-0.958,0.777-1.736,1.735-1.736
		c0.957,0,1.736,0.778,1.736,1.736v4.341c0,0.292-0.025,0.579-0.037,0.868h-3.476c0.018-0.289,0.041-0.576,0.041-0.868v-0.537
		l-1.325-0.663c-0.255-0.125-0.412-0.38-0.412-0.663C581.547,21.634,581.879,21.3,582.29,21.3z M559.777,38.733l-2.057,1.233
		l-0.76-2.282l0.902,0.091L559.777,38.733z M561.448,43.872h0.267l1.447,8.681H560L561.448,43.872z M561.913,42.135h-0.663
		l-0.87-1.74l1.201-0.72l1.201,0.72L561.913,42.135z M563.383,38.733l1.915-0.958l0.903-0.091l-0.76,2.282L563.383,38.733z
		 M552.323,21.625c-0.135-0.68-0.223-1.369-0.262-2.061h2.189c-0.298,0.513-0.482,1.1-0.482,1.736
		C553.251,21.3,552.764,21.422,552.323,21.625z M557.239,15.224c0-2.394,1.949-4.341,4.342-4.341c1.327,0,2.501,0.612,3.298,1.551
		l-3.298,3.298l-1.99-1.99l-1.228,1.228l3.218,3.217l4.155-4.154c0.109,0.382,0.186,0.774,0.186,1.191
		c0,2.393-1.946,4.341-4.341,4.341C559.188,19.564,557.239,17.617,557.239,15.224z M565.826,19.564h5.274
		c-0.04,0.692-0.127,1.381-0.262,2.061c-0.441-0.203-0.927-0.325-1.443-0.325h-0.664l-3.107-1.552
		C565.692,19.687,565.761,19.628,565.826,19.564z M569.395,26.509v-3.473c0.956,0,1.735,0.779,1.735,1.737
		S570.351,26.509,569.395,26.509z M556.682,8.384l4.898-5.716l4.899,5.716l6.225-1.558l-1.466,11.002h-4.175
		c0.377-0.791,0.594-1.672,0.594-2.605c0-0.91-0.207-1.771-0.566-2.546l2.048-2.048l-1.228-1.227l-1.793,1.793
		c-1.113-1.252-2.733-2.048-4.538-2.048c-3.35,0-6.076,2.728-6.076,6.077c0,0.933,0.217,1.814,0.594,2.605h-4.175l-1.467-11.002
		L556.682,8.384z M552.032,24.773c0-0.958,0.779-1.737,1.735-1.737v3.473C552.811,26.509,552.032,25.731,552.032,24.773z
		 M555.503,29.114V21.3c0-0.957,0.779-1.736,1.735-1.736h0.098c1.097,1.072,2.594,1.736,4.244,1.736
		c0.826,0,1.614-0.167,2.333-0.467l3.743,1.871v6.409c0,2.393-1.947,4.341-4.34,4.341h-3.474
		C557.452,33.455,555.503,31.506,555.503,29.114z M559.845,35.191h3.473c0.168,0,0.335-0.013,0.498-0.025l0.255,1.282l-2.49,1.245
		l-2.49-1.245l0.256-1.282C559.51,35.178,559.676,35.191,559.845,35.191z M536.406,19.564c0-0.958,0.778-1.736,1.736-1.736
		c0.957,0,1.736,0.778,1.736,1.736V21.3h0.994c0.408,0,0.741,0.333,0.741,0.741c0,0.283-0.157,0.537-0.409,0.663l-1.326,0.664v0.536
		c0,0.293,0.023,0.58,0.041,0.869h-3.477c-0.013-0.29-0.037-0.577-0.037-0.869V19.564z M552.032,41.268v1.545l-0.15-0.03
		c-8.103-1.621-14.18-8.263-15.28-16.274h3.533c1.113,5.67,5.794,10.072,11.755,10.669l3.178,0.318l1.693,5.072l2.127-1.275
		l0.923,1.846l-1.569,9.414h-4.474V41.268H552.032z M564.92,52.553l-1.569-9.414l0.924-1.846l2.127,1.275l1.692-5.072l3.179-0.318
		c5.959-0.597,10.642-4.999,11.755-10.669h3.532c-1.101,8.011-7.177,14.653-15.28,16.274l-0.15,0.031v-1.546h-1.735v11.285H564.92
		L564.92,52.553z"/>
	<circle fill="#50007E" cx="558.109" cy="23.905" r="0.868"/>
	<circle fill="#50007E" cx="565.052" cy="23.905" r="0.868"/>
	<path fill="#50007E" d="M565.92,27.378v-0.869h-8.682v0.869c0,2.393,1.949,4.34,4.342,4.34
		C563.975,31.718,565.92,29.771,565.92,27.378z M559.125,28.245h4.911c-0.358,1.012-1.324,1.737-2.456,1.737
		S559.483,29.256,559.125,28.245z"/>
</g>
<g>
	<path fill="#50007E" d="M748.578,38.082c1.987-2.166,1.987-5.668,0-7.832l-7.829-8.506c3.396-3.909,3.232-10.069-0.365-13.759
		c-3.523-3.613-9.054-3.529-12.481,0.194l-4.214,4.578l-4.212-4.578c-3.498-3.804-9.17-3.807-12.669-0.008
		c-3.434,3.725-3.513,9.742-0.179,13.572L698.8,30.25c-1.988,2.164-1.988,5.667,0,7.832l5.544,6.024v0.569h-0.879
		c-0.484,0-0.879,0.428-0.879,0.955v9.55h1.758v-8.595h15.823v8.595h1.759v-9.55c0-0.527-0.394-0.955-0.879-0.955h-0.88v-3.82
		c-0.002-2.796-1.858-5.182-4.395-5.651v-3.516l2.74,2.977c2.861,3.1,7.491,3.1,10.352,0l2.74-2.977v3.516
		c-2.536,0.469-4.392,2.854-4.396,5.651v3.82h-0.879c-0.484,0-0.879,0.428-0.879,0.955v9.55h1.758v-8.595h15.824v8.595h1.758v-9.55
		c0-0.527-0.394-0.955-0.879-0.955h-0.879v-0.569L748.578,38.082z M718.41,40.856v3.82h-12.306v-0.964
		c0-0.254-0.094-0.497-0.259-0.676l-5.804-6.306c-1.301-1.417-1.301-3.713,0-5.13l7.824-8.501l1.358,1.476
		c-0.325,0.59-0.496,1.267-0.496,1.955v2.854l-3.416,3.71l1.243,1.351l2.172-2.36v3.995h1.758v-9.551
		c0.001-1.057,0.788-1.914,1.76-1.917h0.005c0.976,0,1.765,0.858,1.765,1.917v9.551c0,0.527,0.393,0.955,0.879,0.955
		C716.834,37.038,718.407,38.746,718.41,40.856z M727.622,33.314c-2.174,2.356-5.692,2.356-7.867,0l-3.982-4.328v-2.458
		c0-2.114-1.576-3.826-3.522-3.827h-0.009c-0.621,0.001-1.233,0.183-1.768,0.525l-2.426-2.634
		c-2.833-3.032-2.868-7.986-0.076-11.065c2.791-3.077,7.35-3.115,10.184-0.082c0.025,0.027,0.051,0.055,0.076,0.082l4.836,5.254
		c0.343,0.372,0.899,0.372,1.242,0l0,0l4.836-5.254c2.802-3.066,7.36-3.084,10.184-0.041c2.822,3.044,2.84,7.998,0.038,11.064
		c-0.013,0.015-0.024,0.027-0.038,0.041l-2.425,2.635c-0.536-0.343-1.146-0.525-1.769-0.525h-0.009
		c-1.945,0-3.521,1.712-3.522,3.826v2.458L727.622,33.314z M728.967,44.675v-3.82c0.002-2.11,1.574-3.818,3.517-3.821
		c0.484,0,0.879-0.428,0.879-0.956v-9.549c0-1.059,0.789-1.917,1.764-1.917l0,0h0.006c0.972,0.004,1.758,0.861,1.76,1.917v9.551
		h1.759v-3.995l2.171,2.36l1.244-1.351l-3.415-3.71V26.53c0-0.688-0.173-1.365-0.498-1.955l1.357-1.476l7.825,8.501
		c1.302,1.417,1.302,3.713,0,5.13l-5.803,6.306c-0.164,0.178-0.257,0.422-0.257,0.676v0.964L728.967,44.675L728.967,44.675z"/>
</g>
<rect x="5" y="62.983" fill="none" width="55.119" height="12.104"/>
<text transform="matrix(1 0 0 1 5 74.7012)" fill="#50007E" font-family="'KumbhSans-Regular'" font-size="16">VISIÓN</text>
<rect x="98.118" y="62.983" fill="none" width="121.285" height="12.104"/>
<text transform="matrix(1 0 0 1 98.1182 74.7012)" fill="#50007E" font-family="'KumbhSans-Regular'" font-size="16">DESARROLLO</text>
<rect x="242.637" y="62.983" fill="none" width="133.118" height="12.104"/>
<text transform="matrix(1 0 0 1 242.6372 74.7012)" fill="#50007E" font-family="'KumbhSans-Regular'" font-size="16">PERSEVERANCIA</text>
<rect x="412.234" y="62.983" fill="none" width="62.618" height="12.104"/>
<text transform="matrix(1 0 0 1 412.2339 74.7012)" fill="#50007E" font-family="'KumbhSans-Regular'" font-size="16">FUERZA</text>
<rect x="513.4" y="62.983" fill="none" width="96.118" height="12.104"/>
<text transform="matrix(1 0 0 1 513.3999 74.7012)" fill="#50007E" font-family="'KumbhSans-Regular'" font-size="16">CONFIANZA</text>
<rect x="650.4" y="62.983" fill="none" width="150.951" height="12.104"/>
<text transform="matrix(1 0 0 1 650.3999 74.7012)" fill="#50007E" font-family="'KumbhSans-Regular'" font-size="16">FE EN UNO MISMO</text>
</svg>
