<?xml version="1.0" encoding="utf-8"?>
<!-- Generator: Adobe Illustrator 16.0.0, SVG Export Plug-In . SVG Version: 6.00 Build 0)  -->
<!DOCTYPE svg PUBLIC "-//W3C//DTD SVG 1.1//EN" "http://www.w3.org/Graphics/SVG/1.1/DTD/svg11.dtd">
<svg version="1.1" id="Layer_1" xmlns="http://www.w3.org/2000/svg" xmlns:xlink="http://www.w3.org/1999/xlink" x="0px" y="0px"
	 width="801.352px" height="78.842px" viewBox="0 0 801.352 78.842" enable-background="new 0 0 801.352 78.842"
	 xml:space="preserve">
<path fill="#50007E" d="M64.035,34.669c-3.411-3.177-15.326-13.242-29.833-14.063c-0.621-0.036-1.244-0.061-1.873-0.061
	c-0.628,0-1.253,0.024-1.873,0.061C15.951,21.427,4.034,31.493,0.622,34.67C0.221,35.046,0,35.535,0,36.047
	c0,0.514,0.222,1.004,0.623,1.378c3.412,3.178,15.328,13.242,29.833,14.063c0.62,0.035,1.245,0.06,1.873,0.06
	c0.629,0,1.251-0.021,1.873-0.06c14.507-0.82,26.423-10.887,29.833-14.063c0.402-0.375,0.624-0.864,0.624-1.378
	C64.657,35.535,64.438,35.044,64.035,34.669z M1.643,36.328c-0.066-0.062-0.146-0.161-0.146-0.281c0-0.118,0.079-0.218,0.146-0.279
	c2.739-2.553,11.124-9.676,21.852-12.523c-4.062,2.812-6.731,7.499-6.731,12.802c0,5.304,2.669,9.99,6.731,12.802
	C12.766,46.002,4.383,38.88,1.643,36.328z M34.052,49.996c-0.565,0.069-1.14,0.114-1.724,0.114s-1.158-0.045-1.724-0.114
	c-6.943-0.854-12.342-6.779-12.342-13.949c0-7.169,5.397-13.093,12.342-13.948c0.565-0.069,1.14-0.117,1.724-0.117
	s1.158,0.048,1.724,0.117c6.944,0.855,12.341,6.779,12.341,13.948C46.393,43.217,40.995,49.142,34.052,49.996z M63.013,36.326
	c-2.741,2.554-11.122,9.677-21.854,12.522c4.063-2.812,6.734-7.498,6.734-12.803c0-5.303-2.671-9.99-6.734-12.802
	c10.73,2.846,19.111,9.969,21.854,12.523c0.064,0.062,0.145,0.161,0.145,0.279C63.158,36.167,63.079,36.266,63.013,36.326z
	 M32.328,27.966c-4.463,0-8.08,3.62-8.08,8.081c0,4.463,3.617,8.081,8.08,8.081c4.462,0,8.081-3.618,8.081-8.081
	C40.409,31.585,36.791,27.966,32.328,27.966z M34.983,36.029c-1.421,0-2.571-1.15-2.571-2.571c0-1.418,1.15-2.569,2.571-2.569
	c1.418,0,2.569,1.15,2.569,2.569C37.552,34.878,36.401,36.029,34.983,36.029z"/>
<g>
	<g>
		<path fill="#50007E" d="M136.342,37.703h-8.724c-0.603,0-1.09,0.487-1.09,1.09V54.06c0,0.604,0.488,1.092,1.09,1.092h8.724
			c0.603,0,1.091-0.488,1.091-1.092V38.793C137.432,38.19,136.944,37.703,136.342,37.703z M135.252,52.97h-6.543V39.884h6.543V52.97
			z"/>
		<path fill="#50007E" d="M149.428,33.34h-8.725c-0.602,0-1.09,0.488-1.09,1.09V54.06c0,0.604,0.489,1.092,1.09,1.092h8.725
			c0.602,0,1.09-0.488,1.09-1.092V34.431C150.518,33.829,150.029,33.34,149.428,33.34z M148.337,52.97h-6.543V35.521h6.543V52.97z"
			/>
		<path fill="#50007E" d="M162.513,26.798h-8.725c-0.603,0-1.09,0.489-1.09,1.09V54.06c0,0.604,0.488,1.092,1.09,1.092h8.725
			c0.603,0,1.091-0.488,1.091-1.092v-26.17C163.604,27.286,163.116,26.798,162.513,26.798z M161.422,52.97h-6.543V28.98h6.543V52.97
			z"/>
		<path fill="#50007E" d="M175.599,18.074h-8.725c-0.604,0-1.091,0.489-1.091,1.09v34.894c0,0.604,0.487,1.092,1.091,1.092h8.725
			c0.602,0,1.09-0.488,1.09-1.092V19.165C176.689,18.563,176.2,18.074,175.599,18.074z M174.508,52.97h-6.543V20.254h6.543V52.97z"
			/>
		<path fill="#50007E" d="M168.761,13.713c0.604,0,1.09-0.489,1.09-1.091V6.079c0-0.023-0.013-0.041-0.014-0.063
			c-0.005-0.076-0.022-0.147-0.045-0.22c-0.019-0.066-0.03-0.13-0.061-0.19c-0.028-0.06-0.07-0.11-0.109-0.162
			c-0.046-0.063-0.091-0.125-0.148-0.175c-0.02-0.016-0.025-0.035-0.042-0.048c-0.036-0.028-0.082-0.038-0.12-0.06
			c-0.065-0.039-0.127-0.077-0.201-0.101c-0.072-0.024-0.144-0.035-0.217-0.044c-0.044-0.006-0.087-0.028-0.133-0.028h-6.248
			c-0.604,0-1.092,0.489-1.092,1.091s0.488,1.09,1.092,1.09h3.916c-6.725,7.652-21.605,19.629-38.812,19.629
			c-0.603,0-1.09,0.488-1.09,1.09s0.489,1.091,1.09,1.091c17.627,0,32.87-11.961,40.052-19.922v3.565
			C167.67,13.224,168.157,13.713,168.761,13.713z"/>
	</g>
</g>
<path fill="#50007E" d="M453.594,26.829c0.341,0,0.638-0.248,0.69-0.595l0.549-3.614c0.058-0.382-0.204-0.738-0.589-0.797
	c-0.382-0.056-0.736,0.206-0.795,0.587l-0.549,3.614c-0.06,0.382,0.204,0.739,0.586,0.797
	C453.523,26.826,453.559,26.829,453.594,26.829z"/>
<path fill="#50007E" d="M449.231,22.945c-0.358,0.148-0.527,0.558-0.379,0.915l0.939,2.258c0.112,0.27,0.372,0.431,0.646,0.431
	c0.091,0,0.181-0.017,0.269-0.053c0.356-0.149,0.525-0.559,0.379-0.916l-0.94-2.258C449.997,22.966,449.587,22.796,449.231,22.945z"
	/>
<path fill="#50007E" d="M457.133,27.62l1.421-1.649c0.251-0.292,0.219-0.734-0.075-0.987c-0.292-0.251-0.733-0.219-0.985,0.074
	l-1.421,1.649c-0.251,0.293-0.22,0.734,0.074,0.987c0.131,0.114,0.294,0.17,0.455,0.17C456.799,27.864,456.994,27.782,457.133,27.62
	z"/>
<path fill="#50007E" d="M463.729,33.202c0.397-0.156,0.595-0.604,0.439-1.004c-0.155-0.398-0.604-0.595-1.005-0.44
	c-0.848,0.331-1.501,0.657-2.076,0.943c-0.21,0.104-0.413,0.205-0.614,0.301c-1.711-2.667-5.29-4.323-9.555-4.367
	c-0.058,0-0.113,0-0.168,0c-4.062,0-7.604,1.527-9.336,3.97c-0.611-0.303-1.193-0.321-1.907-0.211
	c1.771-4.227,1.263-7.207,0.769-10.099c-0.263-1.541-0.516-3.03-0.4-4.683c1.921,1.283,8.066,1.44,10.189,0.401
	c0.09-0.043,0.169-0.104,0.237-0.178c3.343-3.725,3.282-7.606-0.185-11.864c-0.109-0.134-0.261-0.229-0.431-0.267
	c-4.586-1.025-9.037-1.772-13.093,0.309c-0.053,0.026-0.103,0.06-0.147,0.097c-5.713,4.832-9.266,12.885-12.997,22.138
	c-2.11,5.241-0.661,10.695,0.739,15.97c0.265,0.994,0.538,2.022,0.786,3.039c0.065,0.278,0.281,0.495,0.558,0.567
	c0.243,0.063,0.48,0.136,0.721,0.21c1.226,0.376,2.604,0.799,4.454-0.068c6.693,4.197,13.84,6.311,21.313,6.311
	c1.775,0,3.571-0.118,5.382-0.357c0.424-0.057,0.723-0.445,0.666-0.869c-0.057-0.426-0.447-0.722-0.87-0.667
	c-9.33,1.231-17.846-0.717-26.03-5.96c-0.24-0.154-0.546-0.164-0.797-0.025c-1.486,0.826-2.445,0.53-3.662,0.158
	c-0.112-0.035-0.226-0.07-0.338-0.104c-0.22-0.887-0.454-1.771-0.684-2.63c-1.396-5.261-2.717-10.231-0.799-14.993
	c3.636-9.021,7.089-16.865,12.492-21.475c3.501-1.757,7.53-1.117,11.7-0.194c2.783,3.526,2.835,6.478,0.17,9.523
	c-1.977,0.831-7.342,0.393-8.422-0.271c-0.052-0.748-0.02-2.444-0.006-2.812c0.011-0.228-0.079-0.454-0.254-0.612
	c-0.24-0.218-0.59-0.264-0.876-0.116c-0.226,0.116-0.334,0.172-0.386,0.455c-1.498,3.747-1.022,6.534-0.563,9.232
	c0.529,3.094,1.026,6.015-1.279,10.558c-0.139,0.268-0.106,0.589,0.077,0.825c0.185,0.237,0.487,0.346,0.779,0.283l0.331-0.074
	c1.354-0.303,1.747-0.371,2.203-0.083c-0.021,0.952,0.109,3.175,1.661,4.619c0.149,0.139,0.339,0.208,0.527,0.208
	c0.207,0,0.415-0.083,0.565-0.246c0.293-0.314,0.274-0.804-0.039-1.095c-1.198-1.116-1.188-3.072-1.16-3.621
	c1.289-2.286,4.524-3.745,8.331-3.745c0.054,0,0.104,0,0.156,0c3.955,0.041,7.313,1.673,8.553,4.158
	c0.182,0.364,0.612,0.526,0.99,0.37c0.467-0.194,0.888-0.403,1.333-0.625C462.352,33.803,462.946,33.508,463.729,33.202z"/>
<path fill="#50007E" d="M288.234,12.959c1.04-0.014,2.018-0.501,2.655-1.323c0.698-0.915,1.005-2.068,0.856-3.208
	c-0.269-2.245-2.08-3.904-4.107-3.676c-0.905,0.11-1.729,0.579-2.283,1.302c-0.699,0.915-1.007,2.068-0.857,3.208
	C284.75,11.369,286.356,12.959,288.234,12.959z M286.79,7.188c0.289-0.384,0.74-0.616,1.222-0.629c0.937,0,1.78,0.916,1.92,2.085
	c0.092,0.657-0.078,1.325-0.476,1.858c-0.255,0.34-0.636,0.562-1.058,0.619c-1.003,0.112-1.938-0.838-2.084-2.076
	C286.223,8.387,286.393,7.72,286.79,7.188z"/>
<path fill="#50007E" d="M336.662,33.248c-0.236-0.171-0.54-0.221-0.817-0.132l-56.686,18.166c-0.379,0.121-0.636,0.473-0.636,0.869
	v1.949c0,0.506,0.41,0.914,0.915,0.914s0.914-0.408,0.914-0.914v-1.281L335.21,35.24v18.86c0,0.506,0.409,0.914,0.913,0.914
	c0.505,0,0.914-0.408,0.914-0.914V33.988C337.037,33.695,336.897,33.42,336.662,33.248z"/>
<path fill="#50007E" d="M290.908,14.026c-0.633,0.391-1.344,0.639-2.083,0.727l5.773,4.316c0.247,0.185,0.571,0.231,0.861,0.127
	c0,0,5.888-2.15,5.891-2.15c0.449-0.171,0.951,0.053,1.123,0.501c0,0.003,0.001,0.007,0.004,0.01
	c0.154,0.483-0.105,1.002-0.585,1.169l-7.137,2.582l-4.709-2.719c-0.437-0.251-0.996-0.1-1.248,0.338
	c-0.251,0.438-0.101,0.994,0.334,1.246l1.79,1.032l0.51,4.644c0.103,0.713,0.468,1.365,1.022,1.826l4.354,3.36
	c0.22,0.197,0.393,0.444,0.5,0.72l3.353,10.717l1.742-0.559l-3.349-10.705c-0.22-0.634-0.611-1.196-1.129-1.623l-4.354-3.36
	c-0.161-0.156-0.273-0.356-0.322-0.577l-0.363-3.312l1.324,0.767c0.234,0.134,0.516,0.158,0.771,0.067l5.344-1.934l4.122,20.021
	l1.751-0.561l-4.135-20.09l0.452-0.164c1.414-0.51,2.165-2.053,1.692-3.48c-0.23-0.68-0.727-1.235-1.373-1.542
	c-0.585-0.279-1.25-0.339-1.875-0.167l-0.51-2.479c-0.103-0.495-0.586-0.813-1.08-0.711s-0.813,0.586-0.711,1.08l0,0l0.563,2.734
	l-3.922,1.431L290.908,14.026z"/>
<path fill="#50007E" d="M285.616,47.292l2.403-11.242c0.021-0.104,0.025-0.21,0.012-0.315l-0.264-1.925l-1.281-0.516
	c-0.237-0.099-0.464-0.215-0.682-0.35l0.393,2.879l-2.588,12.111L285.616,47.292z"/>
<polygon fill="#50007E" points="288.332,46.422 290.426,45.75 292.721,37.763 291.945,35.497 291.519,35.325 "/>
<path fill="#50007E" d="M280.967,28.197c0.186,0.754,0.663,1.403,1.328,1.805c0.542,0.319,1.19,0.408,1.799,0.247l1.267-0.35
	c0.397,0.751,1.035,1.35,1.811,1.698l6.233,2.516l3.296,9.626l1.742-0.561L295,33.125c-0.085-0.251-0.275-0.452-0.522-0.552
	l-6.621-2.672c-0.533-0.271-0.922-0.759-1.069-1.339l-2.083-12.61c-0.045-0.408,0.186-0.797,0.563-0.958l1.357-0.471
	c-0.76-0.253-1.456-0.669-2.039-1.22c-1.172,0.479-1.868,1.692-1.686,2.945l0.021,0.137l-1.087,0.304l-0.117-0.358
	c-0.152-0.481-0.667-0.746-1.147-0.593c-0.481,0.154-0.747,0.668-0.593,1.149c0,0.003,0.002,0.007,0.003,0.012l0.146,0.451
	c-0.924,0.685-1.342,1.86-1.059,2.975L280.967,28.197z M284.863,28.139l-1.255,0.347c-0.426,0.117-0.78-0.376-0.866-0.73l-1.9-7.872
	c-0.143-0.508,0.142-1.039,0.645-1.2l1.736-0.483L284.863,28.139z"/>
<g>
	<path fill="#50007E" d="M571.622,44.485c9.775-1.955,16.871-10.61,16.871-20.58v-4.341c0-1.915-1.558-3.473-3.474-3.473
		c-1.914,0-3.472,1.558-3.472,3.473v0.113c-1.006,0.315-1.736,1.257-1.736,2.365c0,0.944,0.523,1.793,1.369,2.217l0.355,0.177
		c-0.256,5.746-4.656,10.436-10.436,11.015l-5.352,0.534l-0.24-1.209c2.27-0.882,3.885-3.085,3.885-5.663v-0.869
		c1.915,0,3.472-1.557,3.472-3.472c0-0.683-0.204-1.315-0.546-1.852c0.35-1.355,0.536-2.748,0.544-4.148l1.899-14.25l-7.664,1.916
		L561.581,0l-5.518,6.438l-7.665-1.914l1.9,14.252c0.006,1.399,0.193,2.792,0.542,4.147c-0.342,0.536-0.545,1.168-0.545,1.851
		c0,1.915,1.558,3.473,3.472,3.473v0.868c0,2.577,1.616,4.78,3.886,5.662l-0.242,1.209l-5.349-0.535
		c-5.779-0.578-10.181-5.269-10.436-11.015l0.354-0.178c0.845-0.422,1.369-1.271,1.369-2.216c0-1.107-0.731-2.049-1.736-2.365
		v-0.113c0-1.915-1.558-3.473-3.473-3.473c-1.916,0-3.473,1.558-3.473,3.473v4.341c0,9.97,7.095,18.625,16.871,20.58l0.49,0.099
		v7.969l0.007,1.737h18.988l0.104-1.737v-7.969L571.622,44.485z M582.29,21.3h0.995v-1.736c0-0.958,0.777-1.736,1.735-1.736
		c0.957,0,1.736,0.778,1.736,1.736v4.341c0,0.292-0.025,0.579-0.037,0.868h-3.477c0.019-0.289,0.041-0.576,0.041-0.868v-0.537
		l-1.324-0.663c-0.256-0.125-0.412-0.38-0.412-0.663C581.548,21.634,581.88,21.3,582.29,21.3z M559.777,38.733l-2.057,1.233
		l-0.761-2.282l0.902,0.091L559.777,38.733z M561.448,43.872h0.268l1.446,8.681h-3.161L561.448,43.872z M561.913,42.135h-0.662
		l-0.87-1.739l1.2-0.721l1.201,0.721L561.913,42.135z M563.384,38.733l1.915-0.958l0.902-0.091l-0.76,2.282L563.384,38.733z
		 M552.323,21.625c-0.135-0.68-0.223-1.369-0.262-2.061h2.189c-0.299,0.513-0.482,1.1-0.482,1.736
		C553.251,21.3,552.764,21.422,552.323,21.625z M557.239,15.224c0-2.394,1.949-4.341,4.342-4.341c1.327,0,2.501,0.612,3.299,1.551
		l-3.299,3.298l-1.989-1.99l-1.229,1.228l3.218,3.217l4.155-4.154c0.109,0.382,0.187,0.774,0.187,1.191
		c0,2.393-1.946,4.341-4.342,4.341C559.188,19.564,557.239,17.617,557.239,15.224z M565.826,19.564h5.274
		c-0.04,0.692-0.127,1.381-0.262,2.061c-0.441-0.203-0.928-0.325-1.443-0.325h-0.664l-3.107-1.552
		C565.692,19.687,565.761,19.628,565.826,19.564z M569.395,26.509v-3.473c0.956,0,1.735,0.779,1.735,1.737
		S570.351,26.509,569.395,26.509z M556.682,8.384l4.897-5.716l4.899,5.716l6.225-1.558l-1.466,11.002h-4.175
		c0.377-0.791,0.594-1.672,0.594-2.605c0-0.91-0.207-1.771-0.565-2.546l2.048-2.048l-1.229-1.227l-1.793,1.793
		c-1.112-1.252-2.732-2.048-4.538-2.048c-3.35,0-6.075,2.728-6.075,6.077c0,0.933,0.217,1.814,0.594,2.605h-4.175l-1.468-11.002
		L556.682,8.384z M552.032,24.773c0-0.958,0.779-1.737,1.735-1.737v3.473C552.811,26.509,552.032,25.731,552.032,24.773z
		 M555.504,29.114V21.3c0-0.957,0.778-1.736,1.734-1.736h0.099c1.097,1.072,2.594,1.736,4.243,1.736
		c0.826,0,1.614-0.167,2.333-0.467l3.743,1.871v6.409c0,2.393-1.946,4.341-4.34,4.341h-3.474
		C557.452,33.455,555.504,31.506,555.504,29.114z M559.845,35.191h3.473c0.168,0,0.335-0.013,0.498-0.025l0.255,1.282l-2.49,1.245
		l-2.489-1.245l0.256-1.282C559.51,35.178,559.677,35.191,559.845,35.191z M536.406,19.564c0-0.958,0.778-1.736,1.736-1.736
		c0.957,0,1.736,0.778,1.736,1.736V21.3h0.993c0.408,0,0.741,0.333,0.741,0.741c0,0.283-0.156,0.537-0.409,0.663l-1.325,0.664v0.536
		c0,0.293,0.022,0.58,0.041,0.869h-3.478c-0.013-0.29-0.037-0.577-0.037-0.869L536.406,19.564L536.406,19.564z M552.032,41.269
		v1.545l-0.149-0.03c-8.104-1.621-14.181-8.263-15.28-16.274h3.533c1.112,5.67,5.794,10.072,11.755,10.669l3.178,0.318l1.693,5.071
		l2.127-1.274l0.923,1.847l-1.569,9.413h-4.474V41.269H552.032z M564.921,52.553l-1.569-9.413l0.924-1.847l2.127,1.274l1.692-5.071
		l3.179-0.318c5.959-0.597,10.643-4.999,11.755-10.669h3.532c-1.101,8.011-7.177,14.653-15.28,16.274l-0.149,0.03v-1.545h-1.735
		v11.284H564.921L564.921,52.553z"/>
	<circle fill="#50007E" cx="558.109" cy="23.905" r="0.868"/>
	<circle fill="#50007E" cx="565.052" cy="23.905" r="0.868"/>
	<path fill="#50007E" d="M565.921,27.378v-0.869h-8.683v0.869c0,2.393,1.949,4.34,4.342,4.34
		C563.975,31.718,565.921,29.771,565.921,27.378z M559.126,28.245h4.91c-0.357,1.012-1.323,1.737-2.456,1.737
		C560.448,29.982,559.483,29.256,559.126,28.245z"/>
</g>
<g>
	<path fill="#50007E" d="M748.578,38.082c1.987-2.166,1.987-5.668,0-7.832l-7.829-8.506c3.396-3.909,3.232-10.069-0.364-13.759
		c-3.523-3.613-9.055-3.529-12.481,0.194l-4.214,4.578l-4.212-4.578c-3.498-3.804-9.17-3.807-12.669-0.008
		c-3.435,3.725-3.513,9.742-0.179,13.572l-7.829,8.507c-1.988,2.164-1.988,5.667,0,7.832l5.544,6.024v0.568h-0.879
		c-0.484,0-0.879,0.428-0.879,0.955v9.551h1.758v-8.596h15.822v8.596h1.76V45.63c0-0.527-0.395-0.955-0.879-0.955h-0.881v-3.82
		c-0.002-2.795-1.857-5.182-4.395-5.65v-3.516l2.74,2.977c2.86,3.1,7.49,3.1,10.352,0l2.74-2.977v3.516
		c-2.536,0.469-4.393,2.854-4.396,5.65v3.82h-0.879c-0.483,0-0.879,0.428-0.879,0.955v9.551h1.758v-8.596h15.824v8.596h1.758V45.63
		c0-0.527-0.394-0.955-0.879-0.955h-0.879v-0.568L748.578,38.082z M718.41,40.856v3.819h-12.306v-0.964
		c0-0.254-0.094-0.497-0.259-0.676l-5.804-6.306c-1.302-1.417-1.302-3.713,0-5.13l7.823-8.501l1.358,1.476
		c-0.325,0.59-0.496,1.267-0.496,1.955v2.854l-3.416,3.71l1.243,1.351l2.172-2.36v3.995h1.758v-9.551
		c0.001-1.057,0.788-1.914,1.76-1.917h0.005c0.977,0,1.766,0.858,1.766,1.917v9.551c0,0.527,0.393,0.955,0.879,0.955
		C716.835,37.038,718.407,38.746,718.41,40.856z M727.622,33.314c-2.174,2.356-5.691,2.356-7.866,0l-3.982-4.328v-2.458
		c0-2.114-1.576-3.826-3.521-3.827h-0.01c-0.62,0.001-1.232,0.183-1.768,0.525l-2.426-2.634c-2.833-3.032-2.868-7.986-0.076-11.065
		c2.791-3.077,7.35-3.115,10.184-0.082c0.025,0.027,0.052,0.055,0.076,0.082l4.836,5.254c0.343,0.372,0.899,0.372,1.242,0l0,0
		l4.836-5.254c2.802-3.066,7.36-3.084,10.185-0.041c2.821,3.044,2.84,7.998,0.037,11.064c-0.013,0.015-0.023,0.027-0.037,0.041
		l-2.426,2.635c-0.536-0.343-1.146-0.525-1.769-0.525h-0.009c-1.945,0-3.521,1.712-3.522,3.826v2.458L727.622,33.314z
		 M728.968,44.675v-3.82c0.002-2.109,1.573-3.817,3.517-3.82c0.484,0,0.879-0.428,0.879-0.956v-9.549
		c0-1.059,0.789-1.917,1.765-1.917l0,0h0.006c0.972,0.004,1.758,0.861,1.76,1.917v9.551h1.759v-3.995l2.171,2.36l1.244-1.351
		l-3.415-3.71V26.53c0-0.688-0.173-1.365-0.498-1.955l1.357-1.476l7.825,8.501c1.302,1.417,1.302,3.713,0,5.13l-5.804,6.306
		c-0.164,0.178-0.257,0.422-0.257,0.676v0.964L728.968,44.675L728.968,44.675z"/>
</g>
<rect x="5" y="62.983" fill="none" width="55.119" height="12.104"/>
<g enable-background="new    ">
	<path fill="#50007E" d="M6.946,62.982l4.086,10l4.086-10h1.477l-4.789,11.719h-1.547L5.469,62.982H6.946z"/>
	<path fill="#50007E" d="M19.68,62.982v11.719h-1.367V62.982H19.68z"/>
	<path fill="#50007E" d="M22.242,72.475c0.401,0.417,0.854,0.723,1.359,0.918c0.505,0.195,1.002,0.293,1.492,0.293
		c0.474,0,0.913-0.083,1.316-0.25c0.403-0.167,0.728-0.405,0.973-0.715c0.245-0.31,0.367-0.681,0.367-1.113
		c0-0.442-0.128-0.813-0.383-1.109c-0.255-0.297-0.587-0.556-0.996-0.777c-0.409-0.222-0.843-0.434-1.301-0.637
		c-0.38-0.172-0.758-0.353-1.133-0.543s-0.715-0.409-1.02-0.656s-0.548-0.54-0.73-0.879c-0.183-0.339-0.273-0.745-0.273-1.219
		c0-0.636,0.167-1.18,0.5-1.633c0.333-0.453,0.782-0.801,1.348-1.043c0.565-0.242,1.194-0.363,1.887-0.363
		c0.458,0,0.935,0.056,1.43,0.168c0.495,0.112,0.987,0.288,1.477,0.527L28,64.615c-0.365-0.214-0.742-0.37-1.133-0.469
		s-0.771-0.148-1.141-0.148c-0.662,0-1.228,0.151-1.699,0.453c-0.472,0.302-0.707,0.734-0.707,1.297c0,0.396,0.12,0.729,0.359,1
		c0.239,0.271,0.552,0.508,0.938,0.711c0.385,0.203,0.797,0.403,1.234,0.602c0.391,0.177,0.781,0.364,1.172,0.563
		s0.747,0.427,1.07,0.688c0.323,0.261,0.582,0.569,0.777,0.926s0.293,0.782,0.293,1.277c0,0.656-0.179,1.242-0.535,1.758
		c-0.357,0.516-0.843,0.922-1.457,1.219c-0.615,0.297-1.313,0.445-2.094,0.445c-0.604,0-1.211-0.102-1.82-0.305
		s-1.177-0.519-1.703-0.945L22.242,72.475z"/>
	<path fill="#50007E" d="M32.719,62.982v11.719h-1.367V62.982H32.719z"/>
	<path fill="#50007E" d="M34.594,68.842c0-0.88,0.151-1.691,0.453-2.434c0.302-0.742,0.727-1.387,1.273-1.934
		s1.191-0.972,1.934-1.273s1.553-0.453,2.434-0.453c0.88,0,1.691,0.151,2.434,0.453s1.387,0.727,1.934,1.273
		s0.971,1.191,1.273,1.934c0.302,0.742,0.453,1.554,0.453,2.434s-0.151,1.691-0.453,2.434c-0.302,0.742-0.727,1.387-1.273,1.934
		s-1.191,0.972-1.934,1.273s-1.554,0.453-2.434,0.453c-0.88,0-1.691-0.151-2.434-0.453s-1.387-0.727-1.934-1.273
		s-0.972-1.191-1.273-1.934C34.745,70.533,34.594,69.722,34.594,68.842z M36,68.842c0,0.927,0.202,1.757,0.605,2.488
		c0.403,0.731,0.959,1.308,1.668,1.727c0.708,0.419,1.513,0.629,2.414,0.629c0.901,0,1.704-0.21,2.41-0.629
		c0.706-0.419,1.262-0.995,1.668-1.727s0.609-1.562,0.609-2.488c0-0.933-0.203-1.763-0.609-2.492s-0.962-1.304-1.668-1.723
		c-0.706-0.419-1.509-0.629-2.41-0.629c-0.901,0-1.706,0.21-2.414,0.629c-0.708,0.419-1.265,0.993-1.668,1.723
		C36.202,67.079,36,67.909,36,68.842z M40.985,61.654h-1.016l1.602-2.578h1.406L40.985,61.654z"/>
	<path fill="#50007E" d="M49.985,62.982l7.273,9.531v-9.531h1.367v11.719h-1.367l-7.273-9.531v9.531h-1.328V62.982H49.985z"/>
</g>
<rect x="98.118" y="62.983" fill="none" width="121.285" height="12.104"/>
<g enable-background="new    ">
	<path fill="#50007E" d="M102.556,74.717h-3.188V62.998h3.188c2.302,0,4.07,0.509,5.305,1.527s1.852,2.457,1.852,4.316
		c0,1.864-0.617,3.31-1.852,4.336S104.858,74.717,102.556,74.717z M102.556,73.467c1.854,0,3.276-0.403,4.266-1.211
		c0.989-0.808,1.484-1.945,1.484-3.414c0-1.464-0.495-2.595-1.484-3.395c-0.99-0.8-2.412-1.199-4.266-1.199h-1.82v9.219H102.556z"/>
	<path fill="#50007E" d="M111.587,62.982h6.719v1.25h-5.352v3.82h5.039v1.25h-5.039v4.148h5.586v1.25h-6.953V62.982z"/>
	<path fill="#50007E" d="M120.947,72.475c0.401,0.417,0.854,0.723,1.359,0.918c0.505,0.195,1.002,0.293,1.492,0.293
		c0.474,0,0.913-0.083,1.316-0.25c0.403-0.167,0.728-0.405,0.973-0.715c0.245-0.31,0.367-0.681,0.367-1.113
		c0-0.442-0.128-0.813-0.383-1.109c-0.255-0.297-0.587-0.556-0.996-0.777c-0.409-0.222-0.843-0.434-1.301-0.637
		c-0.38-0.172-0.758-0.353-1.133-0.543s-0.715-0.409-1.02-0.656s-0.548-0.54-0.73-0.879c-0.183-0.339-0.273-0.745-0.273-1.219
		c0-0.636,0.167-1.18,0.5-1.633c0.333-0.453,0.782-0.801,1.348-1.043c0.565-0.242,1.194-0.363,1.887-0.363
		c0.458,0,0.935,0.056,1.43,0.168c0.495,0.112,0.987,0.288,1.477,0.527l-0.555,1.172c-0.365-0.214-0.742-0.37-1.133-0.469
		s-0.771-0.148-1.141-0.148c-0.662,0-1.228,0.151-1.699,0.453c-0.472,0.302-0.707,0.734-0.707,1.297c0,0.396,0.12,0.729,0.359,1
		c0.239,0.271,0.552,0.508,0.938,0.711c0.385,0.203,0.797,0.403,1.234,0.602c0.391,0.177,0.781,0.364,1.172,0.563
		s0.747,0.427,1.07,0.688c0.323,0.261,0.582,0.569,0.777,0.926s0.293,0.782,0.293,1.277c0,0.656-0.179,1.242-0.535,1.758
		c-0.357,0.516-0.843,0.922-1.457,1.219c-0.615,0.297-1.313,0.445-2.094,0.445c-0.604,0-1.211-0.102-1.82-0.305
		s-1.177-0.519-1.703-0.945L120.947,72.475z"/>
	<path fill="#50007E" d="M128.806,74.701l4.578-11.719h1.508l4.578,11.719h-1.469l-1.195-3.055h-5.375l-1.195,3.055H128.806z
		 M133.118,67.318l-1.203,3.078h4.406l-1.203-3.078c-0.214-0.547-0.397-1.036-0.551-1.469c-0.154-0.433-0.304-0.87-0.449-1.313
		c-0.141,0.442-0.289,0.88-0.445,1.313S133.332,66.771,133.118,67.318z"/>
	<path fill="#50007E" d="M140.876,62.982h3.695c1.266,0,2.255,0.296,2.969,0.887c0.713,0.591,1.07,1.41,1.07,2.457
		c0,0.813-0.216,1.492-0.648,2.039c-0.433,0.547-1.044,0.927-1.836,1.141l3,5.195h-1.586l-2.883-5h-2.414v5h-1.367V62.982z
		 M144.29,68.451c0.948,0,1.67-0.18,2.168-0.539c0.497-0.359,0.746-0.886,0.746-1.578c0-0.688-0.248-1.21-0.742-1.566
		c-0.495-0.356-1.219-0.535-2.172-0.535h-2.047v4.219H144.29z"/>
	<path fill="#50007E" d="M150.923,62.982h3.695c1.266,0,2.255,0.296,2.969,0.887c0.713,0.591,1.07,1.41,1.07,2.457
		c0,0.813-0.216,1.492-0.648,2.039c-0.433,0.547-1.044,0.927-1.836,1.141l3,5.195h-1.586l-2.883-5h-2.414v5h-1.367V62.982z
		 M154.337,68.451c0.948,0,1.67-0.18,2.168-0.539c0.497-0.359,0.746-0.886,0.746-1.578c0-0.688-0.248-1.21-0.742-1.566
		c-0.495-0.356-1.219-0.535-2.172-0.535h-2.047v4.219H154.337z"/>
	<path fill="#50007E" d="M160.345,68.842c0-0.88,0.151-1.691,0.453-2.434c0.302-0.742,0.727-1.387,1.273-1.934
		s1.191-0.972,1.934-1.273s1.553-0.453,2.434-0.453c0.88,0,1.691,0.151,2.434,0.453s1.387,0.727,1.934,1.273
		s0.971,1.191,1.273,1.934c0.302,0.742,0.453,1.554,0.453,2.434s-0.151,1.691-0.453,2.434c-0.302,0.742-0.727,1.387-1.273,1.934
		s-1.191,0.972-1.934,1.273s-1.554,0.453-2.434,0.453c-0.88,0-1.691-0.151-2.434-0.453s-1.387-0.727-1.934-1.273
		s-0.972-1.191-1.273-1.934C160.496,70.533,160.345,69.722,160.345,68.842z M161.751,68.842c0,0.927,0.202,1.757,0.605,2.488
		c0.403,0.731,0.959,1.308,1.668,1.727c0.708,0.419,1.513,0.629,2.414,0.629c0.901,0,1.704-0.21,2.41-0.629
		c0.706-0.419,1.262-0.995,1.668-1.727s0.609-1.562,0.609-2.488c0-0.933-0.203-1.763-0.609-2.492s-0.962-1.304-1.668-1.723
		c-0.706-0.419-1.509-0.629-2.41-0.629c-0.901,0-1.706,0.21-2.414,0.629c-0.708,0.419-1.265,0.993-1.668,1.723
		C161.953,67.079,161.751,67.909,161.751,68.842z"/>
	<path fill="#50007E" d="M181.282,74.701h-6.875V62.982h1.367v10.469h5.508V74.701z"/>
	<path fill="#50007E" d="M190.189,74.701h-6.875V62.982h1.367v10.469h5.508V74.701z"/>
	<path fill="#50007E" d="M190.892,68.842c0-0.88,0.151-1.691,0.453-2.434c0.302-0.742,0.727-1.387,1.273-1.934
		s1.191-0.972,1.934-1.273s1.553-0.453,2.434-0.453c0.88,0,1.691,0.151,2.434,0.453s1.387,0.727,1.934,1.273
		s0.971,1.191,1.273,1.934c0.302,0.742,0.453,1.554,0.453,2.434s-0.151,1.691-0.453,2.434c-0.302,0.742-0.727,1.387-1.273,1.934
		s-1.191,0.972-1.934,1.273s-1.554,0.453-2.434,0.453c-0.88,0-1.691-0.151-2.434-0.453s-1.387-0.727-1.934-1.273
		s-0.972-1.191-1.273-1.934C191.043,70.533,190.892,69.722,190.892,68.842z M192.298,68.842c0,0.927,0.202,1.757,0.605,2.488
		c0.403,0.731,0.959,1.308,1.668,1.727c0.708,0.419,1.513,0.629,2.414,0.629c0.901,0,1.704-0.21,2.41-0.629
		c0.706-0.419,1.262-0.995,1.668-1.727s0.609-1.562,0.609-2.488c0-0.933-0.203-1.763-0.609-2.492s-0.962-1.304-1.668-1.723
		c-0.706-0.419-1.509-0.629-2.41-0.629c-0.901,0-1.706,0.21-2.414,0.629c-0.708,0.419-1.265,0.993-1.668,1.723
		C192.5,67.079,192.298,67.909,192.298,68.842z"/>
</g>
<rect x="242.637" y="62.983" fill="none" width="133.118" height="12.104"/>
<g enable-background="new    ">
	<path fill="#50007E" d="M243.887,62.982h4.023c1.307,0,2.305,0.321,2.992,0.965s1.031,1.493,1.031,2.551
		c0,1.052-0.344,1.901-1.031,2.547s-1.685,0.969-2.992,0.969h-2.656v4.688h-1.367V62.982z M245.255,64.232v4.531h2.656
		c0.854,0,1.504-0.208,1.949-0.625s0.668-0.964,0.668-1.641c0-0.683-0.223-1.23-0.668-1.645s-1.095-0.621-1.949-0.621H245.255z"/>
	<path fill="#50007E" d="M253.653,62.982h6.719v1.25h-5.352v3.82h5.039v1.25h-5.039v4.148h5.586v1.25h-6.953V62.982z"/>
	<path fill="#50007E" d="M263.028,62.982h3.695c1.266,0,2.255,0.296,2.969,0.887c0.713,0.591,1.07,1.41,1.07,2.457
		c0,0.813-0.216,1.492-0.648,2.039c-0.433,0.547-1.044,0.927-1.836,1.141l3,5.195h-1.586l-2.883-5h-2.414v5h-1.367V62.982z
		 M266.442,68.451c0.948,0,1.67-0.18,2.168-0.539c0.497-0.359,0.746-0.886,0.746-1.578c0-0.688-0.248-1.21-0.742-1.566
		c-0.495-0.356-1.219-0.535-2.172-0.535h-2.047v4.219H266.442z"/>
	<path fill="#50007E" d="M273.137,72.475c0.401,0.417,0.854,0.723,1.359,0.918c0.505,0.195,1.002,0.293,1.492,0.293
		c0.474,0,0.913-0.083,1.316-0.25c0.403-0.167,0.728-0.405,0.973-0.715c0.245-0.31,0.367-0.681,0.367-1.113
		c0-0.442-0.128-0.813-0.383-1.109c-0.255-0.297-0.587-0.556-0.996-0.777c-0.409-0.222-0.843-0.434-1.301-0.637
		c-0.38-0.172-0.758-0.353-1.133-0.543s-0.715-0.409-1.02-0.656s-0.548-0.54-0.73-0.879c-0.183-0.339-0.273-0.745-0.273-1.219
		c0-0.636,0.167-1.18,0.5-1.633c0.333-0.453,0.782-0.801,1.348-1.043c0.565-0.242,1.194-0.363,1.887-0.363
		c0.458,0,0.935,0.056,1.43,0.168c0.495,0.112,0.987,0.288,1.477,0.527l-0.555,1.172c-0.365-0.214-0.742-0.37-1.133-0.469
		s-0.771-0.148-1.141-0.148c-0.662,0-1.228,0.151-1.699,0.453c-0.472,0.302-0.707,0.734-0.707,1.297c0,0.396,0.12,0.729,0.359,1
		c0.239,0.271,0.552,0.508,0.938,0.711c0.385,0.203,0.797,0.403,1.234,0.602c0.391,0.177,0.781,0.364,1.172,0.563
		s0.747,0.427,1.07,0.688c0.323,0.261,0.582,0.569,0.777,0.926s0.293,0.782,0.293,1.277c0,0.656-0.179,1.242-0.535,1.758
		c-0.357,0.516-0.843,0.922-1.457,1.219c-0.615,0.297-1.313,0.445-2.094,0.445c-0.604,0-1.211-0.102-1.82-0.305
		s-1.177-0.519-1.703-0.945L273.137,72.475z"/>
	<path fill="#50007E" d="M282.247,62.982h6.719v1.25h-5.352v3.82h5.039v1.25h-5.039v4.148h5.586v1.25h-6.953V62.982z"/>
	<path fill="#50007E" d="M292.161,62.982l4.086,10l4.086-10h1.477l-4.789,11.719h-1.547l-4.789-11.719H292.161z"/>
	<path fill="#50007E" d="M303.528,62.982h6.719v1.25h-5.352v3.82h5.039v1.25h-5.039v4.148h5.586v1.25h-6.953V62.982z"/>
	<path fill="#50007E" d="M312.903,62.982h3.695c1.266,0,2.255,0.296,2.969,0.887c0.713,0.591,1.07,1.41,1.07,2.457
		c0,0.813-0.216,1.492-0.648,2.039c-0.433,0.547-1.044,0.927-1.836,1.141l3,5.195h-1.586l-2.883-5h-2.414v5h-1.367V62.982z
		 M316.317,68.451c0.948,0,1.67-0.18,2.168-0.539c0.497-0.359,0.746-0.886,0.746-1.578c0-0.688-0.248-1.21-0.742-1.566
		c-0.495-0.356-1.219-0.535-2.172-0.535h-2.047v4.219H316.317z"/>
	<path fill="#50007E" d="M321.856,74.701l4.578-11.719h1.508l4.578,11.719h-1.469l-1.195-3.055h-5.375l-1.195,3.055H321.856z
		 M326.169,67.318l-1.203,3.078h4.406l-1.203-3.078c-0.214-0.547-0.397-1.036-0.551-1.469c-0.154-0.433-0.304-0.87-0.449-1.313
		c-0.141,0.442-0.289,0.88-0.445,1.313S326.382,66.771,326.169,67.318z"/>
	<path fill="#50007E" d="M335.255,62.982l7.273,9.531v-9.531h1.367v11.719h-1.367l-7.273-9.531v9.531h-1.328V62.982H335.255z"/>
	<path fill="#50007E" d="M355.278,72.256l0.953,0.953c-0.542,0.536-1.185,0.958-1.93,1.266c-0.745,0.308-1.558,0.461-2.438,0.461
		c-0.88,0-1.691-0.151-2.434-0.453s-1.387-0.727-1.934-1.273s-0.972-1.191-1.273-1.934c-0.302-0.742-0.453-1.554-0.453-2.434
		s0.151-1.691,0.453-2.434c0.302-0.742,0.727-1.387,1.273-1.934s1.191-0.972,1.934-1.273s1.553-0.453,2.434-0.453
		c0.88,0,1.692,0.152,2.438,0.457c0.745,0.305,1.388,0.728,1.93,1.27l-0.953,0.953c-0.422-0.448-0.923-0.798-1.504-1.051
		c-0.581-0.253-1.218-0.379-1.91-0.379c-0.901,0-1.706,0.21-2.414,0.629c-0.708,0.419-1.265,0.993-1.668,1.723
		c-0.404,0.729-0.605,1.56-0.605,2.492c0,0.927,0.202,1.757,0.605,2.488c0.403,0.731,0.959,1.308,1.668,1.727
		c0.708,0.419,1.513,0.629,2.414,0.629c0.692,0,1.329-0.128,1.91-0.383C354.355,73.048,354.856,72.698,355.278,72.256z"/>
	<path fill="#50007E" d="M359.552,62.982v11.719h-1.367V62.982H359.552z"/>
	<path fill="#50007E" d="M360.958,74.701l4.578-11.719h1.508l4.578,11.719h-1.469l-1.195-3.055h-5.375l-1.195,3.055H360.958z
		 M365.27,67.318l-1.203,3.078h4.406l-1.203-3.078c-0.214-0.547-0.397-1.036-0.551-1.469c-0.154-0.433-0.304-0.87-0.449-1.313
		c-0.141,0.442-0.289,0.88-0.445,1.313S365.484,66.771,365.27,67.318z"/>
</g>
<rect x="412.234" y="62.983" fill="none" width="62.618" height="12.104"/>
<g enable-background="new    ">
	<path fill="#50007E" d="M413.484,62.982h6.719v1.25h-5.352v3.898h5.055v1.25h-5.055v5.32h-1.367V62.982z"/>
	<path fill="#50007E" d="M422.469,69.545v-6.563h1.367v6.797c0,0.755,0.141,1.426,0.422,2.012s0.677,1.048,1.188,1.387
		c0.51,0.339,1.106,0.508,1.789,0.508c0.688,0,1.285-0.169,1.793-0.508s0.902-0.801,1.184-1.387s0.422-1.257,0.422-2.012v-6.797H432
		v6.563c0,1.094-0.189,2.044-0.566,2.852c-0.378,0.808-0.922,1.433-1.633,1.875s-1.566,0.664-2.566,0.664
		c-0.995,0-1.85-0.222-2.563-0.664c-0.714-0.442-1.26-1.067-1.637-1.875C422.657,71.589,422.469,70.639,422.469,69.545z"/>
	<path fill="#50007E" d="M434.5,62.982h6.719v1.25h-5.352v3.82h5.039v1.25h-5.039v4.148h5.586v1.25H434.5V62.982z"/>
	<path fill="#50007E" d="M443.875,62.982h3.695c1.266,0,2.255,0.296,2.969,0.887c0.713,0.591,1.07,1.41,1.07,2.457
		c0,0.813-0.217,1.492-0.648,2.039c-0.433,0.547-1.045,0.927-1.836,1.141l3,5.195h-1.586l-2.883-5h-2.414v5h-1.367V62.982z
		 M447.289,68.451c0.947,0,1.67-0.18,2.168-0.539c0.497-0.359,0.746-0.886,0.746-1.578c0-0.688-0.248-1.21-0.742-1.566
		c-0.495-0.356-1.219-0.535-2.172-0.535h-2.047v4.219H447.289z"/>
	<path fill="#50007E" d="M462.148,64.232l-7.055,9.219h7.289v1.25h-9.008v-1.25l7.055-9.219h-6.82v-1.25h8.539V64.232z"/>
	<path fill="#50007E" d="M463.164,74.701l4.578-11.719h1.508l4.578,11.719h-1.469l-1.195-3.055h-5.375l-1.195,3.055H463.164z
		 M467.476,67.318l-1.203,3.078h4.406l-1.203-3.078c-0.214-0.547-0.397-1.036-0.551-1.469c-0.154-0.433-0.304-0.87-0.449-1.313
		c-0.141,0.442-0.289,0.88-0.445,1.313S467.689,66.771,467.476,67.318z"/>
</g>
<rect x="513.4" y="62.983" fill="none" width="96.118" height="12.104"/>
<g enable-background="new    ">
	<path fill="#50007E" d="M523.533,72.256l0.953,0.953c-0.542,0.536-1.186,0.958-1.93,1.266c-0.745,0.308-1.558,0.461-2.438,0.461
		c-0.881,0-1.691-0.151-2.434-0.453s-1.387-0.727-1.934-1.273s-0.972-1.191-1.273-1.934c-0.303-0.742-0.453-1.554-0.453-2.434
		s0.15-1.691,0.453-2.434c0.302-0.742,0.727-1.387,1.273-1.934s1.191-0.972,1.934-1.273s1.553-0.453,2.434-0.453
		c0.88,0,1.692,0.152,2.438,0.457c0.744,0.305,1.388,0.728,1.93,1.27l-0.953,0.953c-0.422-0.448-0.924-0.798-1.504-1.051
		c-0.581-0.253-1.218-0.379-1.91-0.379c-0.901,0-1.706,0.21-2.414,0.629c-0.709,0.419-1.265,0.993-1.668,1.723
		c-0.404,0.729-0.605,1.56-0.605,2.492c0,0.927,0.201,1.757,0.605,2.488c0.403,0.731,0.959,1.308,1.668,1.727
		c0.708,0.419,1.513,0.629,2.414,0.629c0.692,0,1.329-0.128,1.91-0.383C522.609,73.048,523.111,72.698,523.533,72.256z"/>
	<path fill="#50007E" d="M525.892,68.842c0-0.88,0.15-1.691,0.453-2.434c0.302-0.742,0.727-1.387,1.273-1.934
		s1.191-0.972,1.934-1.273s1.553-0.453,2.434-0.453c0.88,0,1.691,0.151,2.434,0.453s1.387,0.727,1.934,1.273
		s0.971,1.191,1.273,1.934c0.302,0.742,0.453,1.554,0.453,2.434s-0.151,1.691-0.453,2.434c-0.303,0.742-0.727,1.387-1.273,1.934
		s-1.191,0.972-1.934,1.273s-1.554,0.453-2.434,0.453c-0.881,0-1.691-0.151-2.434-0.453s-1.387-0.727-1.934-1.273
		s-0.972-1.191-1.273-1.934C526.043,70.533,525.892,69.722,525.892,68.842z M527.299,68.842c0,0.927,0.201,1.757,0.605,2.488
		c0.403,0.731,0.959,1.308,1.668,1.727c0.708,0.419,1.513,0.629,2.414,0.629c0.9,0,1.704-0.21,2.41-0.629
		c0.705-0.419,1.262-0.995,1.668-1.727s0.609-1.562,0.609-2.488c0-0.933-0.203-1.763-0.609-2.492s-0.963-1.304-1.668-1.723
		c-0.706-0.419-1.51-0.629-2.41-0.629c-0.901,0-1.706,0.21-2.414,0.629c-0.709,0.419-1.265,0.993-1.668,1.723
		C527.5,67.079,527.299,67.909,527.299,68.842z"/>
	<path fill="#50007E" d="M541.283,62.982l7.273,9.531v-9.531h1.367v11.719h-1.367l-7.273-9.531v9.531h-1.328V62.982H541.283z"/>
	<path fill="#50007E" d="M552.424,62.982h6.719v1.25h-5.352v3.898h5.055v1.25h-5.055v5.32h-1.367V62.982z"/>
	<path fill="#50007E" d="M562.775,62.982v11.719h-1.367V62.982H562.775z"/>
	<path fill="#50007E" d="M564.181,74.701l4.578-11.719h1.508l4.578,11.719h-1.469l-1.195-3.055h-5.375l-1.195,3.055H564.181z
		 M568.494,67.318l-1.203,3.078h4.406l-1.203-3.078c-0.214-0.547-0.397-1.036-0.551-1.469c-0.154-0.433-0.304-0.87-0.449-1.313
		c-0.141,0.442-0.289,0.88-0.445,1.313S568.707,66.771,568.494,67.318z"/>
	<path fill="#50007E" d="M577.58,62.982l7.273,9.531v-9.531h1.367v11.719h-1.367l-7.273-9.531v9.531h-1.328V62.982H577.58z"/>
	<path fill="#50007E" d="M596.947,64.232l-7.055,9.219h7.289v1.25h-9.008v-1.25l7.055-9.219h-6.82v-1.25h8.539V64.232z"/>
	<path fill="#50007E" d="M597.963,74.701l4.578-11.719h1.508l4.578,11.719h-1.469l-1.195-3.055h-5.375l-1.195,3.055H597.963z
		 M602.275,67.318l-1.203,3.078h4.406l-1.203-3.078c-0.214-0.547-0.397-1.036-0.551-1.469c-0.154-0.433-0.304-0.87-0.449-1.313
		c-0.141,0.442-0.289,0.88-0.445,1.313S602.488,66.771,602.275,67.318z"/>
</g>
<rect x="650.4" y="62.983" fill="none" width="150.951" height="12.104"/>
<g enable-background="new    ">
	<path fill="#50007E" d="M651.65,62.982h6.719v1.25h-5.352v3.898h5.055v1.25h-5.055v5.32h-1.367V62.982z"/>
	<path fill="#50007E" d="M660.635,62.982h6.719v1.25h-5.352v3.82h5.039v1.25h-5.039v4.148h5.586v1.25h-6.953V62.982z"/>
	<path fill="#50007E" d="M674.072,62.982h6.719v1.25h-5.352v3.82h5.039v1.25h-5.039v4.148h5.586v1.25h-6.953V62.982z"/>
	<path fill="#50007E" d="M684.775,62.982l7.273,9.531v-9.531h1.367v11.719h-1.367l-7.273-9.531v9.531h-1.328V62.982H684.775z"/>
	<path fill="#50007E" d="M699.978,69.545v-6.563h1.367v6.797c0,0.755,0.141,1.426,0.422,2.012s0.677,1.048,1.188,1.387
		c0.51,0.339,1.106,0.508,1.789,0.508c0.688,0,1.285-0.169,1.793-0.508s0.902-0.801,1.184-1.387s0.422-1.257,0.422-2.012v-6.797
		h1.367v6.563c0,1.094-0.189,2.044-0.566,2.852c-0.378,0.808-0.922,1.433-1.633,1.875s-1.566,0.664-2.566,0.664
		c-0.995,0-1.85-0.222-2.563-0.664c-0.714-0.442-1.26-1.067-1.637-1.875C700.167,71.589,699.978,70.639,699.978,69.545z"/>
	<path fill="#50007E" d="M713.338,62.982l7.273,9.531v-9.531h1.367v11.719h-1.367l-7.273-9.531v9.531h-1.328V62.982H713.338z"/>
	<path fill="#50007E" d="M723.853,68.842c0-0.88,0.15-1.691,0.453-2.434c0.302-0.742,0.727-1.387,1.273-1.934
		s1.191-0.972,1.934-1.273s1.553-0.453,2.434-0.453c0.88,0,1.691,0.151,2.434,0.453s1.387,0.727,1.934,1.273
		s0.971,1.191,1.273,1.934c0.302,0.742,0.453,1.554,0.453,2.434s-0.151,1.691-0.453,2.434c-0.303,0.742-0.727,1.387-1.273,1.934
		s-1.191,0.972-1.934,1.273s-1.554,0.453-2.434,0.453c-0.881,0-1.691-0.151-2.434-0.453s-1.387-0.727-1.934-1.273
		s-0.972-1.191-1.273-1.934C724.004,70.533,723.853,69.722,723.853,68.842z M725.26,68.842c0,0.927,0.201,1.757,0.605,2.488
		c0.403,0.731,0.959,1.308,1.668,1.727c0.708,0.419,1.513,0.629,2.414,0.629c0.9,0,1.704-0.21,2.41-0.629
		c0.705-0.419,1.262-0.995,1.668-1.727s0.609-1.562,0.609-2.488c0-0.933-0.203-1.763-0.609-2.492s-0.963-1.304-1.668-1.723
		c-0.706-0.419-1.51-0.629-2.41-0.629c-0.901,0-1.706,0.21-2.414,0.629c-0.709,0.419-1.265,0.993-1.668,1.723
		C725.461,67.079,725.26,67.909,725.26,68.842z"/>
	<path fill="#50007E" d="M741.978,62.982h2.063l3.844,8.234l3.836-8.234h2.016v11.719h-1.367V64.74l-3.75,8.047h-1.508l-3.766-8.063
		v9.977h-1.367V62.982z"/>
	<path fill="#50007E" d="M757.603,62.982v11.719h-1.367V62.982H757.603z"/>
	<path fill="#50007E" d="M760.166,72.475c0.4,0.417,0.854,0.723,1.359,0.918c0.505,0.195,1.002,0.293,1.492,0.293
		c0.474,0,0.912-0.083,1.316-0.25c0.403-0.167,0.728-0.405,0.973-0.715c0.244-0.31,0.367-0.681,0.367-1.113
		c0-0.442-0.128-0.813-0.383-1.109c-0.256-0.297-0.588-0.556-0.996-0.777c-0.409-0.222-0.843-0.434-1.301-0.637
		c-0.381-0.172-0.758-0.353-1.133-0.543s-0.715-0.409-1.02-0.656s-0.549-0.54-0.73-0.879c-0.183-0.339-0.273-0.745-0.273-1.219
		c0-0.636,0.166-1.18,0.5-1.633c0.333-0.453,0.782-0.801,1.348-1.043c0.564-0.242,1.193-0.363,1.887-0.363
		c0.458,0,0.935,0.056,1.43,0.168c0.494,0.112,0.986,0.288,1.477,0.527l-0.555,1.172c-0.365-0.214-0.742-0.37-1.133-0.469
		s-0.771-0.148-1.141-0.148c-0.662,0-1.229,0.151-1.699,0.453c-0.472,0.302-0.707,0.734-0.707,1.297c0,0.396,0.119,0.729,0.359,1
		c0.239,0.271,0.552,0.508,0.938,0.711c0.385,0.203,0.797,0.403,1.234,0.602c0.391,0.177,0.781,0.364,1.172,0.563
		s0.747,0.427,1.07,0.688c0.322,0.261,0.582,0.569,0.777,0.926s0.293,0.782,0.293,1.277c0,0.656-0.179,1.242-0.535,1.758
		c-0.357,0.516-0.843,0.922-1.457,1.219c-0.615,0.297-1.313,0.445-2.094,0.445c-0.604,0-1.211-0.102-1.82-0.305
		s-1.178-0.519-1.703-0.945L760.166,72.475z"/>
	<path fill="#50007E" d="M769.275,62.982h2.063l3.844,8.234l3.836-8.234h2.016v11.719h-1.367V64.74l-3.75,8.047h-1.508l-3.766-8.063
		v9.977h-1.367V62.982z"/>
	<path fill="#50007E" d="M782.908,68.842c0-0.88,0.15-1.691,0.453-2.434c0.302-0.742,0.727-1.387,1.273-1.934
		s1.191-0.972,1.934-1.273s1.553-0.453,2.434-0.453c0.88,0,1.691,0.151,2.434,0.453s1.387,0.727,1.934,1.273
		s0.971,1.191,1.273,1.934c0.302,0.742,0.453,1.554,0.453,2.434s-0.151,1.691-0.453,2.434c-0.303,0.742-0.727,1.387-1.273,1.934
		s-1.191,0.972-1.934,1.273s-1.554,0.453-2.434,0.453c-0.881,0-1.691-0.151-2.434-0.453s-1.387-0.727-1.934-1.273
		s-0.972-1.191-1.273-1.934C783.058,70.533,782.908,69.722,782.908,68.842z M784.314,68.842c0,0.927,0.201,1.757,0.605,2.488
		c0.403,0.731,0.959,1.308,1.668,1.727c0.708,0.419,1.513,0.629,2.414,0.629c0.9,0,1.704-0.21,2.41-0.629
		c0.705-0.419,1.262-0.995,1.668-1.727s0.609-1.562,0.609-2.488c0-0.933-0.203-1.763-0.609-2.492s-0.963-1.304-1.668-1.723
		c-0.706-0.419-1.51-0.629-2.41-0.629c-0.901,0-1.706,0.21-2.414,0.629c-0.709,0.419-1.265,0.993-1.668,1.723
		C784.515,67.079,784.314,67.909,784.314,68.842z"/>
</g>
</svg>
