<?xml version="1.0" encoding="utf-8"?>
<!-- Generator: Adobe Illustrator 16.0.0, SVG Export Plug-In . SVG Version: 6.00 Build 0)  -->
<!DOCTYPE svg PUBLIC "-//W3C//DTD SVG 1.1//EN" "http://www.w3.org/Graphics/SVG/1.1/DTD/svg11.dtd">
<svg version="1.1" id="Layer_1" xmlns="http://www.w3.org/2000/svg" xmlns:xlink="http://www.w3.org/1999/xlink" x="0px" y="0px"
	 width="762.306px" height="315.298px" viewBox="0 0 762.306 315.298" enable-background="new 0 0 762.306 315.298"
	 xml:space="preserve">
<path fill="#50007E" d="M98.887,56.624c-5.264-4.903-23.653-20.438-46.044-21.705c-0.958-0.055-1.919-0.093-2.89-0.093
	c-0.97,0-1.934,0.037-2.891,0.093C24.677,36.187,6.284,51.722,1.017,56.626c-0.618,0.579-0.959,1.333-0.959,2.124
	c0,0.793,0.341,1.55,0.961,2.127c5.267,4.903,23.658,20.438,46.044,21.705c0.957,0.055,1.92,0.092,2.891,0.092
	c0.971,0,1.931-0.035,2.89-0.092c22.391-1.266,40.781-16.804,46.044-21.705c0.62-0.579,0.963-1.333,0.963-2.127
	C99.848,57.959,99.509,57.203,98.887,56.624z M2.594,59.183C2.492,59.088,2.37,58.934,2.37,58.75c0-0.183,0.122-0.336,0.224-0.43
	c4.229-3.939,17.168-14.934,33.726-19.327c-6.27,4.34-10.392,11.573-10.392,19.757c0,8.187,4.12,15.417,10.392,19.758
	C19.76,74.115,6.823,63.123,2.594,59.183z M52.613,80.278c-0.874,0.107-1.759,0.179-2.661,0.179c-0.902,0-1.788-0.072-2.661-0.179
	C36.576,78.959,28.245,69.816,28.245,58.75c0-11.065,8.33-20.208,19.047-21.527c0.875-0.106,1.759-0.181,2.661-0.181
	c0.901,0,1.787,0.074,2.661,0.181C63.33,38.542,71.658,47.685,71.658,58.75C71.658,69.816,63.329,78.959,52.613,80.278z
	 M97.311,59.181c-4.231,3.941-17.166,14.936-33.727,19.327c6.27-4.338,10.393-11.572,10.393-19.758
	c0-8.185-4.124-15.417-10.393-19.757C80.145,43.385,93.08,54.378,97.311,58.32c0.101,0.095,0.223,0.248,0.223,0.43
	C97.534,58.934,97.412,59.088,97.311,59.181z M49.953,46.278c-6.889,0-12.472,5.586-12.472,12.472
	c0,6.888,5.583,12.473,12.472,12.473c6.887,0,12.471-5.584,12.471-12.473C62.424,51.865,56.839,46.278,49.953,46.278z
	 M54.049,58.722c-2.192,0-3.968-1.775-3.968-3.968c0-2.189,1.775-3.964,3.968-3.964c2.189,0,3.964,1.775,3.964,3.964
	C58.014,56.946,56.238,58.722,54.049,58.722z"/>
<g>
	<path fill="#50007E" d="M256.062,250.524c16.368-3.274,28.247-17.765,28.247-34.456V208.8c0-3.206-2.608-5.813-5.815-5.813
		c-3.206,0-5.813,2.607-5.813,5.813v0.189c-1.683,0.528-2.907,2.104-2.907,3.96c0,1.58,0.877,3.001,2.292,3.711l0.596,0.296
		c-0.429,9.62-7.797,17.472-17.471,18.44l-8.957,0.894l-0.405-2.024c3.8-1.477,6.504-5.165,6.504-9.479v-1.454
		c3.207,0,5.813-2.607,5.813-5.813c0-1.143-0.342-2.201-0.914-3.101c0.586-2.27,0.898-4.601,0.91-6.944l3.182-23.858l-12.83,3.207
		l-9.24-10.777l-9.238,10.777l-12.833-3.204l3.182,23.859c0.01,2.344,0.324,4.675,0.908,6.944c-0.57,0.896-0.912,1.956-0.912,3.099
		c0,3.205,2.607,5.813,5.813,5.813v1.454c0,4.314,2.705,8.002,6.505,9.479l-0.407,2.024l-8.954-0.896
		c-9.674-0.967-17.043-8.82-17.471-18.44l0.596-0.297c1.415-0.707,2.292-2.129,2.292-3.71c0-1.854-1.224-3.43-2.907-3.959V208.8
		c0-3.206-2.607-5.813-5.813-5.813c-3.208,0-5.814,2.607-5.814,5.813v7.268c0,16.691,11.878,31.182,28.247,34.456l0.821,0.163
		v13.343l0.012,2.907h31.789l0.174-2.907v-13.344L256.062,250.524z M273.923,211.707h1.667V208.8c0-1.604,1.303-2.907,2.905-2.907
		c1.604,0,2.908,1.304,2.908,2.907v7.268c0,0.488-0.043,0.97-0.063,1.454h-5.818c0.028-0.483,0.068-0.964,0.068-1.454v-0.898
		l-2.219-1.11c-0.426-0.21-0.688-0.636-0.688-1.11C272.682,212.265,273.237,211.707,273.923,211.707z M236.234,240.892l-3.443,2.064
		l-1.272-3.82l1.51,0.151L236.234,240.892z M239.031,249.496h0.446l2.422,14.533h-5.292L239.031,249.496z M239.809,246.587h-1.111
		l-1.456-2.912l2.012-1.205l2.011,1.205L239.809,246.587z M242.271,240.892l3.206-1.604l1.512-0.151l-1.273,3.82L242.271,240.892z
		 M223.753,212.251c-0.224-1.138-0.371-2.292-0.438-3.451h3.667c-0.5,0.859-0.808,1.843-0.808,2.906
		C225.308,211.707,224.493,211.912,223.753,212.251z M231.986,201.534c0-4.007,3.261-7.268,7.268-7.268
		c2.222,0,4.188,1.024,5.521,2.597l-5.521,5.521l-3.332-3.332l-2.056,2.056l5.387,5.386l6.955-6.954
		c0.183,0.639,0.312,1.296,0.312,1.993c0,4.007-3.259,7.268-7.267,7.268C235.247,208.8,231.986,205.541,231.986,201.534z
		 M246.36,208.8h8.83c-0.067,1.159-0.212,2.313-0.437,3.451c-0.739-0.34-1.553-0.545-2.418-0.545h-1.11l-5.201-2.599
		C246.136,209.005,246.252,208.907,246.36,208.8z M252.334,220.428v-5.814c1.603,0,2.907,1.305,2.907,2.908
		C255.242,219.125,253.938,220.428,252.334,220.428z M231.053,190.083l8.201-9.569l8.202,9.569l10.421-2.607l-2.454,18.418h-6.991
		c0.631-1.323,0.995-2.799,0.995-4.36c0-1.522-0.346-2.965-0.949-4.263l3.429-3.43l-2.055-2.055l-3.003,3.003
		c-1.864-2.098-4.575-3.43-7.596-3.43c-5.609,0-10.173,4.567-10.173,10.174c0,1.562,0.364,3.037,0.995,4.36h-6.991l-2.455-18.419
		L231.053,190.083z M223.266,217.522c0-1.604,1.305-2.908,2.907-2.908v5.814C224.571,220.428,223.266,219.125,223.266,217.522z
		 M229.08,224.788v-13.081c0-1.602,1.304-2.906,2.906-2.906h0.162c1.835,1.795,4.343,2.906,7.105,2.906
		c1.384,0,2.702-0.278,3.906-0.781l6.267,3.133v10.729c0,4.006-3.26,7.268-7.267,7.268h-5.813
		C232.34,232.055,229.08,228.793,229.08,224.788z M236.348,234.962h5.813c0.282,0,0.561-0.021,0.835-0.043l0.428,2.146l-4.169,2.085
		l-4.171-2.085l0.428-2.146C235.787,234.941,236.066,234.962,236.348,234.962z M197.105,208.8c0-1.604,1.304-2.907,2.907-2.907
		c1.603,0,2.907,1.304,2.907,2.907v2.906h1.666c0.684,0,1.241,0.558,1.241,1.241c0,0.474-0.263,0.898-0.686,1.11l-2.221,1.11v0.898
		c0,0.49,0.039,0.971,0.068,1.454h-5.818c-0.022-0.485-0.064-0.966-0.064-1.454V208.8z M223.266,245.135v2.588l-0.251-0.051
		c-13.565-2.714-23.738-13.834-25.582-27.245h5.915c1.863,9.492,9.701,16.862,19.68,17.861l5.321,0.532l2.833,8.491l3.561-2.136
		l1.546,3.091l-2.627,15.76h-7.489v-18.892H223.266z M244.845,264.029l-2.627-15.76l1.546-3.092l3.561,2.136l2.832-8.491
		l5.322-0.532c9.979-0.999,17.817-8.37,19.68-17.861h5.915c-1.845,13.412-12.017,24.531-25.582,27.245l-0.251,0.051v-2.588h-2.907
		v18.894L244.845,264.029L244.845,264.029z"/>
	<circle fill="#50007E" cx="233.441" cy="216.068" r="1.454"/>
	<circle fill="#50007E" cx="245.066" cy="216.068" r="1.454"/>
	<path fill="#50007E" d="M246.52,221.881v-1.453h-14.534v1.453c0,4.007,3.261,7.267,7.268,7.267
		C243.262,229.148,246.52,225.888,246.52,221.881z M235.143,223.333h8.221c-0.6,1.692-2.217,2.907-4.111,2.907
		C237.359,226.241,235.743,225.026,235.143,223.333z"/>
</g>
<g>
	<g>
		<path fill="#50007E" d="M216.585,56.051h-13.159c-0.909,0-1.644,0.735-1.644,1.645v23.027c0,0.909,0.737,1.646,1.644,1.646h13.159
			c0.907,0,1.644-0.737,1.644-1.646V57.696C218.229,56.786,217.492,56.051,216.585,56.051z M214.941,79.079h-9.869V59.341h9.869
			V79.079z"/>
		<path fill="#50007E" d="M236.323,49.471h-13.159c-0.908,0-1.644,0.737-1.644,1.645v29.607c0,0.909,0.738,1.646,1.644,1.646h13.159
			c0.907,0,1.644-0.737,1.644-1.646V51.116C237.967,50.208,237.23,49.471,236.323,49.471z M234.677,79.079h-9.869V52.76h9.869
			V79.079z"/>
		<path fill="#50007E" d="M256.06,39.604h-13.159c-0.909,0-1.644,0.737-1.644,1.644v39.475c0,0.909,0.735,1.646,1.644,1.646h13.159
			c0.909,0,1.646-0.737,1.646-1.646V41.248C257.706,40.339,256.969,39.604,256.06,39.604z M254.415,79.079h-9.87V42.893h9.87V79.079
			z"/>
		<path fill="#50007E" d="M275.798,26.444h-13.159c-0.91,0-1.646,0.738-1.646,1.645v52.633c0,0.908,0.735,1.645,1.646,1.645h13.159
			c0.907,0,1.644-0.737,1.644-1.645V28.089C277.442,27.182,276.705,26.444,275.798,26.444z M274.152,79.079h-9.869V29.733h9.869
			V79.079z"/>
		<path fill="#50007E" d="M265.484,19.866c0.91,0,1.644-0.738,1.644-1.646V8.352c0-0.035-0.018-0.062-0.02-0.095
			c-0.008-0.114-0.036-0.222-0.068-0.332c-0.028-0.1-0.047-0.196-0.092-0.287c-0.042-0.09-0.105-0.166-0.165-0.244
			c-0.069-0.096-0.137-0.188-0.225-0.264c-0.028-0.024-0.037-0.053-0.063-0.073c-0.054-0.042-0.123-0.056-0.181-0.09
			c-0.099-0.059-0.192-0.115-0.304-0.152c-0.109-0.037-0.215-0.053-0.328-0.066c-0.067-0.009-0.132-0.042-0.2-0.042h-9.424
			c-0.91,0-1.645,0.738-1.645,1.646s0.735,1.644,1.645,1.644h5.906c-10.143,11.542-32.589,29.607-58.54,29.607
			c-0.909,0-1.644,0.737-1.644,1.644s0.738,1.645,1.644,1.645c26.588,0,49.579-18.041,60.412-30.049v5.378
			C263.838,19.128,264.573,19.866,265.484,19.866z"/>
	</g>
</g>
<g>
	<path fill="#50007E" d="M534.896,237.102c3.338-3.638,3.338-9.521,0-13.157l-13.151-14.289c5.703-6.567,5.429-16.915-0.614-23.114
		c-5.92-6.07-15.211-5.928-20.969,0.326l-7.077,7.69l-7.078-7.69c-5.875-6.39-15.402-6.395-21.282-0.014
		c-5.767,6.258-5.899,16.365-0.301,22.8l-13.15,14.291c-3.339,3.636-3.339,9.52,0,13.157l9.315,10.12v0.956h-1.477
		c-0.815,0-1.477,0.719-1.477,1.604v16.044h2.953v-14.439h26.581v14.439h2.954v-16.044c0-0.885-0.661-1.604-1.476-1.604h-1.479
		v-6.417c-0.005-4.697-3.122-8.705-7.382-9.493v-5.906l4.603,5c4.806,5.208,12.584,5.208,17.39,0l4.603-5v5.906
		c-4.259,0.788-7.377,4.796-7.384,9.493v6.417h-1.478c-0.814,0-1.476,0.719-1.476,1.604v16.044h2.953v-14.439h26.582v14.439h2.953
		v-16.044c0-0.885-0.66-1.604-1.477-1.604h-1.477v-0.956L534.896,237.102z M484.215,241.762v6.417h-20.673v-1.619
		c0-0.427-0.156-0.835-0.433-1.136l-9.75-10.593c-2.187-2.38-2.187-6.237,0-8.618l13.145-14.281l2.281,2.479
		c-0.547,0.992-0.835,2.129-0.835,3.284v4.795l-5.738,6.232l2.089,2.27l3.648-3.965v6.711h2.953v-16.044
		c0.002-1.776,1.324-3.215,2.957-3.222h0.007c1.639,0.001,2.965,1.442,2.965,3.222v16.044c0,0.886,0.661,1.604,1.477,1.604
		C481.569,235.348,484.212,238.217,484.215,241.762z M499.691,229.093c-3.652,3.958-9.563,3.958-13.215,0l-6.69-7.271v-4.129
		c0-3.551-2.649-6.428-5.918-6.429h-0.015c-1.045,0.002-2.071,0.308-2.971,0.883l-4.073-4.426
		c-4.761-5.093-4.818-13.415-0.129-18.588c4.688-5.169,12.348-5.232,17.108-0.138c0.042,0.045,0.085,0.093,0.127,0.138l8.123,8.827
		c0.576,0.624,1.512,0.624,2.089,0l0,0l8.123-8.827c4.706-5.15,12.365-5.182,17.106-0.068c4.742,5.114,4.771,13.436,0.065,18.588
		c-0.021,0.024-0.042,0.045-0.065,0.068l-4.072,4.427c-0.899-0.576-1.926-0.882-2.97-0.883h-0.017
		c-3.267-0.001-5.916,2.877-5.918,6.428v4.129L499.691,229.093z M501.952,248.178v-6.417c0.004-3.545,2.645-6.414,5.907-6.419
		c0.815,0,1.477-0.719,1.477-1.605v-16.042c0-1.779,1.327-3.222,2.964-3.222l0,0h0.009c1.633,0.008,2.953,1.446,2.957,3.222v16.044
		h2.953v-6.711l3.648,3.965l2.09-2.27l-5.738-6.232v-4.795c0.001-1.155-0.288-2.292-0.836-3.284l2.282-2.479l13.145,14.281
		c2.188,2.381,2.188,6.238,0,8.618l-9.749,10.593c-0.275,0.3-0.432,0.709-0.432,1.136v1.619L501.952,248.178L501.952,248.178z"/>
</g>
<path fill="#50007E" d="M711.217,39.87c0.539,0,1.011-0.393,1.095-0.943l0.869-5.728c0.092-0.606-0.324-1.17-0.931-1.263
	c-0.605-0.089-1.171,0.325-1.263,0.931l-0.869,5.727c-0.093,0.606,0.325,1.171,0.93,1.263
	C711.106,39.866,711.162,39.87,711.217,39.87z"/>
<path fill="#50007E" d="M704.302,33.715c-0.566,0.235-0.835,0.885-0.599,1.449l1.489,3.579c0.178,0.428,0.59,0.684,1.025,0.684
	c0.143,0,0.285-0.028,0.426-0.085c0.565-0.235,0.833-0.885,0.598-1.451l-1.489-3.578C705.516,33.748,704.867,33.479,704.302,33.715z
	"/>
<path fill="#50007E" d="M716.826,41.125l2.25-2.614c0.399-0.464,0.349-1.164-0.117-1.564c-0.463-0.399-1.163-0.347-1.563,0.117
	l-2.252,2.614c-0.398,0.464-0.347,1.164,0.118,1.564c0.209,0.181,0.467,0.269,0.722,0.269
	C716.296,41.511,716.606,41.381,716.826,41.125z"/>
<path fill="#50007E" d="M727.279,49.971c0.632-0.248,0.943-0.958,0.697-1.591c-0.246-0.632-0.956-0.943-1.591-0.698
	c-1.342,0.524-2.379,1.041-3.292,1.496c-0.331,0.165-0.653,0.324-0.974,0.477c-2.711-4.227-8.383-6.85-15.142-6.92
	c-0.09-0.001-0.179-0.001-0.268-0.001c-6.433,0-12.048,2.419-14.792,6.292c-0.971-0.481-1.894-0.509-3.023-0.334
	c2.804-6.699,1.999-11.422,1.217-16.006c-0.417-2.44-0.819-4.802-0.638-7.422c3.046,2.034,12.785,2.284,16.151,0.636
	c0.143-0.068,0.268-0.166,0.374-0.282c5.3-5.904,5.204-12.055-0.289-18.802c-0.175-0.213-0.414-0.363-0.684-0.423
	c-7.267-1.625-14.32-2.809-20.749,0.489c-0.083,0.043-0.16,0.095-0.232,0.154c-9.056,7.657-14.686,20.42-20.598,35.085
	c-3.348,8.305-1.05,16.949,1.171,25.31c0.419,1.575,0.853,3.205,1.244,4.816c0.106,0.44,0.447,0.785,0.886,0.899
	c0.385,0.1,0.762,0.215,1.14,0.332c1.942,0.597,4.128,1.268,7.059-0.108c10.609,6.652,21.935,10.001,33.778,10.001
	c2.813,0,5.659-0.188,8.528-0.568c0.673-0.089,1.146-0.706,1.056-1.376c-0.089-0.675-0.708-1.145-1.377-1.057
	c-14.788,1.951-28.283-1.137-41.257-9.447c-0.381-0.244-0.863-0.26-1.259-0.04c-2.358,1.309-3.879,0.84-5.807,0.249
	c-0.178-0.056-0.355-0.109-0.533-0.163c-0.35-1.404-0.722-2.806-1.084-4.169c-2.216-8.338-4.308-16.214-1.267-23.76
	c5.763-14.296,11.235-26.728,19.798-34.034c5.549-2.785,11.935-1.77,18.544-0.307c4.411,5.589,4.491,10.266,0.269,15.092
	c-3.132,1.316-11.634,0.623-13.347-0.43c-0.081-1.185-0.031-3.873-0.01-4.457c0.017-0.361-0.124-0.718-0.4-0.97
	c-0.38-0.346-0.935-0.419-1.39-0.184c-0.357,0.184-0.528,0.272-0.612,0.72c-2.372,5.938-1.619,10.356-0.89,14.631
	c0.837,4.903,1.626,9.533-2.03,16.733c-0.216,0.424-0.167,0.933,0.123,1.308c0.292,0.376,0.773,0.548,1.237,0.448l0.525-0.117
	c2.146-0.48,2.768-0.588,3.49-0.132c-0.035,1.509,0.173,5.031,2.633,7.321c0.235,0.22,0.536,0.329,0.836,0.329
	c0.328,0,0.657-0.131,0.898-0.391c0.462-0.497,0.434-1.274-0.063-1.735c-1.9-1.769-1.885-4.869-1.839-5.738
	c2.044-3.623,7.17-5.935,13.204-5.935c0.082,0,0.164,0,0.247,0.001c6.269,0.065,11.588,2.652,13.554,6.59
	c0.286,0.578,0.971,0.834,1.569,0.586c0.74-0.307,1.407-0.638,2.111-0.989C725.097,50.923,726.039,50.456,727.279,49.971z"/>
<path fill="#50007E" d="M460.993,13.572c1.715-0.022,3.327-0.826,4.379-2.182c1.151-1.51,1.658-3.412,1.413-5.292
	c-0.443-3.703-3.43-6.439-6.775-6.063c-1.492,0.181-2.85,0.955-3.766,2.146c-1.151,1.509-1.659,3.412-1.413,5.292
	C455.245,10.949,457.894,13.572,460.993,13.572z M458.609,4.053c0.478-0.634,1.221-1.016,2.014-1.038
	c1.546,0,2.938,1.511,3.169,3.439c0.152,1.083-0.13,2.186-0.784,3.065c-0.419,0.56-1.049,0.927-1.743,1.021
	c-1.655,0.186-3.196-1.382-3.438-3.424C457.673,6.031,457.955,4.93,458.609,4.053z"/>
<path fill="#50007E" d="M540.869,47.038c-0.39-0.283-0.89-0.365-1.349-0.218l-93.499,29.964c-0.624,0.2-1.048,0.779-1.048,1.435
	v3.215c0,0.832,0.676,1.509,1.508,1.509s1.507-0.677,1.507-1.509v-2.115l90.482-28.996v31.11c0,0.832,0.676,1.509,1.508,1.509
	c0.833,0,1.509-0.677,1.509-1.509V48.257C541.489,47.774,541.258,47.321,540.869,47.038z"/>
<path fill="#50007E" d="M465.402,15.332c-1.045,0.645-2.216,1.054-3.435,1.198l9.521,7.12c0.408,0.305,0.942,0.382,1.421,0.209
	c0,0,9.712-3.546,9.716-3.547c0.74-0.282,1.568,0.087,1.851,0.827c0.001,0.006,0.003,0.012,0.006,0.016
	c0.254,0.798-0.174,1.653-0.965,1.929l-11.769,4.259l-7.768-4.484c-0.722-0.415-1.644-0.166-2.06,0.557
	c-0.413,0.721-0.166,1.639,0.552,2.056l2.95,1.701l0.84,7.66c0.171,1.177,0.772,2.251,1.688,3.013l7.181,5.542
	c0.364,0.325,0.648,0.733,0.827,1.188l5.528,17.675l2.873-0.92l-5.522-17.656c-0.363-1.047-1.009-1.973-1.863-2.678l-7.182-5.542
	c-0.266-0.258-0.451-0.588-0.531-0.952l-0.601-5.463l2.187,1.264c0.387,0.221,0.85,0.262,1.27,0.111l8.813-3.189l6.799,33.024
	l2.89-0.926l-6.821-33.137l0.747-0.271c2.332-0.841,3.57-3.386,2.79-5.74c-0.378-1.121-1.197-2.037-2.264-2.542
	c-0.964-0.46-2.063-0.559-3.093-0.276l-0.841-4.09c-0.169-0.817-0.966-1.341-1.781-1.174c-0.815,0.168-1.342,0.967-1.173,1.781l0,0
	l0.929,4.509l-6.468,2.36L465.402,15.332z"/>
<path fill="#50007E" d="M456.673,70.202l3.963-18.543c0.035-0.172,0.044-0.347,0.02-0.521l-0.436-3.175l-2.112-0.852
	c-0.391-0.162-0.767-0.355-1.126-0.577l0.649,4.749l-4.27,19.978L456.673,70.202z"/>
<polygon fill="#50007E" points="461.152,68.766 464.608,67.659 468.393,54.484 467.113,50.746 466.411,50.462 "/>
<path fill="#50007E" d="M449.006,38.706c0.305,1.244,1.094,2.314,2.188,2.977c0.895,0.526,1.964,0.673,2.967,0.408l2.09-0.577
	c0.656,1.239,1.708,2.226,2.987,2.801l10.281,4.149l5.438,15.877l2.873-0.922l-5.681-16.584c-0.141-0.415-0.455-0.746-0.862-0.911
	l-10.921-4.408c-0.878-0.447-1.521-1.252-1.763-2.209l-3.436-20.8c-0.074-0.673,0.305-1.315,0.927-1.579l2.241-0.777
	c-1.254-0.418-2.401-1.104-3.363-2.012c-1.934,0.787-3.081,2.792-2.781,4.857l0.037,0.227l-1.794,0.5l-0.192-0.59
	c-0.253-0.794-1.103-1.231-1.896-0.979c-0.793,0.254-1.231,1.102-0.979,1.895c0.001,0.006,0.004,0.012,0.006,0.019l0.243,0.744
	c-1.523,1.13-2.213,3.068-1.747,4.907L449.006,38.706z M455.432,38.61l-2.071,0.572c-0.702,0.193-1.287-0.622-1.428-1.204
	l-3.134-12.984c-0.237-0.837,0.231-1.714,1.062-1.979l2.863-0.797L455.432,38.61z"/>
<rect y="107.548" fill="none" width="117.377" height="31.25"/>
<text transform="matrix(1 0 0 1 0 128.7886)" fill="#50007E" font-family="'KumbhSans-Regular'" font-size="29">VISIÓN</text>
<rect x="143.543" y="107.548" fill="none" width="207.877" height="31.25"/>
<text transform="matrix(1 0 0 1 143.543 128.7886)" fill="#50007E" font-family="'KumbhSans-Regular'" font-size="29">DESARROLLO</text>
<rect x="375.377" y="107.548" fill="none" width="254.877" height="31.25"/>
<text transform="matrix(1 0 0 1 375.3774 128.7886)" fill="#50007E" font-family="'KumbhSans-Regular'" font-size="29">PERSEVERANCIA</text>
<rect x="644.929" y="106.798" fill="none" width="117.377" height="31.25"/>
<text transform="matrix(1 0 0 1 644.9282 128.0386)" fill="#50007E" font-family="'KumbhSans-Regular'" font-size="29">FUERZA</text>
<rect x="151.778" y="284.048" fill="none" width="173.377" height="31.25"/>
<text transform="matrix(1 0 0 1 151.7783 305.2886)" fill="#50007E" font-family="'KumbhSans-Regular'" font-size="29">CONFIANZA</text>
<rect x="364.377" y="284.048" fill="none" width="264.827" height="31.25"/>
<text transform="matrix(1 0 0 1 364.3774 305.2886)" fill="#50007E" font-family="'KumbhSans-Regular'" font-size="29">FE EN UNO MISMO</text>
</svg>
