<?xml version="1.0" encoding="utf-8"?>
<!-- Generator: Adobe Illustrator 16.0.0, SVG Export Plug-In . SVG Version: 6.00 Build 0)  -->
<!DOCTYPE svg PUBLIC "-//W3C//DTD SVG 1.1//EN" "http://www.w3.org/Graphics/SVG/1.1/DTD/svg11.dtd">
<svg version="1.1" id="Layer_1" xmlns="http://www.w3.org/2000/svg" xmlns:xlink="http://www.w3.org/1999/xlink" x="0px" y="0px"
	 width="495.043px" height="67.012px" viewBox="0 0 495.043 67.012" enable-background="new 0 0 495.043 67.012"
	 xml:space="preserve">
<rect x="0" y="51.153" fill="none" width="53.952" height="12.104"/>
<g enable-background="new    ">
	<path fill="#50007E" d="M1.312,60.646c0.401,0.417,0.854,0.723,1.359,0.918c0.505,0.195,1.002,0.293,1.492,0.293
		c0.474,0,0.913-0.083,1.316-0.25c0.403-0.167,0.728-0.405,0.973-0.715c0.245-0.31,0.367-0.681,0.367-1.113
		c0-0.442-0.128-0.813-0.383-1.109c-0.255-0.297-0.587-0.556-0.996-0.777c-0.409-0.222-0.843-0.434-1.301-0.637
		c-0.38-0.172-0.758-0.353-1.133-0.543s-0.715-0.409-1.02-0.656s-0.548-0.54-0.73-0.879c-0.183-0.339-0.273-0.745-0.273-1.219
		c0-0.636,0.167-1.18,0.5-1.633c0.333-0.453,0.782-0.801,1.348-1.043c0.565-0.242,1.194-0.363,1.887-0.363
		c0.458,0,0.935,0.056,1.43,0.168c0.495,0.112,0.987,0.288,1.477,0.527L7.07,52.786c-0.365-0.214-0.742-0.37-1.133-0.469
		s-0.771-0.148-1.141-0.148c-0.662,0-1.228,0.151-1.699,0.453c-0.472,0.302-0.707,0.734-0.707,1.297c0,0.396,0.12,0.729,0.359,1
		c0.239,0.271,0.552,0.508,0.938,0.711c0.385,0.203,0.797,0.403,1.234,0.602c0.391,0.177,0.781,0.364,1.172,0.563
		s0.747,0.427,1.07,0.688c0.323,0.261,0.582,0.569,0.777,0.926s0.293,0.782,0.293,1.277c0,0.656-0.179,1.242-0.535,1.758
		c-0.357,0.516-0.843,0.922-1.457,1.219c-0.615,0.297-1.313,0.445-2.094,0.445c-0.604,0-1.211-0.102-1.82-0.305
		s-1.177-0.519-1.703-0.945L1.312,60.646z"/>
	<path fill="#50007E" d="M9.172,62.872l4.578-11.719h1.508l4.578,11.719h-1.469l-1.195-3.055h-5.375l-1.195,3.055H9.172z
		 M13.484,55.49l-1.203,3.078h4.406l-1.203-3.078c-0.214-0.547-0.397-1.036-0.551-1.469c-0.154-0.433-0.304-0.87-0.449-1.313
		c-0.141,0.442-0.289,0.88-0.445,1.313S13.698,54.943,13.484,55.49z"/>
	<path fill="#50007E" d="M28.117,62.872h-6.875V51.154h1.367v10.469h5.508V62.872z"/>
	<path fill="#50007E" d="M29.445,57.716v-6.563h1.367v6.797c0,0.755,0.141,1.426,0.422,2.012s0.677,1.048,1.188,1.387
		c0.51,0.339,1.106,0.508,1.789,0.508c0.688,0,1.285-0.169,1.793-0.508s0.902-0.801,1.184-1.387s0.422-1.257,0.422-2.012v-6.797
		h1.367v6.563c0,1.094-0.189,2.044-0.566,2.852c-0.378,0.808-0.922,1.433-1.633,1.875s-1.566,0.664-2.566,0.664
		c-0.995,0-1.849-0.222-2.563-0.664c-0.714-0.442-1.259-1.067-1.637-1.875C29.634,59.76,29.445,58.81,29.445,57.716z"/>
	<path fill="#50007E" d="M44.664,62.888h-3.188V51.169h3.188c2.302,0,4.07,0.509,5.305,1.527s1.852,2.457,1.852,4.316
		c0,1.864-0.617,3.31-1.852,4.336S46.966,62.888,44.664,62.888z M44.664,61.638c1.854,0,3.276-0.403,4.266-1.211
		c0.989-0.808,1.484-1.945,1.484-3.414c0-1.464-0.495-2.595-1.484-3.395c-0.99-0.8-2.412-1.199-4.266-1.199h-1.82v9.219H44.664z"/>
</g>
<rect x="86.667" y="51.153" fill="none" width="68.952" height="12.104"/>
<g enable-background="new    ">
	<path fill="#50007E" d="M86.979,52.404v-1.25h8.594v1.25h-3.617v10.469h-1.359V52.404H86.979z"/>
	<path fill="#50007E" d="M97.135,51.154h3.695c1.266,0,2.255,0.296,2.969,0.887c0.713,0.591,1.07,1.41,1.07,2.457
		c0,0.813-0.216,1.492-0.648,2.039c-0.433,0.547-1.044,0.927-1.836,1.141l3,5.195H103.8l-2.883-5h-2.414v5h-1.367V51.154z
		 M100.55,56.622c0.948,0,1.67-0.18,2.168-0.539c0.497-0.359,0.746-0.886,0.746-1.578c0-0.688-0.248-1.21-0.742-1.566
		c-0.495-0.356-1.219-0.535-2.172-0.535h-2.047v4.219H100.55z"/>
	<path fill="#50007E" d="M106.089,62.872l4.578-11.719h1.508l4.578,11.719h-1.469l-1.195-3.055h-5.375l-1.195,3.055H106.089z
		 M110.401,55.49l-1.203,3.078h4.406l-1.203-3.078c-0.214-0.547-0.397-1.036-0.551-1.469c-0.154-0.433-0.304-0.87-0.449-1.313
		c-0.141,0.442-0.289,0.88-0.445,1.313S110.615,54.943,110.401,55.49z"/>
	<path fill="#50007E" d="M118.159,51.154h3.469c1.255,0,2.23,0.254,2.926,0.762s1.043,1.246,1.043,2.215
		c0,0.62-0.146,1.146-0.438,1.578c-0.292,0.433-0.708,0.766-1.25,1c0.688,0.234,1.216,0.598,1.586,1.09
		c0.37,0.492,0.555,1.103,0.555,1.832c0,1.052-0.375,1.855-1.125,2.41s-1.8,0.832-3.148,0.832h-3.617V51.154z M119.526,52.404v3.75
		h2.281c0.755,0,1.341-0.16,1.758-0.48c0.417-0.32,0.625-0.785,0.625-1.395s-0.208-1.074-0.625-1.395
		c-0.417-0.32-1.003-0.48-1.758-0.48H119.526z M121.964,61.622c0.849,0,1.508-0.181,1.977-0.543s0.703-0.887,0.703-1.574
		c0-0.683-0.234-1.203-0.703-1.563s-1.128-0.539-1.977-0.539h-2.438v4.219H121.964z"/>
	<path fill="#50007E" d="M126.792,62.872l4.578-11.719h1.508l4.578,11.719h-1.469l-1.195-3.055h-5.375l-1.195,3.055H126.792z
		 M131.104,55.49l-1.203,3.078h4.406l-1.203-3.078c-0.214-0.547-0.397-1.036-0.551-1.469c-0.154-0.433-0.304-0.87-0.449-1.313
		c-0.141,0.442-0.289,0.88-0.445,1.313S131.318,54.943,131.104,55.49z"/>
	<path fill="#50007E" d="M136.714,64.646c0.802,0,1.36-0.198,1.676-0.594c0.315-0.396,0.473-0.938,0.473-1.625V51.154h1.367v11.352
		c0,1.083-0.269,1.919-0.805,2.508c-0.537,0.589-1.44,0.883-2.711,0.883V64.646z"/>
	<path fill="#50007E" d="M142.104,57.013c0-0.88,0.151-1.691,0.453-2.434c0.302-0.742,0.727-1.387,1.273-1.934
		s1.191-0.972,1.934-1.273s1.553-0.453,2.434-0.453c0.88,0,1.691,0.151,2.434,0.453s1.387,0.727,1.934,1.273
		s0.971,1.191,1.273,1.934c0.302,0.742,0.453,1.554,0.453,2.434s-0.151,1.691-0.453,2.434c-0.302,0.742-0.727,1.387-1.273,1.934
		s-1.191,0.972-1.934,1.273s-1.554,0.453-2.434,0.453c-0.88,0-1.691-0.151-2.434-0.453s-1.387-0.727-1.934-1.273
		s-0.972-1.191-1.273-1.934C142.255,58.704,142.104,57.893,142.104,57.013z M143.51,57.013c0,0.927,0.202,1.757,0.605,2.488
		c0.403,0.731,0.959,1.308,1.668,1.727c0.708,0.419,1.513,0.629,2.414,0.629c0.901,0,1.704-0.21,2.41-0.629
		c0.706-0.419,1.262-0.995,1.668-1.727s0.609-1.562,0.609-2.488c0-0.933-0.203-1.763-0.609-2.492s-0.962-1.304-1.668-1.723
		c-0.706-0.419-1.509-0.629-2.41-0.629c-0.901,0-1.706,0.21-2.414,0.629c-0.708,0.419-1.265,0.993-1.668,1.723
		C143.712,55.25,143.51,56.08,143.51,57.013z"/>
</g>
<rect x="188" y="50.404" fill="none" width="41.286" height="12.104"/>
<g enable-background="new    ">
	<path fill="#50007E" d="M188.156,62.122l4.578-11.719h1.508l4.578,11.719h-1.469l-1.195-3.055h-5.375l-1.195,3.055H188.156z
		 M192.469,54.74l-1.203,3.078h4.406l-1.203-3.078c-0.214-0.547-0.397-1.036-0.551-1.469c-0.154-0.433-0.304-0.87-0.449-1.313
		c-0.141,0.442-0.289,0.88-0.445,1.313S192.682,54.193,192.469,54.74z"/>
	<path fill="#50007E" d="M200.227,50.404h3.695c1.266,0,2.255,0.296,2.969,0.887c0.713,0.591,1.07,1.41,1.07,2.457
		c0,0.813-0.216,1.492-0.648,2.039c-0.433,0.547-1.044,0.927-1.836,1.141l3,5.195h-1.586l-2.883-5h-2.414v5h-1.367V50.404z
		 M203.641,55.872c0.948,0,1.67-0.18,2.168-0.539c0.497-0.359,0.746-0.886,0.746-1.578c0-0.688-0.248-1.21-0.742-1.566
		c-0.495-0.356-1.219-0.535-2.172-0.535h-2.047v4.219H203.641z"/>
	<path fill="#50007E" d="M209.102,51.654v-1.25h8.594v1.25h-3.617v10.469h-1.359V51.654H209.102z"/>
	<path fill="#50007E" d="M219.258,50.404h6.719v1.25h-5.352v3.82h5.039v1.25h-5.039v4.148h5.586v1.25h-6.953V50.404z"/>
</g>
<rect x="266" y="51.153" fill="none" width="74.897" height="12.104"/>
<g enable-background="new    ">
	<path fill="#50007E" d="M270.438,62.888h-3.188V51.169h3.188c2.302,0,4.07,0.509,5.305,1.527s1.852,2.457,1.852,4.316
		c0,1.864-0.617,3.31-1.852,4.336S272.74,62.888,270.438,62.888z M270.438,61.638c1.854,0,3.275-0.403,4.266-1.211
		c0.989-0.808,1.484-1.945,1.484-3.414c0-1.464-0.495-2.595-1.484-3.395c-0.99-0.8-2.412-1.199-4.266-1.199h-1.82v9.219H270.438z"/>
	<path fill="#50007E" d="M279.469,51.154h6.719v1.25h-5.352v3.82h5.039v1.25h-5.039v4.148h5.586v1.25h-6.953V51.154z"/>
	<path fill="#50007E" d="M288.844,51.154h4.023c1.307,0,2.305,0.321,2.992,0.965s1.031,1.493,1.031,2.551
		c0,1.052-0.344,1.901-1.031,2.547s-1.686,0.969-2.992,0.969h-2.656v4.688h-1.367V51.154z M290.211,52.404v4.531h2.656
		c0.854,0,1.504-0.208,1.949-0.625s0.668-0.964,0.668-1.641c0-0.683-0.223-1.23-0.668-1.645s-1.096-0.621-1.949-0.621H290.211z"/>
	<path fill="#50007E" d="M297.985,57.013c0-0.88,0.15-1.691,0.453-2.434c0.302-0.742,0.727-1.387,1.273-1.934
		s1.191-0.972,1.934-1.273s1.553-0.453,2.434-0.453c0.88,0,1.691,0.151,2.434,0.453s1.387,0.727,1.934,1.273
		s0.971,1.191,1.273,1.934c0.302,0.742,0.453,1.554,0.453,2.434s-0.151,1.691-0.453,2.434c-0.303,0.742-0.727,1.387-1.273,1.934
		s-1.191,0.972-1.934,1.273s-1.554,0.453-2.434,0.453c-0.881,0-1.691-0.151-2.434-0.453s-1.387-0.727-1.934-1.273
		s-0.972-1.191-1.273-1.934C298.135,58.704,297.985,57.893,297.985,57.013z M299.391,57.013c0,0.927,0.201,1.757,0.605,2.488
		c0.403,0.731,0.959,1.308,1.668,1.727c0.708,0.419,1.513,0.629,2.414,0.629c0.9,0,1.704-0.21,2.41-0.629
		c0.705-0.419,1.262-0.995,1.668-1.727s0.609-1.562,0.609-2.488c0-0.933-0.203-1.763-0.609-2.492s-0.963-1.304-1.668-1.723
		c-0.706-0.419-1.51-0.629-2.41-0.629c-0.901,0-1.706,0.21-2.414,0.629c-0.709,0.419-1.265,0.993-1.668,1.723
		C299.592,55.25,299.391,56.08,299.391,57.013z"/>
	<path fill="#50007E" d="M312.047,51.154h3.695c1.266,0,2.255,0.296,2.969,0.887c0.713,0.591,1.07,1.41,1.07,2.457
		c0,0.813-0.217,1.492-0.648,2.039c-0.433,0.547-1.045,0.927-1.836,1.141l3,5.195h-1.586l-2.883-5h-2.414v5h-1.367V51.154z
		 M315.461,56.622c0.947,0,1.67-0.18,2.168-0.539c0.497-0.359,0.746-0.886,0.746-1.578c0-0.688-0.248-1.21-0.742-1.566
		c-0.495-0.356-1.219-0.535-2.172-0.535h-2.047v4.219H315.461z"/>
	<path fill="#50007E" d="M320.922,52.404v-1.25h8.594v1.25h-3.617v10.469h-1.359V52.404H320.922z"/>
	<path fill="#50007E" d="M331.078,51.154h6.719v1.25h-5.352v3.82h5.039v1.25h-5.039v4.148h5.586v1.25h-6.953V51.154z"/>
</g>
<rect x="366.164" y="51.153" fill="none" width="128.88" height="12.104"/>
<g enable-background="new    ">
	<path fill="#50007E" d="M368.11,51.154l4.086,10l4.086-10h1.477l-4.789,11.719h-1.547l-4.789-11.719H368.11z"/>
	<path fill="#50007E" d="M380.844,51.154v11.719h-1.367V51.154H380.844z"/>
	<path fill="#50007E" d="M386.531,62.888h-3.188V51.169h3.188c2.302,0,4.07,0.509,5.305,1.527s1.852,2.457,1.852,4.316
		c0,1.864-0.617,3.31-1.852,4.336S388.833,62.888,386.531,62.888z M386.531,61.638c1.854,0,3.275-0.403,4.266-1.211
		c0.989-0.808,1.484-1.945,1.484-3.414c0-1.464-0.495-2.595-1.484-3.395c-0.99-0.8-2.412-1.199-4.266-1.199h-1.82v9.219H386.531z"/>
	<path fill="#50007E" d="M394.235,62.872l4.578-11.719h1.508l4.578,11.719h-1.469l-1.195-3.055h-5.375l-1.195,3.055H394.235z
		 M398.547,55.49l-1.203,3.078h4.406l-1.203-3.078c-0.214-0.547-0.397-1.036-0.551-1.469c-0.154-0.433-0.304-0.87-0.449-1.313
		c-0.141,0.442-0.289,0.88-0.445,1.313S398.76,54.943,398.547,55.49z"/>
	<path fill="#50007E" d="M410.367,51.154h4.023c1.307,0,2.305,0.321,2.992,0.965s1.031,1.493,1.031,2.551
		c0,1.052-0.344,1.901-1.031,2.547s-1.686,0.969-2.992,0.969h-2.656v4.688h-1.367V51.154z M411.735,52.404v4.531h2.656
		c0.854,0,1.504-0.208,1.949-0.625s0.668-0.964,0.668-1.641c0-0.683-0.223-1.23-0.668-1.645s-1.096-0.621-1.949-0.621H411.735z"/>
	<path fill="#50007E" d="M420.133,51.154h6.719v1.25H421.5v3.82h5.039v1.25H421.5v4.148h5.586v1.25h-6.953V51.154z"/>
	<path fill="#50007E" d="M429.508,51.154h3.695c1.266,0,2.255,0.296,2.969,0.887c0.713,0.591,1.07,1.41,1.07,2.457
		c0,0.813-0.217,1.492-0.648,2.039c-0.433,0.547-1.045,0.927-1.836,1.141l3,5.195h-1.586l-2.883-5h-2.414v5h-1.367V51.154z
		 M432.922,56.622c0.947,0,1.67-0.18,2.168-0.539c0.497-0.359,0.746-0.886,0.746-1.578c0-0.688-0.248-1.21-0.742-1.566
		c-0.495-0.356-1.219-0.535-2.172-0.535h-2.047v4.219H432.922z"/>
	<path fill="#50007E" d="M439.617,60.646c0.4,0.417,0.854,0.723,1.359,0.918c0.505,0.195,1.002,0.293,1.492,0.293
		c0.474,0,0.912-0.083,1.316-0.25c0.403-0.167,0.728-0.405,0.973-0.715c0.244-0.31,0.367-0.681,0.367-1.113
		c0-0.442-0.128-0.813-0.383-1.109c-0.256-0.297-0.588-0.556-0.996-0.777c-0.409-0.222-0.843-0.434-1.301-0.637
		c-0.381-0.172-0.758-0.353-1.133-0.543s-0.715-0.409-1.02-0.656s-0.549-0.54-0.73-0.879c-0.183-0.339-0.273-0.745-0.273-1.219
		c0-0.636,0.166-1.18,0.5-1.633c0.333-0.453,0.782-0.801,1.348-1.043c0.564-0.242,1.193-0.363,1.887-0.363
		c0.458,0,0.935,0.056,1.43,0.168c0.494,0.112,0.986,0.288,1.477,0.527l-0.555,1.172c-0.365-0.214-0.742-0.37-1.133-0.469
		s-0.771-0.148-1.141-0.148c-0.662,0-1.229,0.151-1.699,0.453c-0.472,0.302-0.707,0.734-0.707,1.297c0,0.396,0.119,0.729,0.359,1
		c0.239,0.271,0.552,0.508,0.938,0.711c0.385,0.203,0.797,0.403,1.234,0.602c0.391,0.177,0.781,0.364,1.172,0.563
		s0.747,0.427,1.07,0.688c0.322,0.261,0.582,0.569,0.777,0.926s0.293,0.782,0.293,1.277c0,0.656-0.179,1.242-0.535,1.758
		c-0.357,0.516-0.843,0.922-1.457,1.219c-0.615,0.297-1.313,0.445-2.094,0.445c-0.604,0-1.211-0.102-1.82-0.305
		s-1.178-0.519-1.703-0.945L439.617,60.646z"/>
	<path fill="#50007E" d="M448.102,57.013c0-0.88,0.15-1.691,0.453-2.434c0.302-0.742,0.727-1.387,1.273-1.934
		s1.191-0.972,1.934-1.273s1.553-0.453,2.434-0.453c0.88,0,1.691,0.151,2.434,0.453s1.387,0.727,1.934,1.273
		s0.971,1.191,1.273,1.934c0.302,0.742,0.453,1.554,0.453,2.434s-0.151,1.691-0.453,2.434c-0.303,0.742-0.727,1.387-1.273,1.934
		s-1.191,0.972-1.934,1.273s-1.554,0.453-2.434,0.453c-0.881,0-1.691-0.151-2.434-0.453s-1.387-0.727-1.934-1.273
		s-0.972-1.191-1.273-1.934C448.252,58.704,448.102,57.893,448.102,57.013z M449.508,57.013c0,0.927,0.201,1.757,0.605,2.488
		c0.403,0.731,0.959,1.308,1.668,1.727c0.708,0.419,1.513,0.629,2.414,0.629c0.9,0,1.704-0.21,2.41-0.629
		c0.705-0.419,1.262-0.995,1.668-1.727s0.609-1.562,0.609-2.488c0-0.933-0.203-1.763-0.609-2.492s-0.963-1.304-1.668-1.723
		c-0.706-0.419-1.51-0.629-2.41-0.629c-0.901,0-1.706,0.21-2.414,0.629c-0.709,0.419-1.265,0.993-1.668,1.723
		C449.709,55.25,449.508,56.08,449.508,57.013z"/>
	<path fill="#50007E" d="M463.492,51.154l7.273,9.531v-9.531h1.367v11.719h-1.367l-7.273-9.531v9.531h-1.328V51.154H463.492z"/>
	<path fill="#50007E" d="M473.539,62.872l4.578-11.719h1.508l4.578,11.719h-1.469l-1.195-3.055h-5.375l-1.195,3.055H473.539z
		 M477.852,55.49l-1.203,3.078h4.406l-1.203-3.078c-0.214-0.547-0.397-1.036-0.551-1.469c-0.154-0.433-0.304-0.87-0.449-1.313
		c-0.141,0.442-0.289,0.88-0.445,1.313S478.065,54.943,477.852,55.49z"/>
	<path fill="#50007E" d="M492.485,62.872h-6.875V51.154h1.367v10.469h5.508V62.872z"/>
</g>
<g>
	<path fill="#50007E" d="M313.275,28.907l-6.513-1.72v-2.186c2.379-1.377,4.072-3.689,4.667-6.374h0.231
		c1.549,0,2.801-1.253,2.801-2.801c0-1.546-1.253-2.8-2.801-2.8v-0.896c0.434-0.248,0.699-0.707,0.701-1.205v-1.4
		c-0.002-0.263-0.077-0.52-0.218-0.739c1.141-1.034,1.229-2.795,0.196-3.938c-0.407-0.449-0.948-0.754-1.543-0.867
		c-0.545-1.647-2.323-2.542-3.971-1.996c-0.214,0.07-0.419,0.164-0.612,0.278c-0.827-1.123-2.355-1.464-3.582-0.802
		c-0.973-1.199-2.731-1.384-3.932-0.413c-0.07,0.059-0.141,0.12-0.207,0.185c-1.488-1.232-3.693-1.025-4.928,0.463
		c-0.52,0.627-0.804,1.415-0.805,2.229c0,0.03,0,0.059,0,0.088c-1.493,0.38-2.396,1.897-2.016,3.389
		c0.135,0.532,0.424,1.014,0.832,1.382c-0.141,0.221-0.216,0.479-0.216,0.74v1.4c0.001,0.498,0.268,0.958,0.699,1.205v0.896
		c-1.546,0-2.8,1.255-2.8,2.801c0,1.547,1.253,2.8,2.8,2.8h0.233c0.594,2.685,2.288,4.997,4.667,6.374v2.186l-6.509,1.719
		c-4.001,1.047-6.791,4.661-6.79,8.797v4.724c0,0.387,0.313,0.701,0.698,0.701h34.999c0.387,0,0.7-0.313,0.7-0.701v-4.724
		C320.062,33.57,317.274,29.956,313.275,28.907z M292.063,29.929l2.854-0.752c0.415,3.122,3.369,5.551,6.946,5.551
		c3.578,0,6.534-2.429,6.946-5.551l2.853,0.752v11.799h-19.599V29.929z M313.063,15.828c0,0.772-0.627,1.399-1.401,1.399v-2.799
		C312.435,14.429,313.063,15.056,313.063,15.828z M293.457,5.329c0.219,0.032,0.438-0.042,0.594-0.199
		c0.173-0.174,0.242-0.426,0.182-0.663c-0.045-0.176-0.068-0.356-0.068-0.537c0.003-1.16,0.946-2.097,2.106-2.093
		c0.687,0.002,1.328,0.339,1.718,0.903c0.219,0.317,0.655,0.399,0.974,0.18c0.104-0.072,0.188-0.171,0.24-0.287
		c0.326-0.697,1.156-0.998,1.854-0.671c0.332,0.155,0.588,0.435,0.716,0.778c0.084,0.229,0.282,0.397,0.521,0.445
		c0.24,0.05,0.488-0.032,0.652-0.214c0.26-0.285,0.63-0.446,1.017-0.441c0.625-0.005,1.174,0.411,1.34,1.013
		c0.1,0.374,0.483,0.596,0.856,0.495c0.134-0.035,0.254-0.11,0.345-0.215c0.634-0.725,1.734-0.798,2.459-0.164
		c0.313,0.274,0.52,0.654,0.578,1.068c0.063,0.35,0.366,0.604,0.722,0.602c0.773,0,1.399,0.627,1.399,1.399
		c0,0.773-0.626,1.4-1.399,1.4h-16.799c-0.774,0.002-1.401-0.623-1.403-1.397C292.058,5.959,292.683,5.331,293.457,5.329z
		 M293.463,9.528h16.813h0.687v1.4h-18.199v-1.4H293.463z M292.063,17.228c-0.773,0-1.399-0.626-1.399-1.399
		s0.627-1.399,1.399-1.399V17.228z M293.463,16.528v-4.199h16.799v4.199c0,4.641-3.761,8.4-8.4,8.4
		C297.224,24.929,293.463,21.168,293.463,16.528z M297.841,28.406c0.308-0.082,0.521-0.36,0.521-0.678v-2.058
		c2.251,0.876,4.75,0.876,7,0v2.058c0,0.317,0.214,0.596,0.521,0.678l1.557,0.409c-0.227,2.521-2.638,4.514-5.578,4.514
		c-2.922,0-5.325-1.97-5.574-4.515L297.841,28.406z M285.063,37.703c0.001-3.442,2.288-6.463,5.601-7.399v11.424h-5.601V37.703z
		 M318.661,41.728h-5.6V30.304c3.312,0.937,5.6,3.957,5.6,7.399V41.728L318.661,41.728z"/>
</g>
<g>
	<path fill="#50007E" d="M25.976,44.215L6.129,24.366c-5.238-5.238-5.238-13.762,0-19c2.538-2.538,5.912-3.937,9.5-3.937
		s6.962,1.397,9.5,3.937l0.847,0.846l0.848-0.846c2.535-2.538,5.909-3.937,9.499-3.937c3.589,0,6.964,1.397,9.5,3.937
		c5.239,5.238,5.239,13.763,0,19L25.976,44.215z M15.629,2.936c-3.188,0-6.184,1.241-8.436,3.495
		c-4.65,4.652-4.651,12.219-0.001,16.87l18.783,18.784l18.783-18.783c4.65-4.652,4.65-12.219,0-16.871
		c-2.254-2.253-5.249-3.495-8.438-3.495c-3.186,0-6.181,1.241-8.437,3.495l-1.911,1.912l-1.909-1.912
		C21.811,4.177,18.815,2.936,15.629,2.936z M27.414,30.835h-2.839c-1.022,0-1.854-0.83-1.854-1.853v-3.169h-3.167
		c-1.023,0-1.854-0.831-1.854-1.853v-2.84c0-1.022,0.832-1.854,1.854-1.854h3.167V16.1c0-1.021,0.831-1.853,1.854-1.853h2.839
		c1.021,0,1.854,0.831,1.854,1.853v3.167h3.168c1.022,0,1.854,0.831,1.854,1.854v2.84c0,1.021-0.83,1.853-1.854,1.853h-3.168v3.169
		C29.267,30.005,28.437,30.835,27.414,30.835z M19.554,20.774c-0.192,0-0.348,0.155-0.348,0.347v2.84
		c0,0.19,0.155,0.347,0.348,0.347h4.674v4.676c0,0.19,0.155,0.347,0.348,0.347h2.839c0.19,0,0.346-0.156,0.346-0.347v-4.676h4.676
		c0.19,0,0.347-0.155,0.347-0.347v-2.84c0-0.191-0.155-0.347-0.347-0.347H27.76V16.1c0-0.189-0.155-0.345-0.346-0.345h-2.839
		c-0.192,0-0.348,0.155-0.348,0.345v4.675L19.554,20.774L19.554,20.774z"/>
</g>
<path fill="#50007E" d="M139.866,10.791h-8.396V8.691c0-2.101-1.123-4.059-3.163-5.517c-1.967-1.405-4.572-2.18-7.333-2.18
	s-5.366,0.774-7.333,2.18c-2.04,1.457-3.162,3.416-3.162,5.517v2.101h-8.396c-1.158,0-2.101,1.099-2.101,2.449v9.445
	c0,0.332,0.233,0.618,0.559,0.687l0.142,0.028v17.501c0.001,1.146,0.929,2.073,2.075,2.075h36.433
	c1.146-0.001,2.074-0.929,2.075-2.075V23.401l0.143-0.028c0.324-0.067,0.558-0.354,0.558-0.687V13.24
	C141.965,11.89,141.024,10.791,139.866,10.791z M128.671,10.791V9.392h1.398v1.399H128.671z M114.677,8.691
	c0-1.896,2.883-3.498,6.297-3.498s6.297,1.603,6.297,3.498v2.101h-12.594V8.691z M120.974,2.395c4.674,0,8.536,2.454,9.04,5.598
	h-1.419c-0.52-2.403-3.68-4.198-7.621-4.198c-3.942,0-7.102,1.795-7.621,4.198h-1.419C112.438,4.848,116.299,2.395,120.974,2.395z
	 M111.877,9.392h1.399v1.399h-1.399V9.392z M101.382,13.24c0-0.561,0.327-1.051,0.7-1.051h37.784c0.372,0,0.699,0.49,0.699,1.051
	v8.876l-16.095,3.331c-0.02-0.371-0.326-0.662-0.698-0.662h-5.598c-0.371,0-0.678,0.291-0.697,0.662l-16.096-3.331V13.24z
	 M118.875,27.584v-1.399h4.197v1.399H118.875z M119.575,28.983h2.799v1.4h-2.799V28.983z M139.866,40.903
	c0,0.373-0.303,0.676-0.676,0.676h-36.433c-0.373,0-0.675-0.303-0.676-0.676V23.689l15.394,3.186v1.409
	c0,0.386,0.313,0.698,0.699,0.698v2.101c0,0.386,0.313,0.7,0.7,0.7h4.197c0.388,0,0.699-0.313,0.699-0.7v-2.101
	c0.388,0,0.701-0.313,0.701-0.698v-1.409l15.394-3.186V40.903L139.866,40.903z"/>
<g>
	<polygon fill="none" points="418.388,7.242 414.197,7.242 414.197,15.639 418.388,11.419 	"/>
	<path fill="none" d="M429.054,2.769l-20.403,20.542c-0.147,0.15-0.102,0.317-0.073,0.382c0.027,0.066,0.112,0.219,0.324,0.219
		h3.251v18.965h4.246V32.708c0-1.498,0.813-2.895,2.12-3.643l0.313-0.18l-0.282-0.224c-1.223-0.97-1.925-2.413-1.925-3.961
		c0-2.787,2.27-5.057,5.057-5.057c2.789,0,5.059,2.27,5.059,5.057c0,1.548-0.702,2.992-1.925,3.961l-0.283,0.225l0.313,0.18
		c0.627,0.357,1.154,0.875,1.522,1.494l0.11,0.185l0.196-0.085c0.589-0.254,1.227-0.374,1.861-0.328l0.315,0.021v-0.889
		c0-1.975,1.188-3.729,3.026-4.467l0.449-0.183l-0.413-0.254c-1.752-1.074-2.8-2.932-2.8-4.969c0-3.216,2.618-5.832,5.833-5.832
		s5.832,2.617,5.832,5.832c0,2.038-1.046,3.895-2.797,4.969l-0.416,0.254l0.451,0.183c1.841,0.738,3.029,2.492,3.029,4.467v13.414
		h4.479V23.911h3.009c0.218,0,0.307-0.153,0.335-0.221c0.028-0.063,0.076-0.234-0.072-0.389L429.054,2.769z"/>
	<path fill="none" d="M439.309,19.592c0-2.404-1.956-4.36-4.359-4.36c-2.404,0-4.358,1.956-4.358,4.36
		c0,2.403,1.954,4.359,4.358,4.359C437.353,23.951,439.309,21.995,439.309,19.592z"/>
	<path fill="none" d="M421.681,21.117c-1.976,0-3.582,1.607-3.582,3.583c0,1.977,1.606,3.584,3.582,3.584
		c1.978,0,3.585-1.607,3.585-3.584C425.266,22.723,423.658,21.117,421.681,21.117z"/>
	<path fill="none" d="M428.317,31.793c-1.482,0-2.688,1.204-2.688,2.685c0,1.481,1.203,2.687,2.688,2.687
		c1.479,0,2.686-1.205,2.686-2.687C431.002,32.997,429.796,31.793,428.317,31.793z"/>
	<path fill="#50007E" d="M429.07,0.663l-9.21,9.272V5.77h-7.137v11.352l-5.116,5.153c-0.52,0.521-0.672,1.301-0.392,1.981
		c0.28,0.68,0.939,1.124,1.68,1.128h1.786v18.663h7.188V32.708c0-1.503,1.224-2.727,2.727-2.727h2.172
		c1.036,0,1.969,0.581,2.434,1.519l0.074,0.145l-0.105,0.123c-0.652,0.755-1.013,1.718-1.013,2.709c0,1.129,0.448,2.187,1.263,2.979
		l0.073,0.071v0.561l-0.101,0.073c-0.899,0.662-1.414,1.678-1.414,2.788v3.098h1.472v-3.098c0-0.76,0.428-1.445,1.114-1.791
		c0.201-0.103,0.415-0.168,0.635-0.197l0.063-0.007c0.061-0.009,0.127-0.012,0.191-0.012h1.722c0.063,0,0.131,0.003,0.191,0.012
		l0.11,0.016c0.97,0.145,1.701,0.995,1.701,1.979v3.098h1.473v-3.098c0-1.182-0.602-2.274-1.611-2.924l-0.274-0.177l0.25-0.214
		c0.926-0.794,1.457-1.944,1.457-3.156c0-1.45-0.778-2.815-2.03-3.565l-0.119-0.072v-1.378c0-1.843,1.499-3.343,3.343-3.343h2.564
		c1.845,0,3.349,1.5,3.349,3.343v14.583H447V25.383h1.537c0.737,0,1.4-0.438,1.688-1.116c0.293-0.687,0.151-1.448-0.368-1.986
		L429.07,0.663z M414.197,7.242h4.191v4.176l-4.191,4.221V7.242z M421.681,28.283c-1.976,0-3.582-1.607-3.582-3.584
		s1.606-3.583,3.582-3.583c1.978,0,3.585,1.606,3.585,3.583S423.658,28.283,421.681,28.283z M431.001,34.478
		c0,1.481-1.206,2.687-2.686,2.687c-1.483,0-2.688-1.205-2.688-2.687c0-1.48,1.204-2.685,2.688-2.685
		C429.796,31.793,431.001,32.997,431.001,34.478z M434.949,23.951c-2.404,0-4.358-1.956-4.358-4.359c0-2.404,1.954-4.36,4.358-4.36
		c2.403,0,4.359,1.956,4.359,4.36C439.309,21.995,437.353,23.951,434.949,23.951z M448.871,23.691
		c-0.028,0.067-0.116,0.221-0.335,0.221h-3.009v18.965h-4.479V29.463c0-1.976-1.188-3.729-3.029-4.467l-0.451-0.183l0.416-0.254
		c1.751-1.074,2.797-2.932,2.797-4.969c0-3.216-2.617-5.832-5.832-5.832s-5.833,2.617-5.833,5.832c0,2.038,1.048,3.895,2.8,4.969
		l0.413,0.254l-0.449,0.182c-1.841,0.738-3.026,2.492-3.026,4.467v0.889l-0.315-0.021c-0.636-0.046-1.272,0.072-1.861,0.328
		l-0.196,0.085l-0.11-0.185c-0.369-0.619-0.896-1.136-1.522-1.494l-0.313-0.18l0.283-0.225c1.223-0.97,1.925-2.413,1.925-3.961
		c0-2.787-2.27-5.057-5.059-5.057c-2.787,0-5.057,2.27-5.057,5.057c0,1.548,0.702,2.992,1.925,3.961l0.282,0.224l-0.313,0.18
		c-1.308,0.749-2.12,2.146-2.12,3.643v10.168h-4.246V23.911h-3.251c-0.212,0-0.297-0.152-0.324-0.219
		c-0.027-0.063-0.073-0.231,0.073-0.382l20.403-20.542l19.743,20.534C448.948,23.456,448.899,23.626,448.871,23.691z"/>
</g>
<path fill="#50007E" d="M224.558,21.267c-0.161-0.16-0.388-0.232-0.612-0.197l-1.29,0.216v-3.032c0-0.109-0.024-0.217-0.073-0.314
	l-2.809-5.614c-0.208-0.348-0.655-0.46-1.002-0.255c-0.104,0.063-0.191,0.149-0.254,0.255l-2.808,5.614
	c-0.048,0.099-0.074,0.205-0.074,0.314v4.202l-4.395,0.732c0.077-0.302,0.118-0.612,0.12-0.924v-3.156
	c-0.006-0.633,0.266-1.236,0.742-1.652c3.344-2.894,3.708-7.947,0.816-11.29c-0.217-0.25-0.448-0.486-0.693-0.708
	c-1.618-1.462-3.791-2.155-5.957-1.896c-3.645,0.461-6.477,3.398-6.804,7.059c-0.259,2.605,0.776,5.174,2.771,6.873
	c0.457,0.411,0.711,1.001,0.7,1.615v3.156c0.002,0.304,0.04,0.606,0.116,0.901l-4.968-0.828v-8.999c0-0.387-0.314-0.702-0.701-0.702
	l0,0h-5.616c-0.387,0-0.702,0.313-0.702,0.701l0,0v7.829l-0.586-0.099c-0.224-0.035-0.451,0.036-0.611,0.197l-4.213,4.211
	c-0.273,0.274-0.273,0.72,0.002,0.994c0.094,0.095,0.215,0.16,0.346,0.189l2.958,0.642V38.61c0,0.325,0.222,0.607,0.538,0.684
	l17.549,4.212c0.106,0.029,0.22,0.026,0.326-0.008l0.001,0.008l17.55-4.212c0.314-0.076,0.538-0.358,0.539-0.684V27.303l2.957-0.642
	c0.379-0.083,0.619-0.458,0.537-0.837c-0.029-0.132-0.096-0.251-0.189-0.347L224.558,21.267z M219.146,14.207l1.672,3.344h-3.344
	L219.146,14.207z M217.041,18.955h4.212v2.564l-4.212,0.702V18.955z M200.863,10.752c0.265-3,2.579-5.411,5.565-5.797
	c1.769-0.208,3.542,0.354,4.864,1.549c2.706,2.444,2.918,6.617,0.474,9.323c-0.18,0.198-0.371,0.386-0.574,0.563
	c-0.788,0.684-1.238,1.676-1.232,2.719v1.25h-5.617v-1.25c0.017-1.028-0.422-2.014-1.199-2.689
	C201.5,15.018,200.649,12.9,200.863,10.752z M204.342,22.264v-0.501h5.616v0.501c0,0.419-0.113,0.831-0.327,1.192l-2.418,0.402
	l-2.555-0.426C204.452,23.078,204.343,22.675,204.342,22.264z M192.471,19.657h2.106v-1.404h-2.106v-1.404h2.106v-1.404h-2.106
	V14.04h4.212v8.063l-4.212-0.704V19.657z M190.605,22.514l15.146,2.524l-3.679,3.679l-14.515-3.155L190.605,22.514z M190.365,38.057
	V27.609l11.783,2.563c0.049,0.011,0.1,0.016,0.149,0.016c0.187,0,0.365-0.075,0.496-0.206l3.716-3.716v15.667L190.365,38.057z
	 M224.061,38.057l-16.146,3.875V26.265l3.715,3.715c0.131,0.132,0.311,0.206,0.497,0.206c0.051,0,0.1-0.005,0.148-0.015
	l11.786-2.563L224.061,38.057L224.061,38.057z M212.353,28.718l-3.679-3.679l15.146-2.524l3.048,3.047L212.353,28.718z"/>
<path fill="#50007E" d="M204.883,11.991l-0.315,1.936c-0.063,0.384,0.197,0.743,0.579,0.806c0.155,0.025,0.315-0.002,0.453-0.079
	l1.612-0.891l1.613,0.891c0.235,0.131,0.524,0.115,0.743-0.039c0.22-0.155,0.332-0.423,0.288-0.688l-0.314-1.936l1.332-1.365
	c0.271-0.277,0.265-0.723-0.013-0.993c-0.104-0.102-0.238-0.169-0.384-0.191l-1.813-0.276l-0.817-1.741
	c-0.165-0.351-0.583-0.501-0.934-0.337c-0.148,0.07-0.269,0.188-0.337,0.337l-0.817,1.741l-1.813,0.276
	c-0.383,0.059-0.646,0.417-0.587,0.801c0.022,0.145,0.089,0.278,0.191,0.384L204.883,11.991z M206.343,10.496
	c0.232-0.035,0.43-0.184,0.529-0.396l0.341-0.726l0.341,0.726c0.099,0.212,0.297,0.361,0.528,0.396l0.832,0.129l-0.625,0.641
	c-0.155,0.159-0.226,0.383-0.19,0.604l0.142,0.858l-0.688-0.381c-0.211-0.117-0.467-0.117-0.678,0l-0.688,0.381l0.141-0.858
	c0.034-0.221-0.036-0.444-0.19-0.604l-0.626-0.641L206.343,10.496z"/>
<rect x="206.511" y="0" fill="#50007E" width="1.403" height="2.106"/>
<rect x="199.322" y="2.974" transform="matrix(-0.7075 0.7068 -0.7068 -0.7075 344.3791 -134.4932)" fill="#50007E" width="1.405" height="2.106"/>
<rect x="213.359" y="3.336" transform="matrix(-0.7069 0.7073 -0.7073 -0.7069 368.8307 -144.7689)" fill="#50007E" width="2.105" height="1.405"/>
</svg>
