<?xml version="1.0" encoding="utf-8"?>
<!-- Generator: Adobe Illustrator 16.0.0, SVG Export Plug-In . SVG Version: 6.00 Build 0)  -->
<!DOCTYPE svg PUBLIC "-//W3C//DTD SVG 1.1//EN" "http://www.w3.org/Graphics/SVG/1.1/DTD/svg11.dtd">
<svg version="1.1" id="Layer_1" xmlns="http://www.w3.org/2000/svg" xmlns:xlink="http://www.w3.org/1999/xlink" x="0px" y="0px"
	 width="762.307px" height="315.297px" viewBox="0 0 762.307 315.297" enable-background="new 0 0 762.307 315.297"
	 xml:space="preserve">
<path fill="#50007E" d="M98.887,56.624c-5.265-4.903-23.653-20.438-46.045-21.705c-0.958-0.055-1.919-0.093-2.89-0.093
	c-0.97,0-1.934,0.037-2.891,0.093C24.677,36.187,6.284,51.722,1.017,56.626c-0.618,0.579-0.959,1.333-0.959,2.124
	c0,0.793,0.341,1.55,0.961,2.127c5.267,4.903,23.658,20.438,46.044,21.705c0.957,0.055,1.92,0.092,2.891,0.092
	s1.931-0.035,2.891-0.092c22.391-1.266,40.78-16.804,46.044-21.705c0.619-0.579,0.963-1.333,0.963-2.127
	C99.848,57.959,99.509,57.203,98.887,56.624z M2.594,59.183C2.492,59.088,2.37,58.934,2.37,58.75c0-0.183,0.122-0.336,0.225-0.43
	c4.229-3.939,17.168-14.934,33.726-19.327c-6.271,4.34-10.392,11.573-10.392,19.757c0,8.187,4.119,15.417,10.392,19.758
	C19.76,74.115,6.823,63.123,2.594,59.183z M52.613,80.278c-0.874,0.107-1.759,0.179-2.661,0.179s-1.788-0.072-2.661-0.179
	C36.576,78.959,28.245,69.816,28.245,58.75c0-11.065,8.33-20.208,19.047-21.527c0.875-0.106,1.759-0.181,2.661-0.181
	c0.901,0,1.787,0.074,2.661,0.181C63.33,38.542,71.658,47.685,71.658,58.75C71.658,69.816,63.329,78.959,52.613,80.278z
	 M97.311,59.181c-4.231,3.941-17.166,14.936-33.728,19.327c6.271-4.338,10.394-11.572,10.394-19.758
	c0-8.185-4.124-15.417-10.394-19.757C80.145,43.385,93.08,54.378,97.311,58.32c0.101,0.095,0.223,0.248,0.223,0.43
	C97.534,58.934,97.412,59.088,97.311,59.181z M49.953,46.278c-6.889,0-12.472,5.586-12.472,12.472
	c0,6.888,5.583,12.473,12.472,12.473c6.887,0,12.471-5.584,12.471-12.473C62.424,51.865,56.839,46.278,49.953,46.278z
	 M54.049,58.722c-2.191,0-3.968-1.775-3.968-3.968c0-2.189,1.775-3.964,3.968-3.964c2.189,0,3.965,1.775,3.965,3.964
	C58.014,56.946,56.238,58.722,54.049,58.722z"/>
<g>
	<path fill="#50007E" d="M256.062,250.524c16.368-3.273,28.247-17.766,28.247-34.456v-7.269c0-3.205-2.608-5.813-5.815-5.813
		c-3.206,0-5.813,2.607-5.813,5.813v0.189c-1.684,0.528-2.907,2.104-2.907,3.961c0,1.579,0.877,3,2.292,3.711l0.596,0.295
		c-0.429,9.621-7.797,17.473-17.471,18.44l-8.957,0.894l-0.405-2.023c3.8-1.477,6.504-5.165,6.504-9.479v-1.455
		c3.207,0,5.813-2.606,5.813-5.813c0-1.143-0.342-2.201-0.914-3.102c0.586-2.27,0.897-4.601,0.91-6.943l3.182-23.857l-12.83,3.207
		l-9.24-10.777l-9.237,10.777l-12.833-3.205l3.182,23.859c0.01,2.344,0.324,4.675,0.908,6.943c-0.57,0.896-0.912,1.957-0.912,3.1
		c0,3.205,2.606,5.813,5.813,5.813v1.455c0,4.313,2.705,8.002,6.506,9.479l-0.407,2.023l-8.954-0.896
		c-9.674-0.967-17.043-8.819-17.471-18.44l0.596-0.297c1.415-0.707,2.292-2.129,2.292-3.709c0-1.855-1.224-3.431-2.907-3.959v-0.191
		c0-3.205-2.606-5.813-5.813-5.813c-3.208,0-5.814,2.607-5.814,5.813v7.269c0,16.69,11.878,31.183,28.247,34.456l0.821,0.163v13.343
		l0.012,2.907h31.789l0.174-2.907v-13.344L256.062,250.524z M273.923,211.708h1.667v-2.908c0-1.604,1.304-2.906,2.905-2.906
		c1.604,0,2.908,1.305,2.908,2.906v7.269c0,0.488-0.043,0.97-0.063,1.454h-5.817c0.027-0.482,0.067-0.964,0.067-1.454v-0.897
		l-2.219-1.11c-0.426-0.21-0.688-0.636-0.688-1.11C272.682,212.265,273.237,211.708,273.923,211.708z M236.234,240.892l-3.443,2.063
		l-1.271-3.82l1.51,0.152L236.234,240.892z M239.031,249.497h0.446l2.422,14.532h-5.292L239.031,249.497z M239.809,246.586h-1.111
		l-1.456-2.912l2.012-1.205l2.012,1.205L239.809,246.586z M242.271,240.892l3.206-1.604l1.512-0.15l-1.273,3.82L242.271,240.892z
		 M223.753,212.25c-0.224-1.137-0.371-2.291-0.438-3.451h3.667c-0.5,0.859-0.809,1.844-0.809,2.906
		C225.308,211.708,224.493,211.913,223.753,212.25z M231.986,201.534c0-4.007,3.261-7.268,7.268-7.268
		c2.223,0,4.188,1.023,5.521,2.597l-5.521,5.521l-3.332-3.332l-2.056,2.057l5.387,5.387l6.955-6.955
		c0.184,0.64,0.313,1.297,0.313,1.994c0,4.006-3.259,7.268-7.268,7.268C235.247,208.799,231.986,205.542,231.986,201.534z
		 M246.36,208.799h8.83c-0.067,1.16-0.212,2.314-0.438,3.451c-0.738-0.34-1.553-0.545-2.418-0.545h-1.109l-5.201-2.599
		C246.136,209.004,246.252,208.907,246.36,208.799z M252.334,220.428v-5.814c1.604,0,2.907,1.305,2.907,2.908
		C255.242,219.125,253.938,220.428,252.334,220.428z M231.053,190.083l8.2-9.568l8.202,9.568l10.421-2.606l-2.454,18.418h-6.99
		c0.631-1.323,0.994-2.8,0.994-4.36c0-1.521-0.346-2.965-0.948-4.263l3.429-3.431l-2.055-2.055l-3.003,3.004
		c-1.864-2.099-4.575-3.431-7.597-3.431c-5.608,0-10.173,4.567-10.173,10.175c0,1.562,0.364,3.036,0.995,4.359h-6.991l-2.455-18.419
		L231.053,190.083z M223.266,217.522c0-1.604,1.305-2.908,2.906-2.908v5.814C224.571,220.428,223.266,219.125,223.266,217.522z
		 M229.08,224.788v-13.08c0-1.603,1.304-2.906,2.906-2.906h0.162c1.835,1.795,4.343,2.906,7.104,2.906
		c1.385,0,2.702-0.278,3.906-0.781l6.267,3.133v10.729c0,4.006-3.26,7.269-7.267,7.269h-5.813
		C232.34,232.055,229.08,228.793,229.08,224.788z M236.348,234.961h5.813c0.282,0,0.562-0.021,0.835-0.043l0.428,2.146l-4.169,2.085
		l-4.171-2.085l0.429-2.146C235.787,234.941,236.066,234.961,236.348,234.961z M197.105,208.799c0-1.604,1.304-2.906,2.907-2.906
		c1.603,0,2.906,1.305,2.906,2.906v2.906h1.666c0.685,0,1.241,0.559,1.241,1.242c0,0.473-0.263,0.896-0.686,1.109l-2.222,1.109
		v0.898c0,0.49,0.039,0.971,0.068,1.454h-5.818c-0.021-0.485-0.063-0.966-0.063-1.454V208.799z M223.266,245.135v2.588l-0.251-0.051
		c-13.565-2.715-23.738-13.834-25.582-27.246h5.915c1.862,9.492,9.7,16.863,19.68,17.861l5.321,0.532l2.833,8.491l3.561-2.137
		l1.546,3.092l-2.627,15.76h-7.489v-18.893h-2.906V245.135z M244.845,264.029l-2.628-15.76l1.547-3.093l3.561,2.137l2.832-8.49
		l5.322-0.533c9.979-0.998,17.816-8.369,19.68-17.86h5.915c-1.845,13.411-12.017,24.53-25.582,27.245l-0.251,0.051v-2.588h-2.907
		v18.895L244.845,264.029L244.845,264.029z"/>
	<circle fill="#50007E" cx="233.441" cy="216.068" r="1.454"/>
	<circle fill="#50007E" cx="245.066" cy="216.068" r="1.454"/>
	<path fill="#50007E" d="M246.52,221.881v-1.453h-14.534v1.453c0,4.007,3.261,7.267,7.268,7.267
		C243.262,229.148,246.52,225.888,246.52,221.881z M235.143,223.333h8.221c-0.6,1.692-2.217,2.908-4.111,2.908
		C237.359,226.241,235.743,225.026,235.143,223.333z"/>
</g>
<g>
	<g>
		<path fill="#50007E" d="M216.585,56.051h-13.159c-0.908,0-1.644,0.735-1.644,1.645v23.027c0,0.909,0.737,1.646,1.644,1.646h13.159
			c0.907,0,1.645-0.737,1.645-1.646V57.696C218.229,56.786,217.492,56.051,216.585,56.051z M214.941,79.079h-9.869V59.341h9.869
			V79.079z"/>
		<path fill="#50007E" d="M236.323,49.471h-13.159c-0.908,0-1.644,0.737-1.644,1.645v29.607c0,0.909,0.737,1.646,1.644,1.646h13.159
			c0.907,0,1.644-0.737,1.644-1.646V51.116C237.967,50.208,237.23,49.471,236.323,49.471z M234.677,79.079h-9.869V52.76h9.869
			V79.079z"/>
		<path fill="#50007E" d="M256.06,39.604h-13.159c-0.909,0-1.645,0.737-1.645,1.644v39.475c0,0.909,0.735,1.646,1.645,1.646h13.159
			c0.909,0,1.646-0.737,1.646-1.646V41.248C257.706,40.339,256.969,39.604,256.06,39.604z M254.415,79.079h-9.87V42.893h9.87V79.079
			z"/>
		<path fill="#50007E" d="M275.798,26.444h-13.158c-0.91,0-1.646,0.738-1.646,1.645v52.633c0,0.908,0.735,1.645,1.646,1.645h13.158
			c0.907,0,1.645-0.737,1.645-1.645V28.089C277.442,27.182,276.705,26.444,275.798,26.444z M274.152,79.079h-9.869V29.733h9.869
			V79.079z"/>
		<path fill="#50007E" d="M265.484,19.866c0.91,0,1.644-0.738,1.644-1.646V8.352c0-0.035-0.018-0.062-0.02-0.095
			c-0.008-0.114-0.036-0.222-0.068-0.332c-0.027-0.1-0.047-0.196-0.092-0.287c-0.042-0.09-0.104-0.166-0.165-0.244
			c-0.069-0.096-0.137-0.188-0.225-0.264c-0.028-0.024-0.037-0.053-0.063-0.073c-0.054-0.042-0.123-0.056-0.181-0.09
			c-0.1-0.059-0.192-0.115-0.304-0.152c-0.109-0.037-0.216-0.053-0.328-0.066c-0.067-0.009-0.132-0.042-0.2-0.042h-9.424
			c-0.91,0-1.646,0.738-1.646,1.646c0,0.908,0.735,1.644,1.646,1.644h5.905c-10.143,11.542-32.589,29.607-58.54,29.607
			c-0.908,0-1.644,0.737-1.644,1.644s0.738,1.645,1.644,1.645c26.589,0,49.579-18.041,60.412-30.049v5.378
			C263.838,19.128,264.573,19.866,265.484,19.866z"/>
	</g>
</g>
<g>
	<path fill="#50007E" d="M534.896,237.102c3.338-3.639,3.338-9.521,0-13.157l-13.151-14.288c5.703-6.568,5.43-16.916-0.613-23.115
		c-5.92-6.069-15.211-5.928-20.97,0.326l-7.076,7.69l-7.078-7.69c-5.875-6.39-15.402-6.395-21.282-0.014
		c-5.768,6.258-5.899,16.365-0.301,22.8l-13.15,14.291c-3.339,3.636-3.339,9.521,0,13.157l9.315,10.12v0.956h-1.478
		c-0.814,0-1.477,0.719-1.477,1.604v16.045h2.953v-14.439h26.581v14.439h2.953v-16.045c0-0.885-0.66-1.604-1.476-1.604h-1.479
		v-6.418c-0.006-4.696-3.122-8.704-7.383-9.492v-5.906l4.604,5c4.806,5.208,12.584,5.208,17.39,0l4.604-5v5.906
		c-4.26,0.788-7.377,4.796-7.385,9.492v6.418h-1.478c-0.814,0-1.476,0.719-1.476,1.604v16.045h2.952v-14.439h26.582v14.439h2.953
		v-16.045c0-0.885-0.66-1.604-1.477-1.604h-1.478v-0.956L534.896,237.102z M484.216,241.762v6.416h-20.674v-1.618
		c0-0.427-0.155-0.835-0.433-1.136l-9.75-10.594c-2.187-2.379-2.187-6.236,0-8.617l13.146-14.281l2.28,2.479
		c-0.547,0.992-0.835,2.129-0.835,3.284v4.796l-5.737,6.231l2.089,2.271l3.647-3.966v6.711h2.953v-16.044
		c0.002-1.775,1.324-3.215,2.957-3.222h0.007c1.64,0.001,2.965,1.442,2.965,3.222v16.044c0,0.886,0.661,1.604,1.478,1.604
		C481.569,235.348,484.213,238.217,484.216,241.762z M499.691,229.092c-3.652,3.959-9.563,3.959-13.215,0l-6.69-7.27v-4.13
		c0-3.551-2.648-6.428-5.918-6.429h-0.015c-1.045,0.002-2.071,0.309-2.971,0.883l-4.073-4.426
		c-4.761-5.094-4.818-13.415-0.129-18.588c4.688-5.17,12.348-5.232,17.107-0.139c0.042,0.045,0.085,0.094,0.127,0.139l8.123,8.826
		c0.576,0.625,1.513,0.625,2.09,0l0,0l8.122-8.826c4.706-5.15,12.365-5.182,17.106-0.068c4.742,5.114,4.771,13.436,0.065,18.588
		c-0.021,0.023-0.042,0.045-0.065,0.068l-4.072,4.427c-0.898-0.575-1.926-0.882-2.97-0.883h-0.017
		c-3.268-0.001-5.916,2.877-5.918,6.428v4.13L499.691,229.092z M501.952,248.178v-6.418c0.004-3.545,2.646-6.413,5.907-6.418
		c0.815,0,1.478-0.719,1.478-1.605v-16.042c0-1.778,1.326-3.222,2.964-3.222l0,0h0.009c1.633,0.008,2.953,1.445,2.957,3.222v16.044
		h2.953v-6.711l3.647,3.965l2.09-2.27l-5.737-6.232v-4.795c0.001-1.154-0.288-2.292-0.836-3.283l2.281-2.479l13.146,14.28
		c2.188,2.381,2.188,6.238,0,8.619l-9.749,10.592c-0.275,0.301-0.432,0.709-0.432,1.137v1.619L501.952,248.178L501.952,248.178z"/>
</g>
<path fill="#50007E" d="M711.218,39.87c0.539,0,1.011-0.393,1.095-0.943l0.869-5.728c0.092-0.606-0.324-1.17-0.932-1.263
	c-0.604-0.089-1.171,0.325-1.263,0.931l-0.869,5.727c-0.093,0.606,0.325,1.171,0.931,1.263
	C711.106,39.866,711.162,39.87,711.218,39.87z"/>
<path fill="#50007E" d="M704.302,33.715c-0.566,0.235-0.835,0.885-0.6,1.449l1.489,3.579c0.178,0.428,0.59,0.684,1.025,0.684
	c0.143,0,0.285-0.028,0.426-0.085c0.565-0.235,0.833-0.885,0.598-1.451l-1.488-3.578C705.516,33.748,704.867,33.479,704.302,33.715z
	"/>
<path fill="#50007E" d="M716.826,41.125l2.25-2.614c0.399-0.464,0.35-1.164-0.116-1.563c-0.464-0.399-1.163-0.347-1.563,0.117
	l-2.252,2.614c-0.398,0.464-0.347,1.164,0.118,1.564c0.209,0.181,0.467,0.269,0.722,0.269
	C716.297,41.511,716.606,41.381,716.826,41.125z"/>
<path fill="#50007E" d="M727.279,49.971c0.632-0.248,0.943-0.958,0.697-1.591c-0.246-0.632-0.956-0.943-1.591-0.698
	c-1.342,0.524-2.379,1.041-3.292,1.496c-0.331,0.165-0.653,0.324-0.975,0.478c-2.711-4.228-8.383-6.85-15.142-6.92
	c-0.09-0.001-0.179-0.001-0.268-0.001c-6.434,0-12.049,2.419-14.793,6.292c-0.971-0.481-1.894-0.509-3.022-0.334
	c2.804-6.699,1.999-11.422,1.217-16.006c-0.417-2.44-0.819-4.802-0.638-7.422c3.046,2.034,12.785,2.284,16.15,0.636
	c0.144-0.068,0.269-0.166,0.374-0.282c5.301-5.904,5.204-12.055-0.288-18.802c-0.176-0.213-0.414-0.363-0.685-0.423
	c-7.267-1.625-14.32-2.809-20.749,0.489c-0.083,0.043-0.16,0.095-0.232,0.154c-9.056,7.657-14.686,20.42-20.598,35.085
	c-3.348,8.305-1.05,16.949,1.171,25.31c0.419,1.575,0.854,3.205,1.244,4.816c0.106,0.44,0.447,0.785,0.886,0.899
	c0.386,0.1,0.763,0.215,1.141,0.332c1.941,0.597,4.128,1.268,7.059-0.108c10.609,6.652,21.936,10.001,33.778,10.001
	c2.813,0,5.659-0.188,8.528-0.568c0.673-0.089,1.146-0.706,1.056-1.376c-0.089-0.675-0.708-1.145-1.377-1.057
	c-14.788,1.951-28.283-1.137-41.257-9.447c-0.381-0.244-0.863-0.26-1.26-0.04c-2.357,1.309-3.879,0.84-5.807,0.249
	c-0.178-0.056-0.354-0.109-0.533-0.163c-0.35-1.404-0.722-2.806-1.084-4.169c-2.216-8.338-4.308-16.214-1.267-23.76
	c5.763-14.296,11.235-26.728,19.798-34.034c5.549-2.785,11.935-1.77,18.544-0.307c4.411,5.589,4.491,10.266,0.269,15.092
	c-3.132,1.316-11.634,0.623-13.347-0.43c-0.081-1.185-0.031-3.873-0.01-4.457c0.017-0.361-0.124-0.718-0.4-0.97
	c-0.38-0.346-0.935-0.419-1.39-0.184c-0.357,0.184-0.528,0.272-0.612,0.72c-2.372,5.938-1.619,10.356-0.89,14.631
	c0.837,4.903,1.626,9.533-2.03,16.733c-0.216,0.424-0.167,0.933,0.123,1.308c0.292,0.376,0.773,0.548,1.237,0.448l0.524-0.117
	c2.146-0.48,2.769-0.588,3.49-0.132c-0.035,1.509,0.173,5.031,2.633,7.321c0.235,0.22,0.536,0.329,0.836,0.329
	c0.328,0,0.657-0.131,0.898-0.391c0.462-0.497,0.434-1.274-0.063-1.735c-1.899-1.769-1.885-4.869-1.839-5.738
	c2.044-3.623,7.17-5.935,13.204-5.935c0.082,0,0.164,0,0.247,0.001c6.27,0.065,11.588,2.652,13.554,6.59
	c0.286,0.578,0.972,0.834,1.569,0.586c0.74-0.307,1.407-0.638,2.111-0.989C725.097,50.923,726.039,50.456,727.279,49.971z"/>
<path fill="#50007E" d="M460.993,13.572c1.715-0.022,3.327-0.826,4.379-2.182c1.151-1.51,1.658-3.412,1.413-5.292
	c-0.442-3.703-3.43-6.439-6.774-6.063c-1.492,0.181-2.851,0.955-3.767,2.146c-1.15,1.509-1.658,3.412-1.413,5.292
	C455.245,10.949,457.894,13.572,460.993,13.572z M458.609,4.053c0.479-0.634,1.221-1.016,2.014-1.038
	c1.547,0,2.938,1.511,3.17,3.439c0.151,1.083-0.131,2.186-0.784,3.065c-0.419,0.56-1.049,0.927-1.743,1.021
	c-1.655,0.186-3.196-1.382-3.438-3.424C457.674,6.031,457.955,4.93,458.609,4.053z"/>
<path fill="#50007E" d="M540.869,47.038c-0.39-0.283-0.89-0.365-1.349-0.218l-93.499,29.964c-0.624,0.2-1.048,0.779-1.048,1.435
	v3.215c0,0.832,0.676,1.509,1.508,1.509s1.507-0.677,1.507-1.509v-2.115l90.482-28.996v31.11c0,0.832,0.676,1.509,1.508,1.509
	c0.833,0,1.509-0.677,1.509-1.509V48.257C541.489,47.774,541.259,47.321,540.869,47.038z"/>
<path fill="#50007E" d="M465.402,15.332c-1.045,0.645-2.216,1.054-3.435,1.198l9.521,7.12c0.408,0.305,0.942,0.382,1.421,0.209
	c0,0,9.712-3.546,9.717-3.547c0.739-0.282,1.567,0.087,1.851,0.827c0.001,0.006,0.003,0.012,0.006,0.016
	c0.254,0.798-0.174,1.653-0.965,1.929l-11.77,4.259l-7.768-4.484c-0.722-0.415-1.644-0.166-2.06,0.557
	c-0.413,0.721-0.166,1.639,0.552,2.056l2.95,1.701l0.84,7.66c0.171,1.177,0.771,2.251,1.688,3.013l7.182,5.542
	c0.363,0.325,0.647,0.733,0.826,1.188l5.528,17.675l2.873-0.92l-5.521-17.656c-0.363-1.047-1.01-1.973-1.863-2.678l-7.183-5.542
	c-0.266-0.258-0.45-0.588-0.53-0.952l-0.602-5.463l2.188,1.264c0.387,0.221,0.85,0.262,1.27,0.111l8.813-3.189l6.799,33.024
	l2.89-0.926l-6.82-33.137l0.747-0.271c2.332-0.841,3.569-3.386,2.79-5.74c-0.379-1.121-1.197-2.037-2.265-2.542
	c-0.964-0.46-2.063-0.559-3.093-0.276l-0.841-4.09c-0.169-0.817-0.966-1.341-1.781-1.174c-0.815,0.168-1.342,0.967-1.173,1.781l0,0
	l0.929,4.509l-6.468,2.36L465.402,15.332z"/>
<path fill="#50007E" d="M456.674,70.202l3.963-18.543c0.035-0.172,0.044-0.347,0.02-0.521l-0.436-3.175l-2.112-0.852
	c-0.391-0.162-0.767-0.355-1.126-0.577l0.649,4.749l-4.271,19.978L456.674,70.202z"/>
<polygon fill="#50007E" points="461.152,68.766 464.608,67.659 468.393,54.484 467.113,50.746 466.411,50.462 "/>
<path fill="#50007E" d="M449.007,38.706c0.305,1.244,1.094,2.314,2.188,2.977c0.896,0.526,1.964,0.673,2.967,0.408l2.091-0.577
	c0.655,1.239,1.708,2.226,2.986,2.801l10.281,4.149l5.438,15.877l2.873-0.922l-5.681-16.584c-0.141-0.415-0.455-0.746-0.862-0.911
	l-10.921-4.408c-0.878-0.447-1.521-1.252-1.763-2.209l-3.437-20.8c-0.073-0.673,0.306-1.315,0.928-1.579l2.241-0.777
	c-1.255-0.418-2.401-1.104-3.363-2.012c-1.935,0.787-3.081,2.792-2.781,4.857l0.037,0.227l-1.794,0.5l-0.192-0.59
	c-0.253-0.794-1.103-1.231-1.896-0.979c-0.793,0.254-1.231,1.102-0.979,1.895c0.001,0.006,0.004,0.012,0.006,0.019l0.243,0.744
	c-1.522,1.13-2.213,3.068-1.747,4.907L449.007,38.706z M455.432,38.61l-2.071,0.572c-0.702,0.193-1.287-0.622-1.428-1.204
	L448.8,24.994c-0.237-0.837,0.23-1.714,1.062-1.979l2.863-0.797L455.432,38.61z"/>
<rect x="0" y="107.548" fill="none" width="117.377" height="31.25"/>
<g enable-background="new    ">
	<path fill="#50007E" d="M3.526,107.547l7.406,18.125l7.406-18.125h2.676l-8.68,21.24H9.53l-8.68-21.24H3.526z"/>
	<path fill="#50007E" d="M26.607,107.547v21.24h-2.478v-21.24H26.607z"/>
	<path fill="#50007E" d="M31.252,124.752c0.727,0.755,1.548,1.31,2.464,1.663c0.916,0.354,1.817,0.531,2.705,0.531
		c0.859,0,1.654-0.151,2.386-0.453c0.731-0.302,1.319-0.734,1.763-1.296s0.666-1.234,0.666-2.018c0-0.803-0.231-1.473-0.694-2.011
		s-1.064-1.008-1.806-1.409c-0.741-0.401-1.527-0.785-2.357-1.154c-0.689-0.311-1.374-0.639-2.053-0.983s-1.295-0.741-1.848-1.189
		c-0.552-0.448-0.993-0.979-1.324-1.593c-0.331-0.614-0.496-1.351-0.496-2.209c0-1.152,0.302-2.139,0.906-2.96
		s1.418-1.451,2.442-1.891c1.024-0.438,2.165-0.658,3.42-0.658c0.831,0,1.694,0.102,2.591,0.305s1.789,0.521,2.676,0.956
		l-1.005,2.123c-0.661-0.387-1.345-0.67-2.053-0.85c-0.708-0.179-1.397-0.269-2.067-0.269c-1.199,0-2.226,0.273-3.08,0.821
		c-0.854,0.548-1.281,1.331-1.281,2.351c0,0.718,0.217,1.321,0.651,1.813s1,0.921,1.699,1.288c0.699,0.369,1.444,0.732,2.237,1.091
		c0.708,0.321,1.416,0.661,2.124,1.02s1.354,0.774,1.94,1.246s1.055,1.031,1.409,1.678c0.354,0.646,0.531,1.419,0.531,2.315
		c0,1.189-0.323,2.252-0.97,3.186c-0.647,0.936-1.527,1.672-2.641,2.209c-1.114,0.539-2.379,0.808-3.795,0.808
		c-1.095,0-2.195-0.185-3.299-0.552c-1.104-0.369-2.133-0.939-3.087-1.714L31.252,124.752z"/>
	<path fill="#50007E" d="M50.24,107.547v21.24h-2.478v-21.24H50.24z"/>
	<path fill="#50007E" d="M53.639,118.167c0-1.596,0.274-3.065,0.821-4.411c0.547-1.345,1.317-2.514,2.308-3.504
		c0.991-0.992,2.16-1.761,3.504-2.309c1.346-0.548,2.816-0.821,4.411-0.821s3.065,0.273,4.411,0.821
		c1.345,0.548,2.513,1.316,3.504,2.309c0.991,0.99,1.761,2.159,2.308,3.504c0.547,1.346,0.821,2.815,0.821,4.411
		s-0.274,3.065-0.821,4.411c-0.547,1.345-1.317,2.514-2.308,3.504c-0.991,0.992-2.16,1.761-3.504,2.309
		c-1.346,0.548-2.816,0.821-4.411,0.821s-3.065-0.273-4.411-0.821c-1.345-0.548-2.513-1.316-3.504-2.309
		c-0.991-0.99-1.761-2.159-2.308-3.504C53.913,121.233,53.639,119.763,53.639,118.167z M56.188,118.167
		c0,1.681,0.366,3.184,1.098,4.51c0.731,1.326,1.739,2.37,3.023,3.13s2.742,1.14,4.375,1.14s3.089-0.38,4.368-1.14
		c1.279-0.76,2.287-1.804,3.023-3.13s1.104-2.829,1.104-4.51c0-1.689-0.368-3.195-1.104-4.517c-0.736-1.322-1.744-2.363-3.023-3.123
		c-1.279-0.76-2.735-1.14-4.368-1.14s-3.092,0.38-4.375,1.14s-2.292,1.801-3.023,3.123
		C56.553,114.972,56.188,116.478,56.188,118.167z M65.222,105.14h-1.841l2.903-4.673h2.549L65.222,105.14z"/>
	<path fill="#50007E" d="M81.534,107.547l13.183,17.275v-17.275h2.478v21.24h-2.478l-13.183-17.275v17.275h-2.407v-21.24H81.534z"/>
</g>
<rect x="143.543" y="107.548" fill="none" width="207.878" height="31.25"/>
<g enable-background="new    ">
	<path fill="#50007E" d="M151.586,128.816h-5.777v-21.24h5.777c4.172,0,7.377,0.923,9.615,2.769s3.356,4.453,3.356,7.823
		c0,3.38-1.119,5.999-3.356,7.858C158.964,127.886,155.759,128.816,151.586,128.816z M151.586,126.55
		c3.361,0,5.938-0.731,7.731-2.194c1.793-1.464,2.69-3.526,2.69-6.188c0-2.652-0.897-4.703-2.69-6.152s-4.371-2.174-7.731-2.174
		h-3.299v16.709H151.586z"/>
	<path fill="#50007E" d="M167.955,107.547h12.178v2.266h-9.7v6.924h9.133v2.266h-9.133v7.52h10.125v2.266h-12.603V107.547z"/>
	<path fill="#50007E" d="M184.919,124.752c0.727,0.755,1.548,1.31,2.464,1.663c0.916,0.354,1.817,0.531,2.705,0.531
		c0.859,0,1.654-0.151,2.386-0.453c0.731-0.302,1.319-0.734,1.763-1.296s0.666-1.234,0.666-2.018c0-0.803-0.231-1.473-0.694-2.011
		s-1.064-1.008-1.806-1.409c-0.741-0.401-1.527-0.785-2.357-1.154c-0.689-0.311-1.374-0.639-2.053-0.983s-1.295-0.741-1.848-1.189
		c-0.552-0.448-0.993-0.979-1.324-1.593c-0.331-0.614-0.496-1.351-0.496-2.209c0-1.152,0.302-2.139,0.906-2.96
		s1.418-1.451,2.442-1.891c1.024-0.438,2.165-0.658,3.42-0.658c0.831,0,1.694,0.102,2.591,0.305s1.789,0.521,2.676,0.956
		l-1.005,2.123c-0.661-0.387-1.345-0.67-2.053-0.85c-0.708-0.179-1.397-0.269-2.067-0.269c-1.199,0-2.226,0.273-3.08,0.821
		c-0.854,0.548-1.281,1.331-1.281,2.351c0,0.718,0.217,1.321,0.651,1.813s1,0.921,1.699,1.288c0.699,0.369,1.444,0.732,2.237,1.091
		c0.708,0.321,1.416,0.661,2.124,1.02s1.354,0.774,1.94,1.246s1.055,1.031,1.409,1.678c0.354,0.646,0.531,1.419,0.531,2.315
		c0,1.189-0.323,2.252-0.97,3.186c-0.647,0.936-1.527,1.672-2.641,2.209c-1.114,0.539-2.379,0.808-3.795,0.808
		c-1.095,0-2.195-0.185-3.299-0.552c-1.104-0.369-2.133-0.939-3.087-1.714L184.919,124.752z"/>
	<path fill="#50007E" d="M199.164,128.788l8.298-21.24h2.733l8.298,21.24h-2.662l-2.167-5.537h-9.742l-2.167,5.537H199.164z
		 M206.981,115.407l-2.181,5.578h7.986l-2.181-5.578c-0.387-0.992-0.72-1.879-0.998-2.662c-0.279-0.784-0.55-1.577-0.814-2.379
		c-0.255,0.802-0.524,1.595-0.807,2.379C207.703,113.528,207.368,114.415,206.981,115.407z"/>
	<path fill="#50007E" d="M221.042,107.547h6.698c2.294,0,4.087,0.536,5.381,1.607s1.94,2.556,1.94,4.453
		c0,1.473-0.392,2.705-1.175,3.695c-0.784,0.992-1.893,1.681-3.328,2.068l5.438,9.416h-2.875l-5.225-9.063h-4.375v9.063h-2.478
		V107.547z M227.23,117.459c1.718,0,3.028-0.326,3.929-0.977c0.902-0.652,1.353-1.605,1.353-2.861c0-1.246-0.448-2.192-1.345-2.839
		s-2.209-0.97-3.937-0.97h-3.71v7.646H227.23z"/>
	<path fill="#50007E" d="M239.252,107.547h6.698c2.294,0,4.087,0.536,5.381,1.607s1.94,2.556,1.94,4.453
		c0,1.473-0.392,2.705-1.175,3.695c-0.784,0.992-1.893,1.681-3.328,2.068l5.438,9.416h-2.875l-5.225-9.063h-4.375v9.063h-2.478
		V107.547z M245.44,117.459c1.718,0,3.028-0.326,3.929-0.977c0.902-0.652,1.353-1.605,1.353-2.861c0-1.246-0.448-2.192-1.345-2.839
		s-2.209-0.97-3.937-0.97h-3.71v7.646H245.44z"/>
	<path fill="#50007E" d="M256.329,118.167c0-1.596,0.274-3.065,0.821-4.411c0.547-1.345,1.317-2.514,2.308-3.504
		c0.991-0.992,2.16-1.761,3.504-2.309c1.346-0.548,2.816-0.821,4.411-0.821s3.065,0.273,4.411,0.821
		c1.345,0.548,2.513,1.316,3.504,2.309c0.991,0.99,1.761,2.159,2.308,3.504c0.547,1.346,0.821,2.815,0.821,4.411
		s-0.274,3.065-0.821,4.411c-0.547,1.345-1.317,2.514-2.308,3.504c-0.991,0.992-2.16,1.761-3.504,2.309
		c-1.346,0.548-2.816,0.821-4.411,0.821s-3.065-0.273-4.411-0.821c-1.345-0.548-2.513-1.316-3.504-2.309
		c-0.991-0.99-1.761-2.159-2.308-3.504C256.603,121.233,256.329,119.763,256.329,118.167z M258.878,118.167
		c0,1.681,0.366,3.184,1.098,4.51c0.731,1.326,1.739,2.37,3.023,3.13s2.742,1.14,4.375,1.14s3.089-0.38,4.368-1.14
		c1.279-0.76,2.287-1.804,3.023-3.13s1.104-2.829,1.104-4.51c0-1.689-0.368-3.195-1.104-4.517c-0.736-1.322-1.744-2.363-3.023-3.123
		c-1.279-0.76-2.735-1.14-4.368-1.14s-3.092,0.38-4.375,1.14s-2.292,1.801-3.023,3.123
		C259.243,114.972,258.878,116.478,258.878,118.167z"/>
	<path fill="#50007E" d="M294.278,128.788h-12.461v-21.24h2.478v18.975h9.983V128.788z"/>
	<path fill="#50007E" d="M310.421,128.788H297.96v-21.24h2.478v18.975h9.983V128.788z"/>
	<path fill="#50007E" d="M311.695,118.167c0-1.596,0.274-3.065,0.821-4.411c0.547-1.345,1.317-2.514,2.308-3.504
		c0.991-0.992,2.16-1.761,3.504-2.309c1.346-0.548,2.816-0.821,4.411-0.821s3.065,0.273,4.411,0.821
		c1.345,0.548,2.513,1.316,3.504,2.309c0.991,0.99,1.761,2.159,2.308,3.504c0.547,1.346,0.821,2.815,0.821,4.411
		s-0.274,3.065-0.821,4.411c-0.547,1.345-1.317,2.514-2.308,3.504c-0.991,0.992-2.16,1.761-3.504,2.309
		c-1.346,0.548-2.816,0.821-4.411,0.821s-3.065-0.273-4.411-0.821c-1.345-0.548-2.513-1.316-3.504-2.309
		c-0.991-0.99-1.761-2.159-2.308-3.504C311.969,121.233,311.695,119.763,311.695,118.167z M314.244,118.167
		c0,1.681,0.366,3.184,1.098,4.51c0.731,1.326,1.739,2.37,3.023,3.13s2.742,1.14,4.375,1.14s3.089-0.38,4.368-1.14
		c1.279-0.76,2.287-1.804,3.023-3.13s1.104-2.829,1.104-4.51c0-1.689-0.368-3.195-1.104-4.517c-0.736-1.322-1.744-2.363-3.023-3.123
		c-1.279-0.76-2.735-1.14-4.368-1.14s-3.092,0.38-4.375,1.14s-2.292,1.801-3.023,3.123
		C314.61,114.972,314.244,116.478,314.244,118.167z"/>
</g>
<rect x="375.378" y="107.548" fill="none" width="254.877" height="31.25"/>
<g enable-background="new    ">
	<path fill="#50007E" d="M377.643,107.547h7.293c2.369,0,4.177,0.583,5.423,1.749s1.869,2.707,1.869,4.623
		c0,1.907-0.623,3.445-1.869,4.616s-3.054,1.756-5.423,1.756h-4.815v8.496h-2.478V107.547z M380.121,109.813v8.213h4.815
		c1.548,0,2.726-0.378,3.532-1.133c0.808-0.755,1.211-1.746,1.211-2.974c0-1.236-0.403-2.23-1.211-2.98
		c-0.807-0.751-1.984-1.126-3.532-1.126H380.121z"/>
	<path fill="#50007E" d="M395.344,107.547h12.178v2.266h-9.7v6.924h9.134v2.266h-9.134v7.52h10.125v2.266h-12.603V107.547z"/>
	<path fill="#50007E" d="M412.336,107.547h6.698c2.293,0,4.087,0.536,5.381,1.607c1.293,1.071,1.939,2.556,1.939,4.453
		c0,1.473-0.392,2.705-1.176,3.695c-0.783,0.992-1.893,1.681-3.327,2.068l5.438,9.416h-2.874l-5.226-9.063h-4.376v9.063h-2.478
		V107.547z M418.524,117.459c1.718,0,3.027-0.326,3.929-0.977c0.901-0.652,1.353-1.605,1.353-2.861c0-1.246-0.448-2.192-1.346-2.839
		c-0.896-0.646-2.209-0.97-3.936-0.97h-3.711v7.646H418.524z"/>
	<path fill="#50007E" d="M430.659,124.752c0.727,0.755,1.549,1.31,2.464,1.663c0.915,0.354,1.817,0.531,2.704,0.531
		c0.859,0,1.654-0.151,2.387-0.453c0.731-0.302,1.318-0.734,1.763-1.296s0.665-1.234,0.665-2.018c0-0.803-0.23-1.473-0.693-2.011
		s-1.064-1.008-1.806-1.409s-1.526-0.785-2.357-1.154c-0.688-0.311-1.374-0.639-2.054-0.983s-1.295-0.741-1.848-1.189
		c-0.552-0.448-0.993-0.979-1.324-1.593c-0.33-0.614-0.495-1.351-0.495-2.209c0-1.152,0.302-2.139,0.906-2.96
		s1.419-1.451,2.442-1.891c1.024-0.438,2.164-0.658,3.42-0.658c0.83,0,1.694,0.102,2.592,0.305c0.896,0.203,1.789,0.521,2.676,0.956
		l-1.006,2.123c-0.66-0.387-1.345-0.67-2.053-0.85c-0.708-0.179-1.396-0.269-2.067-0.269c-1.198,0-2.226,0.273-3.08,0.821
		s-1.281,1.331-1.281,2.351c0,0.718,0.218,1.321,0.651,1.813s1,0.921,1.699,1.288c0.699,0.369,1.444,0.732,2.237,1.091
		c0.708,0.321,1.416,0.661,2.124,1.02s1.354,0.774,1.939,1.246c0.586,0.472,1.056,1.031,1.409,1.678
		c0.354,0.646,0.531,1.419,0.531,2.315c0,1.189-0.323,2.252-0.97,3.186c-0.646,0.936-1.527,1.672-2.641,2.209
		c-1.114,0.539-2.379,0.808-3.795,0.808c-1.096,0-2.195-0.185-3.3-0.552c-1.104-0.369-2.134-0.939-3.087-1.714L430.659,124.752z"/>
	<path fill="#50007E" d="M447.17,107.547h12.178v2.266h-9.7v6.924h9.134v2.266h-9.134v7.52h10.125v2.266H447.17V107.547z"/>
	<path fill="#50007E" d="M465.139,107.547l7.405,18.125l7.405-18.125h2.677l-8.681,21.24h-2.803l-8.681-21.24H465.139z"/>
	<path fill="#50007E" d="M485.742,107.547h12.178v2.266h-9.7v6.924h9.134v2.266h-9.134v7.52h10.125v2.266h-12.603V107.547z"/>
	<path fill="#50007E" d="M502.734,107.547h6.698c2.293,0,4.087,0.536,5.381,1.607c1.293,1.071,1.939,2.556,1.939,4.453
		c0,1.473-0.392,2.705-1.176,3.695c-0.783,0.992-1.893,1.681-3.327,2.068l5.438,9.416h-2.874l-5.226-9.063h-4.376v9.063h-2.478
		V107.547z M508.923,117.459c1.718,0,3.027-0.326,3.929-0.977c0.901-0.652,1.353-1.605,1.353-2.861c0-1.246-0.448-2.192-1.346-2.839
		c-0.896-0.646-2.209-0.97-3.936-0.97h-3.711v7.646H508.923z"/>
	<path fill="#50007E" d="M518.962,128.788l8.298-21.24h2.733l8.297,21.24h-2.662l-2.166-5.537h-9.742l-2.166,5.537H518.962z
		 M526.778,115.407l-2.181,5.578h7.986l-2.181-5.578c-0.387-0.992-0.72-1.879-0.998-2.662c-0.279-0.784-0.551-1.577-0.814-2.379
		c-0.255,0.802-0.523,1.595-0.807,2.379C527.501,113.528,527.165,114.415,526.778,115.407z"/>
	<path fill="#50007E" d="M543.247,107.547l13.183,17.275v-17.275h2.478v21.24h-2.478l-13.183-17.275v17.275h-2.408v-21.24H543.247z"
		/>
	<path fill="#50007E" d="M579.539,124.356l1.728,1.727c-0.982,0.973-2.147,1.737-3.498,2.295c-1.35,0.557-2.822,0.835-4.418,0.835
		c-1.595,0-3.064-0.273-4.41-0.821s-2.514-1.316-3.505-2.309c-0.991-0.99-1.761-2.159-2.308-3.504
		c-0.548-1.346-0.822-2.815-0.822-4.411s0.274-3.065,0.822-4.411c0.547-1.345,1.316-2.514,2.308-3.504
		c0.991-0.992,2.159-1.761,3.505-2.309s2.815-0.821,4.41-0.821c1.596,0,3.068,0.276,4.418,0.828
		c1.351,0.553,2.516,1.319,3.498,2.302l-1.728,1.727c-0.765-0.812-1.673-1.446-2.726-1.904s-2.207-0.687-3.463-0.687
		c-1.633,0-3.092,0.38-4.375,1.14s-2.291,1.801-3.023,3.123c-0.731,1.321-1.098,2.827-1.098,4.517c0,1.681,0.366,3.184,1.098,4.51
		c0.732,1.326,1.74,2.37,3.023,3.13s2.742,1.14,4.375,1.14c1.256,0,2.41-0.231,3.463-0.694
		C577.866,125.791,578.774,125.158,579.539,124.356z"/>
	<path fill="#50007E" d="M587.284,107.547v21.24h-2.478v-21.24H587.284z"/>
	<path fill="#50007E" d="M589.833,128.788l8.299-21.24h2.732l8.298,21.24H606.5l-2.167-5.537h-9.742l-2.166,5.537H589.833z
		 M597.649,115.407l-2.18,5.578h7.986l-2.182-5.578c-0.387-0.992-0.719-1.879-0.998-2.662c-0.278-0.784-0.55-1.577-0.814-2.379
		c-0.254,0.802-0.523,1.595-0.807,2.379C598.372,113.528,598.037,114.415,597.649,115.407z"/>
</g>
<rect x="644.929" y="106.798" fill="none" width="117.377" height="31.25"/>
<g enable-background="new    ">
	<path fill="#50007E" d="M647.194,106.797h12.178v2.266h-9.699v7.066h9.161v2.266h-9.161v9.643h-2.479V106.797z"/>
	<path fill="#50007E" d="M663.478,118.692v-11.895h2.478v12.319c0,1.369,0.256,2.584,0.766,3.646
		c0.51,1.062,1.227,1.899,2.152,2.513c0.925,0.614,2.006,0.921,3.242,0.921c1.246,0,2.329-0.307,3.25-0.921
		c0.92-0.613,1.635-1.451,2.145-2.513c0.51-1.063,0.766-2.277,0.766-3.646v-12.319h2.478v11.895c0,1.982-0.343,3.705-1.026,5.168
		c-0.685,1.464-1.671,2.597-2.96,3.398c-1.288,0.803-2.839,1.204-4.651,1.204c-1.803,0-3.352-0.401-4.645-1.204
		c-1.293-0.802-2.282-1.935-2.967-3.398C663.821,122.397,663.478,120.674,663.478,118.692z"/>
	<path fill="#50007E" d="M685.285,106.797h12.178v2.266h-9.7v6.924h9.134v2.266h-9.134v7.52h10.125v2.266h-12.603V106.797z"/>
	<path fill="#50007E" d="M702.277,106.797h6.698c2.293,0,4.087,0.536,5.381,1.607c1.293,1.071,1.939,2.556,1.939,4.453
		c0,1.473-0.392,2.705-1.176,3.695c-0.783,0.992-1.893,1.681-3.327,2.068l5.438,9.416h-2.874l-5.226-9.063h-4.376v9.063h-2.478
		V106.797z M708.466,116.709c1.718,0,3.027-0.326,3.929-0.977c0.901-0.652,1.353-1.605,1.353-2.861c0-1.246-0.448-2.192-1.346-2.839
		c-0.896-0.646-2.209-0.97-3.936-0.97h-3.711v7.646H708.466z"/>
	<path fill="#50007E" d="M735.397,109.063l-12.786,16.709h13.212v2.266h-16.327v-2.266l12.786-16.709h-12.361v-2.266h15.477V109.063
		z"/>
	<path fill="#50007E" d="M737.239,128.038l8.297-21.24h2.733l8.298,21.24h-2.662l-2.166-5.537h-9.742l-2.167,5.537H737.239z
		 M745.055,114.657l-2.182,5.578h7.986l-2.18-5.578c-0.388-0.992-0.721-1.879-0.998-2.662c-0.279-0.784-0.551-1.577-0.814-2.379
		c-0.256,0.802-0.524,1.595-0.808,2.379C745.777,112.778,745.442,113.665,745.055,114.657z"/>
</g>
<rect x="151.778" y="284.047" fill="none" width="173.377" height="31.25"/>
<g enable-background="new    ">
	<path fill="#50007E" d="M170.144,300.856l1.728,1.727c-0.982,0.973-2.147,1.737-3.498,2.295c-1.35,0.557-2.823,0.835-4.418,0.835
		s-3.065-0.273-4.411-0.821c-1.345-0.548-2.513-1.316-3.504-2.309c-0.991-0.99-1.761-2.159-2.308-3.504
		c-0.547-1.346-0.821-2.815-0.821-4.411s0.274-3.065,0.821-4.411c0.547-1.345,1.317-2.514,2.308-3.504
		c0.991-0.992,2.16-1.761,3.504-2.309c1.346-0.548,2.816-0.821,4.411-0.821s3.068,0.276,4.418,0.828
		c1.35,0.553,2.516,1.319,3.498,2.302l-1.728,1.727c-0.765-0.812-1.673-1.446-2.726-1.904c-1.052-0.458-2.207-0.687-3.462-0.687
		c-1.633,0-3.092,0.38-4.375,1.14s-2.292,1.801-3.023,3.123c-0.732,1.321-1.098,2.827-1.098,4.517c0,1.681,0.366,3.184,1.098,4.51
		c0.731,1.326,1.739,2.37,3.023,3.13s2.742,1.14,4.375,1.14c1.255,0,2.41-0.231,3.462-0.694
		C168.471,302.291,169.38,301.658,170.144,300.856z"/>
	<path fill="#50007E" d="M174.421,294.667c0-1.596,0.274-3.065,0.821-4.411c0.547-1.345,1.317-2.514,2.308-3.504
		c0.991-0.992,2.16-1.761,3.504-2.309c1.346-0.548,2.816-0.821,4.411-0.821s3.065,0.273,4.411,0.821
		c1.345,0.548,2.513,1.316,3.504,2.309c0.991,0.99,1.761,2.159,2.308,3.504c0.547,1.346,0.821,2.815,0.821,4.411
		s-0.274,3.065-0.821,4.411c-0.547,1.345-1.317,2.514-2.308,3.504c-0.991,0.992-2.16,1.761-3.504,2.309
		c-1.346,0.548-2.816,0.821-4.411,0.821s-3.065-0.273-4.411-0.821c-1.345-0.548-2.513-1.316-3.504-2.309
		c-0.991-0.99-1.761-2.159-2.308-3.504C174.695,297.733,174.421,296.263,174.421,294.667z M176.969,294.667
		c0,1.681,0.366,3.184,1.098,4.51c0.731,1.326,1.739,2.37,3.023,3.13s2.742,1.14,4.375,1.14s3.089-0.38,4.368-1.14
		c1.279-0.76,2.287-1.804,3.023-3.13s1.104-2.829,1.104-4.51c0-1.689-0.368-3.195-1.104-4.517c-0.736-1.322-1.744-2.363-3.023-3.123
		c-1.279-0.76-2.735-1.14-4.368-1.14s-3.092,0.38-4.375,1.14s-2.292,1.801-3.023,3.123
		C177.335,291.472,176.969,292.978,176.969,294.667z"/>
	<path fill="#50007E" d="M202.316,284.047l13.183,17.275v-17.275h2.478v21.24h-2.478l-13.183-17.275v17.275h-2.407v-21.24H202.316z"
		/>
	<path fill="#50007E" d="M222.509,284.047h12.178v2.266h-9.7v7.066h9.162v2.266h-9.162v9.643h-2.478V284.047z"/>
	<path fill="#50007E" d="M241.271,284.047v21.24h-2.478v-21.24H241.271z"/>
	<path fill="#50007E" d="M243.82,305.288l8.298-21.24h2.733l8.298,21.24h-2.662l-2.167-5.537h-9.742l-2.167,5.537H243.82z
		 M251.636,291.907l-2.181,5.578h7.986l-2.181-5.578c-0.387-0.992-0.72-1.879-0.998-2.662c-0.279-0.784-0.55-1.577-0.814-2.379
		c-0.255,0.802-0.524,1.595-0.807,2.379C252.358,290.028,252.023,290.915,251.636,291.907z"/>
	<path fill="#50007E" d="M268.104,284.047l13.183,17.275v-17.275h2.478v21.24h-2.478l-13.183-17.275v17.275h-2.407v-21.24H268.104z"
		/>
	<path fill="#50007E" d="M303.207,286.313l-12.787,16.709h13.211v2.266h-16.327v-2.266l12.787-16.709H287.73v-2.266h15.477V286.313z
		"/>
	<path fill="#50007E" d="M305.048,305.288l8.298-21.24h2.733l8.298,21.24h-2.662l-2.167-5.537h-9.742l-2.167,5.537H305.048z
		 M312.865,291.907l-2.181,5.578h7.986l-2.181-5.578c-0.387-0.992-0.72-1.879-0.998-2.662c-0.279-0.784-0.55-1.577-0.814-2.379
		c-0.255,0.802-0.524,1.595-0.807,2.379C313.587,290.028,313.252,290.915,312.865,291.907z"/>
</g>
<rect x="364.378" y="284.047" fill="none" width="264.826" height="31.25"/>
<g enable-background="new    ">
	<path fill="#50007E" d="M366.643,284.047h12.178v2.266h-9.7v7.066h9.162v2.266h-9.162v9.643h-2.478V284.047z"/>
	<path fill="#50007E" d="M382.927,284.047h12.178v2.266h-9.7v6.924h9.134v2.266h-9.134v7.52h10.125v2.266h-12.603V284.047z"/>
	<path fill="#50007E" d="M407.283,284.047h12.178v2.266h-9.7v6.924h9.134v2.266h-9.134v7.52h10.125v2.266h-12.603V284.047z"/>
	<path fill="#50007E" d="M426.682,284.047l13.184,17.275v-17.275h2.478v21.24h-2.478l-13.184-17.275v17.275h-2.407v-21.24H426.682z"
		/>
	<path fill="#50007E" d="M454.238,295.942v-11.895h2.478v12.319c0,1.369,0.256,2.584,0.766,3.646
		c0.51,1.062,1.227,1.899,2.152,2.513c0.925,0.614,2.006,0.921,3.242,0.921c1.246,0,2.329-0.307,3.25-0.921
		c0.92-0.613,1.635-1.451,2.145-2.513c0.51-1.063,0.766-2.277,0.766-3.646v-12.319h2.478v11.895c0,1.982-0.343,3.705-1.026,5.168
		c-0.685,1.464-1.671,2.597-2.96,3.398c-1.288,0.803-2.839,1.204-4.651,1.204c-1.803,0-3.352-0.401-4.645-1.204
		c-1.293-0.802-2.282-1.935-2.967-3.398C454.581,299.647,454.238,297.924,454.238,295.942z"/>
	<path fill="#50007E" d="M478.452,284.047l13.184,17.275v-17.275h2.478v21.24h-2.478l-13.184-17.275v17.275h-2.407v-21.24H478.452z"
		/>
	<path fill="#50007E" d="M497.511,294.667c0-1.596,0.274-3.065,0.821-4.411c0.547-1.345,1.316-2.514,2.309-3.504
		c0.99-0.992,2.159-1.761,3.504-2.309c1.346-0.548,2.816-0.821,4.411-0.821s3.065,0.273,4.411,0.821
		c1.345,0.548,2.514,1.316,3.504,2.309c0.992,0.99,1.762,2.159,2.309,3.504c0.547,1.346,0.821,2.815,0.821,4.411
		s-0.274,3.065-0.821,4.411c-0.547,1.345-1.316,2.514-2.309,3.504c-0.99,0.992-2.159,1.761-3.504,2.309
		c-1.346,0.548-2.816,0.821-4.411,0.821s-3.065-0.273-4.411-0.821c-1.345-0.548-2.514-1.316-3.504-2.309
		c-0.992-0.99-1.762-2.159-2.309-3.504C497.786,297.733,497.511,296.263,497.511,294.667z M500.06,294.667
		c0,1.681,0.366,3.184,1.098,4.51s1.739,2.37,3.022,3.13c1.284,0.76,2.742,1.14,4.376,1.14s3.089-0.38,4.368-1.14
		s2.287-1.804,3.023-3.13s1.104-2.829,1.104-4.51c0-1.689-0.368-3.195-1.104-4.517c-0.736-1.322-1.744-2.363-3.023-3.123
		s-2.734-1.14-4.368-1.14s-3.092,0.38-4.376,1.14c-1.283,0.76-2.291,1.801-3.022,3.123
		C500.427,291.472,500.06,292.978,500.06,294.667z"/>
	<path fill="#50007E" d="M530.363,284.047h3.738l6.967,14.925l6.952-14.925h3.654v21.24h-2.479v-18.055l-6.797,14.586h-2.732
		l-6.826-14.613v18.082h-2.478V284.047z"/>
	<path fill="#50007E" d="M558.683,284.047v21.24h-2.478v-21.24H558.683z"/>
	<path fill="#50007E" d="M563.328,301.252c0.728,0.755,1.548,1.31,2.464,1.663c0.916,0.354,1.817,0.531,2.705,0.531
		c0.858,0,1.654-0.151,2.386-0.453s1.319-0.734,1.763-1.296s0.666-1.234,0.666-2.018c0-0.803-0.232-1.473-0.694-2.011
		s-1.064-1.008-1.806-1.409c-0.74-0.401-1.527-0.785-2.357-1.154c-0.689-0.311-1.373-0.639-2.053-0.983s-1.296-0.741-1.849-1.189
		c-0.552-0.448-0.993-0.979-1.323-1.593c-0.331-0.614-0.496-1.351-0.496-2.209c0-1.152,0.303-2.139,0.906-2.96
		s1.418-1.451,2.442-1.891c1.024-0.438,2.165-0.658,3.42-0.658c0.831,0,1.694,0.102,2.591,0.305
		c0.897,0.203,1.789,0.521,2.677,0.956l-1.005,2.123c-0.661-0.387-1.346-0.67-2.054-0.85c-0.708-0.179-1.397-0.269-2.067-0.269
		c-1.199,0-2.226,0.273-3.08,0.821c-0.854,0.548-1.281,1.331-1.281,2.351c0,0.718,0.217,1.321,0.651,1.813s1.001,0.921,1.699,1.288
		c0.698,0.369,1.444,0.732,2.237,1.091c0.708,0.321,1.416,0.661,2.124,1.02s1.354,0.774,1.94,1.246
		c0.585,0.472,1.055,1.031,1.408,1.678c0.354,0.646,0.531,1.419,0.531,2.315c0,1.189-0.323,2.252-0.97,3.186
		c-0.647,0.936-1.527,1.672-2.642,2.209c-1.113,0.539-2.379,0.808-3.795,0.808c-1.095,0-2.194-0.185-3.299-0.552
		c-1.104-0.369-2.133-0.939-3.087-1.714L563.328,301.252z"/>
	<path fill="#50007E" d="M579.839,284.047h3.738l6.967,14.925l6.953-14.925h3.652v21.24h-2.478v-18.055l-6.797,14.586h-2.733
		l-6.824-14.613v18.082h-2.479V284.047z"/>
	<path fill="#50007E" d="M604.548,294.667c0-1.596,0.274-3.065,0.822-4.411c0.547-1.345,1.316-2.514,2.308-3.504
		c0.991-0.992,2.159-1.761,3.505-2.309s2.815-0.821,4.41-0.821c1.596,0,3.066,0.273,4.412,0.821
		c1.344,0.548,2.513,1.316,3.504,2.309c0.991,0.99,1.761,2.159,2.309,3.504c0.547,1.346,0.82,2.815,0.82,4.411
		s-0.273,3.065-0.82,4.411c-0.548,1.345-1.317,2.514-2.309,3.504c-0.991,0.992-2.16,1.761-3.504,2.309
		c-1.346,0.548-2.816,0.821-4.412,0.821c-1.595,0-3.064-0.273-4.41-0.821s-2.514-1.316-3.505-2.309
		c-0.991-0.99-1.761-2.159-2.308-3.504C604.822,297.733,604.548,296.263,604.548,294.667z M607.096,294.667
		c0,1.681,0.366,3.184,1.098,4.51c0.732,1.326,1.74,2.37,3.023,3.13s2.742,1.14,4.375,1.14c1.634,0,3.09-0.38,4.369-1.14
		s2.287-1.804,3.023-3.13s1.104-2.829,1.104-4.51c0-1.689-0.367-3.195-1.104-4.517c-0.736-1.322-1.744-2.363-3.023-3.123
		s-2.735-1.14-4.369-1.14c-1.633,0-3.092,0.38-4.375,1.14s-2.291,1.801-3.023,3.123
		C607.463,291.472,607.096,292.978,607.096,294.667z"/>
</g>
</svg>
