<?xml version="1.0" encoding="utf-8"?>
<!-- Generator: Adobe Illustrator 16.0.0, SVG Export Plug-In . SVG Version: 6.00 Build 0)  -->
<!DOCTYPE svg PUBLIC "-//W3C//DTD SVG 1.1//EN" "http://www.w3.org/Graphics/SVG/1.1/DTD/svg11.dtd">
<svg version="1.1" id="Layer_1" xmlns="http://www.w3.org/2000/svg" xmlns:xlink="http://www.w3.org/1999/xlink" x="0px" y="0px"
	 width="453.304px" height="463.428px" viewBox="0 0 453.304 463.428" enable-background="new 0 0 453.304 463.428"
	 xml:space="preserve">
<g>
	<g>
		<defs>
			<circle id="SVGID_1_" cx="226.652" cy="226.651" r="226.652"/>
		</defs>
		<clipPath id="SVGID_2_">
			<use xlink:href="#SVGID_1_"  overflow="visible"/>
		</clipPath>
		<circle clip-path="url(#SVGID_2_)" fill="#E3CDFC" cx="226.652" cy="226.651" r="226.652"/>
		<g clip-path="url(#SVGID_2_)">
			<g>
				
					<ellipse transform="matrix(0.9881 -0.154 0.154 0.9881 -19.4975 39.3913)" fill="#603813" cx="244.584" cy="145.583" rx="42.549" ry="54.049"/>
				<polygon points="171.118,273.542 256.216,276.991 231.896,327.354 179.167,325.253 				"/>
				<path fill="#ACDDD9" d="M337.805,431.375c-1.261-14.886-2.198-26.313-2.601-31.983c-1.191-16.955-4.164-55.42-4.516-59.996
					c-2.155-1.516-4.355-2.965-6.593-4.355c-0.065-0.037-0.132-0.074-0.206-0.121c-1.646-0.977-3.536-2.084-5.575-3.256
					c-0.019-0.02-0.028-0.029-0.047-0.029c-8.747-5.094-20.231-11.58-27.825-15.184c-18.989-9.014-38.506-14.525-59.035-17.488
					c-34.168-4.914-68.038,1.02-92.912,7.963c-22.323,6.227-37.415,13.273-39,14.025c-0.092,0.051-0.138,0.07-0.138,0.07
					s14.226,6.094,18.04,29.523c4.599,28.242,3.962,54.852,0.688,78.486C164.391,460.838,307.541,474.536,337.805,431.375z"/>
				<g>
					<path fill="#FFCFCA" d="M169.694,226.499c0.933,5.158,1.844,10.322,2.767,15.479c0.061,0.309,0.111,0.625,0.162,0.934
						c0.026,0.143,0.054,0.277,0.08,0.42c1.224,6.838,2.438,13.664,3.275,20.535c0.349,2.754,0.625,5.531,0.819,8.311
						c0.224,3.104,0.346,6.229,0.377,9.344c0.089,5.963-0.074,11.932-0.257,17.887c-0.103,3.369-0.152,6.73-0.176,10.096
						c-0.027,3.895-1.683,8.1-0.097,11.883c2.007,4.783,6.596,7.264,10.639,10.068c4.404,3.059,9.198,5.564,14.218,7.443
						c9.849,3.686,20.962,5.063,31.152,1.932c19.482-5.982,14.319-27.4,14.252-42.912l-0.019-4.293l-0.031-11.357l-0.062-16.164
						c-5.569-1.365-10.785-3.893-15.953-6.408c-17.142-8.385-34.173-16.98-50.869-26.229c-0.45-0.246-0.879-0.488-1.3-0.721
						C175.315,230.88,172.568,229.286,169.694,226.499z"/>
				</g>
				<g>
					<path fill="#F9BFBB" d="M246.904,297.921c-19.292-4.986-37.854-12.709-54.713-23.256c-5.362-3.35-10.923-6.936-16.215-10.797
						c-0.832-6.875-2.053-13.697-3.271-20.533c-1.003-5.607-2.003-11.23-3.006-16.838c3.229,3.135,6.312,4.775,10.273,6.969
						c16.691,9.244,33.726,17.85,50.871,26.229c5.166,2.518,10.379,5.045,15.957,6.41L246.904,297.921z"/>
				</g>
				<g>
					<g>
						<path fill="#FFCFCA" d="M179.938,230.714c-8.799,6.146-20.924,7.217-30.614,2.574c-8.187-3.914-14.319-11.787-16.307-20.618
							c-0.357-1.604-0.579-3.229-0.66-4.894c-0.134-2.894,0.185-5.829,1.169-8.55c2.468-6.711,9.292-11.453,16.419-11.917
							c7.144-0.461,14.303,3.151,18.587,8.878l4.384,13.277L179.938,230.714z"/>
					</g>
				</g>
				<path fill="#C15252" d="M40.02,354.04c24.149-31.049,102.498-49.289,106.373-50.369c11.293-3.209,22.689-6.096,34.154-8.648
					c11.351,26.934,14.145,53.43,17.043,82.5c-3.007,56.679-14.707,118.932-43.489,65.6C104.476,434.056,32.01,364.337,40.02,354.04
					z"/>
				<g>
					<polygon fill="#363740" points="207.917,328.741 207.078,333.122 206.238,337.583 204.835,344.933 204.007,349.325 
						201.696,361.446 200.891,365.688 197.947,381.169 150.418,302.29 153.719,297.702 155.984,294.552 159.963,289.032 
						162.217,285.903 165.609,281.2 167.829,278.106 171.118,273.542 					"/>
					<g>
						<path fill="#FFFFFF" d="M207.078,333.122l-0.839,4.461c-7.463-9.463-14.754-19.055-21.884-28.76
							c-6.566-8.936-13.524-17.803-18.745-27.623l2.219-3.094c2.622,5.129,5.796,9.936,9.143,14.65
							C186.7,306.442,196.739,319.897,207.078,333.122z"/>
						<path fill="#FFFFFF" d="M204.835,344.933l-0.828,4.393c-8.476-10.006-16.801-20.148-24.713-30.59
							c-7.141-9.418-13.846-19.227-19.331-29.703l2.254-3.129c2.553,5.014,5.394,9.879,8.441,14.617
							c8.326,12.947,18.078,24.92,27.841,36.787C200.592,339.86,202.708,342.401,204.835,344.933z"/>
						<path fill="#FFFFFF" d="M201.696,361.446l-0.805,4.242c-9.855-10.729-18.94-22.17-27.163-34.199
							c-4.841-7.084-9.384-14.375-13.604-21.85c-2.139-3.771-4.186-7.59-6.152-11.443c-0.081-0.16-0.173-0.332-0.253-0.494
							l2.265-3.15c0.586,1.139,1.162,2.289,1.748,3.426c2.22,4.291,4.531,8.512,6.946,12.686
							c8.533,14.73,18.308,28.738,29.209,41.801C196.429,355.513,199.04,358.513,201.696,361.446z"/>
					</g>
				</g>
				<path fill="#C15252" d="M229.8,462.065c-2.539-30.54-3.967-59.238-1.447-84.543c2.898-29.07,5.691-55.566,17.043-82.5
					c11.465,2.553,22.861,5.439,34.154,8.648c3.875,1.08,82.223,19.32,106.373,50.369c2.839,3.65,7.812,13.338,13.808,26.15
					C391.788,423.167,242.357,471.978,229.8,462.065z"/>
				<g>
					<polygon fill="#363740" points="218.025,328.741 218.864,333.122 219.704,337.583 221.107,344.933 221.936,349.325 
						224.247,361.446 225.052,365.688 227.995,381.169 275.524,302.29 272.224,297.702 269.958,294.552 265.979,289.032 
						263.726,285.903 260.333,281.2 258.114,278.106 254.825,273.542 					"/>
					<g>
						<path fill="#FFFFFF" d="M218.864,333.122l0.84,4.461c7.464-9.463,14.754-19.055,21.885-28.76
							c6.566-8.936,13.523-17.803,18.744-27.623l-2.219-3.094c-2.623,5.129-5.797,9.936-9.143,14.65
							C239.243,306.442,229.203,319.897,218.864,333.122z"/>
						<path fill="#FFFFFF" d="M221.107,344.933l0.828,4.393c8.476-10.006,16.802-20.148,24.713-30.59
							c7.142-9.418,13.846-19.227,19.331-29.703l-2.254-3.129c-2.553,5.014-5.394,9.879-8.441,14.617
							c-8.325,12.947-18.077,24.92-27.84,36.787C225.351,339.86,223.235,342.401,221.107,344.933z"/>
						<path fill="#FFFFFF" d="M224.247,361.446l0.805,4.242c9.855-10.729,18.94-22.17,27.162-34.199
							c4.842-7.084,9.385-14.375,13.605-21.85c2.139-3.771,4.186-7.59,6.152-11.443c0.08-0.16,0.172-0.332,0.252-0.494l-2.266-3.15
							c-0.586,1.139-1.16,2.289-1.748,3.426c-2.219,4.291-4.53,8.512-6.945,12.686c-8.533,14.73-18.308,28.738-29.209,41.801
							C229.514,355.513,226.903,358.513,224.247,361.446z"/>
					</g>
				</g>
				<g>
					<path fill="#FFCFCA" d="M279.962,246.319c-4.251,10.377-10.145,19.818-19.803,25.895c-8.566,5.385-18.875,8.018-28.971,7.58
						c-11.174-0.488-21.918-4.383-31.423-10.371c-4.73-2.982-9.161-6.48-13.172-10.342c-7.015-6.748-12.913-14.559-17.993-22.832
						c-8.251-13.469-14.912-28.812-18.209-44.658c-3.761-17.915-3.24-36.48,4.059-53.667c2.956-7.009,7.095-13.504,12.19-19.166
						c21.467-23.899,58.37-28.027,84.608-9.458c13.665,9.682,23.861,24.228,29.305,39.972c1.729,4.99,3.217,10.113,4.426,15.313
						C291.265,191.52,290.425,220.747,279.962,246.319z"/>
				</g>
				<g>
					<g>
						<g>
							<path fill="#1F3C49" d="M225.662,198.297c-1.406,0.072-3.347-2.163-3.883-5.487c-0.282-1.751-0.111-3.503,0.469-4.806
								c0.2-0.45,0.761-1.514,1.622-1.652c0.045-0.008,0.089-0.012,0.133-0.014c1.407-0.073,3.347,2.163,3.883,5.487
								c0.283,1.751,0.111,3.503-0.469,4.806c-0.201,0.451-0.762,1.514-1.623,1.652
								C225.751,198.292,225.706,198.295,225.662,198.297z"/>
							<path fill="#1F3C49" d="M267.825,194.208c-1.188,0.062-3.18-1.926-3.725-5.302c-0.273-1.698-0.107-3.394,0.453-4.653
								c0.405-0.91,0.966-1.485,1.537-1.578c0.041-0.006,0.082-0.011,0.123-0.013c1.188-0.062,3.18,1.927,3.724,5.303
								c0.273,1.697,0.108,3.394-0.453,4.653c-0.405,0.91-0.966,1.485-1.536,1.577C267.907,194.202,267.866,194.206,267.825,194.208
								L267.825,194.208z"/>
							<path fill="#1F3C49" d="M246.666,201.864c1.103-1.211,2.966-1.73,4.724-1.408c1.791,0.297,3.44,1.575,4.27,3.212
								c0.871,1.614,0.977,3.7,0.195,5.341c-0.742,1.627-2.234,2.859-3.859,3.067c1.135-1.14,1.771-2.424,2.014-3.694
								c0.242-1.264,0.014-2.475-0.549-3.566c-0.57-1.087-1.434-1.969-2.61-2.493C249.669,201.792,248.249,201.582,246.666,201.864z
								"/>
						</g>
						<g>
							<path fill="#1F3C49" d="M226.96,167.946c-1.982-0.974-4.23-1.553-6.5-1.676c-2.375-0.128-4.77,0.242-6.924,1.072
								c-1.687,0.65-2.531,2.551-1.88,4.238c0.328,0.85,1.001,1.53,1.843,1.865c0.333,0.133,0.683,0.211,1.04,0.229
								c0.463,0.025,0.919-0.047,1.355-0.215c1.309-0.505,2.77-0.729,4.225-0.651c1.387,0.075,2.75,0.428,3.95,1.021
								c0.399,0.196,0.827,0.309,1.271,0.332c1.311,0.071,2.535-0.646,3.117-1.825C229.255,170.715,228.585,168.747,226.96,167.946z
								"/>
							<path fill="#1F3C49" d="M267.209,161.124c-0.761-0.162-1.548-0.267-2.339-0.309c-3.48-0.188-6.951,0.771-9.774,2.705
								c-1.489,1.021-1.872,3.064-0.851,4.559c0.446,0.65,1.113,1.119,1.873,1.316c0.214,0.057,0.435,0.091,0.654,0.104
								c0.717,0.038,1.438-0.164,2.029-0.569c1.615-1.105,3.693-1.677,5.703-1.568c0.455,0.024,0.905,0.083,1.34,0.177
								c0.17,0.035,0.338,0.057,0.506,0.066c1.623,0.088,3.045-1.002,3.383-2.593C270.104,163.263,268.983,161.522,267.209,161.124z
								"/>
						</g>
						<path fill="#FFFFFF" d="M224.849,188.523c-2.056-0.425-2.721,2.769-0.662,3.194
							C226.243,192.143,226.907,188.949,224.849,188.523z"/>
						<path fill="#FFFFFF" d="M267.675,184.395c-2.055-0.425-2.72,2.769-0.661,3.194
							C269.069,188.015,269.733,184.821,267.675,184.395z"/>
						<g>
							<path fill="#D55454" d="M272.247,218.058c0.577,5.697-0.447,11.119-2.666,15.736c-3.549,7.41-10.171,12.686-18.186,13.498
								c-8.21,0.83-15.922-3.217-20.861-10.045c-2.918-3.99-4.875-8.939-5.429-14.412c-0.021-0.197-0.014-0.396-0.034-0.605
								l47.088-4.771C272.181,217.669,272.228,217.862,272.247,218.058z"/>
							<path fill="#FFFFFF" d="M270.248,217.651c-4.711,6.127-12.093,10.434-20.71,11.307c-8.615,0.873-16.712-1.865-22.556-6.922
								L270.248,217.651z"/>
							<path fill="#F37C7C" d="M269.581,233.794c-3.549,7.41-10.171,12.686-18.186,13.498c-8.21,0.83-15.922-3.217-20.861-10.045
								c7.861-2.582,16.102-4.039,24.371-4.281C259.813,232.825,264.724,233.108,269.581,233.794z"/>
						</g>
					</g>
					<g>
						
							<ellipse transform="matrix(0.9986 -0.0531 0.0531 0.9986 -10.9534 11.4366)" fill="#F9BFBB" cx="209.852" cy="211.951" rx="13.193" ry="9.718"/>
						
							<ellipse transform="matrix(0.9986 -0.0531 0.0531 0.9986 -10.3921 14.9162)" fill="#F9BFBB" cx="275.485" cy="203.009" rx="8.91" ry="6.561"/>
					</g>
				</g>
				<path fill="#603813" d="M146.082,123.861c-2.146-8.333,0.576-17.582,5.971-23.928c5.395-6.347,13.144-9.987,21.052-11.291
					c7.908-1.304,16.009-0.432,23.888,1.162c7.588,1.534,15.188,3.744,22.885,3.281c9.449-0.568,18.596-5.364,24.82-13.016
					c5.896-7.247,18.573-6.178,26.242-1.119c7.67,5.06,15.229,13.94,16.809,23.481c1.516,9.147,0.656,24.388-13.656,32.77
					c-16.869,9.879-69.918,6.381-77.082,6.202c-7.165-0.179-14.862,1.694-19.59,7.471c-9.39,11.47-11.221,28.749-11.887,44.075
					c-5.54-3.138-10.822-4.438-17.064-4.404c-2.749,0.014-5.745,0.229-9.101,2.664c-5.92-11.462-9.406-23.772-12.117-36.546
					c-1.344-6.333-2.276-12.876-1.48-19.302c0.303-2.447,0.881-4.918,2.191-6.938c1.973-3.042,5.416-4.69,8.849-5.056
					C140.244,123.001,142.748,122.875,146.082,123.861z"/>
			</g>
		</g>
	</g>
</g>
</svg>
