<?xml version="1.0" encoding="utf-8"?>
<!-- Generator: Adobe Illustrator 16.0.0, SVG Export Plug-In . SVG Version: 6.00 Build 0)  -->
<!DOCTYPE svg PUBLIC "-//W3C//DTD SVG 1.1//EN" "http://www.w3.org/Graphics/SVG/1.1/DTD/svg11.dtd">
<svg version="1.1" id="Layer_1" xmlns="http://www.w3.org/2000/svg" xmlns:xlink="http://www.w3.org/1999/xlink" x="0px" y="0px"
	 width="614.377px" height="366.193px" viewBox="0 0 614.377 366.193" enable-background="new 0 0 614.377 366.193"
	 xml:space="preserve">
<g>
	<g enable-background="new    ">
		<path fill="#50007E" d="M24,349.98l17.597-45.044h4.474l17.599,45.044h-4.204l-4.715-12.042H33.069l-4.714,12.042H24z
			 M41.357,316.677l-6.847,17.509h18.798l-6.847-17.509c-0.401-1.061-0.831-2.23-1.291-3.514c-0.461-1.28-0.892-2.582-1.292-3.903
			c-0.38,1.241-0.796,2.522-1.246,3.845C42.183,314.425,41.757,315.616,41.357,316.677z"/>
		<path fill="#50007E" d="M96.221,349.98H70.276v-45.044h4.054v41.29h21.893L96.221,349.98L96.221,349.98z"/>
		<path fill="#50007E" d="M105.229,304.936h25.314v3.754h-21.262v16.306h20.03v3.754h-20.03v17.478h22.192v3.754h-26.245V304.936z"
			/>
		<path fill="#50007E" d="M143.035,349.98h-4.954l17.656-23.423l-16.125-21.651h5.136l13.813,18.648l0.3-0.302l13.813-18.316h4.984
			l-16.155,21.381l17.837,23.663h-5.105l-15.585-20.69L143.035,349.98z"/>
	</g>
</g>
<line fill="none" stroke="#50007E" stroke-width="4" stroke-miterlimit="10" x1="205.437" y1="363.193" x2="205.437" y2="288.525"/>
<line fill="none" stroke="#50007E" stroke-width="2.5" stroke-miterlimit="10" x1="354.311" y1="260.508" x2="354.311" y2="73.949"/>
<polyline fill="none" stroke="#50007E" stroke-width="2.5" stroke-miterlimit="10" points="354.311,73.949 393.085,115.532 
	418.863,86.186 414.518,35.281 373.594,3.475 340.006,1.262 303.827,11.427 275.574,30.362 237.785,69.709 206.168,128.361 
	190.733,193.161 212.435,260.849 354.198,73.539 "/>
<line fill="none" stroke="#50007E" stroke-width="2.5" stroke-miterlimit="10" x1="354.391" y1="73.949" x2="419.068" y2="86.186"/>
<line fill="none" stroke="#50007E" stroke-width="2.5" stroke-miterlimit="10" x1="414.518" y1="35.527" x2="354.391" y2="74.035"/>
<line fill="none" stroke="#50007E" stroke-width="2.5" stroke-miterlimit="10" x1="354.311" y1="74.035" x2="373.594" y2="3.68"/>
<line fill="none" stroke="#50007E" stroke-width="2.5" stroke-miterlimit="10" x1="354.268" y1="73.89" x2="340.006" y2="1.467"/>
<line fill="none" stroke="#50007E" stroke-width="2.5" stroke-miterlimit="10" x1="354.268" y1="74.035" x2="304.102" y2="11.427"/>
<line fill="none" stroke="#50007E" stroke-width="2.5" stroke-miterlimit="10" x1="354.391" y1="74.035" x2="275.821" y2="30.362"/>
<line fill="none" stroke="#50007E" stroke-width="2.5" stroke-miterlimit="10" x1="354.198" y1="73.949" x2="238.072" y2="69.709"/>
<line fill="none" stroke="#50007E" stroke-width="2.5" stroke-miterlimit="10" x1="354.152" y1="73.89" x2="206.226" y2="128.115"/>
<line fill="none" stroke="#50007E" stroke-width="2.5" stroke-miterlimit="10" x1="354.152" y1="74.035" x2="190.897" y2="193.161"/>
<polyline fill="none" stroke="#50007E" stroke-width="2.5" stroke-miterlimit="10" points="221.927,248.319 202.689,184.556 
	221.927,122.36 253.213,70.262 290.086,38.858 314.196,24.025 342.839,15.846 369.501,18.623 401.416,43.919 404.755,83.478 
	383.521,105.287 "/>
<g id="Layer_2">
</g>
<g>
	<g enable-background="new    ">
		<path fill="#50007E" d="M268.807,342.022l2.733,2.732c-2.063,1.981-4.455,3.498-7.178,4.55c-2.722,1.051-5.604,1.575-8.647,1.575
			c-3.304,0-6.347-0.58-9.129-1.74c-2.783-1.161-5.205-2.799-7.268-4.91s-3.664-4.595-4.805-7.447
			c-1.143-2.853-1.712-5.96-1.712-9.323c0-3.362,0.569-6.472,1.712-9.324c1.141-2.854,2.742-5.335,4.805-7.446
			c2.063-2.112,4.484-3.749,7.268-4.91c2.782-1.161,5.825-1.742,9.129-1.742c3.063,0,5.951,0.526,8.664,1.577
			c2.712,1.051,5.1,2.567,7.162,4.55l-2.733,2.732c-1.563-1.622-3.494-2.878-5.795-3.77c-2.302-0.891-4.745-1.337-7.327-1.337
			c-3.584,0-6.782,0.853-9.594,2.553c-2.813,1.702-5.03,4.023-6.651,6.968c-1.622,2.942-2.433,6.285-2.433,10.028
			c0,3.784,0.82,7.168,2.462,10.15c1.641,2.983,3.884,5.335,6.727,7.057c2.842,1.724,6.066,2.583,9.669,2.583
			c2.542,0,4.94-0.444,7.192-1.337C265.309,344.9,267.225,343.644,268.807,342.022z"/>
		<path fill="#50007E" d="M276.344,349.98l17.597-45.044h4.475l17.598,45.044h-4.204l-4.715-12.042h-21.682l-4.714,12.042H276.344z
			 M293.7,316.677l-6.847,17.509h18.798l-6.847-17.509c-0.401-1.061-0.831-2.23-1.291-3.514c-0.461-1.28-0.891-2.582-1.292-3.903
			c-0.38,1.241-0.796,2.522-1.246,3.845C294.527,314.425,294.101,315.616,293.7,316.677z"/>
		<path fill="#50007E" d="M320.217,346.437l2.072-3.604c1.421,1.361,3.093,2.417,5.015,3.168c1.922,0.75,3.923,1.126,6.006,1.126
			c2.162,0,4.084-0.38,5.766-1.142c1.683-0.761,2.998-1.807,3.949-3.138s1.426-2.849,1.426-4.551c0-1.602-0.404-2.978-1.216-4.129
			c-0.811-1.149-1.892-2.156-3.243-3.018c-1.352-0.86-2.827-1.662-4.43-2.402c-1.602-0.74-3.203-1.502-4.805-2.282
			c-1.603-0.78-3.078-1.667-4.43-2.657c-1.351-0.99-2.432-2.166-3.242-3.528c-0.812-1.361-1.217-2.992-1.217-4.896
			c0-2.223,0.587-4.188,1.758-5.899c1.171-1.712,2.793-3.049,4.864-4.01c2.072-0.961,4.47-1.441,7.192-1.441
			c3.483,0,7.007,0.802,10.57,2.402l-1.651,3.454c-2.623-1.401-5.416-2.104-8.378-2.104c-3.023,0-5.496,0.696-7.417,2.087
			c-1.922,1.393-2.883,3.188-2.883,5.392c0,1.462,0.404,2.723,1.216,3.783c0.811,1.062,1.892,2.013,3.243,2.854
			c1.351,0.841,2.827,1.642,4.429,2.402c1.603,0.761,3.203,1.557,4.805,2.387c1.603,0.831,3.078,1.768,4.43,2.808
			c1.352,1.042,2.433,2.272,3.243,3.694s1.216,3.104,1.216,5.045c0,2.422-0.661,4.59-1.982,6.501
			c-1.321,1.912-3.128,3.414-5.42,4.505s-4.91,1.636-7.853,1.636C328.425,350.88,324.079,349.4,320.217,346.437z"/>
		<path fill="#50007E" d="M353.909,349.98l17.598-45.044h4.474l17.598,45.044h-4.203l-4.716-12.042h-21.681l-4.714,12.042H353.909z
			 M371.267,316.677l-6.847,17.509h18.798l-6.848-17.509c-0.4-1.061-0.83-2.23-1.291-3.514c-0.461-1.28-0.891-2.582-1.292-3.903
			c-0.38,1.241-0.796,2.522-1.245,3.845C372.093,314.425,371.667,315.616,371.267,316.677z"/>
		<path fill="#50007E" d="M391.927,361.902v-3.664c5.725-0.2,8.588-3.333,8.588-9.398v-43.902h4.054v44.232
			C404.569,357.656,400.355,361.902,391.927,361.902z"/>
		<path fill="#50007E" d="M415.38,330.25v-25.313h4.054v25.284c0,3.443,0.601,6.432,1.802,8.964s2.868,4.488,5,5.871
			c2.132,1.382,4.589,2.071,7.372,2.071s5.235-0.689,7.356-2.071c2.122-1.383,3.784-3.333,4.985-5.855s1.802-5.506,1.802-8.949
			v-25.313h4.056v25.313c0,4.245-0.736,7.913-2.208,11.006c-1.472,3.094-3.563,5.472-6.276,7.133s-5.951,2.491-9.715,2.491
			s-7.007-0.83-9.729-2.491c-2.724-1.661-4.819-4.039-6.291-7.133C416.115,338.163,415.38,334.495,415.38,330.25z"/>
		<path fill="#50007E" d="M458.411,349.98l17.599-45.044h4.475l17.598,45.044h-4.205l-4.715-12.042h-21.681l-4.714,12.042H458.411z
			 M475.769,316.677l-6.848,17.509h18.799l-6.847-17.509c-0.4-1.061-0.832-2.23-1.291-3.514c-0.461-1.28-0.892-2.582-1.292-3.903
			c-0.38,1.241-0.796,2.522-1.246,3.845C476.595,314.426,476.168,315.616,475.769,316.677z"/>
		<path fill="#50007E" d="M504.687,304.936h4.054l30.061,38.526v-38.526h4.053v45.044h-4.053l-30.061-38.527v38.527h-4.054V304.936z
			"/>
		<path fill="#50007E" d="M549.459,349.98l17.599-45.044h4.475l17.598,45.044h-4.204l-4.716-12.042h-21.682l-4.713,12.042H549.459z
			 M566.818,316.677l-6.848,17.509h18.799l-6.847-17.509c-0.399-1.061-0.831-2.23-1.29-3.514c-0.462-1.28-0.894-2.582-1.294-3.903
			c-0.379,1.241-0.795,2.522-1.245,3.845C567.644,314.425,567.218,315.616,566.818,316.677z"/>
	</g>
</g>
</svg>
