<?xml version="1.0" encoding="utf-8"?>
<!-- Generator: Adobe Illustrator 16.0.0, SVG Export Plug-In . SVG Version: 6.00 Build 0)  -->
<!DOCTYPE svg PUBLIC "-//W3C//DTD SVG 1.1//EN" "http://www.w3.org/Graphics/SVG/1.1/DTD/svg11.dtd">
<svg version="1.1" id="Layer_1" xmlns="http://www.w3.org/2000/svg" xmlns:xlink="http://www.w3.org/1999/xlink" x="0px" y="0px"
	 width="816.354px" height="277.064px" viewBox="0 0 816.354 277.064" enable-background="new 0 0 816.354 277.064"
	 xml:space="preserve">
<g>
	<text transform="matrix(1 0 0 1 205.6257 260.8484)" fill="#FFFFFF" font-family="'KumbhSans-Light'" font-size="61.5">ALEX   </text>
</g>
<line fill="none" stroke="#FFFFFF" stroke-width="4" stroke-miterlimit="10" x1="388.265" y1="274.063" x2="388.265" y2="199.395"/>
<line fill="none" stroke="#FFFFFF" stroke-width="2.5" stroke-miterlimit="10" x1="164.875" y1="260.507" x2="164.875" y2="73.948"/>
<polyline fill="none" stroke="#FFFFFF" stroke-width="2.5" stroke-miterlimit="10" points="164.875,73.948 203.648,115.531 
	229.427,86.186 225.082,35.28 184.158,3.475 150.57,1.262 114.392,11.427 86.139,30.361 48.35,69.708 16.731,128.36 1.297,193.16 
	22.999,260.849 164.761,73.538 "/>
<line fill="none" stroke="#FFFFFF" stroke-width="2.5" stroke-miterlimit="10" x1="164.955" y1="73.948" x2="229.632" y2="86.186"/>
<line fill="none" stroke="#FFFFFF" stroke-width="2.5" stroke-miterlimit="10" x1="225.082" y1="35.526" x2="164.955" y2="74.034"/>
<line fill="none" stroke="#FFFFFF" stroke-width="2.5" stroke-miterlimit="10" x1="164.875" y1="74.034" x2="184.158" y2="3.68"/>
<line fill="none" stroke="#FFFFFF" stroke-width="2.5" stroke-miterlimit="10" x1="164.832" y1="73.89" x2="150.57" y2="1.466"/>
<line fill="none" stroke="#FFFFFF" stroke-width="2.5" stroke-miterlimit="10" x1="164.832" y1="74.034" x2="114.666" y2="11.427"/>
<line fill="none" stroke="#FFFFFF" stroke-width="2.5" stroke-miterlimit="10" x1="164.955" y1="74.034" x2="86.385" y2="30.361"/>
<line fill="none" stroke="#FFFFFF" stroke-width="2.5" stroke-miterlimit="10" x1="164.761" y1="73.948" x2="48.636" y2="69.708"/>
<line fill="none" stroke="#FFFFFF" stroke-width="2.5" stroke-miterlimit="10" x1="164.716" y1="73.89" x2="16.79" y2="128.114"/>
<line fill="none" stroke="#FFFFFF" stroke-width="2.5" stroke-miterlimit="10" x1="164.716" y1="74.034" x2="1.461" y2="193.16"/>
<polyline fill="none" stroke="#FFFFFF" stroke-width="2.5" stroke-miterlimit="10" points="32.49,248.318 13.253,184.556 
	32.49,122.359 63.776,70.262 100.649,38.857 124.759,24.024 153.402,15.846 180.064,18.622 211.98,43.918 215.318,83.478 
	194.085,105.286 "/>
<g>
	<text transform="matrix(1 0 0 1 408.9778 260.5066)" enable-background="new    "><tspan x="0" y="0" fill="#732E01" font-family="'KumbhSans-Light'" font-size="61.5">CASAJUANA</tspan><tspan x="360.531" y="0" fill="#50007E" font-family="'KumbhSans-Light'" font-size="61.5">   </tspan></text>
</g>
</svg>
