<?xml version="1.0" encoding="utf-8"?>
<!-- Generator: Adobe Illustrator 16.0.0, SVG Export Plug-In . SVG Version: 6.00 Build 0)  -->
<!DOCTYPE svg PUBLIC "-//W3C//DTD SVG 1.1//EN" "http://www.w3.org/Graphics/SVG/1.1/DTD/svg11.dtd">
<svg version="1.1" id="Layer_1" xmlns="http://www.w3.org/2000/svg" xmlns:xlink="http://www.w3.org/1999/xlink" x="0px" y="0px"
	 width="614.377px" height="366.193px" viewBox="0 0 614.377 366.193" enable-background="new 0 0 614.377 366.193"
	 xml:space="preserve">
<g>
	<text transform="matrix(1 0 0 1 15.219 352.9797)" enable-background="new    "><tspan x="0" y="0" fill="#FFFFFF" font-family="'KumbhSans-Light'" font-size="61.5">ALEX</tspan><tspan x="158.044" y="0" fill="#50007E" font-family="'KumbhSans-Light'" font-size="61.5">   </tspan></text>
</g>
<line fill="none" stroke="#FFFFFF" stroke-width="4" stroke-miterlimit="10" x1="197.857" y1="366.194" x2="197.857" y2="291.526"/>
<line fill="none" stroke="#FFFFFF" stroke-width="2.5" stroke-miterlimit="10" x1="346.732" y1="263.51" x2="346.732" y2="76.95"/>
<polyline fill="none" stroke="#FFFFFF" stroke-width="2.5" stroke-miterlimit="10" points="346.732,76.95 385.505,118.533 
	411.282,89.187 406.939,38.282 366.015,6.476 332.427,4.263 296.248,14.428 267.995,33.363 230.206,72.711 198.589,131.362 
	183.153,196.162 204.855,263.85 346.618,76.541 "/>
<line fill="none" stroke="#FFFFFF" stroke-width="2.5" stroke-miterlimit="10" x1="346.812" y1="76.95" x2="411.488" y2="89.187"/>
<line fill="none" stroke="#FFFFFF" stroke-width="2.5" stroke-miterlimit="10" x1="406.939" y1="38.528" x2="346.812" y2="77.037"/>
<line fill="none" stroke="#FFFFFF" stroke-width="2.5" stroke-miterlimit="10" x1="346.732" y1="77.037" x2="366.015" y2="6.681"/>
<line fill="none" stroke="#FFFFFF" stroke-width="2.5" stroke-miterlimit="10" x1="346.689" y1="76.891" x2="332.427" y2="4.469"/>
<line fill="none" stroke="#FFFFFF" stroke-width="2.5" stroke-miterlimit="10" x1="346.689" y1="77.037" x2="296.522" y2="14.428"/>
<line fill="none" stroke="#FFFFFF" stroke-width="2.5" stroke-miterlimit="10" x1="346.812" y1="77.037" x2="268.241" y2="33.363"/>
<line fill="none" stroke="#FFFFFF" stroke-width="2.5" stroke-miterlimit="10" x1="346.618" y1="76.95" x2="230.492" y2="72.711"/>
<line fill="none" stroke="#FFFFFF" stroke-width="2.5" stroke-miterlimit="10" x1="346.572" y1="76.891" x2="198.646" y2="131.116"/>
<line fill="none" stroke="#FFFFFF" stroke-width="2.5" stroke-miterlimit="10" x1="346.572" y1="77.037" x2="183.317" y2="196.162"/>
<polyline fill="none" stroke="#FFFFFF" stroke-width="2.5" stroke-miterlimit="10" points="214.347,251.321 195.109,187.557 
	214.347,125.361 245.634,73.263 282.507,41.859 306.616,27.026 335.259,18.847 361.921,21.625 393.837,46.921 397.175,86.479 
	375.941,108.289 "/>
<g id="Layer_2">
</g>
<g>
	<text transform="matrix(1 0 0 1 222.219 352.9797)" enable-background="new    "><tspan x="0" y="0" fill="#FFC861" font-family="'KumbhSans-Light'" font-size="61.5">CASAJUANA</tspan><tspan x="360.532" y="0" fill="#50007E" font-family="'KumbhSans-Light'" font-size="61.5">   </tspan></text>
</g>
</svg>
