<?xml version="1.0" encoding="utf-8"?>
<!-- Generator: Adobe Illustrator 16.0.0, SVG Export Plug-In . SVG Version: 6.00 Build 0)  -->
<!DOCTYPE svg PUBLIC "-//W3C//DTD SVG 1.1//EN" "http://www.w3.org/Graphics/SVG/1.1/DTD/svg11.dtd">
<svg version="1.1" id="Layer_1" xmlns="http://www.w3.org/2000/svg" xmlns:xlink="http://www.w3.org/1999/xlink" x="0px" y="0px"
	 width="816.354px" height="277.064px" viewBox="0 0 816.354 277.064" enable-background="new 0 0 816.354 277.064"
	 xml:space="preserve">
<g>
	<g enable-background="new    ">
		<path fill="#FFFFFF" d="M206.826,260.848l17.597-45.044h4.474l17.598,45.044h-4.204l-4.715-12.042h-21.681l-4.714,12.042H206.826z
			 M224.183,227.546l-6.847,17.508h18.798l-6.847-17.508c-0.401-1.061-0.831-2.231-1.291-3.514c-0.461-1.28-0.891-2.582-1.292-3.903
			c-0.38,1.241-0.796,2.522-1.246,3.844C225.009,225.294,224.584,226.485,224.183,227.546z"/>
		<path fill="#FFFFFF" d="M279.047,260.848h-25.945v-45.044h4.054v41.29h21.892V260.848z"/>
		<path fill="#FFFFFF" d="M288.056,215.804h25.314v3.754H292.11v16.306h20.03v3.754h-20.03v17.477h22.192v3.754h-26.246V215.804z"/>
		<path fill="#FFFFFF" d="M325.863,260.848h-4.955l17.657-23.423l-16.125-21.651h5.135l13.813,18.648l0.3-0.301l13.813-18.317h4.985
			l-16.156,21.381l17.837,23.663h-5.105l-15.585-20.69L325.863,260.848z"/>
	</g>
</g>
<line fill="none" stroke="#FFFFFF" stroke-width="4" stroke-miterlimit="10" x1="388.265" y1="274.063" x2="388.265" y2="199.395"/>
<line fill="none" stroke="#FFFFFF" stroke-width="2.5" stroke-miterlimit="10" x1="164.875" y1="260.507" x2="164.875" y2="73.948"/>
<polyline fill="none" stroke="#FFFFFF" stroke-width="2.5" stroke-miterlimit="10" points="164.875,73.948 203.648,115.531 
	229.427,86.186 225.082,35.28 184.158,3.475 150.57,1.262 114.392,11.427 86.139,30.361 48.35,69.708 16.731,128.36 1.297,193.16 
	22.999,260.849 164.761,73.538 "/>
<line fill="none" stroke="#FFFFFF" stroke-width="2.5" stroke-miterlimit="10" x1="164.955" y1="73.948" x2="229.632" y2="86.186"/>
<line fill="none" stroke="#FFFFFF" stroke-width="2.5" stroke-miterlimit="10" x1="225.082" y1="35.526" x2="164.955" y2="74.034"/>
<line fill="none" stroke="#FFFFFF" stroke-width="2.5" stroke-miterlimit="10" x1="164.875" y1="74.034" x2="184.158" y2="3.68"/>
<line fill="none" stroke="#FFFFFF" stroke-width="2.5" stroke-miterlimit="10" x1="164.832" y1="73.89" x2="150.57" y2="1.466"/>
<line fill="none" stroke="#FFFFFF" stroke-width="2.5" stroke-miterlimit="10" x1="164.832" y1="74.034" x2="114.666" y2="11.427"/>
<line fill="none" stroke="#FFFFFF" stroke-width="2.5" stroke-miterlimit="10" x1="164.955" y1="74.034" x2="86.385" y2="30.361"/>
<line fill="none" stroke="#FFFFFF" stroke-width="2.5" stroke-miterlimit="10" x1="164.761" y1="73.948" x2="48.636" y2="69.708"/>
<line fill="none" stroke="#FFFFFF" stroke-width="2.5" stroke-miterlimit="10" x1="164.716" y1="73.89" x2="16.79" y2="128.114"/>
<line fill="none" stroke="#FFFFFF" stroke-width="2.5" stroke-miterlimit="10" x1="164.716" y1="74.034" x2="1.461" y2="193.16"/>
<polyline fill="none" stroke="#FFFFFF" stroke-width="2.5" stroke-miterlimit="10" points="32.49,248.318 13.253,184.556 
	32.49,122.359 63.776,70.262 100.649,38.857 124.759,24.024 153.402,15.846 180.064,18.622 211.98,43.918 215.318,83.478 
	194.085,105.286 "/>
<g>
	<g enable-background="new    ">
		<path fill="#B4C321" d="M447.986,252.549l2.732,2.733c-2.062,1.981-4.454,3.498-7.177,4.549s-5.605,1.576-8.648,1.576
			c-3.303,0-6.347-0.58-9.129-1.741s-5.205-2.798-7.267-4.91c-2.063-2.111-3.664-4.594-4.805-7.447
			c-1.142-2.853-1.712-5.96-1.712-9.323s0.57-6.472,1.712-9.324c1.141-2.854,2.742-5.335,4.805-7.447
			c2.062-2.112,4.484-3.749,7.267-4.91s5.826-1.742,9.129-1.742c3.063,0,5.95,0.526,8.663,1.577s5.101,2.567,7.162,4.55
			l-2.732,2.732c-1.562-1.622-3.494-2.878-5.795-3.769c-2.303-0.891-4.745-1.337-7.328-1.337c-3.584,0-6.781,0.852-9.594,2.553
			c-2.813,1.702-5.03,4.023-6.651,6.967c-1.622,2.943-2.433,6.286-2.433,10.029c0,3.784,0.82,7.168,2.463,10.15
			c1.641,2.983,3.883,5.335,6.727,7.057c2.842,1.723,6.065,2.583,9.669,2.583c2.542,0,4.94-0.445,7.192-1.337
			C444.488,255.427,446.404,254.171,447.986,252.549z"/>
		<path fill="#B4C321" d="M455.523,260.507l17.598-45.044h4.475l17.598,45.044h-4.205l-4.715-12.042h-21.681l-4.714,12.042H455.523z
			 M472.88,227.204l-6.847,17.508h18.798l-6.846-17.508c-0.401-1.061-0.832-2.231-1.291-3.514c-0.461-1.28-0.892-2.582-1.292-3.903
			c-0.38,1.241-0.796,2.522-1.246,3.844S473.281,226.143,472.88,227.204z"/>
		<path fill="#B4C321" d="M499.396,256.964l2.072-3.604c1.421,1.361,3.093,2.417,5.015,3.168c1.922,0.75,3.923,1.126,6.006,1.126
			c2.162,0,4.084-0.38,5.766-1.142c1.682-0.761,2.997-1.807,3.948-3.138s1.427-2.848,1.427-4.55c0-1.602-0.405-2.978-1.216-4.129
			c-0.811-1.15-1.893-2.157-3.243-3.018c-1.352-0.86-2.828-1.662-4.43-2.402s-3.203-1.502-4.805-2.282
			c-1.602-0.781-3.077-1.667-4.429-2.658c-1.352-0.99-2.433-2.166-3.244-3.528c-0.811-1.361-1.216-2.992-1.216-4.895
			c0-2.223,0.586-4.189,1.757-5.9c1.172-1.712,2.793-3.049,4.865-4.01s4.469-1.441,7.191-1.441c3.483,0,7.007,0.802,10.57,2.402
			l-1.651,3.454c-2.623-1.401-5.415-2.103-8.378-2.103c-3.023,0-5.496,0.696-7.418,2.087c-1.922,1.392-2.883,3.188-2.883,5.391
			c0,1.462,0.406,2.723,1.217,3.784c0.811,1.061,1.892,2.012,3.243,2.853c1.351,0.841,2.827,1.642,4.429,2.402
			s3.203,1.557,4.805,2.387c1.602,0.831,3.078,1.768,4.43,2.808c1.352,1.042,2.433,2.272,3.243,3.694
			c0.812,1.422,1.216,3.104,1.216,5.045c0,2.422-0.66,4.59-1.981,6.501c-1.321,1.912-3.128,3.414-5.421,4.505
			c-2.292,1.091-4.909,1.636-7.852,1.636C507.604,261.407,503.259,259.927,499.396,256.964z"/>
		<path fill="#B4C321" d="M533.089,260.507l17.598-45.044h4.474l17.598,45.044h-4.204l-4.715-12.042h-21.682l-4.714,12.042H533.089z
			 M550.447,227.204l-6.848,17.508h18.799l-6.847-17.508c-0.401-1.061-0.831-2.231-1.291-3.514c-0.461-1.28-0.892-2.582-1.292-3.903
			c-0.38,1.241-0.795,2.522-1.246,3.844C551.272,224.952,550.847,226.143,550.447,227.204z"/>
		<path fill="#B4C321" d="M571.107,272.428v-3.664c5.725-0.2,8.588-3.333,8.588-9.398v-43.903h4.054v44.233
			C583.748,268.183,579.534,272.428,571.107,272.428z"/>
		<path fill="#B4C321" d="M594.559,240.777v-25.314h4.054v25.284c0,3.444,0.601,6.432,1.802,8.964c1.201,2.533,2.868,4.489,5,5.871
			s4.589,2.072,7.372,2.072s5.235-0.69,7.357-2.072c2.121-1.382,3.783-3.333,4.984-5.855s1.803-5.506,1.803-8.949v-25.314h4.054
			v25.314c0,4.245-0.735,7.913-2.208,11.006c-1.471,3.093-3.563,5.471-6.275,7.132c-2.713,1.662-5.951,2.492-9.715,2.492
			s-7.007-0.83-9.729-2.492c-2.723-1.661-4.819-4.039-6.291-7.132S594.559,245.022,594.559,240.777z"/>
		<path fill="#B4C321" d="M637.591,260.507l17.598-45.044h4.474l17.598,45.044h-4.204l-4.715-12.042h-21.682l-4.714,12.042H637.591z
			 M654.948,227.204l-6.848,17.508H666.9l-6.847-17.508c-0.401-1.061-0.831-2.231-1.291-3.514c-0.461-1.28-0.892-2.582-1.292-3.903
			c-0.38,1.241-0.795,2.522-1.246,3.844C655.774,224.952,655.349,226.143,654.948,227.204z"/>
		<path fill="#B4C321" d="M683.866,215.463h4.053l30.061,38.527v-38.527h4.053v45.044h-4.053l-30.061-38.527v38.527h-4.053V215.463z
			"/>
		<path fill="#B4C321" d="M728.64,260.507l17.598-45.044h4.474l17.598,45.044h-4.204l-4.715-12.042h-21.682l-4.714,12.042H728.64z
			 M745.997,227.204l-6.848,17.508h18.799l-6.847-17.508c-0.4-1.061-0.831-2.231-1.291-3.514c-0.461-1.28-0.892-2.582-1.292-3.903
			c-0.38,1.241-0.795,2.522-1.246,3.844C746.823,224.952,746.397,226.143,745.997,227.204z"/>
	</g>
	<g enable-background="new    ">
	</g>
</g>
</svg>
