<?xml version="1.0" encoding="utf-8"?>
<!-- Generator: Adobe Illustrator 16.0.0, SVG Export Plug-In . SVG Version: 6.00 Build 0)  -->
<!DOCTYPE svg PUBLIC "-//W3C//DTD SVG 1.1//EN" "http://www.w3.org/Graphics/SVG/1.1/DTD/svg11.dtd">
<svg version="1.1" id="Layer_1" xmlns="http://www.w3.org/2000/svg" xmlns:xlink="http://www.w3.org/1999/xlink" x="0px" y="0px"
	 width="614.377px" height="366.194px" viewBox="-118 0.001 614.377 366.194" enable-background="new -118 0.001 614.377 366.194"
	 xml:space="preserve">
<g>
	<text transform="matrix(1 0 0 1 -117.9998 349.9792)" fill="#50007E" font-family="'KumbhSans-Light'" font-size="61.5">ALEX   </text>
</g>
<line fill="none" stroke="#50007E" stroke-width="4" stroke-miterlimit="10" x1="64.638" y1="363.193" x2="64.638" y2="288.525"/>
<line fill="none" stroke="#50007E" stroke-width="2.5" stroke-miterlimit="10" x1="213.512" y1="260.508" x2="213.512" y2="73.949"/>
<polyline fill="none" stroke="#50007E" stroke-width="2.5" stroke-miterlimit="10" points="213.512,73.949 252.286,115.532 
	278.064,86.186 273.719,35.281 232.795,3.475 199.207,1.262 163.029,11.427 134.776,30.362 96.987,69.709 65.369,128.361 
	49.934,193.161 71.636,260.849 213.399,73.539 "/>
<line fill="none" stroke="#50007E" stroke-width="2.5" stroke-miterlimit="10" x1="213.592" y1="73.949" x2="278.269" y2="86.186"/>
<line fill="none" stroke="#50007E" stroke-width="2.5" stroke-miterlimit="10" x1="273.719" y1="35.527" x2="213.592" y2="74.035"/>
<line fill="none" stroke="#50007E" stroke-width="2.5" stroke-miterlimit="10" x1="213.512" y1="74.035" x2="232.795" y2="3.68"/>
<line fill="none" stroke="#50007E" stroke-width="2.5" stroke-miterlimit="10" x1="213.469" y1="73.89" x2="199.207" y2="1.467"/>
<line fill="none" stroke="#50007E" stroke-width="2.5" stroke-miterlimit="10" x1="213.469" y1="74.035" x2="163.303" y2="11.427"/>
<line fill="none" stroke="#50007E" stroke-width="2.5" stroke-miterlimit="10" x1="213.592" y1="74.035" x2="135.022" y2="30.362"/>
<line fill="none" stroke="#50007E" stroke-width="2.5" stroke-miterlimit="10" x1="213.399" y1="73.949" x2="97.273" y2="69.709"/>
<line fill="none" stroke="#50007E" stroke-width="2.5" stroke-miterlimit="10" x1="213.353" y1="73.89" x2="65.427" y2="128.115"/>
<line fill="none" stroke="#50007E" stroke-width="2.5" stroke-miterlimit="10" x1="213.353" y1="74.035" x2="50.098" y2="193.161"/>
<polyline fill="none" stroke="#50007E" stroke-width="2.5" stroke-miterlimit="10" points="81.128,248.319 61.89,184.556 
	81.128,122.36 112.414,70.262 149.287,38.858 173.397,24.025 202.04,15.846 228.702,18.623 260.617,43.919 263.956,83.478 
	242.722,105.287 "/>
<g id="Layer_2">
</g>
<g>
	<text transform="matrix(1 0 0 1 89.0002 349.9792)" fill="#50007E" font-family="'KumbhSans-Light'" font-size="61.5">CASAJUANA   </text>
</g>
</svg>
