<?xml version="1.0" encoding="utf-8"?>
<!-- Generator: Adobe Illustrator 16.0.0, SVG Export Plug-In . SVG Version: 6.00 Build 0)  -->
<!DOCTYPE svg PUBLIC "-//W3C//DTD SVG 1.1//EN" "http://www.w3.org/Graphics/SVG/1.1/DTD/svg11.dtd">
<svg version="1.1" id="Layer_1" xmlns="http://www.w3.org/2000/svg" xmlns:xlink="http://www.w3.org/1999/xlink" x="0px" y="0px"
	 width="614.377px" height="366.193px" viewBox="0 0 614.377 366.193" enable-background="new 0 0 614.377 366.193"
	 xml:space="preserve">
<g>
	<g enable-background="new    ">
		<path fill="#FFFFFF" d="M16.42,352.979l17.597-45.044h4.474l17.598,45.044h-4.204l-4.715-12.042H25.489l-4.714,12.042H16.42z
			 M33.777,319.677l-6.847,17.508h18.798l-6.847-17.508c-0.401-1.061-0.831-2.231-1.291-3.514c-0.461-1.28-0.891-2.582-1.292-3.903
			c-0.38,1.241-0.796,2.522-1.246,3.844C34.603,317.425,34.177,318.616,33.777,319.677z"/>
		<path fill="#FFFFFF" d="M88.641,352.979H62.696v-45.044h4.054v41.29h21.892V352.979z"/>
		<path fill="#FFFFFF" d="M97.65,307.935h25.314v3.754h-21.261v16.306h20.03v3.754h-20.03v17.477h22.192v3.754H97.65V307.935z"/>
		<path fill="#FFFFFF" d="M135.456,352.979h-4.955l17.657-23.423l-16.125-21.651h5.135l13.813,18.648l0.3-0.301l13.813-18.317h4.985
			l-16.156,21.381l17.837,23.663h-5.105l-15.585-20.69L135.456,352.979z"/>
	</g>
	<g enable-background="new    ">
	</g>
</g>
<line fill="none" stroke="#FFFFFF" stroke-width="4" stroke-miterlimit="10" x1="197.857" y1="366.194" x2="197.857" y2="291.526"/>
<line fill="none" stroke="#FFFFFF" stroke-width="2.5" stroke-miterlimit="10" x1="346.732" y1="263.51" x2="346.732" y2="76.95"/>
<polyline fill="none" stroke="#FFFFFF" stroke-width="2.5" stroke-miterlimit="10" points="346.732,76.95 385.505,118.533 
	411.281,89.187 406.939,38.282 366.015,6.476 332.427,4.263 296.248,14.427 267.995,33.363 230.206,72.711 198.589,131.362 
	183.153,196.162 204.855,263.85 346.617,76.541 "/>
<line fill="none" stroke="#FFFFFF" stroke-width="2.5" stroke-miterlimit="10" x1="346.812" y1="76.95" x2="411.488" y2="89.187"/>
<line fill="none" stroke="#FFFFFF" stroke-width="2.5" stroke-miterlimit="10" x1="406.939" y1="38.528" x2="346.812" y2="77.037"/>
<line fill="none" stroke="#FFFFFF" stroke-width="2.5" stroke-miterlimit="10" x1="346.732" y1="77.037" x2="366.015" y2="6.681"/>
<line fill="none" stroke="#FFFFFF" stroke-width="2.5" stroke-miterlimit="10" x1="346.689" y1="76.891" x2="332.427" y2="4.469"/>
<line fill="none" stroke="#FFFFFF" stroke-width="2.5" stroke-miterlimit="10" x1="346.689" y1="77.037" x2="296.522" y2="14.427"/>
<line fill="none" stroke="#FFFFFF" stroke-width="2.5" stroke-miterlimit="10" x1="346.812" y1="77.037" x2="268.241" y2="33.363"/>
<line fill="none" stroke="#FFFFFF" stroke-width="2.5" stroke-miterlimit="10" x1="346.617" y1="76.95" x2="230.492" y2="72.711"/>
<line fill="none" stroke="#FFFFFF" stroke-width="2.5" stroke-miterlimit="10" x1="346.572" y1="76.891" x2="198.646" y2="131.116"/>
<line fill="none" stroke="#FFFFFF" stroke-width="2.5" stroke-miterlimit="10" x1="346.572" y1="77.037" x2="183.317" y2="196.162"/>
<polyline fill="none" stroke="#FFFFFF" stroke-width="2.5" stroke-miterlimit="10" points="214.347,251.321 195.109,187.557 
	214.347,125.361 245.634,73.263 282.507,41.859 306.615,27.026 335.259,18.847 361.921,21.625 393.837,46.921 397.175,86.479 
	375.941,108.289 "/>
<g id="Layer_2">
</g>
<g>
	<g enable-background="new    ">
		<path fill="#732E01" d="M261.227,345.021l2.733,2.733c-2.062,1.981-4.455,3.498-7.177,4.549s-5.605,1.576-8.648,1.576
			c-3.303,0-6.346-0.58-9.129-1.741s-5.205-2.798-7.267-4.91c-2.063-2.111-3.664-4.594-4.805-7.447
			c-1.142-2.853-1.712-5.96-1.712-9.323s0.57-6.472,1.712-9.324c1.141-2.854,2.742-5.335,4.805-7.447
			c2.062-2.112,4.484-3.749,7.267-4.91s5.826-1.742,9.129-1.742c3.063,0,5.951,0.526,8.664,1.577c2.712,1.051,5.1,2.567,7.162,4.55
			l-2.733,2.732c-1.562-1.622-3.494-2.878-5.795-3.769c-2.302-0.891-4.745-1.337-7.327-1.337c-3.584,0-6.782,0.852-9.594,2.553
			c-2.813,1.702-5.03,4.023-6.651,6.967c-1.622,2.943-2.433,6.286-2.433,10.029c0,3.784,0.821,7.168,2.462,10.15
			c1.641,2.983,3.884,5.335,6.727,7.057c2.842,1.723,6.066,2.583,9.669,2.583c2.542,0,4.94-0.445,7.192-1.337
			C257.729,347.899,259.645,346.643,261.227,345.021z"/>
		<path fill="#732E01" d="M268.764,352.979l17.597-45.044h4.474l17.597,45.044h-4.204l-4.715-12.042h-21.681l-4.714,12.042H268.764z
			 M286.121,319.677l-6.847,17.508h18.798l-6.847-17.508c-0.401-1.061-0.831-2.231-1.291-3.514c-0.461-1.28-0.891-2.582-1.292-3.903
			c-0.38,1.241-0.796,2.522-1.246,3.844C286.947,317.425,286.522,318.616,286.121,319.677z"/>
		<path fill="#732E01" d="M312.637,349.436l2.072-3.604c1.421,1.361,3.093,2.417,5.015,3.168c1.922,0.75,3.924,1.126,6.006,1.126
			c2.162,0,4.084-0.38,5.766-1.142c1.682-0.761,2.998-1.807,3.949-3.138c0.95-1.331,1.426-2.848,1.426-4.55
			c0-1.602-0.405-2.978-1.216-4.129c-0.812-1.15-1.892-2.157-3.243-3.018s-2.828-1.662-4.43-2.402s-3.203-1.502-4.805-2.282
			c-1.602-0.781-3.078-1.667-4.43-2.658c-1.351-0.99-2.432-2.166-3.242-3.528c-0.811-1.361-1.217-2.992-1.217-4.895
			c0-2.223,0.586-4.189,1.757-5.9c1.171-1.712,2.793-3.049,4.864-4.01c2.072-0.961,4.47-1.441,7.192-1.441
			c3.483,0,7.007,0.802,10.57,2.402l-1.651,3.454c-2.623-1.401-5.416-2.103-8.378-2.103c-3.023,0-5.495,0.696-7.417,2.087
			c-1.922,1.392-2.883,3.188-2.883,5.391c0,1.462,0.404,2.723,1.216,3.784c0.811,1.061,1.892,2.012,3.243,2.853
			s2.827,1.642,4.43,2.402c1.602,0.761,3.202,1.557,4.805,2.387c1.602,0.831,3.078,1.768,4.429,2.808
			c1.352,1.042,2.433,2.272,3.243,3.694s1.217,3.104,1.217,5.045c0,2.422-0.661,4.59-1.982,6.501
			c-1.321,1.912-3.129,3.414-5.42,4.505c-2.293,1.091-4.91,1.636-7.854,1.636C320.845,353.88,316.5,352.399,312.637,349.436z"/>
		<path fill="#732E01" d="M346.33,352.979l17.597-45.044h4.475l17.598,45.044h-4.204l-4.715-12.042H355.4l-4.715,12.042H346.33z
			 M363.687,319.677l-6.846,17.508h18.798l-6.847-17.508c-0.4-1.061-0.831-2.231-1.291-3.514c-0.461-1.28-0.891-2.582-1.291-3.903
			c-0.381,1.241-0.797,2.522-1.246,3.844C364.513,317.425,364.087,318.616,363.687,319.677z"/>
		<path fill="#732E01" d="M384.347,364.901v-3.664c5.726-0.2,8.588-3.333,8.588-9.398v-43.903h4.055v44.233
			C396.99,360.656,392.775,364.901,384.347,364.901z"/>
		<path fill="#732E01" d="M407.8,333.25v-25.314h4.054v25.284c0,3.444,0.601,6.432,1.802,8.964c1.201,2.533,2.868,4.489,5,5.871
			c2.133,1.382,4.59,2.072,7.372,2.072s5.235-0.69,7.357-2.072s3.784-3.333,4.985-5.855s1.801-5.506,1.801-8.949v-25.314h4.055
			v25.314c0,4.245-0.736,7.913-2.207,11.006c-1.472,3.093-3.564,5.471-6.276,7.132c-2.713,1.662-5.951,2.492-9.715,2.492
			s-7.007-0.83-9.729-2.492c-2.723-1.661-4.819-4.039-6.291-7.132C408.536,341.163,407.8,337.495,407.8,333.25z"/>
		<path fill="#732E01" d="M450.832,352.979l17.597-45.044h4.475l17.598,45.044h-4.204l-4.715-12.042h-21.681l-4.715,12.042H450.832z
			 M468.189,319.677l-6.846,17.508h18.798l-6.847-17.508c-0.4-1.061-0.831-2.231-1.291-3.514c-0.461-1.28-0.891-2.582-1.291-3.903
			c-0.381,1.241-0.797,2.522-1.246,3.844C469.015,317.425,468.589,318.616,468.189,319.677z"/>
		<path fill="#732E01" d="M497.107,307.935h4.055l30.06,38.527v-38.527h4.053v45.044h-4.053l-30.06-38.527v38.527h-4.055V307.935z"
			/>
		<path fill="#732E01" d="M541.881,352.979l17.598-45.044h4.474l17.598,45.044h-4.204l-4.715-12.042h-21.682l-4.714,12.042H541.881z
			 M559.239,319.677l-6.848,17.508h18.799l-6.847-17.508c-0.4-1.061-0.831-2.231-1.291-3.514c-0.461-1.28-0.892-2.582-1.292-3.903
			c-0.38,1.241-0.795,2.522-1.246,3.844C560.064,317.425,559.638,318.616,559.239,319.677z"/>
	</g>
	<g enable-background="new    ">
	</g>
</g>
</svg>
