<?xml version="1.0" encoding="utf-8"?>
<!-- Generator: Adobe Illustrator 16.0.0, SVG Export Plug-In . SVG Version: 6.00 Build 0)  -->
<!DOCTYPE svg PUBLIC "-//W3C//DTD SVG 1.1//EN" "http://www.w3.org/Graphics/SVG/1.1/DTD/svg11.dtd">
<svg version="1.1" id="Layer_1" xmlns="http://www.w3.org/2000/svg" xmlns:xlink="http://www.w3.org/1999/xlink" x="0px" y="0px"
	 width="816.354px" height="277.064px" viewBox="0 0 816.354 277.064" enable-background="new 0 0 816.354 277.064"
	 xml:space="preserve">
<g>
	<g enable-background="new    ">
		<path fill="#50007E" d="M206.827,260.848l17.597-45.044h4.474l17.598,45.044h-4.204l-4.715-12.042h-21.681l-4.714,12.042H206.827z
			 M224.184,227.546l-6.847,17.508h18.798l-6.847-17.508c-0.401-1.061-0.831-2.231-1.291-3.514c-0.461-1.28-0.891-2.582-1.292-3.903
			c-0.38,1.241-0.796,2.522-1.246,3.844C225.01,225.294,224.584,226.485,224.184,227.546z"/>
		<path fill="#50007E" d="M279.048,260.848h-25.945v-45.044h4.054v41.29h21.892V260.848z"/>
		<path fill="#50007E" d="M288.056,215.804h25.314v3.754H292.11v16.306h20.03v3.754h-20.03v17.477h22.192v3.754h-26.246V215.804z"/>
		<path fill="#50007E" d="M325.863,260.848h-4.955l17.657-23.423l-16.125-21.651h5.135l13.813,18.648l0.3-0.301l13.813-18.317h4.985
			l-16.156,21.381l17.837,23.663h-5.105l-15.585-20.69L325.863,260.848z"/>
	</g>
</g>
<line fill="none" stroke="#50007E" stroke-width="4" stroke-miterlimit="10" x1="388.265" y1="274.063" x2="388.265" y2="199.395"/>
<line fill="none" stroke="#50007E" stroke-width="2.5" stroke-miterlimit="10" x1="164.875" y1="260.507" x2="164.875" y2="73.948"/>
<polyline fill="none" stroke="#50007E" stroke-width="2.5" stroke-miterlimit="10" points="164.875,73.948 203.648,115.531 
	229.427,86.186 225.082,35.28 184.158,3.475 150.57,1.262 114.392,11.427 86.139,30.361 48.35,69.708 16.731,128.36 1.297,193.16 
	22.999,260.849 164.761,73.538 "/>
<line fill="none" stroke="#50007E" stroke-width="2.5" stroke-miterlimit="10" x1="164.955" y1="73.948" x2="229.632" y2="86.186"/>
<line fill="none" stroke="#50007E" stroke-width="2.5" stroke-miterlimit="10" x1="225.082" y1="35.526" x2="164.955" y2="74.034"/>
<line fill="none" stroke="#50007E" stroke-width="2.5" stroke-miterlimit="10" x1="164.875" y1="74.034" x2="184.158" y2="3.68"/>
<line fill="none" stroke="#50007E" stroke-width="2.5" stroke-miterlimit="10" x1="164.832" y1="73.89" x2="150.57" y2="1.466"/>
<line fill="none" stroke="#50007E" stroke-width="2.5" stroke-miterlimit="10" x1="164.832" y1="74.034" x2="114.666" y2="11.427"/>
<line fill="none" stroke="#50007E" stroke-width="2.5" stroke-miterlimit="10" x1="164.955" y1="74.034" x2="86.385" y2="30.361"/>
<line fill="none" stroke="#50007E" stroke-width="2.5" stroke-miterlimit="10" x1="164.761" y1="73.948" x2="48.636" y2="69.708"/>
<line fill="none" stroke="#50007E" stroke-width="2.5" stroke-miterlimit="10" x1="164.716" y1="73.89" x2="16.79" y2="128.114"/>
<line fill="none" stroke="#50007E" stroke-width="2.5" stroke-miterlimit="10" x1="164.716" y1="74.034" x2="1.461" y2="193.16"/>
<polyline fill="none" stroke="#50007E" stroke-width="2.5" stroke-miterlimit="10" points="32.49,248.318 13.253,184.556 
	32.49,122.359 63.776,70.262 100.649,38.857 124.759,24.024 153.402,15.846 180.064,18.622 211.98,43.918 215.318,83.478 
	194.085,105.286 "/>
<g>
	<g enable-background="new    ">
		<path fill="#50007E" d="M447.986,252.549l2.732,2.733c-2.063,1.981-4.455,3.498-7.178,4.549s-5.605,1.576-8.648,1.576
			c-3.303,0-6.346-0.58-9.129-1.741c-2.782-1.161-5.205-2.798-7.266-4.91c-2.063-2.111-3.664-4.594-4.805-7.447
			c-1.143-2.853-1.713-5.96-1.713-9.323s0.57-6.472,1.713-9.324c1.141-2.854,2.742-5.335,4.805-7.447
			c2.061-2.112,4.483-3.749,7.266-4.91c2.783-1.161,5.826-1.742,9.129-1.742c3.064,0,5.951,0.526,8.664,1.577s5.1,2.567,7.162,4.55
			l-2.732,2.732c-1.563-1.622-3.494-2.878-5.796-3.769s-4.745-1.337-7.327-1.337c-3.584,0-6.781,0.852-9.594,2.553
			c-2.813,1.702-5.031,4.023-6.652,6.967s-2.432,6.286-2.432,10.029c0,3.784,0.82,7.168,2.462,10.15
			c1.642,2.983,3.884,5.335,6.727,7.057c2.843,1.723,6.065,2.583,9.669,2.583c2.543,0,4.94-0.445,7.192-1.337
			C444.488,255.427,446.404,254.171,447.986,252.549z"/>
		<path fill="#50007E" d="M455.523,260.507l17.598-45.044h4.474l17.598,45.044h-4.204l-4.715-12.042h-21.682l-4.714,12.042H455.523z
			 M472.88,227.204l-6.848,17.508h18.799l-6.847-17.508c-0.401-1.061-0.831-2.231-1.291-3.514c-0.461-1.28-0.892-2.582-1.292-3.903
			c-0.38,1.241-0.795,2.522-1.246,3.844C473.705,224.952,473.281,226.143,472.88,227.204z"/>
		<path fill="#50007E" d="M499.396,256.964l2.072-3.604c1.42,1.361,3.092,2.417,5.014,3.168c1.922,0.75,3.924,1.126,6.006,1.126
			c2.162,0,4.084-0.38,5.766-1.142c1.682-0.761,2.998-1.807,3.949-3.138s1.426-2.848,1.426-4.55c0-1.602-0.404-2.978-1.215-4.129
			c-0.812-1.15-1.893-2.157-3.244-3.018s-2.828-1.662-4.43-2.402s-3.203-1.502-4.805-2.282c-1.602-0.781-3.077-1.667-4.429-2.658
			c-1.351-0.99-2.433-2.166-3.243-3.528c-0.811-1.361-1.217-2.992-1.217-4.895c0-2.223,0.586-4.189,1.758-5.9
			c1.171-1.712,2.793-3.049,4.864-4.01c2.072-0.961,4.47-1.441,7.192-1.441c3.482,0,7.006,0.802,10.57,2.402l-1.652,3.454
			c-2.623-1.401-5.415-2.103-8.377-2.103c-3.023,0-5.496,0.696-7.418,2.087c-1.922,1.392-2.883,3.188-2.883,5.391
			c0,1.462,0.405,2.723,1.217,3.784c0.811,1.061,1.891,2.012,3.242,2.853s2.828,1.642,4.43,2.402s3.203,1.557,4.805,2.387
			c1.602,0.831,3.078,1.768,4.43,2.808c1.352,1.042,2.432,2.272,3.242,3.694c0.812,1.422,1.217,3.104,1.217,5.045
			c0,2.422-0.66,4.59-1.982,6.501c-1.32,1.912-3.128,3.414-5.42,4.505c-2.293,1.091-4.91,1.636-7.853,1.636
			C507.603,261.407,503.259,259.927,499.396,256.964z"/>
		<path fill="#50007E" d="M533.089,260.507l17.597-45.044h4.474l17.598,45.044h-4.203l-4.715-12.042h-21.682l-4.715,12.042H533.089z
			 M550.446,227.204l-6.847,17.508h18.799l-6.848-17.508c-0.4-1.061-0.83-2.231-1.291-3.514c-0.461-1.28-0.891-2.582-1.291-3.903
			c-0.381,1.241-0.796,2.522-1.246,3.844C551.271,224.952,550.846,226.143,550.446,227.204z"/>
		<path fill="#50007E" d="M571.106,272.428v-3.664c5.726-0.2,8.588-3.333,8.588-9.398v-43.903h4.054v44.233
			C583.747,268.183,579.533,272.428,571.106,272.428z"/>
		<path fill="#50007E" d="M594.558,240.777v-25.314h4.055v25.284c0,3.444,0.6,6.432,1.801,8.964c1.201,2.533,2.869,4.489,5,5.871
			c2.133,1.382,4.59,2.072,7.373,2.072c2.782,0,5.234-0.69,7.357-2.072c2.121-1.382,3.783-3.333,4.984-5.855
			s1.802-5.506,1.802-8.949v-25.314h4.054v25.314c0,4.245-0.735,7.913-2.207,11.006c-1.471,3.093-3.563,5.471-6.275,7.132
			c-2.713,1.662-5.951,2.492-9.715,2.492s-7.008-0.83-9.73-2.492c-2.723-1.661-4.818-4.039-6.291-7.132
			C595.294,248.69,594.558,245.022,594.558,240.777z"/>
		<path fill="#50007E" d="M637.591,260.507l17.597-45.044h4.474l17.598,45.044h-4.203l-4.715-12.042h-21.682l-4.715,12.042H637.591z
			 M654.948,227.204l-6.847,17.508H666.9l-6.848-17.508c-0.4-1.061-0.83-2.231-1.291-3.514c-0.461-1.28-0.891-2.582-1.291-3.903
			c-0.381,1.241-0.796,2.522-1.246,3.844C655.773,224.952,655.348,226.143,654.948,227.204z"/>
		<path fill="#50007E" d="M683.865,215.463h4.054l30.061,38.527v-38.527h4.053v45.044h-4.053l-30.061-38.527v38.527h-4.054V215.463z
			"/>
		<path fill="#50007E" d="M728.64,260.507l17.598-45.044h4.473l17.598,45.044h-4.203l-4.715-12.042h-21.682l-4.715,12.042H728.64z
			 M745.997,227.204l-6.848,17.508h18.799l-6.848-17.508c-0.4-1.061-0.83-2.231-1.291-3.514c-0.461-1.28-0.891-2.582-1.291-3.903
			c-0.381,1.241-0.795,2.522-1.246,3.844S746.396,226.143,745.997,227.204z"/>
	</g>
</g>
</svg>
