<?xml version="1.0" encoding="utf-8"?>
<!-- Generator: Adobe Illustrator 16.0.0, SVG Export Plug-In . SVG Version: 6.00 Build 0)  -->
<!DOCTYPE svg PUBLIC "-//W3C//DTD SVG 1.1//EN" "http://www.w3.org/Graphics/SVG/1.1/DTD/svg11.dtd">
<svg version="1.1" id="Layer_1" xmlns="http://www.w3.org/2000/svg" xmlns:xlink="http://www.w3.org/1999/xlink" x="0px" y="0px"
	 width="841.891px" height="595.281px" viewBox="0 0 841.891 595.281" enable-background="new 0 0 841.891 595.281"
	 xml:space="preserve">
<line opacity="0.15" fill="none" stroke="#50007E" stroke-width="2" stroke-miterlimit="10" x1="523.587" y1="560.931" x2="523.587" y2="181.621"/>
<polyline opacity="0.15" fill="none" stroke="#50007E" stroke-width="2" stroke-miterlimit="10" points="523.587,181.621 
	602.418,266.167 654.833,206.5 645.999,103 562.794,38.333 494.499,33.833 420.945,54.5 363.5,93 286.667,173 222.382,292.25 
	191,424 235.125,561.625 523.359,180.786 "/>
<line opacity="0.15" fill="none" stroke="#50007E" stroke-width="2" stroke-miterlimit="10" x1="523.749" y1="181.621" x2="655.249" y2="206.5"/>
<line opacity="0.15" fill="none" stroke="#50007E" stroke-width="2" stroke-miterlimit="10" x1="645.999" y1="103.5" x2="523.749" y2="181.797"/>
<line opacity="0.15" fill="none" stroke="#50007E" stroke-width="2" stroke-miterlimit="10" x1="523.587" y1="181.797" x2="562.794" y2="38.75"/>
<line opacity="0.15" fill="none" stroke="#50007E" stroke-width="2" stroke-miterlimit="10" x1="523.499" y1="181.5" x2="494.499" y2="34.25"/>
<line opacity="0.15" fill="none" stroke="#50007E" stroke-width="2" stroke-miterlimit="10" x1="523.499" y1="181.797" x2="421.5" y2="54.5"/>
<line opacity="0.15" fill="none" stroke="#50007E" stroke-width="2" stroke-miterlimit="10" x1="523.749" y1="181.797" x2="364" y2="93"/>
<line opacity="0.15" fill="none" stroke="#50007E" stroke-width="2" stroke-miterlimit="10" x1="523.359" y1="181.621" x2="287.25" y2="173"/>
<line opacity="0.15" fill="none" stroke="#50007E" stroke-width="2" stroke-miterlimit="10" x1="523.262" y1="181.5" x2="222.5" y2="291.75"/>
<line opacity="0.15" fill="none" stroke="#50007E" stroke-width="2" stroke-miterlimit="10" x1="523.262" y1="181.797" x2="191.334" y2="424"/>
<polyline opacity="0.15" fill="none" stroke="#50007E" stroke-width="2" stroke-miterlimit="10" points="254.424,536.148 
	215.309,406.505 254.424,280.048 318.033,174.124 393.001,110.273 442.025,80.116 500.258,63.483 554.467,69.131 619.358,120.563 
	626.146,200.994 582.975,245.338 "/>
<g id="Layer_2" opacity="0.15">
</g>
</svg>
